<?xml version="1.0" encoding="UTF-8"?>
<svg id="Layer_2" data-name="Layer 2" xmlns="http://www.w3.org/2000/svg" xmlns:xlink="http://www.w3.org/1999/xlink" viewBox="0 0 32 32">
  <defs>
    <style>
      .cls-1 {
        mask: url(#mask);
      }

      .cls-2 {
        fill: url(#linear-gradient);
      }

      .cls-2, .cls-3, .cls-4, .cls-5, .cls-6, .cls-7, .cls-8, .cls-9 {
        stroke-width: 0px;
      }

      .cls-3 {
        fill: url(#linear-gradient-4);
      }

      .cls-4 {
        fill: url(#linear-gradient-2);
      }

      .cls-5 {
        fill: url(#linear-gradient-3);
      }

      .cls-6 {
        fill: url(#linear-gradient-5);
      }

      .cls-8 {
        fill: #fff;
      }

      .cls-9 {
        fill: #001d6c;
      }
    </style>
    <linearGradient id="linear-gradient" x1="1567.5" y1="940" x2="1567.5" y2="926" gradientTransform="translate(-1564 -917.99)" gradientUnits="userSpaceOnUse">
      <stop offset=".2" stop-color="#000"/>
      <stop offset=".95" stop-color="#000" stop-opacity="0"/>
    </linearGradient>
    <linearGradient id="linear-gradient-2" x1="622.64" y1="647.45" x2="622.64" y2="636.45" gradientTransform="translate(-1159.24 -875.01) scale(1.9 1.4)" xlink:href="#linear-gradient"/>
    <linearGradient id="linear-gradient-3" x1="1115.13" y1="-29.08" x2="1115.13" y2="-36.08" gradientTransform="translate(-963.3 68.09) scale(.88 1.47)" gradientUnits="userSpaceOnUse">
      <stop offset=".3" stop-color="#000"/>
      <stop offset="1" stop-color="#000" stop-opacity="0"/>
    </linearGradient>
    <linearGradient id="linear-gradient-4" x1="750.31" y1="1910.58" x2="750.31" y2="1880.51" gradientTransform="translate(-1481.19 -747.29) scale(1.99 .4)" gradientUnits="userSpaceOnUse">
      <stop offset=".28" stop-color="#000"/>
      <stop offset=".95" stop-color="#000" stop-opacity="0"/>
    </linearGradient>
    <mask id="mask" x="0" y="0" width="32" height="32" maskUnits="userSpaceOnUse">
      <g>
        <path class="cls-8" d="M16,30v-2c6.62,0,12-5.38,12-12s-5.38-12-12-12c-1.06,0-2.1.14-3.11.41l-.52-1.93c1.18-.31,2.4-.47,3.62-.47,7.72,0,14,6.28,14,14s-6.28,14-14,14Z"/>
        <path class="cls-8" d="M16,25c-4.96,0-9-4.04-9-9,0-.81.11-1.61.32-2.38l1.93.53c-.17.6-.25,1.23-.25,1.85,0,3.86,3.14,7,7,7v2Z"/>
        <path class="cls-8" d="M9,28.12c-3.24-1.87-5.55-4.89-6.52-8.5-.97-3.61-.47-7.38,1.4-10.62l1.73,1c-3.31,5.73-1.34,13.08,4.39,16.39l-1,1.73Z"/>
        <rect class="cls-2" x="1" y="8" width="5" height="14" transform="translate(7 30.01) rotate(180)"/>
        <rect class="cls-4" x="18.02" y="16.18" width="9.49" height="15.4" transform="translate(32.07 -7.78) rotate(60)"/>
        <rect class="cls-5" x="8.53" y="15.03" width="8.31" height="10.29" transform="translate(-11.13 21.08) rotate(-60)"/>
        <path class="cls-8" d="M22.36,22.37l-1.41-1.41c2.73-2.73,2.73-7.17,0-9.9-2.73-2.73-7.17-2.73-9.9,0l-1.41-1.41c3.51-3.51,9.22-3.51,12.73,0,3.51,3.51,3.51,9.22,0,12.73Z"/>
        <rect class="cls-3" x="12" y="3" width="6" height="12" transform="translate(24 -6) rotate(90)"/>
        <rect class="cls-7" x="14" y="27" width="4" height="4"/>
      </g>
    </mask>
    <linearGradient id="linear-gradient-5" x1="0" y1="32" x2="32" y2="0" gradientUnits="userSpaceOnUse">
      <stop offset=".1" stop-color="#08bdba"/>
      <stop offset=".9" stop-color="#0f62fe"/>
    </linearGradient>
  </defs>
  <g id="Light_theme_icons" data-name="Light theme icons">
    <g>
      <g class="cls-1">
        <rect class="cls-6" width="32" height="32"/>
      </g>
      <path class="cls-9" d="M20,16c0-2.21-1.79-4-4-4-.74,0-1.42.22-2.02.57l-5.05-5.05c.04-.16.07-.34.07-.52,0-1.12-.88-2-2-2s-2,.88-2,2,.88,2,2,2c.18,0,.35-.03.51-.07l5.05,5.05c-.35.59-.57,1.28-.57,2.02,0,1.86,1.28,3.41,3,3.86v7.41c-.6.34-1,.98-1,1.73,0,1.12.88,2,2,2s2-.88,2-2c0-.75-.4-1.39-1-1.73v-7.41c1.72-.45,3-2,3-3.86ZM14,16c0-1.1.9-2,2-2s2,.9,2,2-.9,2-2,2-2-.9-2-2Z"/>
    </g>
  </g>
</svg>