<?xml version="1.0" encoding="UTF-8"?>
<svg id="Build_icon_here" data-name="Build icon here" xmlns="http://www.w3.org/2000/svg" width="32" height="32" xmlns:xlink="http://www.w3.org/1999/xlink" viewBox="0 0 32 32">
  <defs>
    <style>
      .cls-1 {
        fill: url(#linear-gradient);
      }

      .cls-2 {
        mask: url(#mask);
      }

      .cls-3 {
        fill: #001d6c;
      }

      .cls-4 {
        fill: #fff;
      }

      .cls-5 {
        fill: url(#linear-gradient-3);
      }

      .cls-6 {
        fill: url(#linear-gradient-4);
      }

      .cls-7 {
        fill: url(#linear-gradient-2);
      }
    </style>
    <linearGradient id="linear-gradient" x1="6380.9494" y1="-7747.6549" x2="6380.9342" y2="-7764.5357" gradientTransform="translate(-3648.8365 -8728.9221) rotate(115.0569) scale(1 .9054)" gradientUnits="userSpaceOnUse">
      <stop offset=".1" stop-color="#000" stop-opacity="0"/>
      <stop offset=".58" stop-color="#000"/>
    </linearGradient>
    <linearGradient id="linear-gradient-2" x1="1186.5258" y1="2863.1688" x2="1199.8252" y2="2845.1094" gradientTransform="translate(-198.8939 -1827.3976) rotate(33.7767) scale(1 .4926)" gradientUnits="userSpaceOnUse">
      <stop offset=".3" stop-color="#000"/>
      <stop offset="1" stop-color="#000" stop-opacity="0"/>
    </linearGradient>
    <linearGradient id="linear-gradient-3" x1="-4995.0325" y1="-20162.836" x2="-4981.7331" y2="-20180.8954" gradientTransform="translate(1398.1985 -11004.6024) rotate(-146.2233) scale(1 .4926)" gradientUnits="userSpaceOnUse">
      <stop offset=".32" stop-color="#000"/>
      <stop offset=".3541" stop-color="#000" stop-opacity=".7975"/>
      <stop offset=".7" stop-color="#000" stop-opacity="0"/>
    </linearGradient>
    <mask id="mask" x="0" y="0" width="32" height="32" maskUnits="userSpaceOnUse">
      <g>
        <path class="cls-4" d="m16,1c-3.9492,0-7.6777,1.522-10.498,4.2856l1.4004,1.4287c2.4443-2.3955,5.6748-3.7144,9.0977-3.7144.9772,0,1.9291.1094,2.8453.3148-3.402.9207-5.9156,4.0259-5.9156,7.715,0,.7823.1179,1.5368.3282,2.252-.6964-.1985-1.4284-.3116-2.1876-.3116-3.7041,0-6.8193,2.5339-7.7257,5.9568-.218-.9424-.3446-1.9193-.3446-2.9271,0-2.1167.4922-4.1338,1.4619-5.9956l-1.7734-.9238c-1.1045,2.1196-1.6885,4.5122-1.6885,6.9194,0,8.2715,6.7285,15,15,15,3.9492,0,7.6777-1.5225,10.498-4.2861l-1.4004-1.4277c-2.4443,2.3945-5.6748,3.7139-9.0977,3.7139-3.6483,0-6.9453-1.5158-9.3086-3.9446-1.0404-1.114-1.6211-2.5552-1.6211-4.0856,0-3.3086,2.6914-5.9995,6-5.9995s6,2.6909,6,5.9995c0,.3721-.0342.7451-.1025,1.1074l1.9668.3672c.0898-.4834.1357-.9795.1357-1.4746,0-.782-.1178-1.5361-.328-2.251.6963.1985,1.4283.3116,2.1874.3116,3.71,0,6.8292-2.5424,7.7299-5.9741.2201.9467.3404,1.9311.3404,2.9438,0,2.1172-.4922,4.1338-1.4619,5.9951l1.7734.9238c1.1045-2.1191,1.6885-4.5117,1.6885-6.9189,0-8.271-6.7285-15-15-15Zm4.9297,16.0303c-3.3086,0-6-2.6919-6-6.0005s2.6914-6,6-6,6,2.6914,6,6-2.6914,6.0005-6,6.0005Z"/>
        <polygon class="cls-1" points="1 28 6 20 19 23 16 32 1 28"/>
        <polygon class="cls-7" points="8 9 0 0 16 0 18.3046 3.3046 8 9"/>
        <polygon class="cls-5" points="24 23 32 32 16 32 13.6954 28.6954 24 23"/>
      </g>
    </mask>
    <linearGradient id="linear-gradient-4" x1="0" y1="32" x2="32" y2="0" gradientUnits="userSpaceOnUse">
      <stop offset=".1" stop-color="#a16eff"/>
      <stop offset=".9" stop-color="#0f62fa"/>
    </linearGradient>
  </defs>
  <g class="cls-2">
    <rect class="cls-6" y="0" width="32" height="32"/>
  </g>
  <circle class="cls-3" cx="6" cy="6" r="2"/>
  <circle class="cls-3" cx="26" cy="26" r="2"/>
  <path class="cls-3" d="m16,31c-2.7568,0-5-2.2432-5-5s2.2432-5,5-5,5,2.2432,5,5-2.2432,5-5,5Zm0-8c-1.6543,0-3,1.3457-3,3s1.3457,3,3,3,3-1.3457,3-3-1.3457-3-3-3Z"/>
</svg>