<?xml version="1.0" encoding="UTF-8"?>
<!DOCTYPE svg PUBLIC "-//W3C//DTD SVG 1.1//EN" "http://www.w3.org/Graphics/SVG/1.1/DTD/svg11.dtd">
<!-- Creator: CorelDRAW -->
<svg xmlns="http://www.w3.org/2000/svg" xml:space="preserve" width="31.1997mm" height="31.2905mm" style="shape-rendering:geometricPrecision; text-rendering:geometricPrecision; image-rendering:optimizeQuality; fill-rule:evenodd; clip-rule:evenodd"
viewBox="0 0 25.446 25.5201"
 xmlns:xlink="http://www.w3.org/1999/xlink">
 <defs>
  <style type="text/css">
   <![CDATA[
    .fil0 {fill:black}
   ]]>
  </style>
 </defs>
 <g id="Layer_x0020_1">
  <metadata id="CorelCorpID_0Corel-Layer"/>
  <path class="fil0" d="M14.438 1.20959c5.07465,0.747565 9.08798,4.76065 9.8353,9.83538 -0.110104,-0.0217761 -0.22396,-0.0332759 -0.340588,-0.0332759 -0.142727,0 -0.281621,0.0172088 -0.41448,0.049506 -0.729785,-4.67354 -4.423,-8.36659 -9.09662,-9.09638 0.0323787,-0.132859 0.0497507,-0.271671 0.0497507,-0.414562 0,-0.116465 -0.0115813,-0.230403 -0.0333574,-0.34067zm-1.71509 5.62419c-0.403143,-0.000244675 -0.729867,-0.327049 -0.729948,-0.730438 -0.000244675,-0.403143 0.326723,-0.730111 0.73003,-0.729948 0.403388,-0.000163117 0.730274,0.326805 0.730111,0.729948 -0.000163117,0.403388 -0.326968,0.730193 -0.730193,0.730438zm8.15585e-005 13.313c-0.40347,8.15585e-005 -0.730193,-0.326723 -0.73003,-0.730111 0,-0.403388 0.327049,-0.73003 0.73003,-0.73003 0.40298,0 0.730111,0.326642 0.730111,0.73003 0,0.403388 -0.326723,0.730193 -0.730111,0.730111zm4.96715 -11.2107l0 3.64053 0.789486 0 0.276728 0c0.0873491,-0.530701 0.548399,-0.935476 1.10398,-0.935639 0.617724,-8.15585e-005 1.1189,0.501177 1.1189,1.11898 0.000244675,0.617805 -0.501177,1.11915 -1.1189,1.11906 -0.555576,0 -1.01638,-0.405019 -1.10389,-0.935557l-0.276809 0 -0.789486 0 8.15585e-005 3.64036c0.142972,0.0420026 0.27787,0.119402 0.390665,0.232197 0.303561,0.303234 0.350946,0.765589 0.142238,1.11866l0.293284 0.293284c0.496691,-0.343443 1.18309,-0.2941 1.62538,0.148192 0.497833,0.497751 0.497833,1.30494 0,1.80269 -0.497833,0.497833 -1.3051,0.497751 -1.80277,0 -0.44221,-0.442292 -0.491553,-1.12869 -0.148029,-1.62538l-0.293284 -0.293284c-0.353067,0.208708 -0.815503,0.161323 -1.11866,-0.142156 -0.112795,-0.112877 -0.190276,-0.247856 -0.232278,-0.390991l-3.5898 0 0 0.798947c-0.074626,-0.019574 -0.153004,-0.029932 -0.233991,-0.029932 -0.080906,0 -0.159202,0.0104395 -0.23391,0.029932l0 -0.798947 -3.58971 0c-0.0420026,0.143135 -0.119483,0.278114 -0.232278,0.390991 -0.281458,0.28154 -0.699772,0.342546 -1.04077,0.183262l-0.324766 0.324684c0.291327,0.489269 0.226406,1.13179 -0.19468,1.55304 -0.497751,0.49767 -1.30485,0.49767 -1.80261,0 -0.497914,-0.497833 -0.497914,-1.3051 -8.15585e-005,-1.80285 0.421086,-0.421168 1.06369,-0.486088 1.55295,-0.19468l0.324603 -0.324603c-0.159447,-0.340996 -0.0984411,-0.759391 0.183343,-1.04085 0.112795,-0.112795 0.247775,-0.190276 0.390828,-0.232278l0 -3.6402 -1.06597 0c-0.0877569,0.530456 -0.548644,0.935476 -1.1043,0.935476 -0.617724,8.15585e-005 -1.11898,-0.501095 -1.11898,-1.1189 0,-0.618132 0.501258,-1.11931 1.11906,-1.11915 0.555576,0.000163117 1.01663,0.404938 1.1043,0.935476l1.06589 8.15585e-005 0 -3.64036c-0.143054,-0.0420026 -0.278033,-0.119238 -0.390828,-0.232115 -0.303561,-0.303234 -0.350865,-0.765508 -0.14232,-1.11857l-0.293284 -0.293284c-0.496773,0.343443 -1.18292,0.2941 -1.62522,-0.148192 -0.497751,-0.497833 -0.497914,-1.30485 -8.15585e-005,-1.80277 0.497996,-0.497751 1.30502,-0.497751 1.80269,0 0.442373,0.442292 0.491798,1.12852 0.148273,1.62538l0.293203 0.293121c0.353148,-0.208627 0.815421,-0.16116 1.11874,0.142401 0.112795,0.112877 0.190194,0.247693 0.232197,0.390665l3.5898 0 0 -0.798865c0.0747076,0.0196556 0.153004,0.0302582 0.233828,0.0302582 0.0810691,0 0.159447,-0.0106026 0.234073,-0.0302582l0 0.798865 3.5898 -8.15585e-005c0.0420026,-0.142972 0.119483,-0.277707 0.232278,-0.390583 0.281458,-0.281784 0.700016,-0.342872 1.04101,-0.183262l0.324358 -0.324358c-0.291571,-0.489432 -0.226733,-1.13203 0.194598,-1.55328 0.49767,-0.497751 1.30477,-0.497751 1.80277,0 0.497833,0.497914 0.49767,1.30502 0,1.80285 -0.421331,0.421168 -1.06393,0.485844 -1.55328,0.194517l-0.32444 0.32444c0.15961,0.340996 0.0985226,0.759554 -0.18318,1.04101 -0.112795,0.112795 -0.247775,0.190031 -0.390747,0.232034zm-0.317589 0.0355595l0 3.60497 -1.7553 0 -0.702545 0 8.15585e-005 0.36685 0.702626 0 1.75514 0 0 3.60464c-0.142646,0.00880831 -0.283497,0.0508109 -0.410321,0.125682l-2.13186 -2.13194 -0.0330312 0.0330312 -0.394661 -0.394743 -0.259519 0.259519 0.394825 0.394743 -0.0331127 0.0331127 2.13194 2.13178c-0.0748707,0.126742 -0.116792,0.267593 -0.125682,0.410158l-3.55415 0 0 -2.78302c0.133756,-0.0166379 0.263271,-0.0473855 0.38675,-0.0905299l0.430139 1.06222c-0.217272,0.11304 -0.319301,0.373619 -0.228445,0.60655 0.0973808,0.249977 0.378921,0.373212 0.62849,0.275912 0.249324,-0.096973 0.372722,-0.378268 0.275831,-0.628163 -0.0811507,-0.207648 -0.289125,-0.327865 -0.500443,-0.306741l-0.436582 -1.07828c0.407466,-0.188726 0.735902,-0.518956 0.922426,-0.927646l1.06907 0.425164c-0.0492613,0.227385 0.0703034,0.463741 0.293203,0.553293 0.248753,0.0999091 0.531353,-0.0210421 0.631344,-0.269551 0.0999907,-0.248264 -0.0207158,-0.530946 -0.269388,-0.630936 -0.216211,-0.0868598 -0.457951,-0.00693247 -0.583143,0.178531l-1.07331 -0.426795c0.0654914,-0.191173 0.101051,-0.396129 0.101051,-0.609486 0,-0.24647 -0.047467,-0.482011 -0.133593,-0.697814l1.05243 -0.481276c0.13604,0.173475 0.377779,0.237824 0.586324,0.141015 0.243126,-0.113122 0.348418,-0.40192 0.235541,-0.64472 -0.112388,-0.242881 -0.401105,-0.348336 -0.644475,-0.235541 -0.220126,0.102356 -0.327376,0.34907 -0.261558,0.57515l-1.04485 0.477933c-0.0405346,-0.078133 -0.086452,-0.153004 -0.1371,-0.224204l2.78326 -2.78326c0.105537,0.0492613 0.218495,0.077399 0.332595,0.084413zm-4.88348 8.43779l-3.55407 0c-0.00709559,-0.114019 -0.0353148,-0.226814 -0.0845761,-0.332351l2.78351 -2.78367c0.0747076,0.0530946 0.153493,0.100806 0.235704,0.142727l-0.488943 1.08685c-0.185301,0.00611688 -0.358694,0.118586 -0.433483,0.301359 -0.101132,0.248182 0.0176982,0.531435 0.265636,0.632812 0.248019,0.101377 0.53119,-0.0177797 0.632731,-0.265636 0.101377,-0.248264 -0.0178613,-0.531435 -0.265473,-0.632649 -0.00473039,-0.00187584 -0.00929766,-0.00383325 -0.0140281,-0.00554598l0.468961 -1.04248c0.143543,0.05652 0.295731,0.0959128 0.454036,0.115568l0 2.78302zm-4.41558 -0.86142l0 -3.60448 2.45776 -8.15585e-005 0 -0.36685 -2.45776 -8.15585e-005 0 -3.6048c0.142564,-0.00880831 0.283416,-0.0505662 0.410158,-0.125355l2.1321 2.13202 0.0330312 -0.0330312 0.394825 0.394825 0.259437 -0.259519 -0.394743 -0.394825 0.0330312 -0.0330312 -2.13202 -2.1321c0.0747891,-0.126742 0.11671,-0.267756 0.1256,-0.410239l3.55415 0 0 2.78286c-0.133919,0.0166379 -0.263352,0.0473039 -0.386995,0.0904483l-0.430058 -1.06205c0.217435,-0.112795 0.319383,-0.373293 0.228445,-0.606632 -0.0974624,-0.249732 -0.378921,-0.373456 -0.628408,-0.275749 -0.249487,0.0971361 -0.372885,0.378431 -0.275749,0.628326 0.0811507,0.20724 0.288962,0.327376 0.499872,0.306415l0.436746 1.07828c-0.407303,0.188889 -0.73582,0.519364 -0.922263,0.928054l-1.06907 -0.425164c0.0497507,-0.227385 -0.0698956,-0.463741 -0.29304,-0.553456 -0.248835,-0.0999091 -0.531598,0.0207158 -0.631344,0.269469 -0.0999091,0.248427 0.020879,0.530782 0.269388,0.630855 0.21613,0.0866151 0.457625,0.00701403 0.582817,-0.178205l1.07339 0.426959c-0.0653283,0.19101 -0.101051,0.395966 -0.101051,0.609079 0,0.246633 0.0476301,0.482092 0.134001,0.697896l-1.05227 0.481113c-0.135876,-0.17372 -0.37786,-0.237824 -0.586487,-0.14077 -0.243207,0.112795 -0.348826,0.401594 -0.235704,0.644557 0.112632,0.242881 0.401186,0.34801 0.644393,0.235378 0.220045,-0.102519 0.327376,-0.348826 0.261884,-0.574742l1.04501 -0.478014c0.0405346,0.0779699 0.0862889,0.152841 0.136937,0.22396l-2.78343 2.78335c-0.105618,-0.0493429 -0.218577,-0.0775621 -0.332595,-0.0846577zm4.88348 -8.43755l3.55415 0c0.00709559,0.114019 0.0353964,0.227059 0.0847392,0.332595l-2.78335 2.78326c-0.074626,-0.0531761 -0.15333,-0.101132 -0.235541,-0.143054l0.488698 -1.08652c0.185138,-0.00619844 0.358368,-0.118504 0.432994,-0.301032 0.101132,-0.248182 -0.0177797,-0.531761 -0.265717,-0.632812 -0.247938,-0.101377 -0.531109,0.0176982 -0.632649,0.265636 -0.101132,0.248264 0.0179429,0.531272 0.265717,0.632404l0.0141096 0.00546442 -0.46888 1.04232c-0.143624,-0.0564385 -0.295894,-0.0958312 -0.454281,-0.115405l0 -2.78286zm1.06417 -5.7126l3.76131 3.76123c-0.0588037,0.0396374 -0.114508,0.0854733 -0.166542,0.137426 -0.076665,0.0767465 -0.139791,0.161649 -0.189379,0.252179l-3.76466 -3.76474c-0.260579,0.198595 -0.585998,0.316692 -0.938901,0.316692 -0.352822,0 -0.678077,-0.118178 -0.938738,-0.316855l-3.76482 3.7649c-0.049506,-0.0904483 -0.112632,-0.175432 -0.189216,-0.252179 -0.0520343,-0.0519527 -0.10782,-0.097707 -0.166705,-0.137263l3.76148 -3.76148c-0.159528,-0.243534 -0.252342,-0.534697 -0.252342,-0.847556 0,-0.855874 0.694307,-1.55026 1.55034,-1.55026 0.856201,0 1.55043,0.694389 1.55043,1.55026 0,0.31294 -0.0928135,0.604022 -0.25226,0.847637zm5.3026 5.30252l3.78806 3.78815c0.23652,-0.153004 0.518386,-0.241739 0.820886,-0.241739 0.83573,0 1.51332,0.677506 1.51332,1.51315 0,0.83573 -0.677588,1.5134 -1.51332,1.5134 -0.302582,0 -0.584529,-0.0889803 -0.820967,-0.242066l-3.78815 3.78815c-0.0394743,-0.0586405 -0.0850655,-0.114427 -0.1371,-0.166461 -0.076665,-0.0767465 -0.161894,-0.139791 -0.252505,-0.189379l3.79141 -3.79125c-0.191989,-0.253728 -0.306007,-0.569686 -0.306007,-0.912395 0,-0.342627 0.114019,-0.658748 0.306007,-0.912476l-3.79133 -3.79133c0.0906115,-0.0494244 0.175758,-0.112306 0.252423,-0.188971 0.0520343,-0.0521159 0.0976255,-0.107983 0.137263,-0.166787zm-1.54129 11.6603l-3.76115 3.76123c0.159365,0.243615 0.252097,0.534779 0.252097,0.847637 0,0.856282 -0.694144,1.55043 -1.55043,1.55043 -0.856119,0 -1.55034,-0.694144 -1.55034,-1.55043 0,-0.312858 0.0928951,-0.604022 0.25226,-0.847637l-3.76131 -3.76123c0.0588037,-0.0396374 0.11459,-0.0853102 0.166624,-0.1371 0.0765834,-0.076665 0.139628,-0.161975 0.189216,-0.252505l3.76482 3.76482c0.260579,-0.198595 0.585834,-0.316528 0.938738,-0.316528 0.352903,0 0.678322,0.117852 0.938901,0.316447l3.76466 -3.76474c0.0495875,0.0905299 0.112714,0.17584 0.189379,0.252505 0.0520343,0.0520343 0.107739,0.0976255 0.166542,0.1371zm-11.6601 -1.54129l-3.78815 -3.78815c-0.236438,0.152922 -0.518386,0.241902 -0.820886,0.241902 -0.835566,0 -1.51332,-0.677588 -1.51332,-1.51324 0,-0.835566 0.677751,-1.51315 1.51332,-1.51315 0.3025,0 0.584448,0.0888172 0.820967,0.241739l3.78806 -3.78806c0.0395559,0.0587221 0.0850655,0.11459 0.1371,0.166705 0.0765834,0.076665 0.161812,0.139547 0.252342,0.188971l-3.79116 3.79133c0.19207,0.253728 0.306007,0.569849 0.306007,0.912476 0,0.342627 -0.113937,0.658666 -0.306007,0.912313l3.79133 3.79133c-0.090693,0.0495875 -0.175922,0.112632 -0.252505,0.189379 -0.0519527,0.0520343 -0.0975439,0.107739 -0.1371,0.166461zm16.1191 -5.24282l0 0.36685 -0.859055 0c0.00758494,-0.0601901 0.0114997,-0.121277 0.0114997,-0.183507 0,-0.062066 -0.00399636,-0.123235 -0.0114997,-0.183343l0.859055 0zm-18.1069 0.367013l-0.92993 0 0 -0.367176 0.92993 0m-0.00815585 0.0846577l0 0.000652468 -0.000163117 0.00285455 -0.000407792 0.00579065 -0.000163117 0.00285455 -0.000978702 0.0170457 0 0.000244675 0 0.00269143 -0.000244675 0.00301766 0 0.00285455 -0.000652468 0.0172904 -0.000244675 0.0029361 0 0.00285455 0 8.15585e-005 0 0.00138649 -0.000489351 0.030666 0 0.00285455 -8.15585e-005 0.0029361 8.15585e-005 0.00570909 0 0.00285455 8.15585e-005 0.00587221 0 0 0 0.0029361 0.000326234 0.0144358 0 8.15585e-005 0 0.00285455 0 0.00146805 8.15585e-005 0.00358857 0 0.000734026 0.000244675 0.00301766 0 0 0.000652468 0.0171273 0 0.00285455 0.000244675 0.0029361 0 0.0029361 0 0 0.000978702 0.0172904 0.000163117 0.0029361 0.000407792 0.00562753 0.000163117 0.00301766 0 0.000407792c0.0019574,0.0285455 0.00448572,0.0566831 0.00815585,0.0846577l0 0.000163117m8.35452 -9.37678l0.467901 0 0 1.64585c-0.074626,-0.0196556 -0.153004,-0.0298504 -0.233991,-0.0298504 -0.080906,0 -0.159202,0.0101948 -0.23391,0.0298504l0 -1.64585zm0.467901 16.7402l0 1.64601 -0.467901 0 0 -1.64593c0.0747076,0.0196556 0.153004,0.0301766 0.23391,0.0301766 0.0809876,0 0.159365,-0.010521 0.233991,-0.0302582zm-1.93245 -18.3423c-4.67354,0.729785 -8.36684,4.42283 -9.09662,9.09638 -0.132777,-0.0322972 -0.271753,-0.049506 -0.414562,-0.049506 -0.116547,0 -0.230484,0.0114997 -0.340507,0.0332759 0.747239,-5.07473 4.76057,-9.08781 9.83522,-9.83538 -0.0216946,0.110267 -0.0332759,0.224204 -0.0332759,0.34067 0,0.14289 0.017372,0.281703 0.0497507,0.414562zm13.2488 12.5101c-0.74732,5.07481 -4.76065,9.08781 -9.8353,9.83538 0.0217761,-0.110185 0.0333574,-0.22396 0.0333574,-0.34067 0,-0.14289 -0.017372,-0.281784 -0.0497507,-0.414643 4.67346,-0.729948 8.36651,-4.42275 9.09654,-9.09638 0.132859,0.0323787 0.271834,0.0498322 0.414562,0.0498322 0.116629,0 0.230403,-0.0116629 0.340588,-0.0335205zm-13.2652 9.83538c-5.07465,-0.747565 -9.0879,-4.76057 -9.83522,-9.83538 0.110185,0.0218577 0.22396,0.0335205 0.340507,0.0335205 0.142809,0 0.281784,-0.0174535 0.414643,-0.0498322 0.729948,4.67354 4.423,8.36643 9.09654,9.09638 -0.0323787,0.132859 -0.0497507,0.271753 -0.0497507,0.414643 0,0.11671 0.0115813,0.230484 0.0332759,0.34067z"/>
 </g>
</svg>
