<?xml version="1.0" encoding="UTF-8"?>
<svg xmlns="http://www.w3.org/2000/svg" version="1.1" viewBox="0 0 800 800">
  <defs>
    <style>
      .cls-1 {
        fill: #412496;
      }

      .cls-2 {
        fill: #fff;
      }

      .cls-3 {
        fill: #48b749;
      }
    </style>
  </defs>
  <!-- Generator: Adobe Illustrator 28.7.6, SVG Export Plug-In . SVG Version: 1.2.0 Build 188)  -->
  <g>
    <g id="Layer_1">
      <rect class="cls-3" x=".1" y=".6" width="799" height="798.7" rx="91.2" ry="91.2"/>
      <g>
        <g id="AiR">
          <path id="Combined-Shape" class="cls-2" d="M575,686.9h-24.3l12.1-31.1,12.1,31.1ZM580.8,702.6l9,21.5c1.3,3.1,4.1,5.6,8,5.6s8.4-3.9,8.4-8.4-.1-2.1-.6-3.1l-35-85.2c-.9-2.1-3.3-5.3-7.8-5.3s-7,3.3-7.8,5.3l-35,85.2c-.4,1-.6,2.2-.6,3.1,0,4.6,3.9,8.4,8.4,8.4s6.7-2.5,8-5.6l9-21.5h35.8ZM633.2,668.1c0-4.4-3.6-8-8-8s-8,3.6-8,8v53.6c0,4.4,3.6,8,8,8s8-3.6,8-8v-53.6ZM625.2,652.1c6.2,0,9.6-3.6,9.6-9.3s-3.4-9.8-9.6-9.8-9.5,3-9.5,9.8,3.4,9.3,9.5,9.3ZM676.3,690.3l27,36.3c1.5,1.9,4.1,3.1,6.7,3.1,4.7,0,8.6-3.9,8.6-8.6s-.4-3.4-1.8-5.2l-21.9-26.7c14.2-1.8,22.8-15.4,22.8-29.5s-11.3-31-31.2-31h-28.3c-4.7,0-8.6,3.9-8.6,8.6v83.7c0,4.7,3.9,8.6,8.6,8.6s8.6-3.9,8.6-8.6v-30.8h9.6ZM686.3,644.2c9.6,0,13.6,7.6,13.6,15.6s-4,15.4-13.2,15.4h-20v-31h19.5Z"/>
        </g>
        <g id="Group-6-Copy-9">
          <path id="Shape" class="cls-2" d="M335.9,496c0-7.1-5.8-12.9-13-12.9s-9.8,3.2-11.9,7.7c-8.4-4.9-18.2-7.7-28.6-7.7-31.4,0-57,25.4-57,56.7s25.6,56.7,57,56.7,20.2-2.8,28.6-7.7c2,4.5,6.6,7.7,11.9,7.7s13-5.8,13-12.9v-87.6ZM282.5,570.7c-17.1,0-31-13.8-31-30.9s13.9-30.9,31-30.9,22.3,6.7,27.5,16.6v28.6c-5.2,9.8-15.5,16.6-27.5,16.6h0Z"/>
          <path id="Path" class="cls-2" d="M703.7,596.5c-7,0-12.7-5.8-12.7-12.9v-87.6c0-7.1,5.7-12.9,12.7-12.9s12.7,5.8,12.7,12.9v87.6c0,7.1-5.7,12.9-12.7,12.9Z"/>
          <path id="Shape-2" data-name="Shape" class="cls-2" d="M552.3,496c0-7.1-5.8-12.9-13-12.9s-9.8,3.2-11.9,7.7c-8.4-4.9-18.2-7.7-28.6-7.7-31.4,0-57,25.4-57,56.7s25.6,56.7,57,56.7,20.2-2.8,28.6-7.7c2,4.5,6.6,7.7,11.9,7.7s13-5.8,13-12.9v-87.6ZM498.8,570.7c-17.1,0-31-13.8-31-30.9s13.9-30.9,31-30.9,22.3,6.7,27.5,16.6v28.6c-5.2,9.8-15.5,16.6-27.5,16.6h0Z"/>
          <path id="Shape-3" data-name="Shape" class="cls-2" d="M619.2,485.3c-10,0-19.3,2.5-27.5,6.9v-41.2c0-7-5.8-12.7-13-12.7s-13,5.7-13,12.7v132.8c0,7,5.8,12.7,13,12.7s9.8-3.1,11.9-7.5c8.4,4.8,18.2,7.5,28.6,7.5,31.4,0,57-24.9,57-55.6s-25.6-55.6-57-55.6ZM619.2,571.2c-11.9,0-22.3-6.6-27.5-16.3v-28.1c5.2-9.7,15.5-16.3,27.5-16.3,17.1,0,31,13.6,31,30.3s-13.9,30.3-31,30.3h0Z"/>
          <circle id="Oval" class="cls-2" cx="704.5" cy="450.3" r="16.4"/>
          <path id="Path-2" data-name="Path" class="cls-2" d="M214.1,484.1c-6.2-2.6-13.6,0-16.9,5.8-.6,1.1-1.1,2.2-1.4,3.4-.6,2.2-1.2,4.4-2.1,6.6l-21.8,51.2-22.5-52.9c-2-4.7-6.6-7.7-11.6-7.7h0c-5.1,0-9.7,3-11.7,7.7l-23,53.2-21.7-51c-.9-2.1-1.7-4.2-2.1-6.4-1-4.9-4.8-9.1-10.3-10.4-5.7-1.3-11.6,1.3-14.6,6.2-2.8,4.7-2.4,10.2.2,14.3,1.4,2.1,2.6,4.4,3.6,6.7l32.9,77.9c1.9,4.7,6.5,7.8,11.6,7.9h0c5.1,0,9.7-3,11.7-7.7l23.2-53.6,22.8,53.5c2,4.7,6.6,7.7,11.7,7.7h0c5.1,0,9.7-3.1,11.7-7.9l32.9-77.9c1-2.5,2.4-4.7,3.8-7,.3-.6.6-1.2.9-1.8,2.9-6.9-.3-14.9-7.3-17.8h0Z"/>
          <path id="Path-3" data-name="Path" class="cls-2" d="M390.2,526.9c-2.9-.2-17.5-1.7-17.5-8.1s9.7-9.8,13.9-9.8c8.7,0,12.7,3.3,13.5,4,2.4,2.7,5.9,4.4,9.8,4.4,7.2,0,13-5.8,13-12.9s-1-5.7-2.7-7.9h0c-1.1-1.4-11.4-13.4-33.7-13.4s-40,14.7-40,35.7,3,30.9,41.5,33.9c5.3.4,14.2,2.2,14.2,9.3s-15.1,8.7-15.7,8.7c-12,0-18.9-4.6-20.1-5.4-2.3-2-5.3-3.3-8.6-3.3-7.2,0-13,5.8-13,12.9s1.9,7.7,4.9,10.1h0c1.4,1.2,14.4,11.5,36.9,11.5s15.8-.8,25.3-6.4c10.6-6.2,16.5-16.2,16.5-28.2,0-19.5-15-33.2-38.3-35h0Z"/>
        </g>
        <path id="Shape-Copy-19" class="cls-2" d="M521.7,122.3c-34.8-34.8-81.2-54-130.5-54s-95.6,19.2-130.5,54c-34.8,34.8-54,81.2-54,130.5s19.2,95.6,54,130.5c34.8,34.8,81.2,54,130.5,54s95.6-19.2,130.5-54,54-81.2,54-130.5-19.2-95.6-54-130.5ZM540,234.9l-79-71.9-80.8,76.6-42.5,40v-59.7c0,0,64.4-61.3,64.4-61.3l48-45.6c48.5,21.1,83.8,67.1,89.9,121.9h0ZM537.1,278.8c-2.8,16.2-8.1,31.5-15.4,45.4l-44.1-41.3v-59.9l59.5,55.7h0ZM415.1,102.8l-34.6,32.5-42.7,40.1v-64.7c16.7-6.3,34.9-9.7,53.8-9.7s15.8.6,23.4,1.8ZM305,279.6l-62.5-55.7c3-16.2,8.6-31.5,16.4-45.5l46,41v60.2h0ZM301.9,127.8v47.6c0,0-26.7-23.9-26.7-23.9,7.9-8.9,16.9-16.9,26.7-23.7ZM242.5,266.7l80.1,72.8,80.6-76.6,41.6-39.8v58.7l-112.8,107.9c-48.5-21.2-83.8-67.7-89.6-123h0ZM367.5,402.8l77.4-75.6v66.8c-16.9,6.8-35.4,10.5-54.6,10.5s-15.3-.6-22.7-1.8h0ZM477.6,374.8v-47.6l26.8,23.8c-7.9,8.9-16.9,16.9-26.8,23.8h0Z"/>
        <path class="cls-2" d="M725.8,652c-2.3-2.3-3.5-5.8-3.5-10.3s1.2-8,3.5-10.3c2.3-2.3,5.6-3.4,9.7-3.4s7.6,1.1,9.9,3.4c2.3,2.3,3.4,5.7,3.4,10.3s-1.2,8-3.5,10.3c-2.3,2.3-5.6,3.4-9.9,3.4s-7.4-1.2-9.7-3.5ZM725.4,641.7c0,7.4,3.4,11.1,10.2,11.1s10.2-3.7,10.2-11.1-3.4-11.1-10.2-11.1-6,.9-7.7,2.7c-1.7,1.8-2.5,4.6-2.5,8.5ZM730.4,647.4v-11.6c0-.3.1-.6.4-.8.2-.2.5-.4.8-.4h5.2c1.3,0,2.4.4,3.2,1.3.8.9,1.3,1.9,1.3,3.1s-.3,2.4-1,3.2c-.7.8-1.5,1.2-2.6,1.2l2.9,3.2c.2.2.3.5.3.8s-.1.7-.4.9-.5.4-.9.4-.8-.2-1.1-.5l-3.5-4.8h-1.9v4c0,.4-.1.7-.4.9s-.6.4-.9.4-.7-.1-.9-.4c-.3-.3-.4-.6-.4-.9ZM733.1,641.1h3.3c1.5,0,2.2-.7,2.2-2.1s-.2-1.1-.6-1.5c-.4-.4-.9-.6-1.6-.6h-3.3v4.1Z"/>
      </g>
      <g>
        <rect class="cls-1" x="1253.8" y="384" width="32" height="32" rx="3.7" ry="3.7"/>
        <g>
          <g id="AiR-2" data-name="AiR">
            <path id="Combined-Shape-2" data-name="Combined-Shape" class="cls-2" d="M1276.9,411.5h-1l.5-1.2.5,1.2ZM1277.1,412.1l.4.9c0,.1.2.2.3.2s.3-.2.3-.3,0,0,0-.1l-1.4-3.4c0,0-.1-.2-.3-.2s-.3.1-.3.2l-1.4,3.4s0,0,0,.1c0,.2.2.3.3.3s.3-.1.3-.2l.4-.9h1.4ZM1279.2,410.7c0-.2-.1-.3-.3-.3s-.3.1-.3.3v2.1c0,.2.1.3.3.3s.3-.1.3-.3v-2.1ZM1278.9,410.1c.2,0,.4-.1.4-.4s-.1-.4-.4-.4-.4.1-.4.4.1.4.4.4ZM1280.9,411.6l1.1,1.5c0,0,.2.1.3.1.2,0,.3-.2.3-.3s0-.1,0-.2l-.9-1.1c.6,0,.9-.6.9-1.2s-.5-1.2-1.3-1.2h-1.1c-.2,0-.3.2-.3.3v3.4c0,.2.2.3.3.3s.3-.2.3-.3v-1.2h.4ZM1281.3,409.8c.4,0,.5.3.5.6s-.2.6-.5.6h-.8v-1.2h.8Z"/>
          </g>
          <g id="Group-6-Copy-9-2" data-name="Group-6-Copy-9">
            <path id="Shape-4" data-name="Shape" class="cls-2" d="M1267.3,403.8c0-.3-.2-.5-.5-.5s-.4.1-.5.3c-.3-.2-.7-.3-1.1-.3-1.3,0-2.3,1-2.3,2.3s1,2.3,2.3,2.3.8-.1,1.1-.3c0,.2.3.3.5.3s.5-.2.5-.5v-3.5ZM1265.2,406.8c-.7,0-1.2-.6-1.2-1.2s.6-1.2,1.2-1.2.9.3,1.1.7v1.1c-.2.4-.6.7-1.1.7h0Z"/>
            <path id="Path-4" data-name="Path" class="cls-2" d="M1282,407.9c-.3,0-.5-.2-.5-.5v-3.5c0-.3.2-.5.5-.5s.5.2.5.5v3.5c0,.3-.2.5-.5.5Z"/>
            <path id="Shape-5" data-name="Shape" class="cls-2" d="M1276,403.8c0-.3-.2-.5-.5-.5s-.4.1-.5.3c-.3-.2-.7-.3-1.1-.3-1.3,0-2.3,1-2.3,2.3s1,2.3,2.3,2.3.8-.1,1.1-.3c0,.2.3.3.5.3s.5-.2.5-.5v-3.5ZM1273.8,406.8c-.7,0-1.2-.6-1.2-1.2s.6-1.2,1.2-1.2.9.3,1.1.7v1.1c-.2.4-.6.7-1.1.7h0Z"/>
            <path id="Shape-6" data-name="Shape" class="cls-2" d="M1278.6,403.4c-.4,0-.8.1-1.1.3v-1.7c0-.3-.2-.5-.5-.5s-.5.2-.5.5v5.3c0,.3.2.5.5.5s.4-.1.5-.3c.3.2.7.3,1.1.3,1.3,0,2.3-1,2.3-2.2s-1-2.2-2.3-2.2ZM1278.6,406.9c-.5,0-.9-.3-1.1-.7v-1.1c.2-.4.6-.7,1.1-.7.7,0,1.2.5,1.2,1.2s-.6,1.2-1.2,1.2h0Z"/>
            <circle id="Oval-2" data-name="Oval" class="cls-2" cx="1282.1" cy="402" r=".7"/>
            <path id="Path-5" data-name="Path" class="cls-2" d="M1262.4,403.4c-.2-.1-.5,0-.7.2,0,0,0,0,0,.1,0,0,0,.2,0,.3l-.9,2-.9-2.1c0-.2-.3-.3-.5-.3h0c-.2,0-.4.1-.5.3l-.9,2.1-.9-2c0,0,0-.2,0-.3,0-.2-.2-.4-.4-.4-.2,0-.5,0-.6.3-.1.2,0,.4,0,.6,0,0,.1.2.1.3l1.3,3.1c0,.2.3.3.5.3h0c.2,0,.4-.1.5-.3l.9-2.1.9,2.1c0,.2.3.3.5.3h0c.2,0,.4-.1.5-.3l1.3-3.1c0,0,0-.2.2-.3,0,0,0,0,0,0,.1-.3,0-.6-.3-.7h0Z"/>
            <path id="Path-6" data-name="Path" class="cls-2" d="M1269.5,405.1c-.1,0-.7,0-.7-.3s.4-.4.6-.4c.3,0,.5.1.5.2,0,.1.2.2.4.2.3,0,.5-.2.5-.5s0-.2-.1-.3h0c0,0-.5-.5-1.3-.5s-1.6.6-1.6,1.4.1,1.2,1.7,1.4c.2,0,.6,0,.6.4s-.6.3-.6.3c-.5,0-.8-.2-.8-.2,0,0-.2-.1-.3-.1-.3,0-.5.2-.5.5s0,.3.2.4h0c0,0,.6.5,1.5.5s.6,0,1-.3c.4-.2.7-.6.7-1.1,0-.8-.6-1.3-1.5-1.4h0Z"/>
          </g>
          <path id="Shape-Copy-19-2" data-name="Shape-Copy-19" class="cls-2" d="M1274.7,388.9c-1.4-1.4-3.3-2.2-5.2-2.2s-3.8.8-5.2,2.2c-1.4,1.4-2.2,3.3-2.2,5.2s.8,3.8,2.2,5.2c1.4,1.4,3.3,2.2,5.2,2.2s3.8-.8,5.2-2.2,2.2-3.3,2.2-5.2-.8-3.8-2.2-5.2ZM1275.5,393.4l-3.2-2.9-3.2,3.1-1.7,1.6v-2.4s2.6-2.5,2.6-2.5l1.9-1.8c1.9.8,3.4,2.7,3.6,4.9h0ZM1275.3,395.1c-.1.6-.3,1.3-.6,1.8l-1.8-1.7v-2.4l2.4,2.2h0ZM1270.5,388.1l-1.4,1.3-1.7,1.6v-2.6c.7-.3,1.4-.4,2.2-.4s.6,0,.9,0ZM1266.1,395.2l-2.5-2.2c.1-.7.3-1.3.7-1.8l1.8,1.6v2.4h0ZM1265.9,389.1v1.9s-1.1-1-1.1-1c.3-.4.7-.7,1.1-.9ZM1263.6,394.7l3.2,2.9,3.2-3.1,1.7-1.6v2.4l-4.5,4.3c-1.9-.8-3.4-2.7-3.6-4.9h0ZM1268.6,400.1l3.1-3v2.7c-.7.3-1.4.4-2.2.4s-.6,0-.9,0h0ZM1273,399v-1.9l1.1,1c-.3.4-.7.7-1.1,1h0Z"/>
          <path class="cls-2" d="M1282.9,410.1c0,0-.1-.2-.1-.4s0-.3.1-.4c0,0,.2-.1.4-.1s.3,0,.4.1c0,0,.1.2.1.4s0,.3-.1.4c0,0-.2.1-.4.1s-.3,0-.4-.1ZM1282.9,409.7c0,.3.1.4.4.4s.4-.1.4-.4-.1-.4-.4-.4-.2,0-.3.1c0,0-.1.2-.1.3ZM1283.1,409.9v-.5s0,0,0,0c0,0,0,0,0,0h.2c0,0,0,0,.1,0,0,0,0,0,0,.1s0,0,0,.1c0,0,0,0-.1,0h.1c0,.1,0,.2,0,.2s0,0,0,0,0,0,0,0,0,0,0,0v-.2h-.2v.2s0,0,0,0,0,0,0,0,0,0,0,0c0,0,0,0,0,0ZM1283.2,409.7h.1c0,0,0,0,0,0s0,0,0,0c0,0,0,0,0,0h-.1v.2Z"/>
        </g>
      </g>
    </g>
  </g>
</svg>