<svg width="107" height="38" viewBox="0 0 107 38" fill="currentColor" xmlns="http://www.w3.org/2000/svg">
    <path
        d="M26.2245 13.2688C29.3525 10.1245 32.4525 7.0135 35.5434 3.89334C35.8254 3.60876 36.012 3.4673 36.3806 3.81958C38.2748 5.6298 39.6547 7.7406 40.1223 10.3564C40.7602 13.9251 39.951 17.1315 37.5837 19.9024C36.0811 21.6613 34.2037 22.8235 31.9821 23.4307C31.9064 23.4514 31.8387 23.5019 31.7622 23.5412C31.8086 23.8092 32.0394 23.8368 32.2116 23.9092C34.9874 25.0778 37.765 26.2424 40.5458 27.3988C40.9164 27.5529 41.1163 27.7082 40.9285 28.1707C40.1335 30.1279 39.1004 31.914 37.4675 33.2953C35.6741 34.8122 33.6247 35.7213 31.2835 35.9437C27.981 36.2575 25.0943 35.2625 22.6406 33.057C20.6594 31.2761 19.4923 29.0206 19.0966 26.3693C18.8735 24.8744 18.9241 23.3952 19.3162 21.9309C19.3564 21.7807 19.4023 21.6074 19.138 21.3865C14.5257 26.0243 9.9052 30.6703 5.2921 35.3088C1.91149 32.6124 0.175851 28.3379 1.11928 24.0051C2.10286 19.488 4.9861 16.7194 9.2914 15.3269C9.2221 14.9355 8.9162 14.8874 8.6682 14.7824C5.9705 13.6393 3.27347 12.4944 0.569681 11.366C0.244621 11.2304 0.115341 11.1063 0.257431 10.7351C1.32198 7.9538 2.96811 5.6574 5.6349 4.2283C8.8038 2.53015 12.0706 2.32252 15.3906 3.73449C18.9674 5.2556 21.126 7.9995 22.0046 11.7692C22.3854 13.4035 22.3302 15.0572 21.9511 16.6945C21.8964 16.9307 21.7925 17.1586 21.947 17.5576C23.3952 16.1056 24.7946 14.7026 26.2245 13.2688Z"
        fill="currentColor" />
    <path
        d="M84.6133 32.0004L92.5513 21.8364L84.6133 11.5464H90.7033L95.701 18.0984L100.447 11.5464H106.495L98.599 21.8364L106.495 32.0004H100.447L95.365 25.4484L90.7033 32.0004H84.6133Z"
        fill="currentColor" />
    <path
        d="M76.2786 4.5742H80.0166V32.0002H75.0606V10.4962C74.3186 10.8322 73.5906 11.0912 72.8766 11.2732C72.1626 11.4552 71.4486 11.5462 70.7346 11.5462V6.8002C71.6866 6.7022 72.6106 6.4852 73.5066 6.1492C74.4026 5.7992 75.3266 5.2742 76.2786 4.5742Z"
        fill="currentColor" />
    <path
        d="M61.3079 4.5742H65.0459V32.0002H60.0899V10.4962C59.3479 10.8322 58.6199 11.0912 57.9059 11.2732C57.1919 11.4552 56.4779 11.5462 55.7639 11.5462V6.8002C56.7159 6.7022 57.6399 6.4852 58.5359 6.1492C59.4319 5.7992 60.3559 5.2742 61.3079 4.5742Z"
        fill="currentColor" />
</svg>