<svg width="91" height="89" viewBox="0 0 91 89" fill="none" xmlns="http://www.w3.org/2000/svg">
<path d="M8.14514 44.5608C8.16488 24.3706 24.6152 8.00739 44.9154 7.9853C45.891 7.9853 46.8532 8.02536 47.811 8.10104C45.9093 5.1903 43.6992 2.4908 41.2187 0.0488281C22.3347 1.59071 6.45764 14.7595 1.54061 32.9587C-3.37642 51.158 3.72553 70.4681 19.289 81.2163C22.6545 80.3411 25.9151 79.1069 29.0141 77.5352C16.2672 71.4427 8.15601 58.6265 8.14514 44.5608Z" fill="#131027"/>
<path d="M82.1873 44.4039C82.1651 64.5964 65.7118 80.9594 45.4105 80.9791C44.8868 80.9791 44.3676 80.9791 43.8485 80.9479C40.5862 83.4634 37.0703 85.6356 33.3574 87.4296C48.8695 91.6296 65.4555 87.2618 76.8459 75.9774C88.2362 64.693 92.6932 48.2133 88.532 32.7679C84.3708 17.3225 72.2264 5.26766 56.6893 1.16016C59.0163 4.57409 60.9784 8.22053 62.5435 12.0401C74.6172 18.3717 82.1779 30.828 82.1873 44.4039Z" fill="url(#paint0_linear)"/>
<path d="M30.0215 77.6366C34.4197 79.793 39.2043 81.0112 44.0815 81.2163C58.355 69.9827 66.7129 52.6484 66.7136 34.2772C66.7194 26.6254 65.266 19.0452 62.4341 11.9577C58.1011 9.62405 53.3444 8.21993 48.4576 7.83203C53.4903 15.699 56.1651 24.888 56.1555 34.2772C56.1424 52.585 46.0451 69.3375 30.0215 77.6366Z" fill="url(#paint1_linear)"/>
<defs>
<linearGradient id="paint0_linear" x1="86.8924" y1="121.024" x2="144.985" y2="35.5298" gradientUnits="userSpaceOnUse">
<stop stop-color="#00E98B"/>
<stop offset="0.2" stop-color="#00B394"/>
<stop offset="0.41" stop-color="#007D9E"/>
<stop offset="0.6" stop-color="#0056A4"/>
<stop offset="0.75" stop-color="#003EA8"/>
<stop offset="0.84" stop-color="#0035AA"/>
</linearGradient>
<linearGradient id="paint1_linear" x1="-2349.44" y1="1671.81" x2="-2163.34" y2="1487.37" gradientUnits="userSpaceOnUse">
<stop stop-color="#00E98B"/>
<stop offset="0.2" stop-color="#00B394"/>
<stop offset="0.41" stop-color="#007D9E"/>
<stop offset="0.6" stop-color="#0056A4"/>
<stop offset="0.75" stop-color="#003EA8"/>
<stop offset="0.84" stop-color="#0035AA"/>
</linearGradient>
</defs>
</svg>