<svg xmlns="http://www.w3.org/2000/svg" xmlns:xlink="http://www.w3.org/1999/xlink" viewBox="0 0 38 45"><defs><style>.cls-1{fill:#f3f3f3;}.cls-2{fill:#f2f2f2;}.cls-3{fill:url(#linear-gradient);}.cls-4{fill:#fff;}.cls-5{fill:url(#linear-gradient-2);}.cls-6{fill:url(#linear-gradient-3);}.cls-7{mask:url(#mask);}.cls-8{fill:url(#linear-gradient-4);}.cls-9{mask:url(#mask-2);}.cls-10{fill:url(#linear-gradient-5);}</style><linearGradient id="linear-gradient" x1="2452.9" y1="3184.71" x2="2459.9" y2="3184.71" gradientTransform="translate(-2439.15 -3163.21)" gradientUnits="userSpaceOnUse"><stop offset="0.2"/><stop offset="1" stop-color="#231f20" stop-opacity="0"/></linearGradient><linearGradient id="linear-gradient-2" x1="95" y1="-24" x2="105" y2="-24" gradientTransform="translate(-76 49)" gradientUnits="userSpaceOnUse"><stop offset="0" stop-opacity="0"/><stop offset="0.7"/></linearGradient><linearGradient id="linear-gradient-3" x1="96" y1="-17" x2="110" y2="-17" gradientTransform="translate(-76 49)" gradientUnits="userSpaceOnUse"><stop offset="0" stop-opacity="0"/><stop offset="0.84"/></linearGradient><mask id="mask" x="0" y="0" width="32" height="32" maskUnits="userSpaceOnUse"><path class="cls-1" d="M15,16H11a5,5,0,0,0-5,5v7H8V21a3,3,0,0,1,3-3h4a3,3,0,0,1,3,3v3h2V21A5,5,0,0,0,15,16Z"/><path class="cls-2" d="M22,2H4V4H8V9A5,5,0,0,0,18,9V4h4ZM13,12a3,3,0,0,1-3-3V8h6V9A3,3,0,0,1,13,12Zm3-6H10V4h6Z"/><path class="cls-2" d="M5,6A1,1,0,0,0,4,7v6H6V7A1,1,0,0,0,5,6Z"/><rect class="cls-3" x="13.75" y="16.75" width="7" height="9.5" transform="translate(-4.25 38.75) rotate(-90)"/></mask><linearGradient id="linear-gradient-4" y1="32" x2="32" gradientUnits="userSpaceOnUse"><stop offset="0.1" stop-color="#be95ff"/><stop offset="0.9" stop-color="#4589ff"/></linearGradient><mask id="mask-2" x="6" y="13" width="32" height="32" maskUnits="userSpaceOnUse"><rect class="cls-4" x="12" y="31" width="21" height="2"/><rect class="cls-4" x="17" y="24" width="11" height="2"/><g id="Gradients_black_" data-name="Gradients (black)"><rect class="cls-5" x="19" y="23" width="10" height="4"/></g><g id="Gradients_black_2" data-name="Gradients (black)"><rect class="cls-6" x="20" y="30" width="14" height="4"/></g><path class="cls-4" d="M31.83,25.11a10,10,0,0,0-7.94-7.93A10.16,10.16,0,0,0,22,17v2a7.66,7.66,0,0,1,1.51.15,8,8,0,0,1,6.35,6.34l.26,1.35,1.35.24a5.5,5.5,0,0,1-1,10.92H22v2h8.51a7.5,7.5,0,0,0,1.32-14.89Z"/></mask><linearGradient id="linear-gradient-5" x1="6" y1="45" x2="38" y2="13" gradientUnits="userSpaceOnUse"><stop offset="0.1" stop-color="#3ddbd9"/><stop offset="0.9" stop-color="#4589ff"/></linearGradient></defs><title>Asset 2109</title><g id="Layer_2" data-name="Layer 2"><g id="Dark_theme_icons" data-name="Dark theme icons"><g class="cls-7"><rect id="Color" class="cls-8" width="32" height="32"/></g><g class="cls-9"><rect id="Color-2" data-name="Color" class="cls-10" x="6" y="13" width="32" height="32"/></g></g></g></svg>