<svg id="a58ddf66-15fd-4774-a1a0-d1547d48a472" data-name="Build icon here" xmlns="http://www.w3.org/2000/svg" xmlns:xlink="http://www.w3.org/1999/xlink" viewBox="0 0 32 32">
  <defs>
    <linearGradient id="e4ea50af-e25d-403f-bb03-c2a958856ffc" x1="14.959" y1="5.587" x2="32.021" y2="10.159" gradientTransform="translate(-1.49 2.127)" gradientUnits="userSpaceOnUse">
      <stop offset="0.3"/>
      <stop offset="0.8" stop-opacity="0"/>
    </linearGradient>
    <linearGradient id="bf37499c-3980-41b8-84b5-e1e533750753" x1="16" y1="31" x2="16" y2="5" gradientUnits="userSpaceOnUse">
      <stop offset="0.6" stop-color="#fff"/>
      <stop offset="0.9" stop-color="#fff" stop-opacity="0"/>
    </linearGradient>
    <linearGradient id="a218493d-aa2f-410d-bb68-504aac99d174" x1="478.032" y1="-7231.789" x2="478.032" y2="-7257.789" gradientTransform="matrix(-0.516, 0.857, -0.857, -0.516, -5945.15, -4126.898)" xlink:href="#bf37499c-3980-41b8-84b5-e1e533750753"/>
    <linearGradient id="ef8674bc-ffac-4fd4-9009-c0a349552550" x1="8.289" y1="22.439" x2="28.029" y2="11.042" gradientTransform="translate(10.909 -6.87) rotate(30.258)" gradientUnits="userSpaceOnUse">
      <stop offset="0.5" stop-color="#fff"/>
      <stop offset="0.9" stop-color="#fff" stop-opacity="0"/>
    </linearGradient>
    <mask id="a7142f62-b4a4-4f6e-b51d-38876eb1bedf" x="0" y="0" width="32" height="32" maskUnits="userSpaceOnUse">
      <path d="M16,3V5A12.92,12.92,0,0,1,28.809,20.135l1.971.328A14.91,14.91,0,0,0,16,3Z" fill="#fff"/>
      <rect x="15" y="2" width="14" height="16" fill="url(#e4ea50af-e25d-403f-bb03-c2a958856ffc)"/>
      <path d="M16,31a1,1,0,0,1-1-1V6a1,1,0,0,1,2,0V30A1,1,0,0,1,16,31Z" fill="url(#bf37499c-3980-41b8-84b5-e1e533750753)"/>
      <path d="M4.861,11.3a1,1,0,0,1,1.373-.341L26.8,23.33a1,1,0,0,1-1.032,1.714L5.2,12.67A1,1,0,0,1,4.861,11.3Z" fill="url(#a218493d-aa2f-410d-bb68-504aac99d174)"/>
      <rect x="6.767" y="15.74" width="22.785" height="2" transform="translate(-5.961 11.431) rotate(-30.258)" fill="url(#ef8674bc-ffac-4fd4-9009-c0a349552550)"/>
    </mask>
    <linearGradient id="a9269b28-3268-41eb-871c-c1a22fca99f6" y1="32" x2="32" gradientUnits="userSpaceOnUse">
      <stop offset="0.1" stop-color="#a56eff"/>
      <stop offset="0.9" stop-color="#0f62fe"/>
    </linearGradient>
  </defs>
  <g>
    <g mask="url(#a7142f62-b4a4-4f6e-b51d-38876eb1bedf)">
      <rect width="32" height="32" fill="url(#a9269b28-3268-41eb-871c-c1a22fca99f6)"/>
    </g>
    <path d="M28,28a3,3,0,1,1,3-3A3,3,0,0,1,28,28Zm0-4a1,1,0,1,0,1,1A1,1,0,0,0,28,24Z" fill="#001d6c"/>
    <path d="M16,7a3,3,0,1,1,3-3A3,3,0,0,1,16,7Zm0-4a1,1,0,1,0,1,1A1,1,0,0,0,16,3Z" fill="#001d6c"/>
    <path d="M4,28a3,3,0,1,1,3-3A3,3,0,0,1,4,28Zm0-4a1,1,0,1,0,1,1A1,1,0,0,0,4,24Z" fill="#001d6c"/>
  </g>
</svg>
