<?xml version="1.0" encoding="UTF-8"?> <svg xmlns="http://www.w3.org/2000/svg" version="1.1" width="1026" height="782"><path d="M0 0 C-0.69165892 4.52428237 -2.32061758 8.55637003 -4.0703125 12.75390625 C-4.38288498 13.51372803 -4.69545746 14.2735498 -5.01750183 15.05639648 C-6.04893127 17.56027338 -7.08688858 20.06138689 -8.125 22.5625 C-8.85474509 24.32985876 -9.58415086 26.09735765 -10.31323242 27.86499023 C-15.56006564 40.5735358 -20.84758269 53.2653157 -26.14550781 65.95263672 C-31.2523562 78.18509516 -36.31835249 90.43421375 -41.375 102.6875 C-47.44718694 117.4004716 -53.52650981 132.11040935 -59.625 146.8125 C-59.9718988 147.64880951 -60.31879761 148.48511902 -60.6762085 149.34677124 C-62.4196883 153.549783 -64.16340342 157.75269709 -65.90722656 161.95556641 C-69.0846607 169.6139736 -72.25997729 177.27325883 -75.43548584 184.9324646 C-77.20690689 189.20501109 -78.97846002 193.47750282 -80.75 197.75 C-81.45833397 199.45833307 -82.1666673 201.1666664 -82.875 202.875 C-89.95833333 219.95833333 -97.04166667 237.04166667 -104.125 254.125 C-104.65095261 255.39347527 -104.65095261 255.39347527 -105.18753052 256.68757629 C-105.89575959 258.39565637 -106.60399119 260.10373539 -107.31222534 261.81181335 C-109.08467479 266.08651292 -110.85707989 270.36123087 -112.62939453 274.63598633 C-115.79756109 282.27736355 -118.96601227 289.91862194 -122.13616943 297.55917358 C-130.34136164 317.33499697 -138.53039954 337.11738984 -146.70040894 356.90777588 C-150.98067651 367.27555692 -155.26348238 377.64226427 -159.55859375 388.00390625 C-159.92585068 388.88999573 -160.2931076 389.77608521 -160.67149353 390.68902588 C-162.46158028 395.00682356 -164.25371299 399.32375515 -166.04956055 403.63916016 C-169.26731273 411.37574591 -172.46140697 419.11978283 -175.5859375 426.89453125 C-176.4050832 428.92030586 -177.22517602 430.9456939 -178.04568481 432.97091675 C-178.78838463 434.81511899 -179.51831449 436.66444803 -180.24780273 438.51391602 C-180.68809814 439.59987061 -181.12839355 440.6858252 -181.58203125 441.8046875 C-182.14241089 443.21210205 -182.14241089 443.21210205 -182.71411133 444.64794922 C-185.67011799 450.05485413 -191.39715848 451.57987285 -196.8359375 453.78125 C-197.72574814 454.14687042 -198.61555878 454.51249084 -199.53233337 454.88919067 C-202.47774555 456.09809883 -205.4263749 457.29895225 -208.375 458.5 C-210.44971443 459.35013509 -212.52417344 460.20089376 -214.59838867 461.05224609 C-218.91502061 462.82340445 -223.23274561 464.59185846 -227.55126953 466.35839844 C-236.52713618 470.03229316 -245.49018783 473.7371299 -254.45294189 477.44287109 C-257.33213722 478.63311794 -260.21167376 479.82253566 -263.09130859 481.01171875 C-276.4035305 486.50966216 -289.70943744 492.02272846 -303.01260376 497.5425415 C-316.66939139 503.20880884 -330.33315409 508.85803945 -344 514.5 C-358.60861049 520.53097552 -373.21384576 526.56996109 -387.8125 532.625 C-388.65092438 532.97274475 -389.48934875 533.3204895 -390.35317993 533.67877197 C-396.23564547 536.11871816 -402.11785434 538.55928278 -408 541 C-414.72898603 543.79210224 -421.45809307 546.58391234 -428.1875 549.375 C-429.02552155 549.72258362 -429.86354309 550.07016724 -430.72695923 550.42828369 C-445.45366895 556.53573244 -460.18830965 562.62388656 -474.92489624 568.7074585 C-488.45486636 574.29311317 -501.98005324 579.89012903 -515.5 585.5 C-529.99418806 591.51411575 -544.49500919 597.51198659 -559 603.5 C-573.41429872 609.45093974 -587.82625853 615.40746138 -602.23217773 621.37866211 C-604.01564782 622.11789847 -605.79917514 622.85699674 -607.58276367 623.59594727 C-610.04364605 624.61559294 -612.50428585 625.6358216 -614.96484375 626.65625 C-616.03665138 627.10025146 -616.03665138 627.10025146 -617.13011169 627.55322266 C-618.14066368 627.9725708 -618.14066368 627.9725708 -619.17163086 628.40039062 C-619.81397675 628.66376221 -620.45632263 628.92713379 -621.11813354 629.19848633 C-622.38468764 629.73792972 -623.63818095 630.30900105 -624.87722778 630.90893555 C-628.77334534 632.76308629 -630.88329739 633.26349171 -635 632 C-636.86213285 630.63351047 -636.86213285 630.63351047 -638.63827991 628.85111809 C-639.3225637 628.17418179 -640.00684749 627.4972455 -640.71186715 626.79979599 C-641.45058091 626.04874875 -642.18929466 625.29770151 -642.95039368 624.52389526 C-643.74531398 623.73168709 -644.54023429 622.93947891 -645.35924309 622.12326443 C-648.02945336 619.45731228 -650.68508483 616.77729232 -653.34106445 614.09716797 C-655.24799848 612.18523746 -657.15795608 610.27633797 -659.06781006 608.36732483 C-663.18415286 604.24966822 -667.29315543 600.12480237 -671.39733315 595.99502182 C-677.33947784 590.01592125 -683.29313446 584.04839229 -689.24974778 578.08370985 C-698.92438039 568.39543883 -708.59041395 558.69863629 -718.25073242 548.99609375 C-727.61651652 539.58942344 -736.98502161 530.18548117 -746.3581543 520.78613281 C-746.93478159 520.20788922 -747.51140889 519.62964563 -748.10550974 519.0338795 C-754.40622517 512.71566867 -760.70776059 506.39827622 -767.00994396 500.08152962 C-767.56457793 499.52560782 -768.1192119 498.96968601 -768.69065296 498.3969181 C-772.01753059 495.06231937 -772.01753059 495.06231937 -775.34449413 491.72780634 C-781.8285125 485.22917134 -788.31002788 478.7280625 -794.78704669 472.22245081 C-798.85412277 468.13747036 -802.92278246 464.05407226 -806.99266426 459.97188716 C-809.33827928 457.6189942 -811.68270939 455.26495017 -814.02544212 452.90918541 C-816.5708499 450.34979197 -819.11938447 447.79355134 -821.6686554 445.23800659 C-822.40067698 444.50034368 -823.13269857 443.76268078 -823.88690263 443.00266445 C-827.80134267 439.08553366 -831.82096569 435.37544414 -836.0131318 431.75865912 C-839.51465865 428.65931306 -842.79733154 425.34360148 -846.09924316 422.0344696 C-846.87378641 421.26219192 -847.64832965 420.48991423 -848.4463439 419.69423419 C-851.02193729 417.12493387 -853.59398113 414.55211066 -856.16601562 411.97924805 C-858.01918983 410.12906802 -859.87256835 408.27909263 -861.72613525 406.42930603 C-866.22443448 401.93927859 -870.71998522 397.44650921 -875.21442991 392.95262375 C-878.86532017 389.30220972 -882.51700124 385.65258867 -886.16923523 382.00351906 C-896.52771046 371.65383608 -906.8841013 361.30207388 -917.23780566 350.94761815 C-917.79483761 350.39054625 -918.35186955 349.83347435 -918.92578125 349.25952148 C-919.48349281 348.70176904 -920.04120438 348.14401659 -920.6158163 347.56936256 C-929.67730147 338.50746994 -938.74377908 329.45059043 -947.81250077 320.39594033 C-957.12782614 311.09495539 -966.43944185 301.79027092 -975.74716711 292.48168021 C-980.97164948 287.25686537 -986.19767226 282.03361268 -991.4276886 276.81433678 C-996.33735383 271.91469019 -1001.24187394 267.00994536 -1006.14287567 262.10163307 C-1007.94719447 260.29626275 -1009.75324137 258.49261772 -1011.56108856 256.69078064 C-1014.01755505 254.24195631 -1016.46786166 251.78713482 -1018.91662598 249.33061218 C-1019.6426673 248.60971442 -1020.36870862 247.88881667 -1021.11675119 247.14607352 C-1021.76669597 246.49152995 -1022.41664075 245.83698637 -1023.08628082 245.16260815 C-1023.65304362 244.59606272 -1024.21980641 244.02951729 -1024.80374384 243.44580382 C-1026 242 -1026 242 -1026 240 C-1020.17749717 240.62242215 -1014.65253952 241.69267444 -1008.97875977 243.12280273 C-1008.10814281 243.33826846 -1007.23752586 243.55373419 -1006.34052658 243.77572918 C-1003.45638381 244.49065697 -1000.57391944 245.21212633 -997.69140625 245.93359375 C-995.63919817 246.44360567 -993.5868835 246.95318881 -991.5344696 247.46237183 C-987.15883158 248.54881605 -982.78391192 249.63809044 -978.4095459 250.72964478 C-971.50366188 252.45285518 -964.59622105 254.16976295 -957.68847656 255.88549805 C-950.70715073 257.61978272 -943.72590537 259.35438594 -936.74520874 261.09120178 C-918.30628736 265.6787481 -899.86061458 270.23834835 -881.41047287 274.78052902 C-875.59077281 276.21350769 -869.77145246 277.64802826 -863.95205879 279.0822506 C-861.7708606 279.61980345 -859.58964716 280.1572944 -857.40843201 280.69477844 C-839.60416302 285.0822766 -821.80211671 289.47877888 -804 293.875 C-802.2963463 294.29570624 -800.59269233 294.7164114 -798.88903809 295.13711548 C-792.05705617 296.82422731 -785.22508274 298.51137353 -778.39312744 300.19859314 C-766.50173987 303.13528951 -754.61027583 306.07167603 -742.71875 309.0078125 C-741.88436905 309.21382961 -741.0499881 309.41984673 -740.19032288 309.63210678 C-735.97836413 310.67208035 -731.76640405 311.71204848 -727.55444336 312.75201416 C-719.96353912 314.62626991 -712.37264682 316.50057397 -704.78175354 318.37487411 C-700.56283618 319.4165847 -696.34391805 320.45829219 -692.125 321.5 C-690.4375 321.91666665 -688.75 322.33333332 -687.0625 322.75 C-685.80953125 323.059375 -685.80953125 323.059375 -684.53125 323.375 C-595.93750152 345.24999963 -595.93750152 345.24999963 -593.40621185 345.87500954 C-591.71883908 346.29164471 -590.03146624 346.70827959 -588.34409332 347.12491417 C-584.12339611 348.16706025 -579.90270017 349.20921149 -575.68200684 350.25137329 C-568.11151018 352.12065389 -560.54100504 353.98990004 -552.97045135 355.85894966 C-548.78237786 356.89291977 -544.59431195 357.92692061 -540.40625 358.9609375 C-539.16056999 359.26849031 -539.16056999 359.26849031 -537.88972473 359.58225632 C-528.33641588 361.94097754 -518.78328326 364.30041027 -509.23046875 366.66113281 C-508.33275914 366.8829743 -507.43504953 367.10481579 -506.5101366 367.33337975 C-501.98668455 368.45123447 -497.46325932 369.56919762 -492.93986511 370.68728638 C-484.20457704 372.84625472 -475.46877471 375.00310044 -466.73168945 377.15478516 C-463.45261751 377.96248716 -460.17357038 378.77028982 -456.89453125 379.578125 C-456.10638849 379.7722485 -455.31824574 379.96637199 -454.50621986 380.16637802 C-445.71818855 382.33157374 -436.93452638 384.51202453 -428.16061401 386.73391724 C-424.2036361 387.73561763 -420.24446107 388.72842826 -416.28491211 389.71990967 C-413.78815921 390.34961286 -411.29551599 390.99395231 -408.80273438 391.63916016 C-407.3726091 391.99727203 -405.94228692 392.35459899 -404.51171875 392.7109375 C-402.73994263 393.16412354 -402.73994263 393.16412354 -400.93237305 393.62646484 C-397.61472697 394.04907732 -396.79377923 393.66669237 -394 392 C-392.43842555 390.73064081 -392.43842555 390.73064081 -390.99199188 389.23808753 C-390.42161561 388.67169341 -389.85123935 388.10529928 -389.26357895 387.52174169 C-388.64575529 386.8980923 -388.02793162 386.27444292 -387.39138603 385.63189507 C-386.72552736 384.96774489 -386.05966869 384.30359472 -385.37363249 383.61931878 C-383.12783664 381.37683013 -380.88929476 379.12723543 -378.65060425 376.87765503 C-377.03208588 375.25857699 -375.41312511 373.63994111 -373.79375851 372.02171147 C-369.33274292 367.56128882 -364.87799917 363.09464719 -360.42420363 358.62701678 C-356.11781366 354.30823397 -351.80574013 349.99512964 -347.49422189 345.68146768 C-338.67279628 336.85536978 -329.85589699 328.02476358 -321.04140854 319.19173813 C-309.0081551 307.13329966 -296.96836266 295.08140625 -284.92680158 283.03126444 C-279.32010032 277.42055031 -273.71372019 271.80951534 -268.10742378 266.19839668 C-267.54617403 265.63666491 -266.98492428 265.07493313 -266.40666697 264.49617918 C-253.04471855 251.12260553 -239.68591682 237.74588998 -226.32763672 224.36865234 C-225.74305145 223.78323978 -225.15846617 223.19782722 -224.5561662 222.59467488 C-215.66232311 213.68823743 -206.7686438 204.78163645 -197.875 195.875 C-188.38730095 186.37344137 -178.89954005 176.87194451 -169.41162109 167.37060547 C-168.82704341 166.7851986 -168.24246572 166.19979174 -167.64017356 165.59664527 C-154.30131531 152.23890085 -140.9615633 138.88205068 -127.61898994 125.52801704 C-126.7785441 124.68684822 -126.7785441 124.68684822 -125.92111955 123.82868608 C-120.32856615 118.2313628 -114.73585574 112.63419646 -109.14291059 107.03726463 C-97.11242176 94.9981307 -85.08471257 82.95623821 -73.06254052 70.90879886 C-64.3019502 62.12987916 -55.5379692 53.35435723 -46.77039181 44.58241545 C-42.01620799 39.8256438 -37.26384779 35.067082 -32.51573944 30.304245 C-28.17647924 25.95157465 -23.83272619 21.60344307 -19.48522629 17.25900306 C-17.90617292 15.67940289 -16.32884456 14.09807621 -14.75334261 12.51493381 C-12.6257486 10.37749494 -10.4922013 8.24618946 -8.35693169 6.11642265 C-7.73442569 5.48809094 -7.1119197 4.85975922 -6.47054988 4.21238714 C-2.22828264 0 -2.22828264 0 0 0 Z " fill="#F69648" transform="translate(1026,0)"></path><path d="M0 0 C-0.69165892 4.52428237 -2.32061758 8.55637003 -4.0703125 12.75390625 C-4.38288498 13.51372803 -4.69545746 14.2735498 -5.01750183 15.05639648 C-6.04893127 17.56027338 -7.08688858 20.06138689 -8.125 22.5625 C-8.85474509 24.32985876 -9.58415086 26.09735765 -10.31323242 27.86499023 C-15.56006564 40.5735358 -20.84758269 53.2653157 -26.14550781 65.95263672 C-31.2523562 78.18509516 -36.31835249 90.43421375 -41.375 102.6875 C-47.44718694 117.4004716 -53.52650981 132.11040935 -59.625 146.8125 C-59.9718988 147.64880951 -60.31879761 148.48511902 -60.6762085 149.34677124 C-62.4196883 153.549783 -64.16340342 157.75269709 -65.90722656 161.95556641 C-69.0846607 169.6139736 -72.25997729 177.27325883 -75.43548584 184.9324646 C-77.20690689 189.20501109 -78.97846002 193.47750282 -80.75 197.75 C-81.45833397 199.45833307 -82.1666673 201.1666664 -82.875 202.875 C-89.95833333 219.95833333 -97.04166667 237.04166667 -104.125 254.125 C-104.47563507 254.97065018 -104.82627014 255.81630035 -105.18753052 256.68757629 C-105.89575959 258.39565637 -106.60399119 260.10373539 -107.31222534 261.81181335 C-109.08467479 266.08651292 -110.85707989 270.36123087 -112.62939453 274.63598633 C-115.79756109 282.27736355 -118.96601227 289.91862194 -122.13616943 297.55917358 C-130.34136164 317.33499697 -138.53039954 337.11738984 -146.70040894 356.90777588 C-153.13333847 372.48979354 -159.57563634 388.06790198 -166.04516602 403.63476562 C-169.27220312 411.40211839 -172.48520737 419.1744455 -175.65625 426.96484375 C-176.48895426 429.00365091 -177.32215659 431.04225371 -178.1555481 433.08078003 C-178.91648473 434.9484202 -179.67013987 436.8190219 -180.42358398 438.68969727 C-180.87032471 439.78209717 -181.31706543 440.87449707 -181.77734375 442 C-182.16140381 442.94875 -182.54546387 443.8975 -182.94116211 444.875 C-184 447 -184 447 -186 448 C-188.10163879 447.66278076 -188.10163879 447.66278076 -190.74536133 447.00292969 C-191.74269287 446.75769058 -192.74002441 446.51245148 -193.76757812 446.25978088 C-195.40823242 445.84501747 -195.40823242 445.84501747 -197.08203125 445.421875 C-198.79459106 444.99786659 -198.79459106 444.99786659 -200.54174805 444.56529236 C-204.30029016 443.63326977 -208.05634608 442.6915966 -211.8125 441.75 C-214.39329258 441.10838904 -216.97422275 440.46736996 -219.55541992 439.82739258 C-223.49606181 438.84989503 -227.43654003 437.87176231 -231.37617493 436.89021301 C-242.87265865 434.02603317 -254.37957831 431.20545121 -265.89047241 428.39978027 C-269.66936287 427.47862911 -273.44787533 426.55593433 -277.22631836 425.63294983 C-278.86470358 425.23274117 -280.50312827 424.83269401 -282.14160156 424.43284607 C-284.09460089 423.95604857 -286.04731893 423.47809923 -288 423 C-288.67943161 422.83599197 -289.35886322 422.67198395 -290.05888367 422.50300598 C-292 422 -292 422 -294.73828125 421.05078125 C-298.50836526 419.83622724 -302.31715269 419.00217583 -306.1875 418.1875 C-313.66225429 416.57624072 -321.04255567 414.70942784 -328.42529297 412.72216797 C-333.28474573 411.42326722 -338.13325319 410.30592411 -343.08203125 409.39453125 C-345.8002487 408.83538672 -348.36904077 407.87698641 -351 407 C-352.66321482 406.64984951 -354.33034549 406.31802943 -356 406 C-359.80733303 405.27479371 -363.32161639 404.22612787 -367 403 C-369.47291329 402.47938668 -371.95016883 402.00894406 -374.4375 401.5625 C-377.37778519 400.91707154 -380.14466767 399.95177744 -383 399 C-385.28541881 398.43254977 -387.5773718 397.89079409 -389.875 397.375 C-391.60363281 396.98441406 -391.60363281 396.98441406 -393.3671875 396.5859375 C-394.23601563 396.39257812 -395.10484375 396.19921875 -396 396 C-394.72496017 393.20831385 -393.40740298 391.15730595 -391.24038887 388.98969054 C-390.67450719 388.41880183 -390.10862551 387.84791311 -389.5255959 387.25972474 C-388.90251821 386.64132938 -388.27944052 386.02293402 -387.63748169 385.38579941 C-386.64215522 384.38611262 -386.64215522 384.38611262 -385.62672114 383.36623013 C-383.38625314 381.11842219 -381.13868167 378.87785271 -378.89111328 376.637146 C-377.27346613 375.017196 -375.65625548 373.39681003 -374.03944588 371.7760241 C-369.58292092 367.31111842 -365.12014046 362.85251079 -360.65633488 358.39488554 C-356.34123518 354.08480641 -352.03178959 349.76907759 -347.72171682 345.45397275 C-338.35992281 336.08163615 -328.99240021 326.71504176 -319.62244815 317.3508619 C-311.42403616 309.15747582 -303.22747911 300.9622398 -295.03277588 292.76514435 C-294.48975567 292.22197137 -293.94673546 291.67879839 -293.38726009 291.11916562 C-291.18313326 288.91441614 -288.9790135 286.70965959 -286.77490539 284.50489139 C-266.08980494 263.81366993 -245.39887082 243.12829083 -224.70533064 222.44551044 C-206.30581212 204.05548614 -187.91147471 185.66029456 -169.52148438 167.26074219 C-148.87412741 146.60268541 -128.2235552 125.94785156 -107.56775475 105.29823709 C-105.36757149 103.0986953 -103.16739613 100.89914562 -100.96722412 98.69959259 C-100.42545698 98.1579836 -99.88368984 97.61637462 -99.32550551 97.05835324 C-91.13066738 88.8657937 -82.93830678 80.67076218 -74.74713135 72.47454071 C-65.43850378 63.16020742 -56.12633645 53.84942968 -46.8094182 44.54338905 C-42.05125704 39.79059936 -37.29484166 35.03609381 -32.54265594 30.27732849 C-28.19964801 25.92839821 -23.85211818 21.58404437 -19.50080085 17.2434285 C-17.92035069 15.66522823 -16.34161684 14.08530713 -14.76470017 12.50357625 C-12.63518261 10.36805254 -10.4997151 8.23867019 -8.36251831 6.11083603 C-7.73944062 5.48307601 -7.11636293 4.85531598 -6.4744041 4.20853293 C-2.22830078 0 -2.22830078 0 0 0 Z " fill="#F27828" transform="translate(1026,0)"></path><path d="M0 0 C9.57 -0.061875 19.14 -0.12375 29 -0.1875 C32.00738281 -0.21481201 35.01476562 -0.24212402 38.11328125 -0.27026367 C40.51301675 -0.27903048 42.91275674 -0.28667396 45.3125 -0.29296875 C46.54548828 -0.30831665 47.77847656 -0.32366455 49.04882812 -0.33947754 C56.64173328 -0.34177749 63.23969968 -0.19915774 69.27734375 4.9375 C69.82519531 5.618125 70.37304688 6.29875 70.9375 7 C71.50339844 7.680625 72.06929688 8.36125 72.65234375 9.0625 C76.27081766 14.26471177 75.41056141 20.94608546 75 27 C73.37031634 31.80327816 70.71140634 34.5895185 67 38 C67.721875 38.37125 68.44375 38.7425 69.1875 39.125 C74.40178537 42.60119024 77.7232255 46.84826831 79 53 C79.71923882 61.36115132 79.11937344 68.20616744 73.6875 74.8125 C68.73871909 78.84057749 64.72918627 80.37779681 58.35205078 80.34057617 C57.03309814 80.34021362 55.71414551 80.33985107 54.35522461 80.33947754 C52.96858282 80.32437518 51.58194529 80.3088757 50.1953125 80.29296875 C48.92357178 80.28994751 47.65183105 80.28692627 46.34155273 80.28381348 C41.60261897 80.26814781 36.86380112 80.2262639 32.125 80.1875 C21.52375 80.125625 10.9225 80.06375 0 80 C0 53.6 0 27.2 0 0 Z M8 8 C8 16.91 8 25.82 8 35 C14.42311368 35.04600718 20.84565144 35.08580475 27.26879883 35.10986328 C29.45208681 35.11989692 31.63536143 35.1335269 33.81860352 35.15087891 C36.96373805 35.17524313 40.10869429 35.18650971 43.25390625 35.1953125 C44.2239711 35.20563507 45.19403595 35.21595764 46.1934967 35.22659302 C52.94455534 35.22770101 58.52670793 35.09692153 63.875 30.5625 C66.91540732 26.89612647 67.34613436 23.85426057 67.28515625 19.1328125 C66.78117006 15.36327197 65.21852727 13.08128788 63 10 C59.92078374 8.00129295 57.49516024 7.75497445 53.86425781 7.77294922 C52.33312347 7.77317581 52.33312347 7.77317581 50.77105713 7.77340698 C49.67613953 7.78372955 48.58122192 7.79405212 47.453125 7.8046875 C46.3267865 7.8075174 45.200448 7.81034729 44.03997803 7.81326294 C40.44321054 7.82445626 36.84669221 7.84955963 33.25 7.875 C30.81120151 7.88503088 28.37239912 7.89415654 25.93359375 7.90234375 C19.95555598 7.92269105 13.97805685 7.96184219 8 8 Z M8 42 C8 52.23 8 62.46 8 73 C15.13537481 73.06897784 22.26958639 73.12868194 29.4050293 73.16479492 C31.83085049 73.17985409 34.25664458 73.20030562 36.68237305 73.22631836 C40.17503562 73.26282703 43.66733725 73.27975553 47.16015625 73.29296875 C48.77930687 73.31619453 48.77930687 73.31619453 50.4311676 73.33988953 C56.41300498 73.3412177 60.74939993 72.95696096 66 70 C69.42838242 66.3911764 70.86527305 63.75145031 71.25 58.75 C70.89393383 53.40900744 69.51604721 49.64981608 65.875 45.6875 C58.89572315 41.59096793 50.94512436 41.7198634 43.05859375 41.8046875 C42.05031021 41.8075174 41.04202667 41.81034729 40.00318909 41.81326294 C36.81450017 41.82436823 33.62610259 41.84945455 30.4375 41.875 C28.26237388 41.88504228 26.08724331 41.89416594 23.91210938 41.90234375 C18.60787311 41.92256577 13.30425881 41.9617328 8 42 Z " fill="#414042" transform="translate(119,595)"></path><path d="M0 0 C2.97 0 5.94 0 9 0 C10.88555474 6.30852302 12.76941435 12.61754914 14.65185547 18.92700195 C15.28943613 21.06320109 15.92744128 23.19927358 16.56591797 25.33520508 C20.80856004 39.52968235 24.9655875 53.74488881 29 68 C30.44303231 63.58512676 31.87978233 59.16823001 33.3125 54.75 C33.53187225 54.07370544 33.75124451 53.39741089 33.9772644 52.70062256 C38.31991527 39.2903093 42.45044544 25.81867852 46.50708008 12.31933594 C46.73357239 11.56979645 46.9600647 10.82025696 47.19342041 10.04800415 C47.62001048 8.63620554 48.04400582 7.22361952 48.46502686 5.81015015 C49.88723029 1.11276971 49.88723029 1.11276971 51 0 C52.51928038 -0.07179964 54.04167482 -0.08392007 55.5625 -0.0625 C56.38878906 -0.05347656 57.21507812 -0.04445313 58.06640625 -0.03515625 C58.70449219 -0.02355469 59.34257813 -0.01195312 60 0 C67.65252569 22.56575811 74.84155951 45.27365661 82 68 C82.23581284 67.16283951 82.47162567 66.32567902 82.71458435 65.46315002 C84.93311128 57.58938812 87.15479467 49.71652537 89.38006496 41.84466648 C90.52409558 37.7972467 91.66688505 33.74948489 92.80688477 29.70092773 C93.90625789 25.79682274 95.00883002 21.89363451 96.11366463 17.9910717 C96.53546242 16.49899707 96.95608928 15.00659094 97.37554741 13.51385689 C97.96141733 11.4296641 98.55136921 9.34666894 99.14233398 7.26391602 C99.47764633 6.07588882 99.81295868 4.88786163 100.15843201 3.66383362 C101 1 101 1 102 0 C104.67058851 -0.14115161 107.32432238 -0.04247107 110 0 C107.43718398 10.48749272 104.68605571 20.89550248 101.70703125 31.2734375 C101.31140579 32.6582044 100.91595772 34.043022 100.52067566 35.42788696 C99.70303929 38.29029741 98.88360566 41.15218469 98.06274414 44.01367188 C97.01046858 47.68226041 95.96242087 51.35204136 94.91560841 55.022192 C94.10470457 57.86382286 93.29186406 60.70489675 92.47839928 63.54579544 C92.09071026 64.90045205 91.70357117 66.25526616 91.31699562 67.61024094 C90.78073583 69.48860003 90.24163533 71.36614743 89.70239258 73.24365234 C89.39690994 74.31014008 89.09142731 75.37662781 88.77668762 76.47543335 C88 79 88 79 87 81 C83.7 81 80.4 81 77 81 C75.55989521 76.5633422 74.12275706 72.12572811 72.6875 67.6875 C72.46812775 67.00926178 72.24875549 66.33102356 72.0227356 65.63223267 C67.76671136 52.46344352 63.6094983 39.26450735 59.49291992 26.05151367 C59.04606583 24.62158058 58.59920734 23.19164887 58.15234375 21.76171875 C57.76038818 20.50319092 57.36843262 19.24466309 56.96459961 17.94799805 C56.11529857 15.10818941 56.11529857 15.10818941 55 13 C54.62748863 14.21149467 54.62748863 14.21149467 54.24745178 15.44746399 C51.90824711 23.0548862 49.56870527 30.66220461 47.22878361 38.26940632 C46.02578961 42.18044205 44.82292653 46.09151795 43.62036133 50.00268555 C42.46005428 53.77639763 41.29940504 57.55000431 40.13851738 61.32353783 C39.69543682 62.76401195 39.25248006 64.20452415 38.80964851 65.64507484 C38.18991327 67.66102619 37.56974002 69.67684229 36.94946289 71.69262695 C36.41984703 73.41471123 36.41984703 73.41471123 35.87953186 75.17158508 C35.27338612 77.12083983 34.64552356 79.06342931 34 81 C30.7 81 27.4 81 24 81 C18.53640495 63.61717996 13.21854774 46.19190709 7.96975708 28.74310303 C7.28032542 26.45184595 6.58995323 24.16087166 5.89865112 21.87017822 C4.91786376 18.61872858 3.94080474 15.36618237 2.96484375 12.11328125 C2.66525757 11.12180588 2.36567139 10.13033051 2.05700684 9.10881042 C1.78545776 8.2006105 1.51390869 7.29241058 1.23413086 6.35668945 C0.99480331 5.56035599 0.75547577 4.76402252 0.50889587 3.94355774 C0 2 0 2 0 0 Z " fill="#808083" transform="translate(664,699)"></path><path d="M0 0 C2.64 0 5.28 0 8 0 C10.77990991 7.02027579 12.88439203 14.18245598 14.9765625 21.43359375 C15.3506613 22.72024387 15.72512848 24.00678694 16.09994507 25.29322815 C17.47956188 30.03123191 18.8526288 34.77112801 20.22564697 39.51104736 C21.20565533 42.89351549 22.18688441 46.27561706 23.17147827 49.65675354 C23.90788421 52.18659679 24.64137505 54.71729067 25.37173462 57.24888611 C25.7023288 58.38419266 26.03292297 59.51949921 26.37353516 60.68920898 C26.6642691 61.6932225 26.95500305 62.69723602 27.25454712 63.73167419 C27.79219778 65.94252992 27.79219778 65.94252992 29 67 C35.93 44.89 42.86 22.78 50 0 C52.97 0 55.94 0 59 0 C62.23785377 7.68125648 64.84542608 15.49184315 67.328125 23.4453125 C67.72199402 24.69633759 68.11586304 25.94736267 68.52166748 27.23629761 C69.55745346 30.52635973 70.58862828 33.81784852 71.61877441 37.10968018 C72.67530233 40.48286674 73.73628861 43.85465026 74.796875 47.2265625 C76.86889265 53.81635944 78.93603118 60.40767782 81 67 C83.71676501 60.14517513 85.75626177 53.16706168 87.7578125 46.07421875 C88.2805928 44.23740288 88.2805928 44.23740288 88.81393433 42.36347961 C89.73322045 39.13167272 90.6497075 35.8991006 91.56469727 32.66607666 C92.85894293 28.09575404 94.15853822 23.5269491 95.45748901 18.95796204 C96.14745551 16.52986817 96.8363915 14.10148119 97.52420044 11.67277527 C97.99006058 10.03010429 97.99006058 10.03010429 98.46533203 8.35424805 C98.73830109 7.39020554 99.01127014 6.42616302 99.29251099 5.4329071 C99.82257958 3.61011182 100.39970379 1.80088862 101 0 C103.64 0 106.28 0 109 0 C107.46412616 8.92640805 104.96215326 17.56225958 102.46484375 26.25390625 C102.02144221 27.80656397 101.5782957 29.35929453 101.13539124 30.91209412 C100.21250289 34.14435662 99.28685236 37.37581094 98.35913086 40.60668945 C97.16822535 44.75482757 95.9839028 48.90481154 94.80153561 53.05539036 C93.89036535 56.25155564 92.97600876 59.44680228 92.06064034 62.6417675 C91.62231533 64.17297577 91.1849387 65.70445585 90.74851799 67.23620796 C90.14146394 69.36487022 89.5301947 71.49227554 88.91772461 73.61938477 C88.57067978 74.83054459 88.22363495 76.04170441 87.86607361 77.28956604 C87 80 87 80 86 81 C82.99996555 81.14177857 80.00242765 81.04228771 77 81 C73.72073751 73.25539711 71.13542534 65.37250073 68.671875 57.3359375 C68.27438819 56.04974403 67.87653399 54.76366405 67.47833252 53.47769165 C66.44231486 50.12849748 65.41122198 46.77780784 64.38122559 43.42675781 C63.32488912 39.99320468 62.26379399 36.56112295 61.203125 33.12890625 C59.13081559 26.42068547 57.06371691 19.71086967 55 13 C49.79986391 28.39386704 44.81340597 43.836939 40.0625 59.375 C39.20051859 62.18940669 38.33768479 65.00354259 37.47276306 67.81704712 C36.94342599 69.53929357 36.41580198 71.26206776 35.89015198 72.98544312 C34.11212396 78.77575208 34.11212396 78.77575208 33 81 C29.7 81 26.4 81 23 81 C22.770849 80.22707108 22.541698 79.45414215 22.30560303 78.65779114 C20.12952331 71.31828592 17.95279681 63.97897296 15.77537155 56.63986683 C14.65637767 52.86816858 13.53762051 49.09640047 12.41943359 45.32446289 C11.33719427 41.67381972 10.25429496 38.02337289 9.1709671 34.3730526 C8.76096073 32.99111369 8.35117899 31.60910811 7.94164276 30.2270298 C7.36113281 28.26811098 6.7797526 26.30945211 6.19824219 24.35083008 C5.83420288 23.12320953 5.47016357 21.89558899 5.09509277 20.63076782 C3.68906657 15.9691037 2.21169957 11.33090647 0.71514893 6.69755554 C0 4 0 4 0 0 Z " fill="#808083" transform="translate(119,699)"></path><path d="M0 0 C10.065 -0.0825 20.13 -0.165 30.5 -0.25 C33.66400391 -0.28641602 36.82800781 -0.32283203 40.08789062 -0.36035156 C42.61067019 -0.37203987 45.13345732 -0.38223136 47.65625 -0.390625 C48.95401367 -0.41108887 50.25177734 -0.43155273 51.58886719 -0.45263672 C60.05236708 -0.45588941 65.94586438 0.16500685 72.3125 6.1875 C76.58623254 13.31038756 78.43042227 20.94565456 76.49609375 29.1328125 C74.54200786 35.00623637 71.573169 39.32444809 66.3125 42.75 C63.41334636 43.84402024 60.820263 44.49585813 57.79296875 45.078125 C56.89473389 45.2524707 55.99649902 45.42681641 55.07104492 45.60644531 C54.3876001 45.73631836 53.70415527 45.86619141 53 46 C54.3212186 47.6261152 55.64247148 49.25220255 56.96386719 50.87817383 C58.12263299 52.30463751 59.28082697 53.73156586 60.43847656 55.15893555 C63.52005739 58.95680495 66.61084975 62.74637333 69.72265625 66.51953125 C70.31409424 67.23947266 70.90553223 67.95941406 71.51489258 68.70117188 C72.65579001 70.08944837 73.80006826 71.4749546 74.94799805 72.85742188 C75.72397339 73.80391602 75.72397339 73.80391602 76.515625 74.76953125 C77.20060059 75.59868042 77.20060059 75.59868042 77.89941406 76.44458008 C79 78 79 78 80 81 C76.07925984 81.88728549 72.91067494 82.00810674 69 81 C65.19079991 77.72355517 62.3408947 73.95575964 59.39697266 69.90380859 C57.53692598 67.368918 55.5728738 64.92426629 53.609375 62.46923828 C52.26387496 60.78320475 50.93032081 59.08901141 49.60546875 57.38671875 C49.16912109 56.84966309 48.73277344 56.31260742 48.28320312 55.75927734 C47 54 47 54 45.93554688 51.83837891 C44.50606452 49.2360028 43.41354638 47.7601274 41 46 C35.34375937 44.8464628 29.88542494 44.92878061 24.125 45 C18.80375 45 13.4825 45 8 45 C8 56.88 8 68.76 8 81 C5.36 81 2.72 81 0 81 C0 54.27 0 27.54 0 0 Z M8 7 C8 16.9 8 26.8 8 37 C14.86886775 37.06894403 21.73653043 37.12865783 28.60546875 37.16479492 C30.94112216 37.17986261 33.27674737 37.20032049 35.61230469 37.22631836 C38.97337819 37.26278958 42.33407692 37.2797469 45.6953125 37.29296875 C46.73615997 37.30845261 47.77700745 37.32393646 48.84939575 37.33988953 C54.32105814 37.34115394 58.3066975 37.15315106 63 34 C67.12712836 29.53823961 68.31579995 26.17205257 68.21484375 20.05859375 C67.74443853 15.55125645 65.77954175 12.73956525 62.5625 9.6875 C58.75940363 7.1830219 55.63597047 6.87464218 51.13964844 6.88647461 C50.17895447 6.88655014 49.2182605 6.88662567 48.22845459 6.88670349 C47.19915833 6.89186478 46.16986206 6.89702606 45.109375 6.90234375 C44.04962463 6.9037587 42.98987427 6.90517365 41.89801025 6.90663147 C38.51531138 6.91222618 35.13267885 6.92477775 31.75 6.9375 C29.45573012 6.94251568 27.16145921 6.94707847 24.8671875 6.95117188 C19.24474559 6.96134272 13.622447 6.9809193 8 7 Z " fill="#808083" transform="translate(368,699)"></path><path d="M0 0 C9.77564393 9.13295453 14.89365421 20.48169719 15.375 33.9375 C14.84962027 47.57548224 10.12638663 58.85779372 0.20703125 68.24609375 C-11.49747094 77.5475477 -25.67817799 78.30425428 -40 77 C-50.54633069 74.82962625 -58.36782876 69.0748178 -64.84375 60.58203125 C-72.09704378 49.39987001 -73.53868093 37.0142484 -71.53125 23.94921875 C-69.23139854 14.27067721 -64.00465199 5.06278271 -56 -1 C-38.60912252 -11.51710887 -16.71445997 -12.94385789 0 0 Z M-55.1875 10.0625 C-62.9355569 19.97576732 -64.45970771 30.83981538 -63 43 C-61.38236282 51.26903972 -57.38925325 57.53449421 -51 63 C-42.538592 68.57281139 -32.46724666 71.43730462 -22.40234375 69.5 C-12.3492518 67.06623909 -4.90833567 62.63756686 1 54 C6.22410612 43.61511026 7.51554367 33.60798193 4.375 22.375 C1.12078657 12.72574694 -3.93343489 6.70933236 -13 2 C-27.48832107 -4.21262959 -44.17711935 -1.4521729 -55.1875 10.0625 Z " fill="#808083" transform="translate(322,705)"></path><path d="M0 0 C11.570625 -0.12375 11.570625 -0.12375 23.375 -0.25 C26.99734619 -0.30462402 26.99734619 -0.30462402 30.69287109 -0.36035156 C32.63638423 -0.372049 34.57990726 -0.38223832 36.5234375 -0.390625 C37.50868408 -0.41108887 38.49393066 -0.43155273 39.5090332 -0.45263672 C49.32761299 -0.45751309 57.13193759 2.36125826 64.25390625 9.16796875 C73.35201507 18.71385921 75.61692965 30.05187048 75.47241211 42.96508789 C75.03490004 54.82798326 71.68085002 64.25757532 63.3046875 72.7109375 C56.94867221 78.5539112 49.85873253 81.13735188 41.2097168 81.11352539 C40.27639526 81.11340454 39.34307373 81.11328369 38.38146973 81.11315918 C36.93000549 81.10548523 36.93000549 81.10548523 35.44921875 81.09765625 C34.54997681 81.09664917 33.65073486 81.09564209 32.72424316 81.09460449 C29.37864906 81.08938911 26.03307319 81.07542787 22.6875 81.0625 C15.200625 81.041875 7.71375 81.02125 0 81 C0 54.27 0 27.54 0 0 Z M8 7 C8 29.11 8 51.22 8 74 C34.72715788 75.88304704 34.72715788 75.88304704 59 66 C66.38966738 56.95111416 68.1185801 46.40951699 67 35 C65.33727914 26.83755216 62.7304783 20.10847819 57 14 C56.29875 13.236875 55.5975 12.47375 54.875 11.6875 C41.30167215 3.7205467 22.00555001 7 8 7 Z " fill="#808083" transform="translate(567,699)"></path><path d="M0 0 C7.899375 -0.0825 15.79875 -0.165 23.9375 -0.25 C27.65181274 -0.30462402 27.65181274 -0.30462402 31.44116211 -0.36035156 C33.42821387 -0.37204614 35.41527529 -0.38223614 37.40234375 -0.390625 C38.92027527 -0.4213208 38.92027527 -0.4213208 40.46887207 -0.45263672 C50.39099813 -0.45746324 58.87027932 2.99061216 66 10 C74.73662758 21.42482069 76.95514808 34.93852595 75.4375 49 C73.88725394 58.5229401 69.6364279 68.81752503 61.66796875 74.73046875 C60.84941406 75.21128906 60.03085937 75.69210937 59.1875 76.1875 C57.97126953 76.92033203 57.97126953 76.92033203 56.73046875 77.66796875 C49.79913438 81.04934932 43.63134053 81.27470314 36.03515625 81.1953125 C35.11827026 81.19329834 34.20138428 81.19128418 33.25671387 81.18920898 C29.85859109 81.17880987 26.46054008 81.15088765 23.0625 81.125 C15.451875 81.08375 7.84125 81.0425 0 81 C0 54.27 0 27.54 0 0 Z M8 7 C8 29.11 8 51.22 8 74 C34.3341118 75.87354268 34.3341118 75.87354268 58.67578125 66.60546875 C65.32014352 59.82920846 67.21472761 50.77679827 67.5 41.5625 C67.11124076 30.04108979 64.51322402 21.26757659 56.3046875 12.96484375 C43.78600673 2.29213794 21.43682835 7 8 7 Z " fill="#808083" transform="translate(845,699)"></path><path d="M0 0 C23.43 0 46.86 0 71 0 C71 2.31 71 4.62 71 7 C50.21 7 29.42 7 8 7 C8 16.24 8 25.48 8 35 C27.14 35 46.28 35 66 35 C66 37.31 66 39.62 66 42 C46.86 42 27.72 42 8 42 C8 52.56 8 63.12 8 74 C29.45 74 50.9 74 73 74 C73 76.31 73 78.62 73 81 C48.91 81 24.82 81 0 81 C0 54.27 0 27.54 0 0 Z " fill="#808083" transform="translate(953,699)"></path><path d="M0 0 C2.97 0 5.94 0 9 0 C9 24.42 9 48.84 9 74 C26.16 74 43.32 74 61 74 C61 76.31 61 78.62 61 81 C40.87 81 20.74 81 0 81 C0 54.27 0 27.54 0 0 Z " fill="#808083" transform="translate(477,699)"></path><path d="M0 0 C2.64 0 5.28 0 8 0 C8 26.4 8 52.8 8 80 C5.36 80 2.72 80 0 80 C0 53.6 0 27.2 0 0 Z " fill="#414042" transform="translate(232,595)"></path><path d="M0 0 C2.31 0 4.62 0 7 0 C7 26.73 7 53.46 7 81 C4.69 81 2.38 81 0 81 C0 54.27 0 27.54 0 0 Z " fill="#808083" transform="translate(802,699)"></path><path d="M0 0 C0.99 0 1.98 0 3 0 C4.00492824 1.6636998 5.00333881 3.33133459 6 5 C8.39355669 7.70861993 10.97039358 10.23147099 13.53593445 12.77644348 C14.69746645 13.94053876 14.69746645 13.94053876 15.88246375 15.12815112 C18.48030696 17.72929049 21.08523751 20.32321367 23.69018555 22.91723633 C25.55310436 24.77959106 27.41562298 26.64233808 29.27764893 28.50558472 C33.28824264 32.51722647 37.30247814 36.52519387 41.31921959 40.5306797 C47.12672604 46.32192309 52.92869349 52.11868976 58.72932956 57.91681369 C68.14092124 67.32402954 77.55696937 76.72677159 86.97583008 86.12670898 C96.12465892 95.25717614 105.2713821 104.38974423 114.4152832 113.52514648 C114.9790372 114.08837503 115.54279119 114.65160358 116.12362864 115.23189966 C118.9518406 118.05750152 121.78001124 120.88314475 124.60816133 123.70880854 C148.06570385 147.14562203 171.53048247 170.57517815 195 194 C194.67 194.66 194.34 195.32 194 196 C169.27970352 171.32543722 144.5646444 146.64564134 119.85663956 121.95877022 C116.94255029 119.0471825 114.0284175 116.13563834 111.11425781 113.22412109 C110.53407855 112.64446645 109.95389928 112.0648118 109.35613883 111.46759187 C99.95012515 102.07029127 90.54058664 92.67652769 81.12975085 83.28405644 C71.48027363 73.65325318 61.83457067 64.01868207 52.1923933 54.38057029 C46.23798372 48.42891098 40.28061638 42.48024381 34.31948447 36.53531741 C30.23726819 32.46363712 26.15870915 28.3883175 22.0830605 24.31006326 C19.72817642 21.95389258 17.37114819 19.5999752 15.01082993 17.24924088 C12.45760939 14.70588517 9.91053443 12.15653438 7.36499023 9.60549927 C6.61014627 8.85648098 5.8553023 8.10746269 5.07758427 7.33574688 C4.40180552 6.65598605 3.72602678 5.97622521 3.0297699 5.27586555 C2.44044394 4.68729904 1.85111799 4.09873253 1.24393368 3.49233067 C0 2 0 2 0 0 Z " fill="#F9A956" transform="translate(0,240)"></path></svg> 