<svg xmlns="http://www.w3.org/2000/svg" xmlns:xlink="http://www.w3.org/1999/xlink" viewBox="0 0 32 32"><defs><linearGradient id="a" x1="-1143" y1="-5753" x2="-1136" y2="-5753" gradientTransform="translate(1154.5 5770.5)" gradientUnits="userSpaceOnUse"><stop offset="0" stop-opacity="0"/><stop offset="0.7"/></linearGradient><mask id="b" x="0" y="0" width="32" height="32" maskUnits="userSpaceOnUse"><path d="M12,28H10V26h2V21a6,6,0,0,1,6-6h0v2h0a4,4,0,0,0-4,4v5A2,2,0,0,1,12,28Z" fill="#fff"/><rect x="11.5" y="13.5" width="7" height="8" transform="translate(-2.5 32.5) rotate(-90)" fill="url(#a)"/><path d="M18,17a6,6,0,0,1-6-6V6H10V4h2a2,2,0,0,1,2,2v5a4,4,0,0,0,4,4h0v2Z" fill="#fff"/><path d="M8,30H2V24H8ZM4,28H6V26H4Z" fill="#f3f3f3"/><path d="M8,19H2V13H8ZM4,17H6V15H4Z" fill="#f3f3f3"/><path d="M8,8H2V2H8ZM4,6H6V4H4Z" fill="#f3f3f3"/></mask><linearGradient id="c" y1="32" x2="32" gradientUnits="userSpaceOnUse"><stop offset="0.1" stop-color="#a56eff"/><stop offset="0.9" stop-color="#0f62fe"/></linearGradient></defs><g mask="url(#b)"><rect width="32" height="32" fill="url(#c)"/></g><path d="M25,21a5,5,0,1,1,5-5A5,5,0,0,1,25,21Zm0-8a3,3,0,1,0,3,3A3,3,0,0,0,25,13Z" fill="#001d6c"/></svg>