<?xml version="1.0" encoding="utf-8"?>
<!-- Generator: Adobe Illustrator 24.2.1, SVG Export Plug-In . SVG Version: 6.00 Build 0)  -->
<svg version="1.1" id="Cloud-MDMS_light_theme_icon"
	 xmlns="http://www.w3.org/2000/svg" xmlns:xlink="http://www.w3.org/1999/xlink" x="0px" y="0px" viewBox="0 0 32 32"
	 style="enable-background:new 0 0 32 32;" xml:space="preserve">
<style type="text/css">
	.st0{fill:#FFFFFF;filter:url(#Adobe_OpacityMaskFilter);}
	.st1{fill:url(#SVGID_1_);}
	.st2{fill:url(#SVGID_2_);}
	.st3{mask:url(#c_1_);}
	.st4{fill:url(#SVGID_3_);}
	.st5{fill:#001D6C;}
</style>
<defs>
	<filter id="Adobe_OpacityMaskFilter" filterUnits="userSpaceOnUse" x="0" y="0" width="32" height="32">
		<feColorMatrix  type="matrix" values="1 0 0 0 0  0 1 0 0 0  0 0 1 0 0  0 0 0 1 0"/>
	</filter>
</defs>
<mask maskUnits="userSpaceOnUse" x="0" y="0" width="32" height="32" id="c_1_">
	<path class="st0" d="M24.8,9.1c-1-4.9-5.8-8-10.7-6.9C10.6,3,7.9,5.7,7.2,9.1c-3.5,0.7-5.8,4.2-5,7.7c0.6,3,3.3,5.1,6.3,5.2H15v-2
		H8.5c-2.5,0.1-4.6-1.8-4.7-4.3c-0.1-2.5,1.8-4.6,4.3-4.7H9l0.1-0.8c0.5-3.8,4-6.5,7.9-6c3.1,0.4,5.6,2.9,6,6l0,0.8l0.8,0.1
		c2.5,0.1,4.4,2.2,4.3,4.7c-0.1,2.5-2.2,4.4-4.7,4.3H17v2h6.5c3.6,0.2,6.6-2.6,6.8-6.1C30.5,12.6,28.1,9.6,24.8,9.1z"/>
	
		<linearGradient id="SVGID_1_" gradientUnits="userSpaceOnUse" x1="85" y1="61.5" x2="96" y2="61.5" gradientTransform="matrix(1 0 0 -1 -80 81)">
		<stop  offset="0.2" style="stop-color:#000000;stop-opacity:0"/>
		<stop  offset="0.7" style="stop-color:#000000"/>
	</linearGradient>
	<rect x="5" y="16" class="st1" width="11" height="7"/>
	
		<linearGradient id="SVGID_2_" gradientUnits="userSpaceOnUse" x1="-1462" y1="882.5" x2="-1451" y2="882.5" gradientTransform="matrix(-1 0 0 1 -1435 -863)">
		<stop  offset="0.2" style="stop-color:#000000;stop-opacity:0"/>
		<stop  offset="0.7" style="stop-color:#000000"/>
	</linearGradient>
	<rect x="16" y="16" class="st2" width="11" height="7"/>
</mask>
<g class="st3">
	
		<linearGradient id="SVGID_3_" gradientUnits="userSpaceOnUse" x1="-1.818989e-12" y1="2" x2="32" y2="34" gradientTransform="matrix(1 0 0 -1 0 34)">
		<stop  offset="0.1" style="stop-color:#A56EFF"/>
		<stop  offset="0.9" style="stop-color:#0F62FE"/>
	</linearGradient>
	<rect class="st4" width="32" height="32"/>
</g>
<path class="st5" d="M22,30H10c-1.1,0-2-0.9-2-2v-3h2v3h12v-3h2v3C24,29.1,23.1,30,22,30z"/>
<polygon class="st5" points="15,14.8 15,25 17,25 17,14.8 19.6,17.4 21,16 16,11 11,16 12.4,17.4 "/>
</svg>
