<svg id="Layer_1" xmlns="http://www.w3.org/2000/svg" viewBox="0 0 64 64"><style>.st2{fill:#fff;stroke:#047cc0;stroke-width:1.5;stroke-linecap:round;stroke-linejoin:round;stroke-miterlimit:10}.st3{fill:#157dbe}</style><circle cx="32" cy="32" r="32" fill="#f6f9fa"/><path d="M33.9 50.8h-20c-1.1 0-2-.9-2-2v-32c0-1.1.9-2 2-2h20c1.1 0 2 .9 2 2v32c0 1.1-.9 2-2 2z" opacity=".1" fill="#5a5a5a"/><path class="st2" d="M48.9 38H31V22h25zM6 38.2h8.9m-6.2-5.4h6.2m-3.5-5.3h3.5m-1.8-5.4h1.8"/><ellipse transform="rotate(-30 39.32 29.733)" class="st3" cx="39.3" cy="29.7" rx="4.4" ry="3.1"/><path d="M36 48H16c-1.1 0-2-.9-2-2V14c0-1.1.9-2 2-2h20c1.1 0 2 .9 2 2v32c0 1.1-.9 2-2 2z" fill="#e1ebf7" stroke="#047cc0" stroke-width="1.5" stroke-linecap="round" stroke-linejoin="round" stroke-miterlimit="10"/><path class="st2" d="M33 44.2H19c-1.1 0-2-.9-2-2v-24c0-1.1.9-2 2-2h14c1.1 0 2 .9 2 2v24c0 1.1-.9 2-2 2z"/><path fill-rule="evenodd" clip-rule="evenodd" fill="#e1ebf7" d="M20 30v11h11"/><path class="st3" d="M53.6 26.6l2.4-4h-4.7zm-3 7.1l-6.4 4.1h4.6z"/><path fill="none" stroke="#fed500" stroke-width="1.3" stroke-linecap="round" stroke-linejoin="round" stroke-miterlimit="10" d="M45.7 29.7h3.6"/><path class="st3" d="M29.3 26.9l.4.5 1.6-1.6-.5-.5c-.9-.9-2.1-1.5-3.6-1.7V22h-2.1v1.6c-2.3.3-3.9 1.7-3.9 3.6 0 2.3 2.1 3 3.9 3.5v3.6c-1.3-.2-2.1-.9-2.6-1.4l-.4-.5-1.6 1.6.4.4c1 1.1 2.5 1.7 4.2 1.9V38h2.1v-1.6c3-.4 4.1-2.1 4.1-3.7 0-2.6-2.3-3.4-4.1-3.8v-3.1c.9.2 1.6.6 2.1 1.1zm-2 7.4v-3c1.2.4 1.6.8 1.6 1.5.1.3 0 1.2-1.6 1.5zm-2.1-8.5v2.6c-1.2-.4-1.6-.7-1.6-1.2 0-.7.6-1.2 1.6-1.4z"/></svg>