<?xml version="1.0" encoding="UTF-8"?>
<svg id="uuid-844504f6-ff3e-404f-8892-f9620823ebd6" data-name="Build icon here" xmlns="http://www.w3.org/2000/svg" xmlns:xlink="http://www.w3.org/1999/xlink" viewBox="0 0 32 32">
  <defs>
    <linearGradient id="uuid-8b5ef7ee-83d4-4a96-a272-19feec7ac8fd" x1="-192.606" y1="-586.072" x2="-189.703" y2="-586.072" gradientTransform="translate(592.695 281.451) rotate(90) scale(1.378 -.984)" gradientUnits="userSpaceOnUse">
      <stop offset=".148" stop-color="#000" stop-opacity="0"/>
      <stop offset=".777" stop-color="#000"/>
    </linearGradient>
    <mask id="uuid-294aa5c0-c540-408f-933a-f7f13e196add" data-name="mask" x="0" y="0" width="32" height="32" maskUnits="userSpaceOnUse">
      <g id="uuid-500846b8-b3b6-470f-8663-2679d65f9cd7" data-name="vx85ku974b">
        <path d="M5,20c-1.654,0-3-1.346-3-3s1.346-3,3-3,3,1.346,3,3-1.346,3-3,3ZM5,16c-.552,0-1,.448-1,1s.448,1,1,1,1-.448,1-1-.448-1-1-1ZM27,20c-1.654,0-3-1.346-3-3s1.346-3,3-3,3,1.346,3,3-1.346,3-3,3ZM27,16c-.552,0-1,.448-1,1s.448,1,1,1,1-.448,1-1-.448-1-1-1ZM16,12c-2.206,0-4-1.794-4-4s1.794-4,4-4,4,1.794,4,4-1.794,4-4,4ZM16,6c-1.103,0-2,.897-2,2s.897,2,2,2,2-.897,2-2-.897-2-2-2Z" fill="#fff"/>
        <path d="M6.567,16.649l-1.414-1.414,7.14-6.942,1.414,1.414-7.14,6.942Z" fill="#fff"/>
        <path d="M18.294,9.707l1.414-1.414,6.293,6.293-1.414,1.414-6.293-6.293Z" fill="#fff"/>
        <path d="M15,11h2v9h-2v-9Z" fill="#fff"/>
        <path d="M18,16v4h-4v-4h4Z" fill="url(#uuid-8b5ef7ee-83d4-4a96-a272-19feec7ac8fd)"/>
      </g>
    </mask>
    <linearGradient id="uuid-81ba28f7-6a70-45f6-8b36-ec3f52e7608f" x1="-564" y1="-204" x2="-532" y2="-236" gradientTransform="translate(564 236)" gradientUnits="userSpaceOnUse">
      <stop offset=".1" stop-color="#a56eff"/>
      <stop offset=".9" stop-color="#0f62fe"/>
    </linearGradient>
  </defs>
  <g mask="url(#uuid-294aa5c0-c540-408f-933a-f7f13e196add)">
    <path d="M0,0h32v32H0V0Z" fill="url(#uuid-81ba28f7-6a70-45f6-8b36-ec3f52e7608f)"/>
  </g>
  <path d="M16,28c-2.206,0-4-1.794-4-4s1.794-4,4-4,4,1.794,4,4-1.794,4-4,4ZM16,22c-1.103,0-2,.897-2,2s.897,2,2,2,2-.897,2-2-.897-2-2-2Z" fill="#001d6c"/>
</svg>