<?xml version="1.0" standalone="no"?>
<!DOCTYPE svg PUBLIC "-//W3C//DTD SVG 20010904//EN"
 "http://www.w3.org/TR/2001/REC-SVG-20010904/DTD/svg10.dtd">
<svg version="1.0" xmlns="http://www.w3.org/2000/svg"
 width="32.000000pt" height="32.000000pt" viewBox="0 0 32.000000 32.000000"
 preserveAspectRatio="xMidYMid meet">
<metadata>
Created by potrace 1.16, written by Peter Selinger 2001-2019
</metadata>
<g transform="translate(0.000000,32.000000) scale(0.010323,-0.010323)"
fill="#000000" stroke="none">
<path d="M0 1550 l0 -1550 1550 0 1550 0 0 1550 0 1550 -1550 0 -1550 0 0
-1550z m2615 1335 c21 -4 56 -15 77 -26 251 -128 245 -488 -11 -608 -47 -22
-69 -26 -141 -26 -73 1 -93 5 -143 30 -67 33 -130 97 -160 163 -18 38 -22 66
-22 142 0 84 3 101 28 148 34 64 93 123 152 152 46 22 126 39 160 34 11 -1 38
-6 60 -9z m-877 -322 l-3 -308 -380 -5 c-410 -5 -409 -5 -462 -62 -30 -32 -43
-71 -43 -129 0 -121 57 -160 347 -233 198 -50 362 -141 468 -259 67 -74 137
-210 166 -322 31 -119 32 -313 1 -418 -79 -273 -276 -479 -542 -565 -129 -42
-188 -47 -580 -47 l-375 0 0 305 0 305 381 5 381 5 49 30 c110 68 126 211 33
290 -51 43 -104 62 -269 100 -222 51 -349 115 -474 241 -134 135 -202 300
-213 514 -22 433 272 778 727 853 14 2 197 5 408 6 l382 1 -2 -307z"/>
</g>
</svg>
