<svg id="bbea5357-f6e5-4971-afa1-dd4667d42111" data-name="Build icon here" xmlns="http://www.w3.org/2000/svg" xmlns:xlink="http://www.w3.org/1999/xlink" viewBox="0 0 32 32">
  <defs>
    <linearGradient id="e36142c6-5177-4ee4-b779-9fb84f243c98" x1="4.5" y1="26" x2="4.5" y2="14" gradientUnits="userSpaceOnUse">
      <stop offset="0.2"/>
      <stop offset="1" stop-opacity="0"/>
    </linearGradient>
    <linearGradient id="ab257a66-9e58-4517-af30-548849b1699d" x1="9" y1="23" x2="20" y2="12" gradientTransform="translate(16.621 -5.127) rotate(45)" gradientUnits="userSpaceOnUse">
      <stop offset="0.2" stop-opacity="0"/>
      <stop offset="0.8"/>
    </linearGradient>
    <mask id="b55728f2-94ad-429c-a913-84394192f23f" x="0" y="0" width="32" height="32" maskUnits="userSpaceOnUse">
      <path d="M6.1,25.9A14,14,0,0,1,16,2V4A12,12,0,0,0,7.514,24.486Z" fill="#f3f3f3"/>
      <rect x="1" y="14" width="7" height="12" fill="url(#e36142c6-5177-4ee4-b779-9fb84f243c98)"/>
      <path d="M16,30a13.911,13.911,0,0,1-9.9-4.1,1,1,0,0,1,0-1.414L18.293,12.293l1.414,1.414L8.251,25.163A12,12,0,0,0,28,16h2A14.016,14.016,0,0,1,16,30Z" fill="#f3f3f3"/>
      <rect x="6.722" y="14.672" width="15.556" height="5.657" transform="translate(-8.127 15.379) rotate(-45)" fill="url(#ab257a66-9e58-4517-af30-548849b1699d)"/>
    </mask>
    <linearGradient id="bdaf4f73-9d66-4d6d-9c25-bea95614318e" y1="32" x2="32" gradientUnits="userSpaceOnUse">
      <stop offset="0.1" stop-color="#a56eff"/>
      <stop offset="0.9" stop-color="#0f62fe"/>
    </linearGradient>
  </defs>
  <g>
    <g mask="url(#b55728f2-94ad-429c-a913-84394192f23f)">
      <rect width="32" height="32" fill="url(#bdaf4f73-9d66-4d6d-9c25-bea95614318e)"/>
    </g>
    <path d="M18,25a1,1,0,0,1-.992-.869l-.658-5,1.983-.262.435,3.305L21,20.5V15a1,1,0,0,1,.293-.707l3.244-3.244A4.964,4.964,0,0,0,26,7.516V6L24.484,6a4.964,4.964,0,0,0-3.533,1.463l-3.244,3.244A1,1,0,0,1,17,11H11.5L9.826,13.232l3.3.435-.261,1.983-5-.659A1,1,0,0,1,7.2,13.4l3-4A1,1,0,0,1,11,9h5.586l2.951-2.951A6.951,6.951,0,0,1,24.484,4H26a2.006,2.006,0,0,1,2,2V7.516a6.951,6.951,0,0,1-2.049,4.947L23,15.414V21a1,1,0,0,1-.4.8l-4,3A1,1,0,0,1,18,25Z" fill="#001d6c"/>
  </g>
</svg>
