<svg xmlns="http://www.w3.org/2000/svg" id="Layer_1" version="1.1" viewBox="0 0 404.32 63.63">
  <!-- Generator: Adobe Illustrator 29.7.1, SVG Export Plug-In . SVG Version: 2.1.1 Build 8)  -->
  <defs fill="#3b82f6">
    <style>
      .st0 {
        fill: #3b82f6;
      }
    </style>
  </defs>
  <path class="st0" d="M60.16,17.95l-3.29,18.66c-2.39,13.62-8.65,17.04-17.3,17.04-3.49,0-6.52-.39-9.1-1.68-3.1,1.29-5.75,1.68-9.23,1.68-6.2,0-12.27-3.23-12.27-12.46,0-1.42.13-2.9.45-4.58l3.29-18.66c.13-.71.84-1.23,1.48-1.23h5.81c.65,0,1.1.45,1.1,1.03v.19l-3.29,18.66c-.26,1.61-.39,2.91-.39,4,0,5.16,2.97,5.36,7.04,5.36h2.78l4.91-27.95c.13-.71.77-1.29,1.48-1.29h6c.65,0,1.1.45,1.1,1.1v.19l-4.91,27.95h2.78c5.04,0,8.26-.26,9.88-9.36l3.29-18.66c.13-.65.77-1.23,1.48-1.23h5.81c.65,0,1.1.45,1.1,1.03v.19Z" fill="#3b82f6"/>
  <path class="st0" d="M97.4,19.69l-5.36,30.54c-.19.97-.52,1.36-2.07,1.74-4.2,1.03-9.1,1.68-13.23,1.68-8.78,0-12.91-5.23-12.91-12.52,0-1.16.13-2.39.32-3.68l.84-4.97c1.87-11.17,7.94-16.2,18.33-16.2,4.13,0,8.84.65,12.65,1.68,1.16.32,1.49.65,1.49,1.23,0,.13,0,.32-.06.52ZM82.1,23.24c-5.55,0-7.62,3.62-8.59,9.23l-.84,4.97c-.26,1.42-.39,2.65-.39,3.74,0,3.55,1.48,5.49,5.68,5.49,2.32,0,4.97-.19,6.26-.45l3.94-22.53c-1.16-.26-3.74-.45-6.07-.45Z" fill="#3b82f6"/>
  <path class="st0" d="M133.49,30.09l-3.81,21.69c-.13.71-.77,1.36-1.48,1.36h-6.07c-.65,0-.97-.52-.97-1.1v-.26l3.94-22.34c.13-.84.26-1.61.26-2.39,0-2.07-.84-3.68-4-3.68h-3.62c-3.74,0-4.65,1.61-5.42,6.07l-3.94,22.34c-.13.71-.77,1.36-1.48,1.36h-6.07c-.64,0-.97-.52-.97-1.1v-.26l3.94-22.34c1.74-9.81,5.42-13.17,15.24-13.17h3.36c7.36,0,11.36,4.71,11.36,10.97,0,.9-.06,1.87-.26,2.84Z" fill="#3b82f6"/>
  <path class="st0" d="M166.99,18.79l-.78,4.2c-.13.65-.71.97-1.29.97h-.19c-2.07-.26-4.07-.45-8.26-.45-3.03,0-6.46,1.74-7.68,8.46l-1.1,6c-.26,1.23-.32,2.32-.32,3.23,0,4.39,2.39,5.23,5.04,5.23,4.2,0,6.13-.19,8.46-.45h.19c.52,0,.97.26.97.78v.19l-.78,4.2c-.19,1.03-.45,1.42-1.61,1.68-1.55.39-4.52.84-8.46.84-7.36,0-12.33-5.04-12.33-12.4,0-1.03.13-2.13.32-3.29l1.1-6c2.26-12.2,9.1-15.69,17.49-15.69,3.94,0,6.71.45,8.13.84.84.19,1.16.45,1.16,1.1,0,.13,0,.39-.06.58Z" fill="#3b82f6"/>
  <path class="st0" d="M184.99,5.3l-8.2,46.48c-.13.71-.77,1.36-1.48,1.36h-6c-.65,0-1.03-.52-1.03-1.1v-.26l8.2-46.48c.13-.71.78-1.29,1.48-1.29h6c.65,0,1.03.45,1.03,1.03v.26Z" fill="#3b82f6"/>
  <path class="st0" d="M376.28,19.69l-5.36,30.54c-.19.97-.52,1.36-2.07,1.74-4.2,1.03-9.1,1.68-13.23,1.68-8.78,0-12.91-5.23-12.91-12.52,0-1.16.13-2.39.32-3.68l.84-4.97c1.87-11.17,7.94-16.2,18.33-16.2,4.13,0,8.84.65,12.65,1.68,1.16.32,1.49.65,1.49,1.23,0,.13,0,.32-.06.52ZM360.98,23.24c-5.55,0-7.62,3.62-8.59,9.23l-.84,4.97c-.26,1.42-.39,2.65-.39,3.74,0,3.55,1.48,5.49,5.68,5.49,2.32,0,4.97-.19,6.26-.45l3.94-22.53c-1.16-.26-3.74-.45-6.07-.45Z" fill="#3b82f6"/>
  <path class="st0" d="M395.57,17.34l-7.05,34.85c-.11.53-.77,1.04-1.53,1.08l-6.38.31c-.69.03-1.12-.33-1.14-.76v-.19s7.04-34.85,7.04-34.85c.11-.53.78-1,1.53-1.03l6.38-.31c.69-.03,1.11.28,1.13.71v.19Z" fill="#3b82f6"/>
  <path class="st0" d="M258,18.08l-3.61,20.59c-2.45,14.07-12.33,14.98-17.37,14.98h-.39c-3.62,0-12.27-1.55-12.27-12.07,0-1.23.13-2.65.39-4.13l3.42-19.37c.13-.71.71-1.36,1.42-1.36h6.07c.64,0,1.03.52,1.03,1.1v.26l-3.55,19.95c-.26,1.36-.32,2.52-.32,3.49,0,3.68,1.68,4.78,5.1,4.78h.39c3.87,0,6.46-1.61,7.62-8.26l3.55-19.95c.13-.71.71-1.36,1.42-1.36h6.07c.65,0,1.03.52,1.03,1.1v.26Z" fill="#3b82f6"/>
  <path class="st0" d="M326.42,19.11l-.65,3.68c-.13.77-.58,1.23-1.23,1.23h-.26c-1.74-.26-6.52-.77-10.2-.77-2,0-4.97.26-4.97,2.97,0,.9.65,1.74,1.94,2.65l7.55,5.17c3.87,2.65,4.78,5.29,4.78,8.13,0,8.07-6.58,11.49-14.27,11.49-2.13,0-7.68-.19-11.62-1.29-.65-.19-.97-.58-.97-1.16v-.32l.71-3.87c.13-.65.71-1.03,1.36-1.03h.19c3.03.39,8.39.71,10.33.71,3.16,0,5.55-.58,5.55-3.61,0-1.03-.58-2-2.13-3.1l-7.88-5.42c-2.45-1.68-4.2-4.58-4.2-7.68,0-8.52,7.42-10.59,13.62-10.59,3.87,0,7.88.45,11.43,1.36.65.19.9.58.9,1.16v.32Z" fill="#3b82f6"/>
  <path class="st0" d="M297.18,5.3l-7.94,44.93c-.19.97-.52,1.36-2.07,1.74-4.2,1.03-9.1,1.68-13.23,1.68-8.97,0-12.91-5.55-12.91-12.65,0-1.16.13-2.33.32-3.55l.84-4.97c1.94-11.68,7.94-16.2,18.33-16.2,1.55,0,3.74.13,6.07.45l2.07-11.43c.13-.71.77-1.29,1.48-1.29h5.94c.65,0,1.1.45,1.1,1.1v.19ZM279.3,23.24c-5.55,0-7.55,2.97-8.59,9.23l-.84,4.97c-.26,1.55-.39,2.84-.39,4,0,3.55,1.48,5.23,5.68,5.23,2.32,0,4.97-.19,6.26-.45l3.94-22.53c-1.74-.26-4.52-.45-6.07-.45Z" fill="#3b82f6"/>
  <path class="st0" d="M197.82,43.55l-2.17-8.07.86-.86,4.28,4.29,4.19-4.19-4.28-4.29.85-.87,8.07,2.17.02,7.68.05-.05,5.57,5.55c1.1-2.08,1.92-4.52,2.45-7.34l.97-5.23c.19-1.1.32-2.26.32-3.36,0-6.78-4.07-12.72-12.91-12.72-10.14,0-16.2,4.84-18.27,16.08l-.97,5.23c-.19,1.03-.26,2.07-.26,3.1,0,6.78,4.13,12.98,12.91,12.98,5.1,0,9.16-1.37,12.2-4.09l-6.01-5.99-7.89-.03Z" fill="#3b82f6"/>
  <path class="st0" d="M388.33,10.86c.3-2,2.42-3.35,4.55-3.27,2.13.09,3.82,1.6,3.52,3.6-.28,1.9-2.37,3.41-4.56,3.32s-3.8-1.75-3.52-3.65Z" fill="#3b82f6"/>
</svg>