<svg xmlns="http://www.w3.org/2000/svg" xmlns:xlink="http://www.w3.org/1999/xlink" width="32" height="32" viewBox="0 0 32 32"><defs><style>.a{isolation:isolate;}.b{fill:#fff;}.c{fill:url(#a);}.d{mask:url(#b);}.e{fill:url(#c);}.f{fill:url(#d);}.g{mask:url(#e);}.h{fill:url(#f);}.i{fill:none;}.j{clip-path:url(#g);}.k{mask:url(#h);}.l{clip-path:url(#k);}.m{fill:#be95ff;}.n{fill:#bd95ff;}.o{fill:#bc95ff;}.p{fill:#bb95ff;}.q{fill:#ba95ff;}.r{fill:#b995ff;}.s{fill:#b894ff;}.t{fill:#b794ff;}.u{fill:#b694ff;}.v{fill:#b594ff;}.w{fill:#b494ff;}.x{fill:#b394ff;}.y{fill:#b294ff;}.z{fill:#b194ff;}.aa{fill:#b094ff;}.ab{fill:#af94ff;}.ac{fill:#ae93ff;}.ad{fill:#ad93ff;}.ae{fill:#ac93ff;}.af{fill:#ab93ff;}.ag{fill:#aa93ff;}.ah{fill:#a993ff;}.ai{fill:#a893ff;}.aj{fill:#a793ff;}.ak{fill:#a693ff;}.al{fill:#a593ff;}.am{fill:#a492ff;}.an{fill:#a392ff;}.ao{fill:#a292ff;}.ap{fill:#a192ff;}.aq{fill:#a092ff;}.ar{fill:#9f92ff;}.as{fill:#9e92ff;}.at{fill:#9d92ff;}.au{fill:#9c92ff;}.av{fill:#9b92ff;}.aw{fill:#9a91ff;}.ax{fill:#9991ff;}.ay{fill:#9891ff;}.az{fill:#9791ff;}.ba{fill:#9691ff;}.bb{fill:#9591ff;}.bc{fill:#9491ff;}.bd{fill:#9391ff;}.be{fill:#9291ff;}.bf{fill:#9191ff;}.bg{fill:#9090ff;}.bh{fill:#8f90ff;}.bi{fill:#8e90ff;}.bj{fill:#8d90ff;}.bk{fill:#8c90ff;}.bl{fill:#8b90ff;}.bm{fill:#8a90ff;}.bn{fill:#8990ff;}.bo{fill:#8890ff;}.bp{fill:#8790ff;}.bq{fill:#868fff;}.br{fill:#858fff;}.bs{fill:#848fff;}.bt{fill:#838fff;}.bu{fill:#828fff;}.bv{fill:#818fff;}.bw{fill:#808fff;}.bx{fill:#7f8fff;}.by{fill:#7e8fff;}.bz{fill:#7d8fff;}.ca{fill:#7c8eff;}.cb{fill:#7b8eff;}.cc{fill:#7a8eff;}.cd{fill:#798eff;}.ce{fill:#788eff;}.cf{fill:#778eff;}.cg{fill:#768eff;}.ch{fill:#758eff;}.ci{fill:#748eff;}.cj{fill:#728eff;}.ck{fill:#718dff;}.cl{fill:#708dff;}.cm{fill:#6f8dff;}.cn{fill:#6e8dff;}.co{fill:#6d8dff;}.cp{fill:#6c8dff;}.cq{fill:#6b8dff;}.cr{fill:#6a8dff;}.cs{fill:#698dff;}.ct{fill:#688dff;}.cu{fill:#678cff;}.cv{fill:#668cff;}.cw{fill:#658cff;}.cx{fill:#648cff;}.cy{fill:#638cff;}.cz{fill:#628cff;}.da{fill:#618cff;}.db{fill:#608cff;}.dc{fill:#5f8cff;}.dd{fill:#5e8cff;}.de{fill:#5d8bff;}.df{fill:#5c8bff;}.dg{fill:#5b8bff;}.dh{fill:#5a8bff;}.di{fill:#598bff;}.dj{fill:#588bff;}.dk{fill:#578bff;}.dl{fill:#568bff;}.dm{fill:#558bff;}.dn{fill:#548bff;}.do{fill:#538aff;}.dp{fill:#528aff;}.dq{fill:#518aff;}.dr{fill:#508aff;}.ds{fill:#4f8aff;}.dt{fill:#4e8aff;}.du{fill:#4d8aff;}.dv{fill:#4c8aff;}.dw{fill:#4b8aff;}.dx{fill:#4a8aff;}.dy{fill:#4989ff;}.dz{fill:#4889ff;}.ea{fill:#4789ff;}.eb{fill:#4689ff;}.ec{fill:#4589ff;}.ed{fill:#021677;}</style><linearGradient id="a" x1="-140.39" y1="32.94" x2="-139.39" y2="32.94" gradientTransform="matrix(-18, 0, 0, 18, -2497, -582.5)" gradientUnits="userSpaceOnUse"><stop offset="0" stop-color="#fff"/><stop offset="0.5" stop-color="#fff"/><stop offset="0.84"/><stop offset="1"/></linearGradient><mask id="b" x="12" y="2" width="18" height="17" maskUnits="userSpaceOnUse"><rect class="c" x="12" y="2" width="18" height="17"/></mask><linearGradient id="c" x1="-140.39" y1="32.94" x2="-139.39" y2="32.94" gradientTransform="matrix(-18, 0, 0, 18, -2497, -582.5)" gradientUnits="userSpaceOnUse"><stop offset="0"/><stop offset="0.5"/><stop offset="0.84"/><stop offset="1"/></linearGradient><linearGradient id="d" x1="-125.61" y1="33.06" x2="-124.61" y2="33.06" gradientTransform="matrix(18, 0, 0, -18, 2263, 616.5)" xlink:href="#a"/><mask id="e" x="2" y="13" width="18" height="17" maskUnits="userSpaceOnUse"><rect class="f" x="2" y="13" width="18" height="17"/></mask><linearGradient id="f" x1="-125.61" y1="33.06" x2="-124.61" y2="33.06" gradientTransform="matrix(18, 0, 0, -18, 2263, 616.5)" xlink:href="#c"/><clipPath id="g"><rect class="i" width="32" height="32"/></clipPath><mask id="h" x="-16" y="-16" width="64" height="64" maskUnits="userSpaceOnUse"><rect width="32" height="32"/><g class="a"><path class="b" d="M20,20v2h5.2a11,11,0,0,1-20-8h-2A13.16,13.16,0,0,0,3,16a13,13,0,0,0,23,8.27V28h2V20Z"/><path class="b" d="M16,3A13,13,0,0,0,6,7.73V4H4v8h8V10H6.8a11,11,0,0,1,20,8h2A13.16,13.16,0,0,0,29,16,13,13,0,0,0,16,3"/><g class="d"><rect class="e" x="12" y="2" width="18" height="17"/></g><g class="g"><rect class="h" x="2" y="13" width="18" height="17"/></g></g></mask><clipPath id="k"><rect class="i" x="-6.63" y="-6.63" width="45.25" height="45.25" transform="translate(-6.63 16) rotate(-45)"/></clipPath></defs><g class="j"><g class="k"><g class="j"><g class="j"><g class="l"><polygon class="m" points="-16 16 16 48 -16 48 -16 16"/><polygon class="m" points="-16 9.6 22.4 48 16 48 -16 16 -16 9.6"/><polygon class="m" points="-16 9.18 22.82 48 22.4 48 -16 9.6 -16 9.18"/><polygon class="n" points="-16 8.75 23.25 48 22.82 48 -16 9.18 -16 8.75"/><polygon class="o" points="-16 8.33 23.67 48 23.25 48 -16 8.75 -16 8.33"/><polygon class="p" points="-16 7.91 24.09 48 23.67 48 -16 8.33 -16 7.91"/><polygon class="q" points="-16 7.48 24.52 48 24.09 48 -16 7.91 -16 7.48"/><polygon class="r" points="-16 7.06 24.94 48 24.52 48 -16 7.48 -16 7.06"/><polygon class="s" points="-16 6.64 25.36 48 24.94 48 -16 7.06 -16 6.64"/><polygon class="t" points="-16 6.21 25.79 48 25.36 48 -16 6.64 -16 6.21"/><polygon class="u" points="-16 5.79 26.21 48 25.79 48 -16 6.21 -16 5.79"/><polygon class="v" points="-16 5.37 26.63 48 26.21 48 -16 5.79 -16 5.37"/><polygon class="w" points="-16 4.95 27.05 48 26.63 48 -16 5.37 -16 4.95"/><polygon class="x" points="-16 4.52 27.48 48 27.05 48 -16 4.95 -16 4.52"/><polygon class="y" points="-16 4.1 27.9 48 27.48 48 -16 4.52 -16 4.1"/><polygon class="z" points="-16 3.68 28.32 48 27.9 48 -16 4.1 -16 3.68"/><polygon class="aa" points="-16 3.25 28.75 48 28.32 48 -16 3.68 -16 3.25"/><polygon class="ab" points="-16 2.83 29.17 48 28.75 48 -16 3.25 -16 2.83"/><polygon class="ac" points="-16 2.41 29.59 48 29.17 48 -16 2.83 -16 2.41"/><polygon class="ad" points="-16 1.98 30.02 48 29.59 48 -16 2.41 -16 1.98"/><polygon class="ae" points="-16 1.56 30.44 48 30.02 48 -16 1.98 -16 1.56"/><polygon class="af" points="-16 1.14 30.86 48 30.44 48 -16 1.56 -16 1.14"/><polygon class="ag" points="-16 0.71 31.29 48 30.86 48 -16 1.14 -16 0.71"/><polygon class="ah" points="-16 0.29 31.71 48 31.29 48 -16 0.71 -16 0.29"/><polygon class="ai" points="-16 -0.13 32.13 48 31.71 48 -16 0.29 -16 -0.13"/><polygon class="aj" points="-16 -0.56 32.55 48 32.13 48 -16 -0.13 -16 -0.56"/><polygon class="ak" points="-16 -0.98 32.98 48 32.55 48 -16 -0.56 -16 -0.98"/><polygon class="al" points="-16 -1.4 33.4 48 32.98 48 -16 -0.98 -16 -1.4"/><polygon class="am" points="-16 -1.82 33.83 48 33.4 48 -16 -1.4 -16 -1.82"/><polygon class="an" points="-16 -2.25 34.25 48 33.83 48 -16 -1.82 -16 -2.25"/><polygon class="ao" points="-16 -2.67 34.67 48 34.25 48 -16 -2.25 -16 -2.67"/><polygon class="ap" points="-16 -3.09 35.09 48 34.67 48 -16 -2.67 -16 -3.09"/><polygon class="aq" points="-16 -3.52 35.52 48 35.09 48 -16 -3.09 -16 -3.52"/><polygon class="ar" points="-16 -3.94 35.94 48 35.52 48 -16 -3.52 -16 -3.94"/><polygon class="as" points="-16 -4.36 36.36 48 35.94 48 -16 -3.94 -16 -4.36"/><polygon class="at" points="-16 -4.79 36.79 48 36.36 48 -16 -4.36 -16 -4.79"/><polygon class="au" points="-16 -5.21 37.21 48 36.79 48 -16 -4.79 -16 -5.21"/><polygon class="av" points="-16 -5.63 37.63 48 37.21 48 -16 -5.21 -16 -5.63"/><polygon class="aw" points="-16 -6.06 38.06 48 37.63 48 -16 -5.63 -16 -6.06"/><polygon class="ax" points="-16 -6.48 38.48 48 38.06 48 -16 -6.06 -16 -6.48"/><polygon class="ay" points="-16 -6.9 38.9 48 38.48 48 -16 -6.48 -16 -6.9"/><polygon class="az" points="-16 -7.33 39.33 48 38.9 48 -16 -6.9 -16 -7.33"/><polygon class="ba" points="-16 -7.75 39.75 48 39.33 48 -16 -7.33 -16 -7.75"/><polygon class="bb" points="-16 -8.17 40.17 48 39.75 48 -16 -7.75 -16 -8.17"/><polygon class="bc" points="-16 -8.6 40.59 48 40.17 48 -16 -8.17 -16 -8.6"/><polygon class="bd" points="-16 -9.02 41.02 48 40.59 48 -16 -8.6 -16 -9.02"/><polygon class="be" points="-16 -9.44 41.44 48 41.02 48 -16 -9.02 -16 -9.44"/><polygon class="bf" points="-16 -9.86 41.86 48 41.44 48 -16 -9.44 -16 -9.86"/><polygon class="bg" points="-16 -10.29 42.29 48 41.86 48 -16 -9.86 -16 -10.29"/><polygon class="bh" points="-16 -10.71 42.71 48 42.29 48 -16 -10.29 -16 -10.71"/><polygon class="bi" points="-16 -11.13 43.13 48 42.71 48 -16 -10.71 -16 -11.13"/><polygon class="bj" points="-16 -11.56 43.56 48 43.13 48 -16 -11.13 -16 -11.56"/><polygon class="bk" points="-16 -11.98 43.98 48 43.56 48 -16 -11.56 -16 -11.98"/><polygon class="bl" points="-16 -12.4 44.4 48 43.98 48 -16 -11.98 -16 -12.4"/><polygon class="bm" points="-16 -12.83 44.83 48 44.4 48 -16 -12.4 -16 -12.83"/><polygon class="bn" points="-16 -13.25 45.25 48 44.83 48 -16 -12.83 -16 -13.25"/><polygon class="bo" points="-16 -13.67 45.67 48 45.25 48 -16 -13.25 -16 -13.67"/><polygon class="bp" points="-16 -14.1 46.1 48 45.67 48 -16 -13.67 -16 -14.1"/><polygon class="bq" points="-16 -14.52 46.52 48 46.1 48 -16 -14.1 -16 -14.52"/><polygon class="br" points="-16 -14.94 46.94 48 46.52 48 -16 -14.52 -16 -14.94"/><polygon class="bs" points="-16 -15.37 47.37 48 46.94 48 -16 -14.94 -16 -15.37"/><polygon class="bt" points="-16 -15.79 47.79 48 47.37 48 -16 -15.37 -16 -15.79"/><polygon class="bu" points="-15.79 -16 48 47.79 48 48 47.79 48 -16 -15.79 -16 -16 -15.79 -16"/><polygon class="bv" points="-15.37 -16 48 47.37 48 47.79 -15.79 -16 -15.37 -16"/><polygon class="bw" points="-14.94 -16 48 46.94 48 47.37 -15.37 -16 -14.94 -16"/><polygon class="bx" points="-14.52 -16 48 46.52 48 46.94 -14.94 -16 -14.52 -16"/><polygon class="by" points="-14.1 -16 48 46.1 48 46.52 -14.52 -16 -14.1 -16"/><polygon class="bz" points="-13.67 -16 48 45.67 48 46.1 -14.1 -16 -13.67 -16"/><polygon class="ca" points="-13.25 -16 48 45.25 48 45.67 -13.67 -16 -13.25 -16"/><polygon class="cb" points="-12.83 -16 48 44.83 48 45.25 -13.25 -16 -12.83 -16"/><polygon class="cc" points="-12.4 -16 48 44.4 48 44.83 -12.83 -16 -12.4 -16"/><polygon class="cd" points="-11.98 -16 48 43.98 48 44.4 -12.4 -16 -11.98 -16"/><polygon class="ce" points="-11.56 -16 48 43.56 48 43.98 -11.98 -16 -11.56 -16"/><polygon class="cf" points="-11.13 -16 48 43.13 48 43.56 -11.56 -16 -11.13 -16"/><polygon class="cg" points="-10.71 -16 48 42.71 48 43.13 -11.13 -16 -10.71 -16"/><polygon class="ch" points="-10.29 -16 48 42.29 48 42.71 -10.71 -16 -10.29 -16"/><polygon class="ci" points="-9.86 -16 48 41.86 48 42.29 -10.29 -16 -9.86 -16"/><polygon class="cj" points="-9.44 -16 48 41.44 48 41.86 -9.86 -16 -9.44 -16"/><polygon class="ck" points="-9.02 -16 48 41.02 48 41.44 -9.44 -16 -9.02 -16"/><polygon class="cl" points="-8.6 -16 48 40.59 48 41.02 -9.02 -16 -8.6 -16"/><polygon class="cm" points="-8.17 -16 48 40.17 48 40.59 -8.6 -16 -8.17 -16"/><polygon class="cn" points="-7.75 -16 48 39.75 48 40.17 -8.17 -16 -7.75 -16"/><polygon class="co" points="-7.33 -16 48 39.33 48 39.75 -7.75 -16 -7.33 -16"/><polygon class="cp" points="-6.9 -16 48 38.9 48 39.33 -7.33 -16 -6.9 -16"/><polygon class="cq" points="-6.48 -16 48 38.48 48 38.9 -6.9 -16 -6.48 -16"/><polygon class="cr" points="-6.06 -16 48 38.06 48 38.48 -6.48 -16 -6.06 -16"/><polygon class="cs" points="-5.63 -16 48 37.63 48 38.06 -6.06 -16 -5.63 -16"/><polygon class="ct" points="-5.21 -16 48 37.21 48 37.63 -5.63 -16 -5.21 -16"/><polygon class="cu" points="-4.79 -16 48 36.79 48 37.21 -5.21 -16 -4.79 -16"/><polygon class="cv" points="-4.36 -16 48 36.36 48 36.79 -4.79 -16 -4.36 -16"/><polygon class="cw" points="-3.94 -16 48 35.94 48 36.36 -4.36 -16 -3.94 -16"/><polygon class="cx" points="-3.52 -16 48 35.52 48 35.94 -3.94 -16 -3.52 -16"/><polygon class="cy" points="-3.09 -16 48 35.09 48 35.52 -3.52 -16 -3.09 -16"/><polygon class="cz" points="-2.67 -16 48 34.67 48 35.09 -3.09 -16 -2.67 -16"/><polygon class="da" points="-2.25 -16 48 34.25 48 34.67 -2.67 -16 -2.25 -16"/><polygon class="db" points="-1.82 -16 48 33.83 48 34.25 -2.25 -16 -1.82 -16"/><polygon class="dc" points="-1.4 -16 48 33.4 48 33.83 -1.82 -16 -1.4 -16"/><polygon class="dd" points="-0.98 -16 48 32.98 48 33.4 -1.4 -16 -0.98 -16"/><polygon class="de" points="-0.56 -16 48 32.55 48 32.98 -0.98 -16 -0.56 -16"/><polygon class="df" points="-0.13 -16 48 32.13 48 32.55 -0.56 -16 -0.13 -16"/><polygon class="dg" points="0.29 -16 48 31.71 48 32.13 -0.13 -16 0.29 -16"/><polygon class="dh" points="0.71 -16 48 31.29 48 31.71 0.29 -16 0.71 -16"/><polygon class="di" points="1.14 -16 48 30.86 48 31.29 0.71 -16 1.14 -16"/><polygon class="dj" points="1.56 -16 48 30.44 48 30.86 1.14 -16 1.56 -16"/><polygon class="dk" points="1.98 -16 48 30.02 48 30.44 1.56 -16 1.98 -16"/><polygon class="dl" points="2.41 -16 48 29.59 48 30.02 1.98 -16 2.41 -16"/><polygon class="dm" points="2.83 -16 48 29.17 48 29.59 2.41 -16 2.83 -16"/><polygon class="dn" points="3.25 -16 48 28.75 48 29.17 2.83 -16 3.25 -16"/><polygon class="do" points="3.68 -16 48 28.32 48 28.75 3.25 -16 3.68 -16"/><polygon class="dp" points="4.1 -16 48 27.9 48 28.32 3.68 -16 4.1 -16"/><polygon class="dq" points="4.52 -16 48 27.48 48 27.9 4.1 -16 4.52 -16"/><polygon class="dr" points="4.95 -16 48 27.05 48 27.48 4.52 -16 4.95 -16"/><polygon class="ds" points="5.37 -16 48 26.63 48 27.05 4.95 -16 5.37 -16"/><polygon class="dt" points="5.79 -16 48 26.21 48 26.63 5.37 -16 5.79 -16"/><polygon class="du" points="6.21 -16 48 25.79 48 26.21 5.79 -16 6.21 -16"/><polygon class="dv" points="6.64 -16 48 25.36 48 25.79 6.21 -16 6.64 -16"/><polygon class="dw" points="7.06 -16 48 24.94 48 25.36 6.64 -16 7.06 -16"/><polygon class="dx" points="7.48 -16 48 24.52 48 24.94 7.06 -16 7.48 -16"/><polygon class="dy" points="7.91 -16 48 24.09 48 24.52 7.48 -16 7.91 -16"/><polygon class="dz" points="8.33 -16 48 23.67 48 24.09 7.91 -16 8.33 -16"/><polygon class="ea" points="8.75 -16 48 23.25 48 23.67 8.33 -16 8.75 -16"/><polygon class="eb" points="9.18 -16 48 22.82 48 23.25 8.75 -16 9.18 -16"/><polygon class="ec" points="9.6 -16 48 22.4 48 22.82 9.18 -16 9.6 -16"/><polygon class="ec" points="16 -16 48 16 48 22.4 9.6 -16 16 -16"/><polygon class="ec" points="48 16 16 -16 48 -16 48 16"/></g></g></g></g><path class="ed" d="M25,3a4,4,0,0,0-3.43,6L9,21.57A4.05,4.05,0,1,0,10.43,23L23,10.43A3.89,3.89,0,0,0,25,11a4,4,0,0,0,0-8M7,27a2,2,0,1,1,2-2,2,2,0,0,1-2,2M25,9a2,2,0,1,1,2-2,2,2,0,0,1-2,2"/><rect class="i" width="32" height="32"/></g></svg>