<?xml version="1.0" encoding="utf-8"?>
<!-- Generator: Adobe Illustrator 26.3.1, SVG Export Plug-In . SVG Version: 6.00 Build 0)  -->
<svg version="1.1" id="icon" xmlns="http://www.w3.org/2000/svg" xmlns:xlink="http://www.w3.org/1999/xlink" x="0px" y="0px"
	 viewBox="0 0 32 32" style="enable-background:new 0 0 32 32;" xml:space="preserve">
<style type="text/css">
	.st0{fill:#0F62FE;}
	.st1{fill:none;}
</style>
<path class="st0" d="M26,14c1.1,0,2-0.9,2-2V6c0-1.1-0.9-2-2-2h-6c-1.1,0-2,0.9-2,2v6c0,1.1,0.9,2,2,2h2v4.1c-2,0.4-3.5,1.9-3.9,3.9
	H14v-2c0-1.1-0.9-2-2-2h-2v-4.1c2.7-0.6,4.5-3.2,3.9-5.9C13.3,5.3,10.7,3.5,8,4.1S3.5,7.3,4.1,10C4.5,12,6,13.5,8,13.9V18H6
	c-1.1,0-2,0.9-2,2v6c0,1.1,0.9,2,2,2h6c1.1,0,2-0.9,2-2v-2h4.1c0.6,2.7,3.2,4.5,5.9,3.9c2.7-0.6,4.5-3.2,3.9-5.9
	c-0.4-2-1.9-3.5-3.9-3.9V14H26z M6,9c0-1.7,1.3-3,3-3s3,1.3,3,3s-1.3,3-3,3S6,10.7,6,9z M12,26H6v-6h6V26z M26,23c0,1.7-1.3,3-3,3
	s-3-1.3-3-3s1.3-3,3-3S26,21.3,26,23z M20,6h6v6h-6V6z"/>
<rect id="_Transparent_Rectangle_" class="st1" width="32" height="32"/>
</svg>
