<svg id="WatsonAssistant" xmlns="http://www.w3.org/2000/svg" viewBox="0 0 32 32"><defs><linearGradient id="sn3ppwtp2a" x1="-148.903" y1="-24.5" x2="-138.903" y2="-24.5" gradientTransform="translate(153.903 49.5)" gradientUnits="userSpaceOnUse"><stop offset="0" stop-opacity="0"/><stop offset=".83"/></linearGradient><linearGradient id="ee5dl9jfxb" x1="-22.5" y1="-548.447" x2="-12.5" y2="-548.447" gradientTransform="translate(42.553 565.447)" gradientUnits="userSpaceOnUse"><stop offset="0" stop-opacity="0"/><stop offset=".6"/></linearGradient><linearGradient id="2s0ekz992d" x1="0" y1="32" x2="32" y2="0" gradientUnits="userSpaceOnUse"><stop offset=".1" stop-color="#a56eff"/><stop offset=".9" stop-color="#0f62fe"/></linearGradient><mask id="ibce7wmu3c" width="32" height="32" maskUnits="userSpaceOnUse"><path d="M14 26H6.005A4.01 4.01 0 0 1 2 21.995v-9.994A4.005 4.005 0 0 1 6.001 8H14v2H6.001A2.003 2.003 0 0 0 4 12.001v9.993c0 1.106.899 2.005 2.005 2.005H14v2z" style="fill:#fff"/><path style="fill:url(#sn3ppwtp2a)" d="M5 23h10v4H5z" id="Gradients__black_" data-name="Gradients (black)"/><path d="m14.69 31-1.732-1 3.465-6h5.572A2.007 2.007 0 0 0 24 21.995v-8.992h2v8.992A4.01 4.01 0 0 1 21.995 26h-4.417l-2.887 5z" style="fill:#fff"/><path transform="rotate(-90 25.053 17)" style="fill:url(#ee5dl9jfxb)" d="M20.053 15h10v4h-10z"/></mask></defs><g style="mask:url(#ibce7wmu3c)"><path style="fill:url(#2s0ekz992d)" d="M0 0h32v32H0z"/></g><circle cx="10" cy="17" r="1" style="fill:#001d6c"/><circle cx="14" cy="17" r="1" style="fill:#001d6c"/><circle cx="18" cy="17" r="1" style="fill:#001d6c"/><path d="M27.999 2h-9.998A2.002 2.002 0 0 0 16 4.001v5.998c0 1.104.897 2.001 2.001 2.001h2.422l1.731 3 1.732-1-2.31-4h-3.577V4h10v6h-3v2h2.999a2.002 2.002 0 0 0 2.001-2.001V4.001A2.002 2.002 0 0 0 27.998 2z" style="fill:#001d6c"/></svg>