<?xml version="1.0" encoding="utf-8"?>
<!-- Generator: Adobe Illustrator 30.2.1, SVG Export Plug-In . SVG Version: 9.03 Build 0)  -->
<svg version="1.0" id="Ebene_1" xmlns="http://www.w3.org/2000/svg" xmlns:xlink="http://www.w3.org/1999/xlink" x="0px" y="0px"
	 viewBox="0 0 32 32" enable-background="new 0 0 32 32" xml:space="preserve">
<polygon fill="#3C3C3B" points="20.1,30.1 22.5,29.8 23.1,30.9 22.4,32.3 20,32.3 "/>
<path fill="#3C3C3B" d="M11.2,28.2L10.6,28c0,0-1.1,0-1.1,0c-0.1,0-0.5,0.3-0.5,0.3l0.2,1.9L8.9,32v0.3h1.2l0.2-1.2l0.3-1.4l0.6-1.3
	L11.2,28.2L11.2,28.2z"/>
<path fill="#C6C6C5" d="M10.6,30.9C10.5,30.9,10.5,30.9,10.6,30.9c-0.2,0-0.2,0.3-0.2,0.5c0,0,0,0.1,0,0.1c0.2,0.2,0.4,0.4,0.7,0.5
	c0.2,0.1,0.3,0.2,0.5,0.2h6.1c0.8,0,0.5,0,0.5,0h1.5l0,0c-0.2,0-0.3-0.1-0.5-0.1c-0.4-0.1-0.8-0.2-1.1-0.4c0,0-0.1,0-0.1,0
	c0,0,0,0-0.1,0s-0.1,0-0.1,0.1c-0.1,0.1-0.3,0.1-0.4,0.1c0,0-0.1,0-0.1,0c-0.2-0.1-0.4-0.2-0.5-0.3c-0.1,0-0.2-0.1-0.2-0.1
	c-0.5-0.1-1-0.2-1.4-0.3c-0.1,0-0.2,0-0.3,0c-0.1,0.1-0.3,0.2-0.5,0.2c-0.2,0.1-0.4,0-0.5-0.2c0-0.1-0.1-0.1-0.1-0.2
	c0-0.1,0-0.1,0-0.2c0-0.1,0-0.1-0.1-0.2c-0.2-0.1-0.4-0.2-0.7-0.2c-0.3-0.1-0.6-0.2-0.9-0.3c-0.3-0.1-0.6-0.2-0.9-0.3c0,0,0,0-0.1,0
	c0,0-0.1,0-0.1,0c0,0.2-0.1,0.4-0.1,0.6c0,0,0,0,0.1,0.2C10.7,30.6,10.7,30.8,10.6,30.9L10.6,30.9z"/>
<path fill="#C6C6C5" d="M10.4,32.3H11c-0.1-0.1-0.3-0.2-0.4-0.3c-0.1-0.1-0.2-0.1-0.3-0.2c0,0-0.1,0-0.1,0
	C10.2,32,10.2,32.1,10.4,32.3C10.3,32.2,10.3,32.2,10.4,32.3L10.4,32.3z"/>
<path fill="#C6C6C5" d="M15.6,30.1c0.1,0,0.2,0.1,0.2,0.2c0,0,0,0.1,0.1,0.1c0.1,0.1,0.1,0.1,0.3,0c0.1-0.1,0.2-0.2,0.2-0.3
	c0,0,0-0.1-0.1-0.1c-0.3,0-0.5,0-0.8,0c0,0,0,0-0.1,0C15.4,30,15.4,30,15.6,30.1C15.5,30,15.5,30,15.6,30.1L15.6,30.1z"/>
<path fill="#C6C6C5" d="M19.8,31.9C19.8,31.9,19.8,31.9,19.8,31.9c-0.4,0-0.7,0-1,0c-0.1,0-0.1,0-0.2,0c0,0-0.1,0-0.1,0l0,0v0
	c0.4,0.1,0.9,0.2,1.3,0.3c0,0,0.1,0,0.1-0.1s0-0.1,0-0.1C19.9,31.9,19.9,31.9,19.8,31.9L19.8,31.9z"/>
<path fill="#C6C6C5" d="M15.1,30.9c0.2,0.1,0.4,0.1,0.6,0.2c0,0,0,0,0,0c0,0,0,0,0,0v0c0,0-0.1-0.1-0.1-0.1
	c-0.1-0.1-0.2-0.2-0.3-0.2c0,0-0.1,0-0.1,0C15.3,30.8,15.2,30.8,15.1,30.9C15.1,30.9,15.1,30.9,15.1,30.9L15.1,30.9z"/>
<path fill="#C6C6C5" d="M19.9,31.2c-0.2,0-0.5-0.1-0.7-0.2c-0.1,0-0.1-0.1-0.1-0.1c0,0,0.1,0,0.1,0c0.2,0,0.3,0,0.5,0
	c0,0,0.1,0,0.2,0c0.1,0,0.2-0.1,0.2-0.2c0-0.1,0-0.2,0-0.3c0-0.2,0-0.2-0.3-0.2c-0.1,0-0.2,0-0.2,0c-0.1,0-0.2,0-0.4,0
	c-0.3,0-0.6-0.1-0.9-0.3c0,0,0,0-0.1,0c0,0-0.1,0-0.1,0c0,0.1,0,0.2,0,0.3s0,0.2,0,0.3C18,30.8,18,31,17.9,31.3c0,0,0,0.1,0.1,0.1
	c0.2,0,0.3,0,0.5,0.1c0.2,0,0.4,0.1,0.5,0c0.2,0,0.3,0,0.5,0c0.2,0,0.3,0,0.4,0c0,0,0.1,0,0.1-0.1c0-0.1,0-0.1,0-0.2
	C20,31.2,20,31.2,19.9,31.2L19.9,31.2z"/>
<path fill="#C6C6C5" d="M10.9,29.5c0.7,0.2,1.4,0.5,2.1,0.7c0.1,0,0.2,0.1,0.3,0.1c0,0,0,0,0,0c0,0,0.1,0,0.1,0c0,0,0-0.1,0-0.1
	c0-0.2-0.1-0.3-0.1-0.5c0-0.1,0-0.1,0-0.2c0,0,0,0,0-0.1c0-0.1,0-0.1-0.1-0.2c-0.3-0.1-0.5-0.2-0.8-0.3c-0.2-0.1-0.5-0.2-0.8-0.3
	c-0.1,0-0.2-0.1-0.3-0.1c-0.1,0.1-0.1,0.2-0.1,0.3c-0.1,0.1-0.1,0.2-0.2,0.3c-0.1,0.1-0.1,0.2-0.2,0.3
	C10.8,29.4,10.8,29.5,10.9,29.5L10.9,29.5z"/>
<path id="Kopf_Farbe" fill="#F7DC7E" d="M28.7,14.1c-0.1-0.4-0.1-0.8-0.2-1.2c0,0,0-0.1,0-0.1c0,0,0-0.1,0-0.1c0-0.2,0,0,0-0.2
	c0-0.3-0.1-0.4-0.1-0.6c0-0.3-0.1-0.6-0.3-0.9c-0.3-0.7-0.7-1.4-1-2.1c-0.2-0.3-0.3-0.6-0.5-0.8c-0.1-0.1-0.1-0.2-0.2-0.3
	c-0.3-0.5-0.7-1-1-1.4c-0.1-0.2-0.2-0.3-0.4-0.5c-0.1-0.1-0.1-0.2-0.2-0.2c-0.1,0-0.1-0.1-0.2-0.2c-0.1-0.1-0.2-0.2-0.3-0.3
	c-0.3-0.3-0.6-0.6-1-0.9c-0.7-0.5-1.3-0.9-2-1.3c-0.3-0.2-0.7-0.4-1.1-0.5c-0.2-0.1-0.3-0.1-0.4-0.2C19.1,2.2,18.6,2,18,1.9
	c-0.1,0-0.1,0-0.2,0c-0.4,0-0.7-0.1-1.1-0.2c-0.3,0-0.7-0.1-1-0.1c-0.5,0-1,0-1.4,0.1c0,0-0.1,0-0.2,0c-0.6,0-1.1,0.1-1.7,0.1
	c-0.2,0-0.4,0-0.6,0.1c-0.6,0.1-1.1,0.3-1.7,0.5C10,2.4,9.8,2.5,9.7,2.6C8.9,2.9,8.3,3.3,7.8,3.9C7.5,4.2,7.3,4.4,7,4.7
	C7,4.7,6.9,4.8,6.9,4.9C6.8,5,6.6,5.2,6.5,5.4C6.5,5.5,6.4,5.6,6.4,5.6C6.3,5.9,6.2,6.1,6.1,6.3C6,6.3,6,6.4,6,6.5
	C5.9,6.8,5.8,7.1,5.7,7.4c0,0.1-0.1,0.2-0.1,0.3C5.4,8.1,5.3,8.5,5.1,8.9c0,0,0,0.1,0,0.1c0,0.2,0,0.3-0.1,0.4c0,0.1,0,0.1,0,0.2
	c0,0.3-0.1,0.5-0.1,0.8c0,0.2,0,0.3,0,0.5c-0.1,0.4-0.1,0.7-0.1,1.1c0,0,0,0,0,0.1c0,0.3,0,0.5,0,0.8c0,0.3,0,0.6,0.1,0.9
	c0,0.2,0,0.3,0,0.4c0,0.3,0.1,0.7,0.3,1c0.2,0.4,0.4,0.9,0.6,1.3c0.2,0.3,0.4,0.7,0.6,1c0.2,0.3,0.4,0.6,0.7,0.9
	c0.1,0.1,0.2,0.3,0.3,0.4c0.2,0.3,0.5,0.6,0.7,1c0.2,0.5,0.3,0.7,0.1,1.1C8,21.4,7.9,21.7,7.8,22c-0.1,0.2-0.1,0.3-0.2,0.5
	c-0.1,0.3-0.2,0.7-0.2,1.1c0,0.3,0,0.5,0.1,0.8c0.2,0.5,0.4,0.9,0.7,1.4c0.1,0.2,0.3,0.4,0.4,0.6c0.4,0.5,0.9,1,1.3,1.5
	c0,0,0.1,0.1,0.2,0.1c0.1,0,0.1,0,0.2,0c0.1,0,0.1,0,0.2-0.1c0-0.1,0.1-0.1,0.2,0c0.1,0.1,0.3,0.1,0.4,0.2c0.1,0,0.2,0.1,0.2,0.1
	l0.2,0.3l1.8,0.8l1.9,0.6h1.7l2-0.1l0.1-0.2c0,0,0.1,0,0.1,0c0.2,0,0.4,0,0.6,0c0.1,0,0.3,0,0.4,0c0.1,0,0.2,0,0.3,0
	c0.3,0,0.7-0.1,1-0.1c0.2,0,0.5,0,0.7,0c0.1,0,0.3,0,0.4-0.1c0.2-0.1,0.3-0.2,0.4-0.3c0.1-0.1,0,0,0.1-0.1c0.2-0.2,0.2-0.1,0.2-0.1
	c0.1,0,0.1-0.1,0.2-0.2c0.2-0.1,0.2-0.2,0.3-0.4c0.2-0.2,0.3-0.4,0.4-0.7c0.1-0.2,0.2-0.4,0.3-0.7c0-0.1,0-0.1,0.1-0.2
	c0.1-0.3,0.2-0.6,0.2-0.9c0-0.1,0-0.2,0-0.3c0-0.2-0.1-0.4-0.1-0.6c0-0.1,0-0.1,0-0.2c0-0.2,0-0.4,0-0.7c0-0.1,0-0.2,0-0.4
	c0-0.2,0.1-0.3,0.1-0.5c0.1-0.2,0.2-0.4,0.3-0.6c0.3-0.3,0.5-0.5,0.7-0.9c0.1-0.1,0.1-0.2,0.2-0.3c0.1-0.2,0.3-0.4,0.5-0.6
	c0.3-0.3,0.5-0.6,0.6-0.9c0.2-0.4,0.4-0.7,0.6-1.1c0,0,0-0.1,0.1-0.1c0.1-0.1,0.1-0.2,0.2-0.3c0.1-0.3,0.3-0.7,0.4-1c0,0,0,0,0-0.1
	c0.2-0.5,0.3-1.1,0.3-1.6C28.8,15.2,28.8,14.6,28.7,14.1L28.7,14.1z"/>
<polygon id="Gesicht_Farbe" fill="#C6C6C5" points="10.8,10.9 11.8,10.5 14.9,10.3 18.8,10.3 21.7,10.9 23.5,11.5 24.7,13.1 
	24.8,13.9 24.7,16.1 24,18 22.7,19.5 21.9,21.5 21.7,23.3 21.2,24.5 20.1,25.2 18.4,25.7 16.2,26 13.6,25.6 12.2,24.7 11.3,23 
	11.1,21 11.4,19.8 11.5,18.5 11.3,17.3 10.6,15.8 9.9,14.5 9.5,14.2 9.4,12.7 9.8,11.6 "/>
<path fill="#EE7D16" d="M18,29.7c0,0.4-0.1,0.9-0.2,1.3c0,0.2-0.1,0.5-0.2,0.7c-0.1,0.3-0.4,0.4-0.7,0.2c-0.2-0.1-0.4-0.3-0.7-0.4
	c-0.1,0-0.1-0.1-0.2-0.2c-0.1-0.3-0.3-0.4-0.5-0.6c-0.1-0.1-0.1-0.1-0.2,0C15.2,30.8,15,30.8,15,31c0,0.1-0.1,0.1-0.1,0.1
	c-0.2,0-0.4,0.2-0.6,0.3c-0.3,0.2-0.6,0-0.6-0.4c0-0.1,0-0.3-0.1-0.3c-0.1,0-0.1-0.2,0-0.2c0,0,0-0.1,0-0.2c-0.1-0.4-0.1-0.8,0-1.2
	c0-0.1,0-0.2,0-0.3c0-0.1,0-0.2,0.1-0.3c0.1-0.1,0.2,0,0.3,0.1c0.3,0.3,0.6,0.5,0.9,0.8c0.2,0.2,0.5,0.3,0.6,0.6
	c0,0.1,0.1,0.1,0.2,0.1c0.1,0,0.2,0.1,0.2,0.2c0,0,0,0.1,0,0.1c0.2,0.2,0.2,0.2,0.3,0c0.1-0.1,0.2-0.3,0.3-0.4
	c0-0.1,0.1-0.2,0.2-0.3c0.2-0.3,0.5-0.4,0.8-0.5C17.8,29,18,29.2,18,29.7C18,29.6,18,29.6,18,29.7L18,29.7z"/>
<g>
	<path fill="#1D1D1B" d="M8.9,30.4c0,0.4,0.1,1,0,1.7c0,0,0,0.1,0,0.1c0,0,0,0,0,0.1h0.6c0,0,0-0.1,0-0.1s0-0.1-0.1-0.1
		c-0.1,0-0.1,0-0.1-0.1c0-0.1,0-0.1,0-0.1c0-0.2,0-0.3,0-0.4c0-0.1,0-0.1,0-0.2c0-0.2,0-0.3,0.1-0.5c0,0,0,0,0,0h0
		c0.1,0.2,0.3,0.3,0.4,0.5c0.1,0.1,0.2,0.2,0.2,0.3c0.1,0.1,0.1,0.2,0,0.2c0,0-0.1,0-0.1,0c-0.1-0.1-0.2-0.3-0.3-0.4
		c0,0-0.1-0.1-0.1-0.1c0,0-0.1,0-0.1,0s0,0.1,0,0.1c0.1,0.2,0.2,0.3,0.3,0.5c0.1,0.1,0.1,0.1,0.2,0.2c0,0,0.1,0.1,0,0.2
		c0,0,0,0.1,0,0.1h0.5c0,0,0,0,0,0c-0.1-0.1-0.1-0.2,0-0.3c0,0,0.1-0.1,0.1,0c0.1,0.1,0.2,0.1,0.3,0.2c0.1,0.1,0.2,0.1,0.3,0.2h0.5
		c-0.1-0.1-0.3-0.1-0.4-0.2c-0.3-0.1-0.5-0.3-0.7-0.5c0,0,0-0.1,0-0.1c0-0.2,0.1-0.3,0.1-0.5c0,0,0.1,0,0.1,0c0.1,0,0.1,0.1,0.2,0.2
		c0.2,0.1,0.3,0.2,0.5,0.3c0,0,0,0,0.1,0v0c-0.2-0.2-0.5-0.4-0.7-0.7c-0.1-0.1-0.1-0.2-0.1-0.2c0-0.2,0.1-0.4,0.1-0.6
		c0,0,0.1-0.1,0.1,0c0,0,0,0,0.1,0c0.3,0.1,0.6,0.2,0.9,0.3c0.3,0.1,0.6,0.2,0.9,0.3c0.2,0,0.3,0.1,0.5,0.2c0,0,0,0.1,0.1,0.1
		c0.1,0,0.1,0.1,0.1,0.2v0c0,0.2,0.1,0.4,0.2,0.5c0.2,0.1,0.4,0.1,0.6,0c0.1,0,0.2-0.1,0.3-0.1c0.1-0.1,0.2-0.2,0.3-0.2
		c0.1,0,0.1,0,0.2-0.1c0.3,0.1,0.6,0.1,0.9,0.2c0,0,0,0,0,0.1c0.1,0.1,0.2,0.2,0.3,0.2c0.2,0,0.3,0.2,0.4,0.3
		c0.1,0.1,0.2,0.1,0.3,0.2c0.1,0.1,0.2,0.1,0.4,0.1c0.1,0,0.2,0,0.2,0c0.2-0.1,0.3-0.2,0.3-0.4l0,0c0.3,0.2,0.7,0.3,1.1,0.4
		c0.2,0,0.3,0.1,0.5,0.1h2.3c0,0,0,0,0,0c0.2,0,0.3-0.1,0.4-0.3c0.1-0.1,0.2-0.2,0.3-0.3c0,0,0-0.1,0-0.1c0,0,0,0,0,0c0,0,0,0,0,0
		c0,0-0.1,0.1-0.2,0.1c-0.3,0.3-0.8,0.5-1.3,0.5c-0.2,0-0.4,0-0.6,0c-0.1,0-0.1,0-0.1-0.1c0,0,0-0.1,0-0.1s0-0.1,0.1-0.1
		c0.1,0,0.1,0,0.2,0c0.4,0,0.8-0.1,1.2-0.2c0,0,0.1,0,0.1,0c0,0,0,0,0.1,0c0,0,0-0.1,0-0.1c0,0,0,0,0,0c-0.1,0-0.3,0-0.4,0
		c-0.3,0-0.7,0.1-1,0.1c0,0-0.1,0-0.2,0c0,0-0.1,0-0.1-0.1c0-0.1,0-0.1,0-0.2c0,0,0,0,0,0c0,0,0,0,0.1,0c0.1,0,0.2,0,0.3,0
		c0.4,0,0.8-0.1,1.2-0.2c0.2-0.1,0.3-0.1,0.5-0.2c0,0,0.1,0,0.2,0c0,0.1,0,0.2,0,0.3c0,0,0.1,0.1,0.1,0.1c0.1,0,0.1,0.1,0.1,0.2
		c0,0.2-0.1,0.4-0.2,0.5c-0.1,0.1-0.2,0.2-0.2,0.4h0.2c0.1-0.1,0.2-0.1,0.2-0.2c0.1-0.1,0.2-0.2,0.3-0.5c0,0,0-0.1,0.1-0.2
		c0-0.1,0.1-0.4,0-0.7c-0.1-0.3-0.2-0.3-0.2-0.6c0-0.1,0-0.1,0-0.1c0.2-0.2,0.5-0.4,0.7-0.6c0.1-0.1,0.2-0.3,0.3-0.4
		c0.2-0.1,0.3-0.3,0.3-0.5c0.2-0.2,0.3-0.5,0.4-0.7c0.1-0.2,0.2-0.4,0.2-0.5c0.1-0.2,0.1-0.3,0.1-0.5C25,26.5,25,26.2,25,26
		c0-0.2,0-0.3,0-0.5c0-0.2,0-0.1,0-0.2c0-0.1,0-0.1,0-0.1s0-0.3,0-0.4c0-0.1,0-0.5,0-0.5c0-0.2,0.1-0.4,0.2-0.5
		c0-0.2,0.2-0.3,0.3-0.5c0.1-0.1,0.2-0.1,0.2-0.2c0.3-0.3,0.4-0.7,0.7-1c0-0.1,0.1-0.1,0.1-0.2c0-0.1,0.1-0.2,0.2-0.2
		c0-0.1,0.1-0.1,0.2-0.2c0.3-0.3,0.5-0.6,0.6-1c0.1-0.2,0.2-0.4,0.3-0.7c0,0,0.1-0.1,0.1-0.2c0.1-0.1,0.1-0.2,0.1-0.2
		c0.2-0.4,0.4-0.7,0.6-1.2c0.2-0.5,0.3-0.9,0.4-1.4c0.1-0.2,0.1-0.5,0.1-0.8c0-0.1,0-0.3,0-0.4c0-0.4,0.1-0.7,0.1-1.1
		c0-0.4,0-0.8-0.1-1.1c0,0,0-0.1,0-0.1c0-0.3-0.1-0.6-0.2-0.9c-0.1-0.4-0.2-0.7-0.3-1.1c0-0.1,0-0.3-0.1-0.4
		c-0.1-0.3-0.2-0.3-0.3-0.5c-0.1-0.2-0.2-0.3-0.3-0.5c-0.2-0.5-0.5-1-0.9-1.6c-0.2-0.2-0.4-0.5-0.5-0.7c-0.3-0.4-0.6-0.9-1-1.3
		C25.2,6.1,25.1,6,25,5.9c-0.2-0.2-0.3-0.4-0.5-0.6c-0.2-0.2-0.3-0.3-0.5-0.4c-0.2-0.2-0.5-0.4-0.8-0.6C23.1,4.2,23,4.1,22.8,4
		c-0.1-0.1-0.2-0.2-0.3-0.3c-0.2-0.2-0.4-0.3-0.6-0.4c-0.2-0.1-0.4-0.2-0.6-0.3c-0.2-0.1-0.3-0.2-0.5-0.3c-0.5-0.3-1.1-0.5-1.6-0.7
		c-0.2,0-0.3-0.1-0.5-0.1c-0.4-0.1-0.8-0.2-1.2-0.3c-0.7-0.1-1.3-0.2-2-0.2c-0.1,0-0.1,0-0.2,0c-0.4,0-0.9,0-1.3,0
		c-0.1,0-0.2,0-0.3,0c-0.1,0-0.3,0-0.4,0c-0.1,0-0.1,0-0.2,0c-0.2,0-0.3,0-0.5,0.1c-0.3,0-0.6,0.1-0.9,0.1c0,0-0.1,0-0.1,0
		c-0.3,0-0.5,0.1-0.8,0.2c-0.5,0.1-0.9,0.3-1.3,0.5c-0.3,0.1-0.7,0.3-1,0.5C8.3,3,8,3.1,7.8,3.3C7.4,3.8,7,4.2,6.6,4.7
		C6.5,4.7,6.5,4.8,6.4,4.9C6.3,5.1,6.1,5.3,5.9,5.6c-0.2,0.3-0.3,0.7-0.5,1C5.4,6.8,5.3,7,5.2,7.2c0,0.1,0,0.2-0.1,0.2
		c0,0.1-0.1,0.2-0.1,0.3C5,8,4.9,8.1,4.9,8.2C4.8,8.5,4.7,8.8,4.6,9.1c0,0,0,0.1,0,0.1c0,0.1,0,0.3-0.1,0.4c0,0,0,0.1,0,0.2
		c0,0.2-0.1,0.5-0.1,0.7c0,0.2,0,0.4-0.1,0.6c0,0.3-0.1,0.6-0.1,0.9c0,0.5,0,1.1,0.1,1.7c0,0.1,0,0.1,0,0.2c0,0.2,0,0.4,0,0.6
		c0,0.1,0,0.2,0,0.4c0.2,0.7,0.4,1.4,0.8,2.1c0.1,0.1,0.2,0.3,0.2,0.4c0.1,0.3,0.3,0.5,0.4,0.8c0.3,0.4,0.6,0.9,0.9,1.3
		c0.2,0.2,0.3,0.4,0.4,0.6c0.2,0.3,0.3,0.5,0.4,0.8c0,0.1,0,0.2,0,0.3c-0.1,0.3-0.2,0.5-0.3,0.8c0,0,0,0.1,0,0.1
		c-0.1,0.2-0.2,0.4-0.2,0.6c-0.2,0.4-0.2,0.8-0.2,1.2c0,0.1,0,0.1,0,0.2c0,0.1,0,0.2,0,0.4C7,24.5,7.1,24.8,7.2,25
		c0.4,0.8,0.9,1.6,1.6,2.3c0.1,0.2,0.3,0.3,0.4,0.5c0,0,0.1,0.1,0.1,0.1c0,0,0,0.1,0,0.1c-0.1,0-0.1,0-0.1,0c-0.1,0-0.3,0.3-0.5,0.6
		c-0.2,0.6,0,1.2,0.1,1.9L8.9,30.4z M10.6,29.4c0,0-0.1,0.1-0.1,0c-0.2-0.1-0.4-0.2-0.6-0.2c-0.1,0-0.1-0.1-0.2-0.1l0,0
		c0,0,0,0.1,0,0.1c0.1,0,0.1,0.1,0.2,0.1c0.1,0,0.1,0.1,0.2,0.1c0.1,0.1,0.3,0.1,0.4,0.3c0,0.2-0.1,0.3-0.1,0.4c0,0,0,0.1,0,0.1
		c0,0,0,0,0,0c0,0,0,0-0.1,0c0,0,0,0-0.1-0.1c-0.1-0.1-0.2-0.3-0.3-0.4c-0.1-0.1-0.1-0.2-0.2-0.3c0,0-0.1,0-0.1,0s-0.1,0-0.1,0.1
		c0,0.1,0,0.2,0,0.3c0,0.1,0.1,0.1,0.1,0.2c0.2,0.2,0.3,0.4,0.5,0.6c0,0,0.1,0.1,0,0.2c0,0.1-0.1,0.3-0.1,0.4c0,0,0,0,0,0
		c0,0-0.1,0-0.1,0C9.9,31.1,9.9,31,9.9,31c-0.2-0.2-0.3-0.4-0.4-0.6c-0.1-0.1-0.1-0.3-0.1-0.4c0-0.4,0-0.8-0.2-1.1
		c0-0.1,0-0.2-0.1-0.2c0,0,0-0.1,0-0.2c0-0.1,0.1-0.2,0.2-0.2c0.1,0,0.2-0.1,0.3-0.1c0.1,0,0.2,0,0.2,0c0.1,0.1,0.2,0.2,0.3,0.3
		c0.1,0,0.1,0.1,0.2,0.1c0,0,0.1,0,0.1,0c0,0,0-0.1,0-0.1c0,0-0.1-0.1-0.1-0.1c0,0-0.1-0.1,0-0.1c0,0,0.1,0,0.1,0s0.1,0,0.2,0
		c0.1,0.1,0.3,0.1,0.4,0.2c0,0,0,0,0,0.1c0,0.1-0.1,0.3-0.1,0.4C10.8,28.9,10.7,29.1,10.6,29.4L10.6,29.4z M13.3,30.4
		c-0.1,0-0.2-0.1-0.3-0.1c-0.7-0.2-1.4-0.5-2.1-0.7c-0.1,0-0.1-0.1-0.1-0.1c0-0.1,0.1-0.2,0.2-0.3c0.1-0.1,0.1-0.2,0.2-0.3
		c0.1-0.1,0-0.2,0.1-0.3c0.1,0,0.2,0.1,0.3,0.1c0.3,0.1,0.5,0.2,0.8,0.3c0.3,0.1,0.5,0.2,0.8,0.3c0,0,0,0,0,0
		C13.2,29.6,13.2,29.9,13.3,30.4L13.3,30.4C13.3,30.3,13.3,30.3,13.3,30.4L13.3,30.4L13.3,30.4z M15.2,30.9c0,0,0.1,0,0.1-0.1
		c0,0,0.1,0,0.1-0.1c0,0,0,0,0,0c0.1,0.1,0.1,0.1,0.2,0.2C15.4,31,15.3,30.9,15.2,30.9L15.2,30.9z M17.8,30.7c0,0.1,0,0.2-0.1,0.3
		v0.1c0,0.2-0.1,0.5-0.2,0.7c0,0.1-0.1,0.2-0.2,0.2c-0.1,0-0.3,0-0.4,0c-0.1,0-0.2-0.1-0.3-0.2c-0.2-0.1-0.3-0.2-0.5-0.3
		c0,0-0.1,0-0.1-0.1c-0.1-0.2-0.2-0.3-0.4-0.5c-0.1-0.1-0.1-0.1-0.2-0.2c-0.1-0.1-0.2-0.1-0.2-0.1c-0.1,0-0.1,0-0.2,0c0,0,0,0-0.1,0
		c-0.1,0.1-0.2,0.2-0.3,0.3c0,0,0,0,0,0c-0.2,0-0.3,0.1-0.5,0.2c-0.1,0-0.1,0.1-0.2,0.1c-0.2,0.1-0.3,0.1-0.3,0
		c-0.1-0.1-0.1-0.2-0.1-0.3v0c0-0.1,0-0.3-0.2-0.4c0,0,0,0,0-0.1c0.1-0.1,0.1-0.2,0-0.2l0,0c-0.1-0.5-0.1-0.8,0-1.2
		c0-0.2,0-0.3,0-0.4c0-0.1,0-0.1,0-0.1c0.1,0,0.1,0,0.2,0c0.2,0.2,0.4,0.4,0.7,0.6c0.1,0.1,0.2,0.2,0.3,0.2c0.1,0.1,0.1,0.1,0.2,0.2
		c0.2,0.1,0.3,0.2,0.4,0.4c0.1,0.1,0.2,0.2,0.3,0.2h0c0.1,0,0.1,0.1,0.1,0.1c0,0.1,0,0.1,0.1,0.2c0.1,0.1,0.2,0.2,0.3,0.2
		s0.2-0.1,0.3-0.2c0.1-0.1,0.2-0.3,0.3-0.4V30c0.1-0.1,0.1-0.1,0.1-0.2c0,0,0.1-0.1,0.1-0.2c0.2-0.3,0.4-0.4,0.8-0.5
		c0.1,0,0.3-0.1,0.4,0c0.1,0.1,0.1,0.2,0.1,0.4v0.1C18,30,17.9,30.3,17.8,30.7z M11.7,18.4c0-0.2-0.1-0.5-0.1-0.7
		c0-0.1,0-0.2-0.1-0.3c0-0.2-0.2-0.4-0.2-0.6c-0.1-0.3-0.2-0.5-0.3-0.7c-0.1-0.2-0.1-0.3-0.2-0.4c0-0.1-0.1-0.2-0.2-0.4
		c-0.1-0.2-0.2-0.3-0.3-0.5c-0.1-0.2-0.3-0.3-0.4-0.5c0,0-0.1-0.1-0.1-0.1c0,0,0,0,0-0.1c0-0.2,0-0.4,0-0.6c0-0.2,0-0.3,0-0.5
		c0-0.2,0.1-0.5,0.2-0.7c0.1-0.1,0.1-0.3,0.2-0.4c0.1-0.2,0.3-0.4,0.5-0.6c0.1-0.1,0.3-0.2,0.4-0.2c0.2-0.1,0.3-0.1,0.5-0.2
		c0.2-0.1,0.4-0.1,0.6-0.2c0.1,0,0.2,0,0.3-0.1c0.2,0,0.3,0,0.4,0c0.2,0,0.4,0,0.5-0.1c0.2,0,0.5-0.1,0.7-0.1c0.2,0,0.5,0,0.7,0
		c0.2,0,0.3,0,0.5,0c0.2,0,0.3,0,0.5,0c0.2,0,0.3,0,0.5,0c0.1,0,0.2,0,0.3,0c0.1,0,0.1,0,0.2,0c0.2,0,0.4,0,0.6,0c0.2,0,0.5,0,0.7,0
		c0.2,0,0.4,0,0.6,0c0.2,0,0.5,0,0.7,0.1s0.5,0.1,0.7,0.1s0.5,0.1,0.7,0.1c0.1,0,0.2,0,0.2,0c0.1,0,0.1,0,0.2,0.1c0,0,0.1,0,0.1,0
		c0.1,0,0.2,0,0.4,0.1c0,0,0.1,0,0.1,0c0.2,0.1,0.4,0.2,0.6,0.2c0.2,0.1,0.3,0.1,0.5,0.2c0.1,0,0.2,0.1,0.2,0.1
		c0.3,0.2,0.5,0.4,0.7,0.6c0.2,0.2,0.3,0.5,0.4,0.7c0,0.2,0.1,0.3,0.2,0.5c0,0.3,0.1,0.5,0.1,0.8c0,0.2,0,0.4,0,0.5
		c0,0.1,0,0.1,0,0.2c0,0.1,0,0.2,0,0.2c0,0.2,0,0.4-0.1,0.6c0,0.1,0,0.2,0,0.3c0,0.1-0.1,0.2-0.1,0.3c0,0,0,0,0,0
		c0,0.2-0.1,0.4-0.2,0.7c0,0.1-0.1,0.2-0.2,0.3c-0.1,0.2-0.2,0.3-0.3,0.5c-0.1,0.2-0.2,0.3-0.3,0.4c0,0,0,0.1-0.1,0.1
		c-0.2,0.2-0.3,0.4-0.5,0.6c-0.2,0.2-0.3,0.3-0.4,0.5c-0.1,0.1-0.1,0.2-0.2,0.3c-0.1,0.1-0.1,0.2-0.2,0.3c0,0.1-0.1,0.2-0.1,0.3
		c0,0,0,0.1,0,0.1c0,0.1-0.1,0.3-0.2,0.4c-0.1,0.2-0.1,0.4-0.1,0.6c0,0.1,0,0.2,0,0.3c0,0,0,0.1,0,0.2c0,0.2,0,0.4,0,0.7
		c0,0.1,0,0.3,0,0.4c0,0.2-0.1,0.5-0.2,0.7c0,0.1-0.1,0.2-0.2,0.2c-0.1,0.2-0.3,0.3-0.5,0.5c0,0-0.1,0-0.1,0c-0.2,0-0.2,0-0.3,0.2
		c0,0,0,0.1-0.1,0.1c-0.2,0.2-0.5,0.3-0.8,0.4c-0.2,0.1-0.4,0.1-0.6,0.2c-0.2,0-0.3,0.1-0.4,0.1c-0.2,0-0.4,0.1-0.6,0.1
		c-0.1,0-0.2,0-0.3,0c-0.2,0-0.4,0.1-0.6,0.1c-0.2,0-0.4,0-0.6,0c-0.2,0-0.5-0.1-0.7-0.1c-0.3,0-0.6,0-1-0.1c-0.2,0-0.4-0.1-0.6-0.2
		c-0.2-0.1-0.4-0.2-0.6-0.2c-0.2,0-0.3-0.1-0.4-0.2c-0.2-0.1-0.3-0.3-0.5-0.4c-0.2-0.2-0.3-0.4-0.5-0.5c0,0,0,0,0-0.1
		c-0.1-0.2-0.2-0.3-0.2-0.5c0-0.1-0.1-0.2-0.1-0.3c0-0.1-0.1-0.2-0.1-0.2c-0.1-0.3-0.2-0.6-0.2-0.9c0-0.1,0-0.2,0-0.4c0,0,0,0,0-0.1
		c0-0.3,0-0.5,0.1-0.8c0-0.1,0-0.2,0.1-0.3c0-0.2,0-0.3,0.1-0.5c0-0.2,0.1-0.4,0.1-0.5c0.1-0.4,0.1-0.8,0.1-1.2L11.7,18.4z
		 M13.6,25.9C13.6,25.9,13.6,25.9,13.6,25.9c0.2,0,0.3,0.1,0.4,0.1c0.3,0.2,0.6,0.2,0.9,0.2c0.2,0,0.3,0,0.5,0c0.3,0,0.6,0,0.9,0
		c0.3,0,0.5,0,0.8,0c0.3,0,0.5-0.1,0.8-0.1c0.1,0,0.3,0,0.4-0.1c0.3,0,0.5-0.1,0.8-0.2c0.3-0.1,0.7-0.2,1-0.3c0,0,0.1,0,0.1,0
		c0,0,0,0,0,0c0,0,0,0,0,0c0,0.2-0.1,0.3-0.2,0.4c-0.1,0.2-0.1,0.3-0.2,0.5c-0.1,0.2-0.1,0.3-0.2,0.4c-0.1,0.2-0.1,0.3-0.2,0.5
		c0,0.1-0.1,0.2-0.1,0.3c0,0.2-0.1,0.3-0.2,0.5c0,0.1-0.1,0.2-0.1,0.3c0,0.2-0.1,0.4-0.2,0.6c0,0.1-0.1,0.2-0.1,0.3c0,0,0,0-0.1,0
		c0,0,0,0,0,0v0.1c0,0-0.1,0-0.2,0c-0.1,0-0.2,0-0.4,0l0,0v0c0-0.3-0.1-0.5-0.2-0.6c-0.2-0.1-0.3-0.1-0.6,0
		c-0.3,0.1-0.7,0.3-0.9,0.6c0,0,0,0.1-0.1,0.1l0,0h-1.1c-0.1-0.2-0.2-0.2-0.3-0.3c-0.1,0-0.1-0.1-0.2-0.2c-0.1-0.1-0.2-0.2-0.3-0.2
		c-0.1-0.1-0.2-0.2-0.4-0.3c0-0.2-0.1-0.4-0.1-0.6c0-0.1,0-0.2,0-0.3c0,0,0-0.1,0-0.1c0.1-0.2,0.3-0.3,0.5-0.5c0,0,0.1,0,0.1-0.1
		c0,0,0.1,0,0.1,0c0.3-0.2,0.6-0.1,0.9-0.1c0.1,0,0.1,0,0,0.1c-0.1,0.1-0.2,0.2-0.2,0.3c0,0.1-0.1,0.2,0,0.4c0,0.2,0.1,0.3,0.2,0.4
		c0.2,0.2,0.5,0.3,0.8,0.3c0.2,0,0.4-0.1,0.5-0.2c0.1-0.1,0.1-0.2,0.1-0.2c0.1-0.2,0.1-0.4,0-0.6c-0.1-0.1-0.2-0.3-0.3-0.4
		c0,0-0.1-0.1-0.1-0.1c0,0,0.1,0,0.1,0c0.2,0,0.4,0,0.7,0c0.2,0,0.4,0,0.5,0.1c0.2,0.1,0.4,0.2,0.5,0.3c0.1,0.1,0.2,0.2,0.3,0.3
		c0.1,0.1,0.1,0.2,0.2,0.3c0,0,0.1,0.1,0.1,0.1c0,0,0.1-0.1,0.1-0.1c0-0.1,0-0.2,0-0.2c-0.1-0.3-0.3-0.5-0.5-0.7
		c-0.2-0.2-0.3-0.3-0.6-0.3c-0.1,0-0.3-0.1-0.4-0.1c-0.2,0-0.4,0-0.6,0c-0.3,0-0.6,0-0.9,0.2c-0.1,0-0.1,0-0.2,0
		c-0.3-0.1-0.5-0.2-0.9-0.2c-0.1,0-0.2,0-0.3,0c-0.2,0-0.3,0.1-0.4,0.2c-0.2,0.1-0.3,0.2-0.4,0.3c-0.1,0.1-0.2,0.2-0.2,0.3l0,0
		c0-0.1,0-0.2-0.1-0.2c0-0.2-0.1-0.3-0.1-0.4c0-0.1,0-0.2-0.1-0.3C13.6,26.2,13.5,26,13.6,25.9C13.5,25.9,13.5,25.8,13.6,25.9
		L13.6,25.9z M16.3,30c-0.1,0.1-0.1,0.3-0.2,0.3c0,0-0.1,0.1-0.1,0.1c0,0,0,0-0.1-0.1c0,0,0,0,0-0.1c0-0.1-0.1-0.2-0.2-0.3
		C15.8,30,16.1,30,16.3,30L16.3,30L16.3,30z M16,27.6c0-0.1,0.1-0.1,0.2-0.2c0,0,0.1,0,0.1,0c0.2,0.1,0.3,0.3,0.4,0.5
		c0,0.1,0,0.1-0.1,0.2c-0.1,0-0.2,0.1-0.3,0.1C16.1,28.1,15.8,27.9,16,27.6L16,27.6z M19.9,32.1c0,0-0.1,0.1-0.1,0.1
		c-0.4-0.1-0.9-0.1-1.3-0.3c0,0,0,0,0,0l0,0c0,0,0.1,0,0.1,0c0.1,0,0.1,0,0.2,0c0.3,0,0.6,0,1,0c0,0,0,0,0.1,0
		C19.8,31.9,19.9,31.9,19.9,32.1C19.9,32,19.9,32,19.9,32.1L19.9,32.1z M19.1,31.1c0.2,0.1,0.4,0.1,0.7,0.2c0.1,0,0.1,0.1,0.1,0.1
		c0,0.1,0,0.1,0,0.2c0,0,0,0.1-0.1,0.1c-0.2,0-0.3,0-0.4,0s-0.3,0-0.5,0c-0.2,0-0.4,0-0.5,0c-0.1,0-0.3,0-0.4-0.1
		c0-0.1,0-0.2,0.1-0.3v-0.1c0-0.1,0-0.2,0.1-0.3c0-0.2,0.1-0.5,0.1-0.7c0,0,0,0,0,0c0.3,0.2,0.6,0.3,0.9,0.3c0.1,0,0.2,0,0.4,0
		c0.1,0,0.2,0,0.2,0c0.2,0,0.3,0,0.3,0.2c0,0.1,0,0.2,0,0.3c0,0.1-0.1,0.1-0.2,0.1c0,0-0.1,0-0.2,0C19.5,31,19.3,31,19.1,31.1
		C19.1,31,19.1,31,19.1,31.1C19.1,31,19.1,31.1,19.1,31.1L19.1,31.1z M22.5,30.4c-0.4,0.1-0.7,0.2-1.1,0.3c-0.3,0.1-0.6,0.1-0.9,0.2
		c-0.1,0-0.1,0-0.2-0.1c0-0.1,0-0.2,0-0.3c0-0.2,0-0.3,0.3-0.3c0.2,0,0.4,0,0.7-0.1c0.1,0,0.2,0,0.2-0.1c0.2-0.1,0.3-0.1,0.5-0.1
		c0.1,0,0.2,0,0.3,0c0,0,0,0,0,0c0,0,0,0,0,0c0,0.1,0.1,0.2,0.2,0.2c0.1,0,0.1,0,0.1,0.1C22.5,30.3,22.5,30.4,22.5,30.4L22.5,30.4z
		 M22.7,30.7C22.6,30.7,22.6,30.7,22.7,30.7C22.6,30.7,22.6,30.7,22.7,30.7C22.6,30.7,22.7,30.7,22.7,30.7L22.7,30.7L22.7,30.7z
		 M4.8,12.2C4.8,12.2,4.8,12.2,4.8,12.2c0-0.5,0-0.8,0.1-1.2c0-0.2,0-0.3,0-0.5C4.9,10.2,5,10,5,9.7c0-0.1,0-0.1,0-0.2
		c0-0.1,0.1-0.3,0.1-0.4c0,0,0-0.1,0-0.1c0.1-0.4,0.2-0.8,0.4-1.2c0-0.1,0.1-0.2,0.1-0.3C5.8,7.1,5.9,6.9,6,6.6c0-0.1,0-0.2,0.1-0.2
		c0.1-0.2,0.2-0.4,0.3-0.6c0-0.1,0.1-0.2,0.2-0.3c0.1-0.2,0.2-0.3,0.3-0.5C7,4.9,7,4.8,7.1,4.7C7.3,4.5,7.5,4.2,7.8,4
		c0.5-0.6,1.1-1,1.9-1.3c0.2-0.1,0.4-0.2,0.6-0.2c0.5-0.2,1.1-0.3,1.6-0.5c0.2,0,0.4,0,0.6-0.1c0.5,0,1.1-0.1,1.6-0.1
		c0,0,0.1,0,0.2,0c0.5-0.1,1-0.1,1.4,0c0.3,0,0.7,0,1,0.1c0.4,0,0.7,0.1,1.1,0.2c0.1,0,0.1,0,0.2,0c0.6,0.1,1.1,0.2,1.7,0.4
		c0.2,0,0.3,0.1,0.4,0.2c0.4,0.2,0.7,0.3,1.1,0.5c0.7,0.4,1.3,0.9,2,1.3c0.4,0.3,0.7,0.5,1,0.9c0.1,0.1,0.2,0.2,0.3,0.3
		c0.1,0.1,0.1,0.1,0.2,0.2c0.1,0,0.2,0.1,0.2,0.2c0.1,0.2,0.2,0.3,0.3,0.5c0.3,0.5,0.7,0.9,1,1.4c0.1,0.1,0.1,0.2,0.2,0.3
		C26.6,8.4,26.8,8.7,27,9c0.4,0.7,0.7,1.4,1,2c0.1,0.3,0.2,0.6,0.3,0.9c0,0.2,0.1,0.2,0.1,0.4c0,0.3,0,0.1,0,0.4c0,0,0,0.1,0,0.1
		c0,0,0,0.1,0,0.1c0,0.4,0.1,0.8,0.2,1.2c0.1,0.5,0.1,1.1,0,1.7c0,0.5-0.2,1.1-0.3,1.6c0,0,0,0,0,0.1c-0.1,0.4-0.2,0.7-0.4,1
		c0,0.1-0.1,0.2-0.2,0.3c0,0-0.1,0.1-0.1,0.1c-0.2,0.4-0.4,0.7-0.6,1.1c-0.2,0.3-0.3,0.7-0.6,0.9c-0.2,0.2-0.3,0.4-0.5,0.6
		c-0.1,0.1-0.1,0.2-0.2,0.3c-0.2,0.3-0.4,0.6-0.7,0.9c-0.2,0.2-0.3,0.4-0.3,0.6c0,0.2-0.1,0.3-0.1,0.5c0,0.1-0.1,0.2,0,0.4
		c0,0.2,0,0.4,0,0.7c0,0.1,0,0.1,0,0.2c0,0.2,0.1,0.4,0.1,0.5c0,0.1,0,0.2,0,0.3c-0.1,0.3-0.2,0.6-0.2,0.9c0,0.1,0,0.1-0.1,0.2
		c-0.1,0.2-0.2,0.4-0.3,0.7c-0.1,0.2-0.2,0.5-0.4,0.7c-0.2,0.2-0.1,0.1-0.4,0.5c-0.1,0.1-0.1,0.1-0.1,0.2l-0.1,0.1
		c-0.1,0.1-0.1,0.1-0.2,0.2c-0.2,0.1-0.3,0.2-0.4,0.3c-0.1,0.1-0.2,0.1-0.4,0.1c-0.2,0-0.5,0-0.7,0c-0.3,0-0.7,0-1,0.1
		c-0.1,0-0.2,0-0.3,0c-0.1,0-0.3,0-0.4,0c-0.2,0-0.3,0-0.4,0c0-0.1,0-0.2,0.1-0.3c0,0,0,0,0.1-0.1c0.1-0.2,0.1-0.4,0.2-0.6
		c0-0.1,0-0.3,0.1-0.4c0,0,0-0.1,0-0.1c0-0.2,0.1-0.3,0.2-0.5c0.1-0.2,0.1-0.3,0.2-0.5c0.1-0.2,0.1-0.4,0.2-0.6
		c0-0.2,0.1-0.3,0.2-0.4c0.1-0.2,0.1-0.3,0.2-0.5c0-0.2,0.1-0.3,0.1-0.5c0,0,0-0.1,0-0.1c0.2-0.1,0.2-0.2,0.4-0.3
		c0.1-0.1,0.2-0.2,0.3-0.3c0.1-0.1,0.2-0.2,0.3-0.4c0.1-0.1,0.1-0.2,0.1-0.4c0-0.1,0-0.2,0.1-0.2c0-0.2,0.1-0.4,0.1-0.6
		c0-0.2,0.1-0.4,0.1-0.5c0-0.1,0-0.2,0-0.4c0-0.2,0-0.3,0-0.4c0-0.3,0.1-0.6,0.2-0.9c0-0.1,0.1-0.1,0.1-0.2c0-0.2,0.1-0.3,0.2-0.4
		s0.2-0.3,0.2-0.4c0.1-0.1,0.2-0.3,0.3-0.4c0.1-0.2,0.3-0.3,0.4-0.5c0.2-0.2,0.3-0.3,0.4-0.5c0.1-0.2,0.2-0.3,0.4-0.5
		c0.1-0.1,0.1-0.2,0.1-0.2c0.1-0.1,0.2-0.3,0.2-0.4c0.1-0.2,0.2-0.5,0.3-0.7c0-0.1,0.1-0.3,0.1-0.4c0-0.3,0.1-0.5,0.1-0.8
		c0-0.2,0.1-0.5,0-0.7c0-0.1,0-0.1,0-0.2c0-0.3,0-0.5-0.1-0.8c0-0.1,0-0.3-0.1-0.4c0-0.1-0.1-0.2-0.1-0.3c-0.1-0.2-0.1-0.4-0.2-0.5
		s-0.2-0.3-0.4-0.5c-0.1-0.1-0.2-0.2-0.3-0.3s-0.3-0.2-0.4-0.3c-0.1-0.1-0.2-0.1-0.3-0.2c-0.2-0.1-0.5-0.2-0.8-0.3
		c-0.2-0.1-0.3-0.1-0.5-0.2c-0.2-0.1-0.3-0.1-0.5-0.1c-0.2,0-0.5-0.1-0.7-0.2c-0.2,0-0.3-0.1-0.5-0.1c-0.4-0.1-0.7-0.1-1.1-0.2
		c-0.2,0-0.5,0-0.7-0.1c-0.1,0-0.1,0-0.2,0c-0.2,0-0.3,0-0.5,0s-0.4,0-0.6,0c-0.4,0-0.7,0-1.1,0c-0.2,0-0.3,0-0.5,0
		c-0.2,0-0.4,0-0.6,0c-0.1,0-0.2,0-0.3,0c-0.1,0-0.2,0-0.4,0c-0.1,0-0.1,0-0.2,0c-0.2,0-0.4,0-0.6,0c-0.3,0-0.6,0-0.9,0.1
		c-0.2,0-0.4,0-0.5,0.1c-0.2,0-0.3,0.1-0.5,0.1c-0.2,0.1-0.4,0.1-0.6,0.2c-0.2,0.1-0.4,0.2-0.6,0.4c-0.2,0.2-0.4,0.4-0.6,0.6
		c0,0-0.1,0.1-0.1,0.2c-0.1,0.2-0.2,0.3-0.2,0.5c0,0,0,0,0,0.1c0,0.1-0.1,0.2-0.1,0.4c0,0.2,0,0.5,0,0.7c0,0.3,0.1,0.6,0.1,1
		c0,0.1,0.1,0.2,0.1,0.3c0,0,0,0,0.1,0c0,0,0,0,0.1,0c0.1,0.1,0.2,0.2,0.3,0.3c0.2,0.3,0.3,0.6,0.5,0.9c0.1,0.2,0.2,0.4,0.3,0.6
		c0.1,0.1,0.1,0.3,0.2,0.4c0.1,0.2,0.1,0.3,0.2,0.5c0,0.1,0.1,0.2,0.1,0.2c0,0.2,0.1,0.3,0.1,0.5c0,0.2,0.1,0.4,0.1,0.6
		c0,0.1,0,0.2,0,0.3c0,0,0,0.1,0,0.1c0,0.1,0,0.2,0,0.3c0,0.2-0.1,0.3-0.1,0.5c0,0.1-0.1,0.2-0.1,0.3c0,0.3-0.1,0.5-0.1,0.8
		s0,0.5,0,0.8c0,0.1,0,0.3,0,0.4c0,0.2,0.1,0.4,0.1,0.5c0,0.3,0.1,0.5,0.2,0.7c0.1,0.2,0.1,0.3,0.2,0.5c0,0.1,0.1,0.2,0.1,0.3
		c0,0.1,0.1,0.2,0.2,0.2c0.1,0.1,0.2,0.2,0.2,0.3c0.1,0.2,0.3,0.3,0.5,0.5c0.2,0.2,0.4,0.3,0.6,0.5c0,0,0.1,0,0.1,0s0.1,0,0.1,0.1
		c0,0.1,0,0.1,0,0.2c0,0.2,0.1,0.4,0.2,0.6c0,0.3,0.1,0.5,0.2,0.8c0,0.2,0.1,0.3,0.1,0.5c0,0.1,0,0.3,0.1,0.4c0,0,0,0,0,0.1
		c-0.1,0-0.2,0-0.3,0c-0.2,0.1-0.2,0.3-0.1,0.4c0,0.1,0,0.1,0,0.2c0,0,0,0,0,0.1l-0.8-0.3l-0.2-0.3l-0.2,0h0L12,28.5
		c0,0-0.1,0-0.2-0.1c-0.1,0-0.3-0.1-0.4-0.2c-0.2-0.1-0.3-0.2-0.5-0.3c-0.1-0.1-0.3-0.1-0.4-0.2c-0.1,0-0.2,0-0.2,0S10.4,28,10.3,28
		c-0.1,0-0.1,0-0.2,0c0,0-0.1,0-0.2-0.1c-0.4-0.5-0.9-1-1.3-1.5c-0.1-0.2-0.3-0.4-0.4-0.6c-0.3-0.4-0.5-0.9-0.7-1.4
		c-0.1-0.2-0.1-0.5-0.1-0.7c0-0.3,0-0.7,0.2-1c0.1-0.2,0.1-0.3,0.2-0.5c0.1-0.3,0.2-0.6,0.3-0.9c0.2-0.4,0.1-0.7-0.1-1.1
		c-0.2-0.3-0.4-0.7-0.7-1c-0.1-0.1-0.2-0.3-0.3-0.4c-0.2-0.3-0.4-0.6-0.6-0.9c-0.2-0.3-0.4-0.6-0.6-1c-0.2-0.4-0.4-0.9-0.6-1.3
		c-0.2-0.3-0.2-0.7-0.3-1c0-0.2,0-0.3,0-0.4c0-0.3,0-0.6-0.1-0.9C4.8,12.8,4.8,12.6,4.8,12.2L4.8,12.2z"/>
	<path fill="#1D1D1B" d="M14.3,22.4c0.1,0.1,0.2,0.1,0.3,0.1c0.1,0,0.2,0,0.3,0.1c0.4,0.1,0.8,0.2,1.3,0.2c0.3,0,0.6,0,0.9,0
		c0.4,0,0.7-0.1,1-0.2c0.3-0.1,0.7-0.2,0.9-0.5c0.1-0.1,0.2-0.3,0.4-0.4c0,0,0,0,0,0c0,0,0,0-0.1,0c-0.1,0-0.2,0.1-0.2,0.1
		c-0.1,0-0.2,0-0.3,0c-0.2,0-0.5,0.1-0.7,0.2c-0.3,0-0.5,0.1-0.8,0.1c-0.3,0-0.7,0-1,0c-0.3,0-0.6-0.1-0.9-0.1
		c-0.2,0-0.3-0.1-0.4-0.1c-0.3,0-0.4,0-0.5,0.2C14.2,22.2,14.2,22.3,14.3,22.4L14.3,22.4z"/>
</g>
<linearGradient id="SVGID_1_" gradientUnits="userSpaceOnUse" x1="14.549" y1="11.6154" x2="15.5319" y2="19.8723" gradientTransform="matrix(1 0 0 -1 0 32)">
	<stop  offset="0.1" style="stop-color:#F6A500"/>
	<stop  offset="0.6" style="stop-color:#EB6619"/>
</linearGradient>
<path fill="url(#SVGID_1_)" d="M14.6,19.1c0,0.2,0.2,0.4,0.4,0.4s0.4-0.2,0.4-0.4v-1.3h-0.8C14.6,17.8,14.6,19.1,14.6,19.1z
	 M14.6,17.4h0.8v-1.3h-0.8V17.4z M14.6,15.8h0.8v-1.3h-0.8V15.8z M15,13.1c-0.2,0-0.4,0.2-0.4,0.4v0.6h0.8v-0.6
	C15.4,13.3,15.3,13.1,15,13.1z"/>
<linearGradient id="SVGID_00000051376610547501750020000000501498114303014808_" gradientUnits="userSpaceOnUse" x1="17.9631" y1="12.4472" x2="19.0553" y2="18.6071" gradientTransform="matrix(1 0 0 -1 0 32)">
	<stop  offset="0" style="stop-color:#F6A500"/>
	<stop  offset="0" style="stop-color:#F5A200"/>
	<stop  offset="0.2" style="stop-color:#F0880B"/>
	<stop  offset="0.3" style="stop-color:#ED7513"/>
	<stop  offset="0.4" style="stop-color:#EB6917"/>
	<stop  offset="0.6" style="stop-color:#EB6619"/>
</linearGradient>
<path fill="url(#SVGID_00000051376610547501750020000000501498114303014808_)" d="M18.1,19.3c0,0.2,0.2,0.4,0.4,0.4
	c0.2,0,0.4-0.2,0.4-0.4V18h-0.8C18.1,18,18.1,19.3,18.1,19.3z M18.1,17.6h0.8v-1.3h-0.8V17.6z M18.5,13.3c-0.2,0-0.4,0.2-0.4,0.4
	v0.6h0.8v-0.6C18.9,13.5,18.7,13.3,18.5,13.3z M18.1,16h0.8v-1.3h-0.8V16z"/>
<path fill="#3C3C3B" d="M25.3,32.3"/>
</svg>
