<svg id="Layer_1" data-name="Layer 1" xmlns="http://www.w3.org/2000/svg" xmlns:xlink="http://www.w3.org/1999/xlink" viewBox="0 0 32 32">
  <defs>
    <style>
      .cls-1 {
        fill: #0062ff;
      }

      .cls-2 {
        fill: url(#linear-gradient);
      }

      .cls-3 {
        fill: url(#linear-gradient-2);
      }

      .cls-4 {
        fill: url(#linear-gradient-3);
      }

      .cls-5 {
        fill: url(#linear-gradient-4);
      }
    </style>
    <linearGradient id="linear-gradient" x1="23.362" y1="1787.346" x2="11.124" y2="1768.281" gradientTransform="translate(0 -1769.69)" gradientUnits="userSpaceOnUse">
      <stop offset="0" stop-opacity="0"/>
      <stop offset="1" stop-opacity="0.5"/>
    </linearGradient>
    <linearGradient id="linear-gradient-2" x1="10.64" y1="1789.662" x2="15.107" y2="1797.613" xlink:href="#linear-gradient"/>
    <linearGradient id="linear-gradient-3" x1="17.421" y1="1793.469" x2="23.692" y2="1790.272" xlink:href="#linear-gradient"/>
    <linearGradient id="linear-gradient-4" x1="29.807" y1="1783.042" x2="20.544" y2="1788.289" xlink:href="#linear-gradient"/>
  </defs>
  <g>
    <path class="cls-1" d="M32,29.652H27.423c-1.613,0-2.626.225-3.3-1.238L16.206,10.37h0L13.355,3.88A1.119,1.119,0,0,1,14.368,2.3h4.764a1.1,1.1,0,0,1,1.013.675Z"/>
    <path class="cls-2" d="M31.962,29.652H27.423c-1.613,0-2.626.225-3.3-1.238L16.206,10.37h0L13.318,3.88A1.118,1.118,0,0,1,14.331,2.3H19.1a1.1,1.1,0,0,1,1.013.675Z"/>
    <path class="cls-1" d="M20.145,2.942h0a.78.78,0,0,0-1.35.225L7.615,28.3c-.675,1.463-1.425,1.35-3.038,1.35H0L11.892,3.092A1.361,1.361,0,0,1,13.13,2.3h6A1.046,1.046,0,0,1,20.145,2.942Z"/>
    <path class="cls-1" d="M16.469,21.662c-1.088,1.013-4.539,4.989-4.952,4.464-.15-.188-.413-.45-.413-.45l-.9-.976L5.74,19.936,9.491,16.3a1.4,1.4,0,0,1,1.951.038Z"/>
    <path class="cls-3" d="M16.469,21.662c-1.088,1.013-4.539,4.989-4.952,4.464-.15-.188-.413-.45-.413-.45l-.9-.976L5.74,19.936,9.491,16.3a1.4,1.4,0,0,1,1.951.038Z"/>
    <path class="cls-1" d="M19.4,17.535,22.284,24.1l-5.29,5.027a1.82,1.82,0,0,1-2.776-.15L10.2,24.738a1.884,1.884,0,0,0,2.138-.338C14.706,22.149,17.032,19.823,19.4,17.535Z"/>
    <path class="cls-4" d="M19.4,17.535,22.284,24.1l-5.29,5.027a1.82,1.82,0,0,1-2.776-.15L10.2,24.738a1.884,1.884,0,0,0,2.138-.338C14.706,22.149,17.032,19.823,19.4,17.535Z"/>
    <path class="cls-1" d="M31.925,14.909l-4.539,4.352-2.964-6.64c.563-.563,1.163-1.126,1.726-1.689a1.583,1.583,0,0,1,2.251.226Z"/>
    <path class="cls-5" d="M31.925,14.909l-4.539,4.352-2.964-6.64c.563-.563,1.163-1.126,1.726-1.689a1.583,1.583,0,0,1,2.251.226Z"/>
  </g>
</svg>
