<?xml version="1.0" encoding="utf-8"?>
<!-- Generator: Adobe Illustrator 24.0.0, SVG Export Plug-In . SVG Version: 6.00 Build 0)  -->
<svg version="1.1" id="Cloud-Internet-Services" xmlns="http://www.w3.org/2000/svg" xmlns:xlink="http://www.w3.org/1999/xlink"
	 x="0px" y="0px" viewBox="0 0 32 32" style="enable-background:new 0 0 32 32;" xml:space="preserve">
<style type="text/css">
	.st0{fill:url(#Cloud_1_);}
	.st1{fill:url(#Fade_1_);}
	.st2{fill:#001D6C;}
</style>
<linearGradient id="Cloud_1_" gradientUnits="userSpaceOnUse" x1="5.4067" y1="27.0193" x2="24.781" y2="7.6449">
	<stop  offset="0" style="stop-color:#08BDBA"/>
	<stop  offset="1" style="stop-color:#0F62FE"/>
</linearGradient>
<path id="Cloud" class="st0" d="M21,25H8.5c-3,0-5.5-2.5-5.5-5.5c0-2.7,1.9-4.9,4.5-5.4l1.3-0.2l0.3-1.3C9.9,8.7,13.2,6,17,6
	c0.5,0,1,0,1.5,0.1c1.6,0.3,3,1.1,4.2,2.2l1.4-1.4c-1.4-1.4-3.2-2.4-5.2-2.7C18.3,4.1,17.6,4,17,4c-4.7,0-8.9,3.3-9.8,8.1
	C3.6,12.8,1,15.9,1,19.5C1,23.6,4.3,27,8.5,27H21V25z"/>
<linearGradient id="Fade_1_" gradientUnits="userSpaceOnUse" x1="-350" y1="-138" x2="-336" y2="-138" gradientTransform="matrix(-1 0 0 -1 -328 -112)">
	<stop  offset="0.1" style="stop-color:#FFFFFF"/>
	<stop  offset="1" style="stop-color:#FFFFFF;stop-opacity:0"/>
</linearGradient>
<polygon id="Fade" class="st1" points="8,24 22,24 22,28 8,28 "/>
<path id="Nodes" class="st2" d="M27,22c-0.7,0-1.4,0.3-1.9,0.7l-5.2-3.1c0-0.2,0.1-0.4,0.1-0.6s0-0.4-0.1-0.6l5.2-3.1
	c0.5,0.4,1.2,0.7,1.9,0.7c1.7,0,3-1.3,3-3s-1.3-3-3-3s-3,1.3-3,3c0,0.2,0,0.4,0.1,0.6l-5.2,3.1C18.4,16.3,17.7,16,17,16
	c-1.7,0-3,1.3-3,3s1.3,3,3,3c0.7,0,1.4-0.3,1.9-0.7l5.2,3.1c0,0.2-0.1,0.4-0.1,0.6c0,1.7,1.3,3,3,3s3-1.3,3-3S28.7,22,27,22z M27,12
	c0.6,0,1,0.4,1,1s-0.4,1-1,1s-1-0.4-1-1S26.4,12,27,12z M17,20c-0.6,0-1-0.4-1-1s0.4-1,1-1s1,0.4,1,1S17.6,20,17,20z M27,26
	c-0.6,0-1-0.4-1-1s0.4-1,1-1s1,0.4,1,1S27.6,26,27,26z"/>
</svg>
