<svg id="WatsonDiscovery" xmlns="http://www.w3.org/2000/svg" viewBox="0 0 32 32"><defs><linearGradient id="5nz1r5sdla" x1="-1810.915" y1="-2921.818" x2="-1820.814" y2="-2931.718" gradientTransform="rotate(45 -4464.215 752.378)" gradientUnits="userSpaceOnUse"><stop offset=".146" stop-opacity="0"/><stop offset=".878"/></linearGradient><linearGradient id="3qw6nanp4c" x1="0" y1="32" x2="32" y2="0" gradientUnits="userSpaceOnUse"><stop offset=".1" stop-color="#a56eff"/><stop offset=".9" stop-color="#0f62fe"/></linearGradient><mask id="e7c99yeibb" width="32" height="32" maskUnits="userSpaceOnUse"><path d="m30.494 29.09-7.841-7.84a11.945 11.945 0 0 0 2.376-6.031c.668-6.598-4.156-12.508-10.753-13.176A12.09 12.09 0 0 0 5.098 5l-.749.662L5.673 7.16l.749-.662a10.05 10.05 0 0 1 7.652-2.465c5.499.557 9.521 5.484 8.964 10.984a9.949 9.949 0 0 1-2.852 6.043l-.084.084a9.95 9.95 0 0 1-8.048 2.837 10.001 10.001 0 0 1-6.323-3.14l-.682-.731-1.464 1.362.681.732a12.012 12.012 0 0 0 8.82 3.829c2.76 0 5.414-.941 7.581-2.711.227-.185.437-.385.648-.583l7.764 7.763 1.414-1.414z" style="fill:#fff"/><path transform="rotate(-90 10 23.495)" style="fill:url(#5nz1r5sdla)" d="M5.505 16.495h8.99v14h-8.99z"/></mask></defs><g style="mask:url(#e7c99yeibb)"><path id="Color" style="fill:url(#3qw6nanp4c)" d="M0 0h32v32H0z"/></g><circle cx="3" cy="10.053" r="1" style="fill:#001d6c"/><path style="fill:#001d6c" d="M6 9.053h8v2H6z"/><circle cx="3" cy="18.033" r="1" style="fill:#001d6c"/><path style="fill:#001d6c" d="M6 17.032h8v2H6z"/><circle cx="13" cy="14.043" r="1" style="fill:#001d6c"/><path style="fill:#001d6c" d="M2 13.042h8v2H2z"/></svg>