<?xml version="1.0" encoding="UTF-8"?>
<svg width="332px" height="75px" viewBox="0 0 332 75" version="1.1" xmlns="http://www.w3.org/2000/svg" xmlns:xlink="http://www.w3.org/1999/xlink">
    <title>atom/cd/utimaco logo</title>
    <defs>
        <polygon id="path-1" points="0 0.8277 41.9919 0.8277 41.9919 50.9997 0 50.9997"></polygon>
        <polygon id="path-3" points="0.6086 0.8281 52.8906 0.8281 52.8906 51 0.6086 51"></polygon>
    </defs>
    <g id="atom/cd/utimaco-logo" stroke="none" stroke-width="1" fill="none" fill-rule="evenodd">
        <g id="Group-20">
            <g id="Group-17" transform="translate(0.000000, 7.433800)">
                <g id="Group-3" transform="translate(0.000000, 16.000000)">
                    <mask id="mask-2" fill="white">
                        <use xlink:href="#path-1"></use>
                    </mask>
                    <g id="Clip-2"></g>
                    <path d="M41.9919,49.5127 L30.8689,50.2567 L30.8689,44.1247 L30.6829,44.1247 C26.6969,49.5127 22.8039,50.9997 16.2219,50.9997 C6.4899,50.9997 -0.0001,44.7757 -0.0001,34.7397 L-0.0001,2.3127 L11.7729,0.8277 L11.7729,31.5817 C11.7729,36.5977 14.0899,40.7787 19.3739,40.7787 C26.7889,40.7787 30.2199,35.1107 30.2199,29.1637 L30.2199,2.3127 L41.9919,0.8277 L41.9919,49.5127 Z" id="Fill-1" fill="#000000" mask="url(#mask-2)"></path>
                </g>
                <path d="M54.135,10.1387 L65.907,4.8407 L65.907,18.3127 L76.568,18.3127 L76.568,28.5337 L65.907,28.5337 L65.907,48.6957 C65.907,53.2467 67.854,56.2207 74.713,56.2207 C76.012,56.2207 77.496,56.1267 78.793,56.0337 L75.92,66.6267 C74.807,66.9057 72.767,66.9987 71.284,66.9987 C61.366,66.9987 54.135,61.7027 54.135,51.2037 L54.135,28.5337 L46.904,28.5337 L49.5,18.3127 L54.135,18.3127 L54.135,10.1387 Z" id="Fill-4" fill="#000000"></path>
                <path d="M103.1701,18.3125 L114.2941,17.1985 L114.2941,23.2375 C117.9101,19.1505 120.6911,16.8295 126.3451,16.8295 C130.9811,16.8295 135.1511,18.8715 138.4881,22.8685 C142.6591,18.7775 146.0891,16.8295 151.7441,16.8295 C158.9751,16.8295 167.0391,21.0085 167.0391,31.8795 L167.0391,65.5125 L155.2651,66.2565 L155.2651,33.9205 C155.6371,28.1625 152.3921,27.0465 148.4051,27.0465 C143.5871,27.0465 140.9911,30.6695 140.9911,36.5245 L140.9911,65.5125 L129.2181,66.2565 L129.2181,33.9205 C129.5891,28.1625 126.3451,27.0465 122.3581,27.0465 C117.5391,27.0465 114.9421,30.6695 114.9421,36.5245 L114.9421,65.5125 L103.1701,66.2565 L103.1701,18.3125 Z" id="Fill-6" fill="#000000"></path>
                <path d="M184.4651,50.3672 C184.4651,46.1872 188.9161,43.5852 193.0861,43.5852 C197.2561,43.5852 201.7071,46.1872 201.7071,50.3672 C201.7071,54.6412 197.2561,57.1522 193.0861,57.1522 C188.9161,57.1522 184.4651,54.6412 184.4651,50.3672 L184.4651,50.3672 Z M178.4411,29.4642 C182.7041,27.7892 187.1551,26.6772 191.7891,26.6772 C197.2561,26.6772 201.8931,27.8862 201.8931,34.2942 C201.8931,35.5062 201.7071,36.4322 201.6161,37.4532 C197.0721,35.1332 193.7361,34.2942 188.6371,34.2942 C179.8301,34.2942 172.6931,41.8172 172.6931,50.3672 C172.6931,61.1452 180.4791,66.9992 190.4911,66.9992 C194.8471,66.9992 199.0191,65.3282 202.2641,62.5392 L202.2641,66.6272 L213.0161,65.5132 L213.0161,30.1132 C213.0161,20.5432 203.7471,16.8282 195.3131,16.8282 C190.7711,16.8282 186.1351,17.2912 181.6841,18.1262 L178.4411,29.4642 Z" id="Fill-8" fill="#000000"></path>
                <path d="M256.0276,31.1348 C252.9686,29.2788 249.6316,27.6068 246.0156,27.6068 C237.3036,27.6068 230.8136,33.3638 230.8136,41.9118 C230.8136,50.0888 238.2286,56.2208 244.3496,56.2208 C249.1696,56.2208 251.8546,55.1068 255.6576,52.5978 L262.1456,61.0538 C257.6036,65.6058 250.5576,66.9998 244.5326,66.9998 C232.3886,66.9998 219.0426,57.4318 219.0426,41.5418 C219.0426,27.2338 231.1846,16.8278 244.9046,16.8278 C251.7636,16.8278 257.0476,18.9628 262.2396,22.3108 L256.0276,31.1348 Z" id="Fill-10" fill="#000000"></path>
                <g id="Group-14" transform="translate(262.000000, 16.000000)">
                    <mask id="mask-4" fill="white">
                        <use xlink:href="#path-3"></use>
                    </mask>
                    <g id="Clip-13"></g>
                    <path d="M11.7336,25.9131 C11.7336,17.8311 18.7766,11.6071 26.7486,11.6071 C34.7216,11.6071 41.7676,17.8311 41.7676,25.9131 C41.7676,33.9971 34.7216,40.2211 26.7486,40.2211 C18.7766,40.2211 11.7336,33.9971 11.7336,25.9131 M0.6086,25.9131 C0.6086,40.1281 12.8436,51.0001 26.7486,51.0001 C40.6526,51.0001 52.8906,40.1281 52.8906,25.9131 C52.8906,11.6981 40.6526,0.8281 26.7486,0.8281 C12.8436,0.8281 0.6086,11.6981 0.6086,25.9131" id="Fill-12" fill="#000000" mask="url(#mask-4)"></path>
                </g>
                <path d="M330.5324,9.0479 C330.5324,13.1359 327.5184,16.1979 323.5324,16.1979 C319.5244,16.1979 316.4864,13.1359 316.4864,9.0479 C316.4864,5.0279 319.5244,1.9389 323.5324,1.9389 C327.5184,1.9389 330.5324,5.0279 330.5324,9.0479 L330.5324,9.0479 Z M323.5324,17.4099 C328.0754,17.4099 331.8744,13.7169 331.8744,9.0479 C331.8744,4.4259 328.0754,0.7329 323.5324,0.7329 C318.9444,0.7329 315.1444,4.4259 315.1444,9.0479 C315.1444,13.7169 318.9444,17.4099 323.5324,17.4099 L323.5324,17.4099 Z M321.6354,9.6749 L323.5794,9.6749 L326.2904,13.9719 L327.7724,13.9719 L324.9244,9.6519 C326.2674,9.4189 327.4034,8.6519 327.4034,6.9109 C327.4034,5.0759 326.3594,4.1239 324.1364,4.1239 L320.3824,4.1239 L320.3824,13.9719 L321.6354,13.9719 L321.6354,9.6749 Z M323.8824,5.2369 C324.9934,5.2369 326.1524,5.5379 326.1524,6.8629 C326.1524,7.9329 325.6424,8.5589 323.9274,8.5589 L321.6354,8.5589 L321.6354,5.2369 L323.8824,5.2369 Z" id="Fill-15" fill="#000000"></path>
            </g>
            <polygon id="Fill-18" fill="#0068B4" points="89.8821 0.0002 78.8761 11.0302 89.8821 22.0562 100.8841 11.0302"></polygon>
            <polygon id="Fill-19" fill="#000000" points="83.8539 25.5845 83.8539 73.5205 95.6269 72.7815 95.6269 24.4705"></polygon>
        </g>
    </g>
</svg>