<svg id="e353fd1d-cf1d-4ad3-807c-2c5f81c584ad" data-name="Layer 1" xmlns="http://www.w3.org/2000/svg" xmlns:xlink="http://www.w3.org/1999/xlink" viewBox="0 0 32 32"><defs><linearGradient id="fd2453eb-2057-4827-bc36-caf1d55d6bc9" x1="23.004" y1="27" x2="23.004" y2="24" gradientUnits="userSpaceOnUse"><stop offset="0.076"/><stop offset="0.9" stop-opacity="0"/></linearGradient><linearGradient id="fcb8c321-518d-408c-a0b4-52f00846eb26" x1="9.004" x2="9.004" y2="23.657" xlink:href="#fd2453eb-2057-4827-bc36-caf1d55d6bc9"/><linearGradient id="f9c48125-da84-4193-961f-7d5268317c77" x1="15.996" x2="15.996" y2="23" xlink:href="#fd2453eb-2057-4827-bc36-caf1d55d6bc9"/><linearGradient id="f3e46fe3-4bb4-4a59-8127-281aae908c25" x1="54.79" y1="-83.181" x2="54.79" y2="-88.991" gradientTransform="matrix(1, 0, 0, 1.482, -36.293, 131.939)" xlink:href="#fd2453eb-2057-4827-bc36-caf1d55d6bc9"/><linearGradient id="bfaa86a9-9982-4a3f-8784-fcc9021ef9cb" x1="210.962" y1="-45.941" x2="210.962" y2="-52.163" gradientTransform="matrix(1, 0, 0, 1.482, -182.263, 88.06)" xlink:href="#fd2453eb-2057-4827-bc36-caf1d55d6bc9"/><mask id="a8118766-d9a2-4c5a-a9f6-f0fb0bf4b926" x="0" y="0" width="32" height="32" maskUnits="userSpaceOnUse"><rect x="8" y="21.857" width="2" height="5.143" fill="#f4f4f4"/><rect x="15.133" y="17.571" width="1.867" height="9.429" fill="#f4f4f4"/><rect x="22" y="19.286" width="1.867" height="7.714" fill="#f4f4f4"/><rect x="21.008" y="24" width="3.992" height="3" fill="url(#fd2453eb-2057-4827-bc36-caf1d55d6bc9)"/><rect x="7.008" y="23.657" width="3.992" height="3.343" fill="url(#fcb8c321-518d-408c-a0b4-52f00846eb26)"/><rect x="14" y="23" width="3.992" height="4" fill="url(#f9c48125-da84-4193-961f-7d5268317c77)"/><path d="M28.143,11V27H3.867V5H22.541V3H3.867A1.939,1.939,0,0,0,2,5V27a1.94,1.94,0,0,0,1.867,2H28.143a1.867,1.867,0,0,0,1.867-1.867V11Z" fill="#fff"/><rect x="16.809" y="0.045" width="3.276" height="8.61" transform="translate(14.141 22.807) rotate(-90.139)" fill="url(#f3e46fe3-4bb4-4a59-8127-281aae908c25)"/><rect x="27.124" y="10.775" width="3.164" height="9.221" transform="translate(57.454 30.693) rotate(179.846)" fill="url(#bfaa86a9-9982-4a3f-8784-fcc9021ef9cb)"/></mask><linearGradient id="ad5455a1-36b5-4e05-b1de-a14995cf078e" y1="32" x2="32" gradientUnits="userSpaceOnUse"><stop offset="0.1" stop-color="#3ddbd9"/><stop offset="0.9" stop-color="#0f62fe"/></linearGradient></defs><g mask="url(#a8118766-d9a2-4c5a-a9f6-f0fb0bf4b926)"><rect width="32" height="32" fill="url(#ad5455a1-36b5-4e05-b1de-a14995cf078e)"/></g><polygon points="24 3 24 5 26.655 5 18.9 13.615 12.938 8.647 5.293 16.293 6.707 17.707 13.062 11.353 19.1 16.385 28 6.495 28 9 30 9 30 3 24 3" fill="#001d6c"/></svg>