<?xml version="1.0" encoding="utf-8"?>
<!-- Generator: Adobe Illustrator 27.8.1, SVG Export Plug-In . SVG Version: 6.00 Build 0)  -->
<svg version="1.1" xmlns="http://www.w3.org/2000/svg" xmlns:xlink="http://www.w3.org/1999/xlink" x="0px" y="0px"
	 viewBox="0 0 32 32" style="enable-background:new 0 0 32 32;" xml:space="preserve">
<style type="text/css">
	.st0{display:none;}
	.st1{filter:url(#Adobe_OpacityMaskFilter);}
	.st2{fill:#FFFFFF;}
	.st3{fill:url(#SVGID_00000156567555568194433790000009343202413477444272_);}
	.st4{fill:url(#SVGID_00000054249313998000506240000014273431135211501217_);}
	.st5{mask:url(#SVGID_1_);fill:url(#SVGID_00000106124690380281198260000008516726585688175500_);}
	.st6{fill:#001D6C;}
	.st7{display:inline;}
	.st8{opacity:0.3;fill:#8A8A8A;}
	.st9{fill:none;stroke:#118BFF;stroke-width:0.02;stroke-miterlimit:10;}
</style>
<g id="Background" class="st0">
</g>
<g id="Icon">
	<defs>
		<filter id="Adobe_OpacityMaskFilter" filterUnits="userSpaceOnUse" x="-0.03" y="0.03" width="32" height="32">
			<feColorMatrix  type="matrix" values="1 0 0 0 0  0 1 0 0 0  0 0 1 0 0  0 0 0 1 0"/>
		</filter>
	</defs>
	<mask maskUnits="userSpaceOnUse" x="-0.03" y="0.03" width="32" height="32" id="SVGID_1_">
		<g class="st1">
			<g>
				<g>
					<path class="st2" d="M15.98,2.03c-4.47,0-8.44,2.11-11,5.38V6.03h-2v5h4.99v-2h-1.7c2.18-3.02,5.71-5,9.71-5
						c6.62,0,12,5.38,12,12h2C29.98,8.31,23.7,2.03,15.98,2.03z"/>
					<path class="st2" d="M23.98,21.03v2h1.6c-2.18,3.02-5.71,5-9.71,5c-6.62,0-12-5.38-12-12h-2c0,7.72,6.28,14,14,14
						c4.52,0,8.54-2.16,11.1-5.5v1.5h2v-5H23.98z"/>
				</g>
				
					<linearGradient id="SVGID_00000175301326863287318940000003767523381146611890_" gradientUnits="userSpaceOnUse" x1="27.0256" y1="15.5256" x2="33.0256" y2="15.5256" gradientTransform="matrix(0 1 -1 0 44 -16)">
					<stop  offset="0.1" style="stop-color:#000000;stop-opacity:0"/>
					<stop  offset="0.7" style="stop-color:#000000"/>
				</linearGradient>
				<polygon style="fill:url(#SVGID_00000175301326863287318940000003767523381146611890_);" points="25.97,17.03 25.97,11.03 
					30.97,11.03 30.97,17.03 				"/>
				
					<linearGradient id="SVGID_00000080198080300592576760000015761339453510878132_" gradientUnits="userSpaceOnUse" x1="25.7509" y1="21.0719" x2="31.7509" y2="21.0719" gradientTransform="matrix(0 -1 1 0 -18.0975 46.7765)">
					<stop  offset="0.1" style="stop-color:#000000;stop-opacity:0"/>
					<stop  offset="0.7" style="stop-color:#000000"/>
				</linearGradient>
				<polygon style="fill:url(#SVGID_00000080198080300592576760000015761339453510878132_);" points="5.47,15.03 5.47,21.03 
					0.47,21.03 0.47,15.03 				"/>
			</g>
		</g>
	</mask>
	
		<linearGradient id="SVGID_00000127730514965357958830000011178173633745133960_" gradientUnits="userSpaceOnUse" x1="-0.0256" y1="32.0256" x2="31.9744" y2="0.0256">
		<stop  offset="0.1" style="stop-color:#966EFF"/>
		<stop  offset="0.9" style="stop-color:#0F62EF"/>
	</linearGradient>
	
		<rect x="-0.03" y="0.03" style="mask:url(#SVGID_1_);fill:url(#SVGID_00000127730514965357958830000011178173633745133960_);" width="32" height="32"/>
	<g>
		<path class="st6" d="M15.5,8.31l-5.99,3.46c-0.31,0.18-0.5,0.51-0.5,0.87v6.83c0,0.36,0.19,0.69,0.5,0.87l5.99,3.41
			c0.31,0.18,0.69,0.18,0.99,0l5.99-3.43c0.31-0.18,0.5-0.51,0.5-0.87v-6.81c0-0.36-0.19-0.69-0.5-0.87L16.5,8.31
			C16.19,8.13,15.81,8.13,15.5,8.31z M19.9,12.59l-4.04,2.22c-0.59-0.35-1.71-0.99-3.8-2.19L16,10.33L19.9,12.59z M11.01,14.31
			c1.56,0.9,3.22,1.85,3.99,2.3v4.54l-3.99-2.27V14.31z M17,21.15v-4.69l3.99-2.19v4.59L17,21.15z"/>
	</g>
</g>
<g id="Grid" class="st0">
	<g class="st7">
		<path class="st8" d="M32,32H0V0h32V32z M2,30h28V2H2V30z"/>
		<g>
			<path class="st9" d="M0,0l32,32 M0,32L32,0"/>
			<line class="st9" x1="32" y1="1" x2="0" y2="1"/>
			<line class="st9" x1="32" y1="2" x2="0" y2="2"/>
			<line class="st9" x1="32" y1="3" x2="0" y2="3"/>
			<line class="st9" x1="32" y1="4" x2="0" y2="4"/>
			<line class="st9" x1="32" y1="5" x2="0" y2="5"/>
			<line class="st9" x1="32" y1="6" x2="0" y2="6"/>
			<line class="st9" x1="32" y1="7" x2="0" y2="7"/>
			<line class="st9" x1="32" y1="8" x2="0" y2="8"/>
			<line class="st9" x1="32" y1="9" x2="0" y2="9"/>
			<line class="st9" x1="32" y1="10" x2="0" y2="10"/>
			<line class="st9" x1="32" y1="11" x2="0" y2="11"/>
			<line class="st9" x1="32" y1="12" x2="0" y2="12"/>
			<line class="st9" x1="32" y1="13" x2="0" y2="13"/>
			<line class="st9" x1="32" y1="14" x2="0" y2="14"/>
			<line class="st9" x1="32" y1="15" x2="0" y2="15"/>
			<line class="st9" x1="32" y1="16" x2="0" y2="16"/>
			<line class="st9" x1="32" y1="17" x2="0" y2="17"/>
			<line class="st9" x1="32" y1="18" x2="0" y2="18"/>
			<line class="st9" x1="32" y1="19" x2="0" y2="19"/>
			<line class="st9" x1="32" y1="20" x2="0" y2="20"/>
			<line class="st9" x1="32" y1="21" x2="0" y2="21"/>
			<line class="st9" x1="32" y1="22" x2="0" y2="22"/>
			<line class="st9" x1="32" y1="23" x2="0" y2="23"/>
			<line class="st9" x1="32" y1="24" x2="0" y2="24"/>
			<line class="st9" x1="32" y1="25" x2="0" y2="25"/>
			<line class="st9" x1="32" y1="26" x2="0" y2="26"/>
			<line class="st9" x1="32" y1="27" x2="0" y2="27"/>
			<line class="st9" x1="32" y1="28" x2="0" y2="28"/>
			<line class="st9" x1="32" y1="29" x2="0" y2="29"/>
			<line class="st9" x1="32" y1="30" x2="0" y2="30"/>
			<line class="st9" x1="32" y1="31" x2="0" y2="31"/>
			<line class="st9" x1="31" y1="32" x2="31" y2="0"/>
			<line class="st9" x1="30" y1="32" x2="30" y2="0"/>
			<line class="st9" x1="29" y1="32" x2="29" y2="0"/>
			<line class="st9" x1="28" y1="32" x2="28" y2="0"/>
			<line class="st9" x1="27" y1="32" x2="27" y2="0"/>
			<line class="st9" x1="26" y1="32" x2="26" y2="0"/>
			<line class="st9" x1="25" y1="32" x2="25" y2="0"/>
			<line class="st9" x1="24" y1="32" x2="24" y2="0"/>
			<line class="st9" x1="23" y1="32" x2="23" y2="0"/>
			<line class="st9" x1="22" y1="32" x2="22" y2="0"/>
			<line class="st9" x1="21" y1="32" x2="21" y2="0"/>
			<line class="st9" x1="20" y1="32" x2="20" y2="0"/>
			<line class="st9" x1="19" y1="32" x2="19" y2="0"/>
			<line class="st9" x1="18" y1="32" x2="18" y2="0"/>
			<line class="st9" x1="17" y1="32" x2="17" y2="0"/>
			<line class="st9" x1="16" y1="32" x2="16" y2="0"/>
			<line class="st9" x1="15" y1="32" x2="15" y2="0"/>
			<line class="st9" x1="14" y1="32" x2="14" y2="0"/>
			<line class="st9" x1="13" y1="32" x2="13" y2="0"/>
			<line class="st9" x1="12" y1="32" x2="12" y2="0"/>
			<line class="st9" x1="11" y1="32" x2="11" y2="0"/>
			<line class="st9" x1="10" y1="32" x2="10" y2="0"/>
			<line class="st9" x1="9" y1="32" x2="9" y2="0"/>
			<line class="st9" x1="8" y1="32" x2="8" y2="0"/>
			<line class="st9" x1="7" y1="32" x2="7" y2="0"/>
			<line class="st9" x1="6" y1="32" x2="6" y2="0"/>
			<line class="st9" x1="5" y1="32" x2="5" y2="0"/>
			<line class="st9" x1="4" y1="32" x2="4" y2="0"/>
			<line class="st9" x1="3" y1="32" x2="3" y2="0"/>
			<line class="st9" x1="2" y1="32" x2="2" y2="0"/>
			<line class="st9" x1="1" y1="32" x2="1" y2="0"/>
			<rect x="0" y="0" class="st9" width="32" height="32"/>
		</g>
	</g>
</g>
</svg>
