<svg width="750" height="194" viewBox="0 0 750 194" fill="none" xmlns="http://www.w3.org/2000/svg">
<path d="M96.5224 193.045C149.83 193.045 193.045 149.83 193.045 96.5224C193.045 43.2145 149.83 0 96.5224 0C43.2145 0 0 43.2145 0 96.5224C0 149.83 43.2145 193.045 96.5224 193.045Z" fill="#FF1654"/>
<path d="M98.8249 28.6881C115.52 37.8989 132.31 47.1098 148.909 56.4167C152.363 58.4315 152.843 62.5572 152.459 66.2032C152.075 68.9857 151.116 71.4803 148.525 72.9195C135.668 80.4993 122.716 88.175 109.859 95.7548C108.036 96.6183 108.228 98.2494 107.46 99.8805C106.117 104.39 102.087 107.46 97.5776 108.228C90.8613 109.187 84.241 103.91 83.6653 97.098C83.0896 91.2453 87.1194 85.5844 92.7802 84.1452C96.3303 83.0898 99.5925 84.0493 102.759 85.6804C114.464 78.7722 126.074 71.7681 137.683 64.764C123.483 56.7045 109.283 48.8369 95.083 40.9692C78.9639 50.0842 62.7489 59.1032 46.6299 68.2181C46.6299 87.2155 46.6299 106.309 46.6299 125.306C62.7489 134.421 78.9639 143.536 95.083 152.747C110.051 144.304 125.114 135.861 139.986 127.321C139.89 121.564 139.986 115.712 139.89 109.955C136.244 107.172 133.654 103.718 133.749 99.017C133.749 91.6291 140.754 85.5844 148.046 86.9277C154.762 88.0791 159.655 94.9872 158.024 101.703C157.256 105.158 155.05 107.652 152.363 109.763C152.171 116.959 152.459 124.251 152.267 131.447C152.075 134.229 150.156 135.669 147.95 136.916C131.543 146.127 115.232 155.434 98.8249 164.74C96.5222 166.084 94.5073 166.468 92.1086 165.124C74.7423 155.434 57.3759 145.455 40.0096 135.765C37.2271 134.133 34.2527 132.694 34.2527 128.952C34.2527 107.172 34.0609 85.4885 34.5406 63.7086C34.7325 61.5978 35.9798 60.0626 37.8028 59.0072C55.7448 48.9328 73.7828 38.8584 91.7248 28.784C94.4113 27.1529 96.3303 27.3448 98.8249 28.6881Z" fill="white"/>
<path fill-rule="evenodd" clip-rule="evenodd" d="M612.14 0.617382C617.897 -0.821819 624.421 0.137649 628.547 4.74309C633.536 9.92421 633.248 18.9432 627.971 23.8365C623.654 27.9622 617.705 28.4419 612.14 27.2906C606.191 25.7554 601.586 20.4783 601.778 14.1459C601.49 7.71744 606.095 2.15253 612.14 0.617382ZM342.53 9.06069C342.53 36.5974 342.53 64.1341 342.53 91.6708C342.53 100.882 342.53 109.997 342.53 119.207H317.008V9.06069C321.229 9.06069 325.547 9.06069 329.769 9.06069C333.99 9.06069 338.308 9.06069 342.53 9.06069ZM567.141 15.8729C560.712 15.8729 554.38 15.8729 547.952 15.8729C547.952 22.5892 547.952 29.3054 547.952 36.0217C544.593 36.0217 541.139 36.0217 537.781 36.0217C537.781 41.3947 537.781 46.7677 537.781 52.1408C537.781 53.9637 537.781 55.6908 537.781 57.5138H547.952C547.952 62.5989 547.952 67.6841 547.952 72.8652C547.952 79.2937 547.952 85.6262 547.952 92.0546C548.143 98.2911 549.487 105.583 553.708 110.476C558.698 116.233 566.565 118.728 573.953 119.112C577.215 119.208 580.478 119.207 583.74 119.207C585.946 119.207 588.057 119.207 590.264 119.207V97.4276C588.825 97.3316 587.29 97.4276 585.755 97.4276C582.78 97.5235 579.806 97.6195 577.119 96.8519C574.049 95.8924 573.569 93.0141 573.569 90.1357V57.5138C574.721 57.5138 575.776 57.5138 576.927 57.5138H577.695C581.821 57.5138 585.946 57.5138 590.072 57.5138C590.072 53.9637 590.072 50.3178 590.072 46.7677C590.072 43.2177 590.072 39.5717 590.072 36.0217C586.426 36.0217 582.78 36.0217 579.038 36.0217C577.215 36.0217 575.392 36.0217 573.569 36.0217C573.569 32.1838 573.569 28.346 573.569 24.5081C573.569 21.6297 573.569 18.7513 573.569 15.8729C571.363 15.8729 569.252 15.8729 567.141 15.8729ZM494.413 34.8703C502.761 35.1582 511.012 36.8852 517.632 42.3542C523.965 47.5353 527.515 55.2111 528.282 63.3665C523.581 63.3665 518.88 63.3665 514.178 63.3665C511.012 63.3665 507.942 63.3665 504.776 63.3665C504.68 63.1746 504.68 63.0787 504.584 62.8868C503.816 60.5841 503.144 58.4732 501.226 56.9381C497.963 53.8678 493.262 53.6759 489.136 54.2516C486.738 54.7313 484.531 56.0746 483.667 58.4732C483.283 60.5841 483.379 62.5989 485.106 64.1341C487.505 66.053 490.767 66.9165 493.646 67.7801C493.838 67.876 494.029 67.876 494.125 67.876L494.893 68.0679C501.609 69.699 508.517 71.426 514.85 74.1125C520.607 76.7991 526.076 81.8842 527.611 88.3127C528.666 92.3424 528.762 97.0438 527.707 101.074C525.884 107.982 520.607 113.355 514.274 116.329C506.215 120.263 497.675 120.647 488.848 120.071C478.966 119.112 469.179 115.082 462.847 107.214C459.105 102.801 457.186 97.4276 456.706 91.6708C462.079 91.6708 467.356 91.6708 472.729 91.6708C475.8 91.6708 478.87 91.6708 481.844 91.6708C481.94 91.9586 482.036 92.2465 482.132 92.5343C482.612 94.2614 483.092 95.8924 484.435 97.3316C487.409 100.594 491.823 101.745 496.14 101.457C498.635 101.17 501.13 100.69 502.857 98.6749C504.488 96.9479 504.967 94.4533 503.816 92.3424C502.953 90.5194 500.842 89.6559 499.019 88.9843C495.277 87.5451 491.343 86.5856 487.409 85.6262C482.42 84.3788 477.431 83.1315 472.729 81.0207C468.796 79.2937 465.245 76.4153 462.655 72.9612C459.681 68.6436 459.201 63.4625 459.489 58.3773C460.064 51.3732 463.998 45.0407 469.755 41.2028C477.239 36.2136 485.874 34.8703 494.413 34.8703ZM619.816 36.0217C614.634 36.0217 609.357 36.0217 604.176 36.1177C604.08 52.7164 604.08 69.5071 604.08 86.2018C604.08 97.2357 604.08 108.174 604.08 119.207C612.62 119.207 621.159 119.207 629.602 119.207C629.602 91.4789 629.602 63.7503 629.602 36.0217C626.34 36.0217 623.078 36.0217 619.816 36.0217ZM286.977 41.6826C278.629 36.1177 268.459 34.2947 258.576 35.0622C252.436 35.542 246.391 37.0771 241.018 40.0515C232.191 44.6569 225.858 53.0043 222.98 62.503C220.677 70.2747 220.294 78.6221 221.541 86.5856C222.884 95.2208 226.722 103.376 233.15 109.421C242.553 118.632 255.794 121.414 268.555 120.167C279.493 119.016 289.951 113.451 296.283 104.432C299.162 100.594 300.889 96.1803 302.232 91.6708C293.117 91.6708 284.098 91.6708 274.983 91.6708C273.448 94.3573 271.913 96.756 269.034 98.0992C262.702 101.17 253.971 99.7303 249.653 93.8776C247.351 90.9032 246.775 87.641 246.199 83.9951C254.834 83.8991 263.47 83.9951 272.105 83.9951C282.659 83.9951 293.213 83.9951 303.671 83.8991C304.439 76.3193 304.247 68.8355 301.848 61.4476C299.162 53.3881 293.981 46.288 286.977 41.6826ZM277.862 69.5071C277.478 66.6287 277.19 63.8463 275.367 61.4476C269.706 53.7719 256.945 53.3881 250.517 60.2962C248.022 62.8868 247.063 66.053 246.295 69.4112C256.849 69.5071 267.307 69.6031 277.862 69.5071ZM403.168 36.5974C409.117 38.5163 414.01 42.3542 417.656 47.3434C417.56 43.9853 417.656 40.6272 417.656 37.269V36.0217C421.878 36.0217 426.195 36.0217 430.417 36.0217C434.638 36.0217 438.956 36.0217 443.178 36.0217C443.178 56.8421 443.178 77.5666 443.178 98.3871C443.178 105.295 443.178 112.203 443.178 119.207H417.656C417.656 118.248 417.656 117.385 417.656 116.425C417.656 113.643 417.656 110.86 417.656 108.078C412.859 114.986 405.087 119.399 396.835 120.263C390.983 120.839 385.226 120.455 379.661 118.248C371.602 115.178 365.173 109.037 361.239 101.457C357.305 94.1654 355.77 85.7221 355.77 77.4707C355.866 69.795 357.018 62.2152 360.472 55.307C364.118 47.6313 370.258 41.2028 378.126 37.7488C385.706 34.3906 395.108 34.0068 403.168 36.5974ZM394.533 57.9935C403.456 55.211 412.955 60.1043 416.121 68.8355C419.095 76.991 417.944 88.4086 410.652 94.0695C404.223 99.5384 394.149 99.3465 388.008 93.4938C381.772 88.0248 380.62 78.8139 382.443 71.1382C383.787 64.9976 388.488 59.9124 394.533 57.9935Z" fill="#18124B"/>
<path fill-rule="evenodd" clip-rule="evenodd" d="M685.923 121.127C676.52 121.223 667.022 118.536 659.442 112.875C654.548 109.325 650.615 104.336 647.928 98.9629C643.611 90.2317 642.747 80.0614 644.09 70.4667C645.242 62.3112 648.888 54.5396 654.548 48.4949C660.785 41.8746 669.324 37.6529 678.247 36.3097C680.742 35.9259 683.332 35.6381 685.923 35.6381C688.514 35.6381 691.104 35.9259 693.599 36.3097C702.618 37.7489 711.061 41.8746 717.298 48.4949C722.958 54.5396 726.508 62.3112 727.756 70.4667C729.099 80.0614 728.236 90.1358 723.918 98.9629C721.231 104.336 717.298 109.325 712.404 112.875C704.825 118.536 695.326 121.318 685.923 121.127ZM699.452 63.1748C695.038 57.322 687.554 55.2112 680.646 57.6099C676.041 59.145 672.49 62.8869 670.859 67.4924C668.94 72.7694 669.036 79.006 670.092 84.4749C671.723 91.8628 677.959 97.7156 685.635 97.6196C693.791 98.0994 700.987 91.8628 702.618 83.9952C704.057 77.3749 703.673 68.7397 699.452 63.1748Z" fill="#18124B"/>
<path d="M233.939 169L228.763 160.707H226.381V169H223.029V148.239H230.351C232.724 148.239 234.517 148.817 235.733 149.974C236.968 151.13 237.585 152.66 237.585 154.561C237.585 156.188 237.125 157.522 236.203 158.561C235.302 159.6 233.988 160.266 232.263 160.56L237.703 169H233.939ZM226.381 158.325H230.087C232.792 158.325 234.145 157.129 234.145 154.738C234.145 153.601 233.812 152.718 233.145 152.091C232.498 151.444 231.479 151.121 230.087 151.121H226.381V158.325ZM247.103 152.591C248.573 152.591 249.828 152.954 250.867 153.679C251.906 154.404 252.641 155.365 253.073 156.561V152.797H256.425V169H253.073V165.236C252.641 166.432 251.906 167.392 250.867 168.118C249.828 168.843 248.573 169.206 247.103 169.206C245.692 169.206 244.427 168.873 243.31 168.206C242.212 167.539 241.349 166.579 240.722 165.324C240.095 164.069 239.781 162.589 239.781 160.884C239.781 159.198 240.095 157.727 240.722 156.473C241.349 155.218 242.212 154.257 243.31 153.591C244.427 152.924 245.692 152.591 247.103 152.591ZM248.132 155.532C246.642 155.532 245.447 156.012 244.545 156.973C243.663 157.914 243.221 159.217 243.221 160.884C243.221 162.55 243.663 163.864 244.545 164.824C245.447 165.765 246.642 166.236 248.132 166.236C249.073 166.236 249.916 166.02 250.661 165.589C251.406 165.138 251.994 164.511 252.426 163.707C252.857 162.903 253.073 161.962 253.073 160.884C253.073 159.825 252.857 158.894 252.426 158.09C251.994 157.267 251.406 156.639 250.661 156.208C249.916 155.757 249.073 155.532 248.132 155.532ZM269.505 152.532C271.387 152.532 272.897 153.14 274.034 154.355C275.171 155.571 275.74 157.306 275.74 159.56V169H272.387V159.913C272.387 158.463 272.015 157.345 271.27 156.561C270.525 155.757 269.505 155.355 268.211 155.355C266.878 155.355 265.81 155.787 265.006 156.649C264.202 157.492 263.8 158.737 263.8 160.384V169H260.448V152.797H263.8V156.355C264.232 155.14 264.957 154.199 265.977 153.532C266.996 152.865 268.172 152.532 269.505 152.532ZM284.983 152.591C286.884 152.591 288.404 153.081 289.541 154.061C290.698 155.022 291.403 156.316 291.658 157.943H288.482C288.345 157.061 287.963 156.355 287.335 155.826C286.728 155.277 285.914 155.002 284.895 155.002C284.052 155.002 283.395 155.208 282.924 155.62C282.473 156.012 282.248 156.551 282.248 157.237C282.248 157.747 282.415 158.159 282.748 158.472C283.081 158.786 283.493 159.031 283.983 159.208C284.493 159.384 285.208 159.58 286.13 159.796C287.345 160.07 288.325 160.354 289.07 160.648C289.835 160.943 290.482 161.413 291.011 162.06C291.56 162.687 291.835 163.55 291.835 164.648C291.835 166.001 291.315 167.098 290.276 167.941C289.257 168.784 287.874 169.206 286.13 169.206C284.11 169.206 282.473 168.735 281.219 167.794C279.984 166.853 279.239 165.54 278.984 163.854H282.248C282.346 164.736 282.738 165.452 283.424 166.001C284.11 166.549 285.012 166.824 286.13 166.824C286.933 166.824 287.561 166.618 288.012 166.206C288.482 165.775 288.717 165.236 288.717 164.589C288.717 164.02 288.541 163.57 288.188 163.236C287.835 162.903 287.394 162.648 286.865 162.472C286.336 162.276 285.61 162.08 284.689 161.884C283.512 161.609 282.552 161.335 281.807 161.06C281.081 160.786 280.454 160.345 279.925 159.737C279.415 159.11 279.16 158.267 279.16 157.208C279.16 155.836 279.67 154.728 280.689 153.885C281.728 153.022 283.16 152.591 284.983 152.591ZM302.607 152.591C304.175 152.591 305.587 152.924 306.841 153.591C308.096 154.257 309.076 155.218 309.782 156.473C310.488 157.727 310.841 159.198 310.841 160.884C310.841 162.589 310.488 164.069 309.782 165.324C309.076 166.579 308.096 167.539 306.841 168.206C305.587 168.873 304.175 169.206 302.607 169.206C301.039 169.206 299.627 168.873 298.372 168.206C297.137 167.539 296.157 166.579 295.432 165.324C294.726 164.05 294.373 162.57 294.373 160.884C294.373 159.198 294.726 157.727 295.432 156.473C296.157 155.218 297.137 154.257 298.372 153.591C299.627 152.924 301.039 152.591 302.607 152.591ZM302.607 155.502C301.744 155.502 300.95 155.698 300.225 156.09C299.5 156.482 298.911 157.09 298.461 157.914C298.029 158.717 297.814 159.707 297.814 160.884C297.814 162.08 298.029 163.079 298.461 163.883C298.911 164.687 299.5 165.285 300.225 165.677C300.95 166.069 301.744 166.265 302.607 166.265C303.47 166.265 304.263 166.069 304.989 165.677C305.714 165.285 306.293 164.687 306.724 163.883C307.175 163.079 307.4 162.08 307.4 160.884C307.4 159.707 307.175 158.717 306.724 157.914C306.293 157.09 305.714 156.482 304.989 156.09C304.263 155.698 303.47 155.502 302.607 155.502ZM334.325 152.532C336.246 152.532 337.776 153.14 338.913 154.355C340.069 155.571 340.648 157.306 340.648 159.56V169H337.295V159.913C337.295 158.502 336.942 157.414 336.237 156.649C335.531 155.865 334.56 155.473 333.325 155.473C332.012 155.473 330.963 155.894 330.179 156.737C329.414 157.561 329.032 158.776 329.032 160.384V169H325.68V159.913C325.68 158.502 325.327 157.414 324.621 156.649C323.915 155.865 322.945 155.473 321.71 155.473C320.396 155.473 319.347 155.894 318.563 156.737C317.799 157.561 317.416 158.776 317.416 160.384V169H314.064V152.797H317.416V156.179C317.828 155.002 318.514 154.101 319.475 153.473C320.435 152.846 321.563 152.532 322.856 152.532C324.209 152.532 325.376 152.865 326.356 153.532C327.356 154.199 328.081 155.159 328.532 156.414C329.003 155.198 329.757 154.248 330.796 153.561C331.835 152.875 333.012 152.532 334.325 152.532ZM367.264 152.797L362.765 169H359.059L355.06 156.473L351.002 169H347.326L342.827 152.797H346.209L349.296 165.912L353.355 152.797H356.883L361 165.912L364.088 152.797H367.264ZM376.045 152.591C377.515 152.591 378.77 152.954 379.809 153.679C380.848 154.404 381.583 155.365 382.015 156.561V152.797H385.367V169H382.015V165.236C381.583 166.432 380.848 167.392 379.809 168.118C378.77 168.843 377.515 169.206 376.045 169.206C374.634 169.206 373.369 168.873 372.252 168.206C371.154 167.539 370.291 166.579 369.664 165.324C369.037 164.069 368.723 162.589 368.723 160.884C368.723 159.198 369.037 157.727 369.664 156.473C370.291 155.218 371.154 154.257 372.252 153.591C373.369 152.924 374.634 152.591 376.045 152.591ZM377.074 155.532C375.584 155.532 374.389 156.012 373.487 156.973C372.605 157.914 372.163 159.217 372.163 160.884C372.163 162.55 372.605 163.864 373.487 164.824C374.389 165.765 375.584 166.236 377.074 166.236C378.015 166.236 378.858 166.02 379.603 165.589C380.348 165.138 380.936 164.511 381.368 163.707C381.799 162.903 382.015 161.962 382.015 160.884C382.015 159.825 381.799 158.894 381.368 158.09C380.936 157.267 380.348 156.639 379.603 156.208C378.858 155.757 378.015 155.532 377.074 155.532ZM392.742 155.973C393.291 154.914 394.076 154.081 395.095 153.473C396.114 152.846 397.291 152.532 398.624 152.532V156.179H397.624C396.154 156.179 394.968 156.541 394.066 157.267C393.184 157.972 392.742 159.149 392.742 160.795V169H389.39V152.797H392.742V155.973ZM416.192 160.119C416.192 160.668 416.153 161.148 416.074 161.56H403.606C403.665 163.226 404.125 164.462 404.988 165.265C405.85 166.069 406.919 166.471 408.193 166.471C409.311 166.471 410.252 166.187 411.016 165.618C411.8 165.05 412.281 164.295 412.457 163.354H416.045C415.829 164.491 415.378 165.501 414.692 166.383C414.006 167.265 413.114 167.961 412.016 168.471C410.918 168.961 409.693 169.206 408.34 169.206C406.772 169.206 405.38 168.873 404.164 168.206C402.969 167.539 402.028 166.579 401.341 165.324C400.655 164.069 400.312 162.589 400.312 160.884C400.312 159.198 400.655 157.727 401.341 156.473C402.028 155.218 402.969 154.257 404.164 153.591C405.38 152.924 406.772 152.591 408.34 152.591C409.928 152.591 411.31 152.924 412.487 153.591C413.683 154.238 414.594 155.14 415.221 156.296C415.868 157.433 416.192 158.708 416.192 160.119ZM412.81 160.031C412.849 158.972 412.663 158.09 412.251 157.384C411.859 156.659 411.31 156.13 410.605 155.796C409.918 155.443 409.164 155.267 408.34 155.267C407.027 155.267 405.929 155.669 405.047 156.473C404.164 157.276 403.684 158.463 403.606 160.031H412.81ZM437.231 169L432.055 160.707H429.673V169H426.321V148.239H433.643C436.015 148.239 437.809 148.817 439.025 149.974C440.26 151.13 440.877 152.66 440.877 154.561C440.877 156.188 440.417 157.522 439.495 158.561C438.593 159.6 437.28 160.266 435.555 160.56L440.995 169H437.231ZM429.673 158.325H433.379C436.084 158.325 437.437 157.129 437.437 154.738C437.437 153.601 437.103 152.718 436.437 152.091C435.79 151.444 434.77 151.121 433.379 151.121H429.673V158.325ZM458.952 160.119C458.952 160.668 458.913 161.148 458.835 161.56H446.366C446.425 163.226 446.886 164.462 447.748 165.265C448.611 166.069 449.679 166.471 450.954 166.471C452.071 166.471 453.012 166.187 453.777 165.618C454.561 165.05 455.041 164.295 455.218 163.354H458.805C458.59 164.491 458.139 165.501 457.453 166.383C456.766 167.265 455.874 167.961 454.777 168.471C453.679 168.961 452.453 169.206 451.101 169.206C449.532 169.206 448.14 168.873 446.925 168.206C445.729 167.539 444.788 166.579 444.102 165.324C443.416 164.069 443.073 162.589 443.073 160.884C443.073 159.198 443.416 157.727 444.102 156.473C444.788 155.218 445.729 154.257 446.925 153.591C448.14 152.924 449.532 152.591 451.101 152.591C452.689 152.591 454.071 152.924 455.247 153.591C456.443 154.238 457.355 155.14 457.982 156.296C458.629 157.433 458.952 158.708 458.952 160.119ZM455.571 160.031C455.61 158.972 455.424 158.09 455.012 157.384C454.62 156.659 454.071 156.13 453.365 155.796C452.679 155.443 451.924 155.267 451.101 155.267C449.787 155.267 448.689 155.669 447.807 156.473C446.925 157.276 446.445 158.463 446.366 160.031H455.571ZM469.394 152.591C471.492 152.591 473.227 153.15 474.599 154.267C475.971 155.365 476.824 156.865 477.157 158.766H473.599C473.403 157.747 472.923 156.953 472.158 156.384C471.413 155.796 470.472 155.502 469.335 155.502C468.041 155.502 466.963 155.963 466.1 156.884C465.238 157.786 464.806 159.119 464.806 160.884C464.806 162.648 465.238 163.991 466.1 164.912C466.963 165.834 468.041 166.295 469.335 166.295C470.472 166.295 471.413 166.001 472.158 165.412C472.923 164.824 473.403 164.02 473.599 163.001H477.157C476.824 164.903 475.971 166.412 474.599 167.53C473.227 168.647 471.492 169.206 469.394 169.206C467.826 169.206 466.434 168.873 465.218 168.206C464.022 167.539 463.081 166.579 462.395 165.324C461.709 164.069 461.366 162.589 461.366 160.884C461.366 159.198 461.709 157.727 462.395 156.473C463.081 155.218 464.022 154.257 465.218 153.591C466.434 152.924 467.826 152.591 469.394 152.591ZM487.807 152.591C489.375 152.591 490.787 152.924 492.041 153.591C493.296 154.257 494.276 155.218 494.982 156.473C495.688 157.727 496.041 159.198 496.041 160.884C496.041 162.589 495.688 164.069 494.982 165.324C494.276 166.579 493.296 167.539 492.041 168.206C490.787 168.873 489.375 169.206 487.807 169.206C486.238 169.206 484.827 168.873 483.572 168.206C482.337 167.539 481.357 166.579 480.631 165.324C479.926 164.05 479.573 162.57 479.573 160.884C479.573 159.198 479.926 157.727 480.631 156.473C481.357 155.218 482.337 154.257 483.572 153.591C484.827 152.924 486.238 152.591 487.807 152.591ZM487.807 155.502C486.944 155.502 486.15 155.698 485.425 156.09C484.699 156.482 484.111 157.09 483.66 157.914C483.229 158.717 483.013 159.707 483.013 160.884C483.013 162.08 483.229 163.079 483.66 163.883C484.111 164.687 484.699 165.285 485.425 165.677C486.15 166.069 486.944 166.265 487.807 166.265C488.669 166.265 489.463 166.069 490.189 165.677C490.914 165.285 491.492 164.687 491.924 163.883C492.375 163.079 492.6 162.08 492.6 160.884C492.6 159.707 492.375 158.717 491.924 157.914C491.492 157.09 490.914 156.482 490.189 156.09C489.463 155.698 488.669 155.502 487.807 155.502ZM505.91 165.53L510.497 152.797H514.085L507.909 169H503.851L497.676 152.797H501.263L505.91 165.53ZM531.608 160.119C531.608 160.668 531.569 161.148 531.49 161.56H519.022C519.081 163.226 519.541 164.462 520.404 165.265C521.266 166.069 522.335 166.471 523.609 166.471C524.727 166.471 525.668 166.187 526.432 165.618C527.216 165.05 527.697 164.295 527.873 163.354H531.461C531.245 164.491 530.794 165.501 530.108 166.383C529.422 167.265 528.53 167.961 527.432 168.471C526.334 168.961 525.109 169.206 523.756 169.206C522.188 169.206 520.796 168.873 519.58 168.206C518.385 167.539 517.444 166.579 516.757 165.324C516.071 164.069 515.728 162.589 515.728 160.884C515.728 159.198 516.071 157.727 516.757 156.473C517.444 155.218 518.385 154.257 519.58 153.591C520.796 152.924 522.188 152.591 523.756 152.591C525.344 152.591 526.726 152.924 527.903 153.591C529.099 154.238 530.01 155.14 530.637 156.296C531.284 157.433 531.608 158.708 531.608 160.119ZM528.226 160.031C528.265 158.972 528.079 158.09 527.667 157.384C527.275 156.659 526.726 156.13 526.021 155.796C525.334 155.443 524.58 155.267 523.756 155.267C522.443 155.267 521.345 155.669 520.463 156.473C519.58 157.276 519.1 158.463 519.022 160.031H528.226ZM538.197 155.973C538.746 154.914 539.53 154.081 540.55 153.473C541.569 152.846 542.745 152.532 544.078 152.532V156.179H543.079C541.608 156.179 540.422 156.541 539.52 157.267C538.638 157.972 538.197 159.149 538.197 160.795V169H534.845V152.797H538.197V155.973ZM548.502 152.797L553.354 164.707L557.853 152.797H561.588L551.795 176.705H548.061L551.56 168.618L544.738 152.797H548.502ZM583.065 164.501H574.301L572.713 169H569.126L576.771 148.562H580.624L588.24 169H584.653L583.065 164.501ZM582.124 161.913L578.683 152.209L575.242 161.913H582.124ZM596.052 152.591C597.953 152.591 599.473 153.081 600.61 154.061C601.767 155.022 602.472 156.316 602.727 157.943H599.551C599.414 157.061 599.032 156.355 598.404 155.826C597.797 155.277 596.983 155.002 595.964 155.002C595.121 155.002 594.464 155.208 593.993 155.62C593.542 156.012 593.317 156.551 593.317 157.237C593.317 157.747 593.484 158.159 593.817 158.472C594.15 158.786 594.562 159.031 595.052 159.208C595.562 159.384 596.277 159.58 597.199 159.796C598.414 160.07 599.394 160.354 600.139 160.648C600.904 160.943 601.551 161.413 602.08 162.06C602.629 162.687 602.904 163.55 602.904 164.648C602.904 166.001 602.384 167.098 601.345 167.941C600.326 168.784 598.943 169.206 597.199 169.206C595.179 169.206 593.542 168.735 592.288 167.794C591.053 166.853 590.308 165.54 590.053 163.854H593.317C593.415 164.736 593.807 165.452 594.493 166.001C595.179 166.549 596.081 166.824 597.199 166.824C598.002 166.824 598.63 166.618 599.081 166.206C599.551 165.775 599.786 165.236 599.786 164.589C599.786 164.02 599.61 163.57 599.257 163.236C598.904 162.903 598.463 162.648 597.934 162.472C597.404 162.276 596.679 162.08 595.758 161.884C594.581 161.609 593.621 161.335 592.876 161.06C592.15 160.786 591.523 160.345 590.994 159.737C590.484 159.11 590.229 158.267 590.229 157.208C590.229 155.836 590.739 154.728 591.758 153.885C592.797 153.022 594.229 152.591 596.052 152.591ZM611.588 152.591C613.49 152.591 615.009 153.081 616.146 154.061C617.303 155.022 618.008 156.316 618.263 157.943H615.087C614.95 157.061 614.568 156.355 613.941 155.826C613.333 155.277 612.519 155.002 611.5 155.002C610.657 155.002 610 155.208 609.53 155.62C609.079 156.012 608.853 156.551 608.853 157.237C608.853 157.747 609.02 158.159 609.353 158.472C609.686 158.786 610.098 159.031 610.588 159.208C611.098 159.384 611.813 159.58 612.735 159.796C613.95 160.07 614.931 160.354 615.676 160.648C616.44 160.943 617.087 161.413 617.616 162.06C618.165 162.687 618.44 163.55 618.44 164.648C618.44 166.001 617.92 167.098 616.881 167.941C615.862 168.784 614.48 169.206 612.735 169.206C610.716 169.206 609.079 168.735 607.824 167.794C606.589 166.853 605.844 165.54 605.589 163.854H608.853C608.951 164.736 609.343 165.452 610.029 166.001C610.716 166.549 611.617 166.824 612.735 166.824C613.539 166.824 614.166 166.618 614.617 166.206C615.087 165.775 615.323 165.236 615.323 164.589C615.323 164.02 615.146 163.57 614.793 163.236C614.44 162.903 613.999 162.648 613.47 162.472C612.941 162.276 612.215 162.08 611.294 161.884C610.118 161.609 609.157 161.335 608.412 161.06C607.687 160.786 607.059 160.345 606.53 159.737C606.02 159.11 605.765 158.267 605.765 157.208C605.765 155.836 606.275 154.728 607.295 153.885C608.334 153.022 609.765 152.591 611.588 152.591ZM636.74 152.797V169H633.358V165.471C632.947 166.667 632.231 167.598 631.212 168.265C630.192 168.912 629.006 169.235 627.654 169.235C625.772 169.235 624.262 168.628 623.125 167.412C621.988 166.197 621.419 164.462 621.419 162.207V152.797H624.772V161.854C624.772 163.324 625.144 164.462 625.889 165.265C626.634 166.05 627.654 166.442 628.947 166.442C630.281 166.442 631.349 166.01 632.153 165.148C632.957 164.285 633.358 163.03 633.358 161.384V152.797H636.74ZM644.108 155.973C644.657 154.914 645.441 154.081 646.46 153.473C647.48 152.846 648.656 152.532 649.989 152.532V156.179H648.989C647.519 156.179 646.333 156.541 645.431 157.267C644.549 157.972 644.108 159.149 644.108 160.795V169H640.755V152.797H644.108V155.973ZM659 152.591C660.47 152.591 661.725 152.954 662.764 153.679C663.803 154.404 664.538 155.365 664.969 156.561V152.797H668.322V169H664.969V165.236C664.538 166.432 663.803 167.392 662.764 168.118C661.725 168.843 660.47 169.206 659 169.206C657.588 169.206 656.324 168.873 655.206 168.206C654.108 167.539 653.246 166.579 652.618 165.324C651.991 164.069 651.677 162.589 651.677 160.884C651.677 159.198 651.991 157.727 652.618 156.473C653.246 155.218 654.108 154.257 655.206 153.591C656.324 152.924 657.588 152.591 659 152.591ZM660.029 155.532C658.539 155.532 657.343 156.012 656.441 156.973C655.559 157.914 655.118 159.217 655.118 160.884C655.118 162.55 655.559 163.864 656.441 164.824C657.343 165.765 658.539 166.236 660.029 166.236C660.97 166.236 661.813 166.02 662.558 165.589C663.303 165.138 663.891 164.511 664.322 163.707C664.754 162.903 664.969 161.962 664.969 160.884C664.969 159.825 664.754 158.894 664.322 158.09C663.891 157.267 663.303 156.639 662.558 156.208C661.813 155.757 660.97 155.532 660.029 155.532ZM681.402 152.532C683.284 152.532 684.793 153.14 685.931 154.355C687.068 155.571 687.636 157.306 687.636 159.56V169H684.284V159.913C684.284 158.463 683.911 157.345 683.166 156.561C682.421 155.757 681.402 155.355 680.108 155.355C678.775 155.355 677.706 155.787 676.903 156.649C676.099 157.492 675.697 158.737 675.697 160.384V169H672.345V152.797H675.697V156.355C676.128 155.14 676.854 154.199 677.873 153.532C678.892 152.865 680.069 152.532 681.402 152.532ZM698.761 152.591C700.859 152.591 702.594 153.15 703.966 154.267C705.339 155.365 706.191 156.865 706.525 158.766H702.966C702.77 157.747 702.29 156.953 701.526 156.384C700.781 155.796 699.84 155.502 698.702 155.502C697.409 155.502 696.33 155.963 695.468 156.884C694.605 157.786 694.174 159.119 694.174 160.884C694.174 162.648 694.605 163.991 695.468 164.912C696.33 165.834 697.409 166.295 698.702 166.295C699.84 166.295 700.781 166.001 701.526 165.412C702.29 164.824 702.77 164.02 702.966 163.001H706.525C706.191 164.903 705.339 166.412 703.966 167.53C702.594 168.647 700.859 169.206 698.761 169.206C697.193 169.206 695.801 168.873 694.586 168.206C693.39 167.539 692.449 166.579 691.762 165.324C691.076 164.069 690.733 162.589 690.733 160.884C690.733 159.198 691.076 157.727 691.762 156.473C692.449 155.218 693.39 154.257 694.586 153.591C695.801 152.924 697.193 152.591 698.761 152.591ZM724.82 160.119C724.82 160.668 724.781 161.148 724.702 161.56H712.234C712.293 163.226 712.753 164.462 713.616 165.265C714.478 166.069 715.547 166.471 716.821 166.471C717.939 166.471 718.88 166.187 719.644 165.618C720.428 165.05 720.909 164.295 721.085 163.354H724.673C724.457 164.491 724.006 165.501 723.32 166.383C722.634 167.265 721.742 167.961 720.644 168.471C719.546 168.961 718.321 169.206 716.968 169.206C715.4 169.206 714.008 168.873 712.792 168.206C711.597 167.539 710.656 166.579 709.969 165.324C709.283 164.069 708.94 162.589 708.94 160.884C708.94 159.198 709.283 157.727 709.969 156.473C710.656 155.218 711.597 154.257 712.792 153.591C714.008 152.924 715.4 152.591 716.968 152.591C718.556 152.591 719.938 152.924 721.115 153.591C722.31 154.238 723.222 155.14 723.849 156.296C724.496 157.433 724.82 158.708 724.82 160.119ZM721.438 160.031C721.477 158.972 721.291 158.09 720.879 157.384C720.487 156.659 719.938 156.13 719.233 155.796C718.546 155.443 717.792 155.267 716.968 155.267C715.655 155.267 714.557 155.669 713.675 156.473C712.792 157.276 712.312 158.463 712.234 160.031H721.438Z" fill="#18124B"/>
<path d="M728 18.2388H736.087V20.2972H733.293V28.5606H730.852V20.2972H728V18.2388ZM749.908 18.2388V28.5606H747.644L747.585 21.4735L744.497 28.5606H742.762L739.675 21.2383V28.5606H737.498V18.2388H740.733L743.703 25.7375L746.938 18.2388H749.908Z" fill="#18124B"/>
</svg>
