<?xml version="1.0" encoding="UTF-8" standalone="no"?>
<!DOCTYPE svg PUBLIC "-//W3C//DTD SVG 1.1//EN" "http://www.w3.org/Graphics/SVG/1.1/DTD/svg11.dtd">
<svg width="100%" height="100%" viewBox="0 0 52 48" version="1.1" xmlns="http://www.w3.org/2000/svg" xmlns:xlink="http://www.w3.org/1999/xlink" xml:space="preserve" xmlns:serif="http://www.serif.com/" style="fill-rule:evenodd;clip-rule:evenodd;stroke-linejoin:round;stroke-miterlimit:2;">
    <path d="M24.212,48C23.638,45.748 23.08,43.531 22.54,41.367C23.131,41.068 23.621,40.839 24.262,40.504C26.93,39.326 29.514,37.953 31.912,36.246C34.917,34.117 37.721,31.724 40.169,28.909C42.094,26.71 43.681,24.264 44.593,21.396C45.201,19.496 45.505,17.543 45.235,15.537C45.015,13.865 44.424,12.352 43.512,10.962C42.415,9.29 40.996,8.006 39.257,7.091C37.079,5.947 34.766,5.525 32.368,5.595C30.24,5.683 28.18,6.158 26.187,6.933C22.506,8.34 19.129,10.346 15.887,12.616C14.941,13.285 14.063,14.041 13.32,14.938C12.915,15.431 12.594,15.977 12.459,16.628C12.24,17.719 12.831,18.563 13.911,18.616C14.654,18.651 15.33,18.352 15.988,18.035C18.032,17.032 19.872,15.677 21.763,14.446C23.334,13.425 24.904,12.44 26.627,11.719C28.315,11.015 30.071,10.628 31.895,10.944C33.887,11.296 35.492,12.264 36.471,14.182C37.146,15.519 37.214,16.944 36.842,18.387C36.437,20.041 35.525,21.378 34.428,22.592C32.942,24.282 31.219,25.689 29.311,26.85C27.319,28.065 25.343,29.314 23.3,30.44C20.902,31.742 18.369,32.675 15.769,33.466C13.591,34.117 11.379,34.416 9.116,34.205C7.225,34.029 5.435,33.449 3.864,32.323C2.446,31.285 1.399,29.93 0.757,28.241C-0.222,25.636 -0.171,22.98 0.453,20.305C1.163,17.279 2.632,14.675 4.438,12.246C5.823,10.381 7.427,8.745 9.133,7.249C11.547,5.12 14.131,3.202 16.883,1.584C17.812,1.038 18.775,0.51 19.653,0C19.956,0.669 20.261,1.302 20.564,1.953C19.737,2.411 18.927,2.85 18.133,3.308C14.688,5.296 11.547,7.707 8.744,10.592C7.225,12.158 5.924,13.918 4.962,15.906C3.932,17.982 3.392,20.199 3.628,22.557C3.898,25.126 5.046,27.114 7.326,28.293C8.677,28.997 10.129,29.208 11.632,29.173C13.692,29.12 15.634,28.522 17.559,27.801C20.413,26.727 23.08,25.249 25.681,23.613C27.201,22.663 28.72,21.677 30.004,20.393C30.679,19.707 31.355,19.02 31.709,18.053C32.334,16.364 31.456,14.903 29.717,14.727C28.771,14.639 27.91,14.956 27.082,15.361C24.87,16.434 22.878,17.894 20.818,19.214C19.247,20.235 17.643,21.22 15.921,21.924C14.722,22.416 13.472,22.716 12.172,22.557C9.943,22.293 8.542,20.446 8.778,18.123C8.964,16.293 9.825,14.798 10.973,13.46C12.257,11.982 13.743,10.768 15.347,9.713C17.812,8.076 20.294,6.51 22.979,5.261C26.069,3.818 29.244,2.674 32.655,2.358C35.12,2.129 37.552,2.27 39.966,2.921C42.094,3.501 44.053,4.434 45.809,5.789C47.565,7.144 48.967,8.815 50.03,10.786C50.993,12.581 51.533,14.499 51.702,16.54C51.871,18.686 51.634,20.798 51.027,22.839C50.452,24.845 49.659,26.763 48.595,28.54C47.109,31.02 45.353,33.273 43.31,35.296C41.233,37.355 39.139,39.378 36.775,41.068C33.702,43.285 30.493,45.237 27.032,46.733C26.103,47.173 25.191,47.578 24.212,48Z" style="fill:rgb(106,191,75);"/>
</svg>
