<?xml version="1.0" encoding="UTF-8"?>
<svg id="uuid-0505251f-3ec0-4913-a3b2-9b3f311171da" data-name="Layer 2" xmlns="http://www.w3.org/2000/svg" xmlns:xlink="http://www.w3.org/1999/xlink" viewBox="0 0 32 32">
  <defs>
    <linearGradient id="uuid-c765fa1c-4bf4-47be-8be3-a386751fad1b" x1="-114.736" y1="77.42" x2="-111.342" y2="74.026" gradientTransform="translate(114.229 50.386) rotate(50.194) scale(.92 .905) skewX(10.222)" gradientUnits="userSpaceOnUse">
      <stop offset="0" stop-color="#000" stop-opacity="0"/>
      <stop offset=".935" stop-color="#000"/>
    </linearGradient>
    <linearGradient id="uuid-d4bc9d00-c5cd-425e-bc81-afa8ccc4ff17" x1="-106.251" y1="85.906" x2="-102.857" y2="82.512" gradientTransform="translate(114.229 26.386) rotate(50.194) scale(.92 .905) skewX(10.222)" xlink:href="#uuid-c765fa1c-4bf4-47be-8be3-a386751fad1b"/>
    <linearGradient id="uuid-eb6eefbf-fd01-484b-b79c-d774a1ef805d" x1="4.382" y1="25.954" x2="7.382" y2="22.954" gradientTransform="translate(24.739 -.533) rotate(40.601) scale(1.087 1.074) skewX(-8.696)" gradientUnits="userSpaceOnUse">
      <stop offset="0" stop-color="#000" stop-opacity="0"/>
      <stop offset=".75" stop-color="#000"/>
    </linearGradient>
    <mask id="uuid-d2602899-c9ea-4a8d-b60e-33a46a84907a" data-name="mask" x="0" y="0" width="32" height="32" maskUnits="userSpaceOnUse">
      <g>
        <rect x="1.072" y="23" width="6.928" height="2" fill="#fff"/>
        <rect x="1.062" y="11" width="7.938" height="2" fill="#fff"/>
        <path d="m19,24c0,2.76-2.24,5-5,5s-5-2.24-5-5c0-1.64.79-3.09,2-4l-1.42-1.42c-1.58,1.27-2.58,3.23-2.58,5.42,0,3.87,3.13,7,7,7s7-3.13,7-7h-2Z" fill="#fff"/>
        <rect x="1" y="22" width="4" height="4" transform="translate(6 48) rotate(180)" fill="url(#uuid-c765fa1c-4bf4-47be-8be3-a386751fad1b)"/>
        <rect x="1" y="10" width="4" height="4" transform="translate(6 24) rotate(180)" fill="url(#uuid-d4bc9d00-c5cd-425e-bc81-afa8ccc4ff17)"/>
        <rect x="6.943" y="19.034" width="4.95" height="3.768" transform="translate(-12.033 12.786) rotate(-45)" fill="url(#uuid-eb6eefbf-fd01-484b-b79c-d774a1ef805d)"/>
      </g>
    </mask>
    <linearGradient id="uuid-154128cb-9501-43f9-bc2b-bb507bf917f6" x1="0" y1="32" x2="32" y2="0" gradientUnits="userSpaceOnUse">
      <stop offset=".1" stop-color="#a56eff"/>
      <stop offset=".9" stop-color="#0f62fe"/>
    </linearGradient>
  </defs>
  <g id="uuid-dc708109-83f7-4a90-a52a-dc9f5b7f8d20" data-name="Build icon here">
    <g>
      <g mask="url(#uuid-d2602899-c9ea-4a8d-b60e-33a46a84907a)">
        <rect width="32" height="32" fill="url(#uuid-154128cb-9501-43f9-bc2b-bb507bf917f6)"/>
      </g>
      <path d="m21,21c-5.514,0-10-4.486-10-10S15.486,1,21,1s10,4.486,10,10-4.486,10-10,10Zm0-18c-4.411,0-8,3.589-8,8s3.589,8,8,8,8-3.589,8-8-3.589-8-8-8Z" fill="#001d6c"/>
    </g>
  </g>
</svg>