<svg id="WatsonKnowledgeStudio" xmlns="http://www.w3.org/2000/svg" viewBox="0 0 32 32"><defs><linearGradient id="h3pvly7sia" x1="10" y1="29" x2="19" y2="29" gradientUnits="userSpaceOnUse"><stop offset="0" stop-opacity="0"/><stop offset=".88"/></linearGradient><linearGradient id="vr0fykdlyc" x1="0" y1="32" x2="32" y2="0" gradientUnits="userSpaceOnUse"><stop offset=".1" stop-color="#a56eff"/><stop offset=".9" stop-color="#0f62fe"/></linearGradient><mask id="go00nqsctb" width="32" height="32" maskUnits="userSpaceOnUse"><path d="M19.249 27.417H24v3.513h-4.751z"/><path style="fill:#fff" d="M6 14h7v2H6zM6 6h4v2H6z"/><circle cx="7" cy="11" r="1" style="fill:#fff"/><path d="M18 28H4V4h18v4h2V4c0-1.103-.897-2-2-2H4c-1.103 0-2 .897-2 2v24c0 1.103.897 2 2 2h14v-2z" style="fill:#fff"/><circle cx="12" cy="19" r="1" style="fill:#fff"/><path style="fill:#fff" d="M16 6h4v2h-4z"/><circle cx="13" cy="7" r="1" style="fill:#fff"/><path style="fill:#fff" d="M10 10h7v2h-7zM6 22h8v2H6zM6 18h3v2H6z"/><path style="fill:url(#h3pvly7sia)" d="M10 27h9v4h-9z"/></mask></defs><g style="mask:url(#go00nqsctb)"><path style="fill:url(#vr0fykdlyc)" d="M0 0h32v32H0z"/></g><path style="fill:#001d6c" d="M20 25h7v2h-7zM22 29h3v2h-3zM27 23h-2c0-1.056.412-2.049 1.159-2.795l.524-.523A4.474 4.474 0 0 0 28 16.5c0-2.481-2.019-4.5-4.5-4.5S19 14.019 19 16.5a4.47 4.47 0 0 0 1.318 3.182l.525.524A3.92 3.92 0 0 1 22 22.999h-2c0-.521-.203-1.011-.571-1.379l-.525-.524A6.457 6.457 0 0 1 17 16.499c0-3.584 2.916-6.5 6.5-6.5s6.5 2.916 6.5 6.5a6.46 6.46 0 0 1-1.903 4.596l-.524.523a1.939 1.939 0 0 0-.572 1.38z"/></svg>