<?xml version="1.0" encoding="UTF-8"?>
<svg id="uuid-3c412cde-f155-4be3-a03f-9241c903e476" data-name="Build icon here" xmlns="http://www.w3.org/2000/svg" xmlns:xlink="http://www.w3.org/1999/xlink" viewBox="0 0 32 32">
  <defs>
    <linearGradient id="uuid-2572fc7e-3c2a-42fb-947a-9537184f542c" x1="3584.899" y1="-3396.097" x2="3594.101" y2="-3396.097" gradientTransform="translate(-3562.5 3411.097)" gradientUnits="userSpaceOnUse">
      <stop offset="0" stop-color="#000" stop-opacity="0"/>
      <stop offset=".83" stop-color="#000"/>
    </linearGradient>
    <mask id="uuid-5519c86d-c5b6-48fc-bf27-400ae80140b4" data-name="mask" x="0" y="0" width="32" height="32" maskUnits="userSpaceOnUse">
      <g>
        <g>
          <path d="m26,29h-8c-1.103,0-2-.897-2-2V5c0-1.103.897-2,2-2h8c1.103,0,2,.897,2,2v22c0,1.103-.897,2-2,2ZM18,5v22h8.001V5h-8.001Z" fill="#fff"/>
          <path d="m12,3H4c-1.103,0-2,.897-2,2v22c0,1.103.897,2,2,2h8c1.103,0,2-.897,2-2V5c0-1.103-.897-2-2-2Zm0,6.919l-6.149-4.919h6.149v4.919Zm-.601,2.081l-7.399,5.919V6.081l7.399,5.919Zm.601,2.08v11.839s-7.4-5.92-7.4-5.92l7.4-5.92Zm-8,8.001l6.148,4.919h-6.148v-4.919Z" fill="#fff"/>
        </g>
        <g id="uuid-db076734-9ff8-49f0-9366-4d3491af1819" data-name="Gradients (black)">
          <rect x="22.4" y="13" width="9.202" height="4" transform="translate(42 -12) rotate(90)" fill="url(#uuid-2572fc7e-3c2a-42fb-947a-9537184f542c)"/>
        </g>
        <rect x="20" y="19" width="9" height="11"/>
      </g>
    </mask>
    <linearGradient id="uuid-6afe167f-424f-4175-9f63-8c88da00500c" x1="0" y1="32" x2="32" y2="0" gradientUnits="userSpaceOnUse">
      <stop offset=".1" stop-color="#0f62fe"/>
      <stop offset=".9" stop-color="#1192e8"/>
    </linearGradient>
  </defs>
  <g mask="url(#uuid-5519c86d-c5b6-48fc-bf27-400ae80140b4)">
    <rect x="0" width="32" height="32" fill="url(#uuid-6afe167f-424f-4175-9f63-8c88da00500c)"/>
  </g>
  <path d="m27,31l-2.139-1.013c-1.738-.822-2.861-2.597-2.861-4.52v-6.468h10v6.468c0,1.923-1.123,3.697-2.861,4.52l-2.139,1.013Zm-3-10v4.468c0,1.153.674,2.218,1.717,2.711l1.283.607,1.283-.607c1.043-.493,1.717-1.558,1.717-2.711v-4.468h-6Z" fill="#001d6c"/>
</svg>