<svg xmlns="http://www.w3.org/2000/svg" xmlns:xlink="http://www.w3.org/1999/xlink" viewBox="0 0 32 32"><defs><style>.cls-1{fill:#fff;}.cls-2{fill:url(#linear-gradient);}.cls-3{fill:url(#linear-gradient-2);}.cls-4{fill:url(#linear-gradient-3);}.cls-5{mask:url(#mask);}.cls-6{fill:url(#linear-gradient-4);}.cls-7{fill:#242b66;}</style><linearGradient id="linear-gradient" y1="19.07" x2="4.7" y2="19.07" gradientUnits="userSpaceOnUse"><stop offset="0.15"/><stop offset="1" stop-opacity="0"/></linearGradient><linearGradient id="linear-gradient-2" x1="3048.95" y1="-3133.27" x2="3057.95" y2="-3133.27" gradientTransform="translate(-3040.95 3158.24)" gradientUnits="userSpaceOnUse"><stop offset="0.1"/><stop offset="0.8" stop-opacity="0"/></linearGradient><linearGradient id="linear-gradient-3" x1="0" y1="6.07" x2="6.87" y2="6.07" xlink:href="#linear-gradient"/><mask id="mask" x="0" y="0" width="32" height="32" maskUnits="userSpaceOnUse"><path class="cls-1" d="M17,18V14.07H7v10h9v2H6.08A1.08,1.08,0,0,1,5,25V20.07H0v-2H5V13.14a1.07,1.07,0,0,1,1.08-1.07H17.92A1.07,1.07,0,0,1,19,13.14V18Z"/><path class="cls-1" d="M28,2.06H12a2,2,0,0,0-2,2v1H0v2H10v1a2,2,0,0,0,2,2H28a2,2,0,0,0,2-2v-4A2,2,0,0,0,28,2.06Zm0,6H12v-4H28Z"/><rect class="cls-2" y="17.07" width="4.7" height="4"/><rect class="cls-3" x="8" y="22.96" width="9" height="4" transform="translate(25 49.93) rotate(180)"/><rect class="cls-4" y="4.07" width="6.87" height="4"/></mask><linearGradient id="linear-gradient-4" x1="-1210" y1="32" x2="-1242" gradientTransform="matrix(1, 0, 0, -1, 1242, 32)" gradientUnits="userSpaceOnUse"><stop offset="0.1" stop-color="#08bdba"/><stop offset="0.9" stop-color="#0f62fe"/></linearGradient></defs><g id="Build_icon_here" data-name="Build icon here"><g class="cls-5"><rect class="cls-6" width="32" height="32" transform="translate(32 32) rotate(180)"/></g><path class="cls-7" d="M28,25a4.85,4.85,0,0,0-.28-1.57l1.84-1.06-1-1.73-1.84,1.06A5,5,0,0,0,24,20.14V18H22v2.1a5,5,0,0,0-2.72,1.6l-1.84-1.06-1,1.73,1.84,1.06A4.85,4.85,0,0,0,18,25a4.75,4.75,0,0,0,.28,1.57l-1.84,1.07,1,1.73,1.84-1.06A5,5,0,0,0,22,29.94V32h2v-2.1a5,5,0,0,0,2.72-1.59l1.84,1.06,1-1.73-1.84-1.07A4.75,4.75,0,0,0,28,25Zm-5,3a3,3,0,1,1,3-3A3,3,0,0,1,23,28Z"/><circle class="cls-7" cx="15" cy="6.06" r="1"/></g></svg>