<svg width="32" height="26" viewBox="0 0 32 26" fill="none" xmlns="http://www.w3.org/2000/svg">
<path fill-rule="evenodd" clip-rule="evenodd" d="M22.6333 3.3C22.6333 1.7536 23.8869 0.5 25.4333 0.5H29.2C30.7464 0.5 32 1.7536 32 3.3V22.6764C32 24.2228 30.7464 25.4764 29.2 25.4764H22.6333V3.3ZM11.3151 11.5386C11.3151 9.99219 12.5687 8.73859 14.1151 8.73859H17.8819C19.4282 8.73859 20.6818 9.99219 20.6818 11.5386V22.6754C20.6818 24.2218 19.4282 25.4754 17.8818 25.4754H11.3151V11.5386ZM3 16.7607C1.34315 16.7607 0 18.1038 0 19.7607V25.476H6.56675C8.11314 25.476 9.36675 24.2224 9.36675 22.676V19.5607C9.36675 18.0143 8.11314 16.7607 6.56675 16.7607H3Z" fill="url(#paint0_linear_15830_21702)"/>
<defs>
<linearGradient id="paint0_linear_15830_21702" x1="1.68478e-07" y1="11.9092" x2="32.2634" y2="11.7903" gradientUnits="userSpaceOnUse">
<stop stop-color="#913AFF"/>
<stop offset="0.519325" stop-color="#A259FF"/>
<stop offset="1" stop-color="#6F08F1"/>
</linearGradient>
</defs>
</svg>
