<?xml version="1.0" encoding="UTF-8"?>
<svg id="_レイヤー_1" data-name="レイヤー 1" xmlns="http://www.w3.org/2000/svg" xmlns:xlink="http://www.w3.org/1999/xlink" viewBox="0 0 133.31 93.52">
  <defs>
    <style>
      .cls-1 {
        fill: url(#_名称未設定グラデーション_6);
      }

      .cls-1, .cls-2, .cls-3, .cls-4 {
        stroke-width: 0px;
      }

      .cls-2 {
        fill: url(#_名称未設定グラデーション_7);
      }

      .cls-3 {
        fill: url(#_名称未設定グラデーション_8);
      }

      .cls-4 {
        fill: url(#_名称未設定グラデーション_5);
      }
    </style>
    <linearGradient id="_名称未設定グラデーション_5" data-name="名称未設定グラデーション 5" x1="86.07" y1="419.31" x2="55.96" y2="445.84" gradientTransform="translate(0 -403.65)" gradientUnits="userSpaceOnUse">
      <stop offset="0" stop-color="#2318cc"/>
      <stop offset=".39" stop-color="#2318c9"/>
      <stop offset=".58" stop-color="#231cc2"/>
      <stop offset=".71" stop-color="#2321b5"/>
      <stop offset=".83" stop-color="#2429a3"/>
      <stop offset=".93" stop-color="#25338c"/>
      <stop offset="1" stop-color="#263d77"/>
    </linearGradient>
    <linearGradient id="_名称未設定グラデーション_6" data-name="名称未設定グラデーション 6" x1="130.59" y1="472.99" x2="90.69" y2="467.54" gradientTransform="translate(0 -403.65)" gradientUnits="userSpaceOnUse">
      <stop offset=".11" stop-color="#1fb8d5"/>
      <stop offset=".34" stop-color="#1fb4d2"/>
      <stop offset=".52" stop-color="#20abca"/>
      <stop offset=".68" stop-color="#239abc"/>
      <stop offset=".84" stop-color="#2783a9"/>
      <stop offset=".98" stop-color="#2b6590"/>
      <stop offset=".99" stop-color="#2c648f"/>
    </linearGradient>
    <linearGradient id="_名称未設定グラデーション_7" data-name="名称未設定グラデーション 7" x1="24.75" y1="432.22" x2="24.75" y2="479.42" gradientTransform="translate(0 -403.65)" gradientUnits="userSpaceOnUse">
      <stop offset="0" stop-color="#008aff"/>
      <stop offset=".37" stop-color="#0088fc"/>
      <stop offset=".54" stop-color="#0484f5"/>
      <stop offset=".67" stop-color="#097de8"/>
      <stop offset=".77" stop-color="#1173d6"/>
      <stop offset=".87" stop-color="#1b65be"/>
      <stop offset=".95" stop-color="#2755a2"/>
      <stop offset="1" stop-color="#304b8f"/>
    </linearGradient>
    <linearGradient id="_名称未設定グラデーション_8" data-name="名称未設定グラデーション 8" x1="0" y1="474.2" x2="117.72" y2="474.2" gradientTransform="translate(0 -403.65)" gradientUnits="userSpaceOnUse">
      <stop offset="0" stop-color="#5a5a5a"/>
      <stop offset=".39" stop-color="#575757"/>
      <stop offset=".57" stop-color="#505050"/>
      <stop offset=".7" stop-color="#434343"/>
      <stop offset=".82" stop-color="#313131"/>
      <stop offset=".92" stop-color="#1a1a1a"/>
      <stop offset="1" stop-color="#000"/>
    </linearGradient>
  </defs>
  <path class="cls-4" d="M47.39,21.23c3.43-3.43,8.17-5.55,13.4-5.55,10.47,0,18.95,8.48,18.95,18.95v8.99c0,3.51,2.84,6.35,6.35,6.35h17.15c-8.83,0-7.82-15.68-7.82-15.68C95.23,15.35,79.77,0,60.79,0c-16.33,0-30.05,11.36-33.69,26.59,1.21-.14,5.26-.63,7.94-.63,3.35,0,7.01.3,12.35-4.72h0Z"/>
  <path class="cls-1" d="M103.7,34.29h-8.28s-1,15.68,7.82,15.68c7.67,0,14.25,6,14.39,13.67,0,0,1.39,11.84-6.95,19.39-8.35,7.55-23.46,10.49-34.79,10.49h27.18c16.11,0,29.75-12.61,30.23-28.72.5-16.74-12.97-30.51-29.6-30.51h0Z"/>
  <path class="cls-2" d="M7.61,67.03c7.55,11.03,26.71,10.8,26.71,10.8-9.75,0-18.15-7.5-18.61-17.24-.49-10.4,7.8-18.99,18.09-18.99h1.06c3.85,0,6.97-3.12,6.97-6.97,0-5.23,2.12-9.97,5.55-13.4-5.34,5.02-8.99,4.72-12.35,4.72-2.68,0-6.73.49-7.94.63-11.4,2.3-20.74,10.36-24.84,21,0,0-1.45,9.5,5.35,19.45h.01Z"/>
  <path class="cls-3" d="M117.63,63.64c.14,7.81-6.15,14.19-13.93,14.19H34.31s-19.15.23-26.71-10.8C.79,57.09,2.25,47.58,2.25,47.58.77,51.4-.02,55.56,0,59.9c.1,18.72,15.84,33.61,34.57,33.61h41.32c11.33,0,26.44-2.93,34.79-10.49,8.35-7.55,6.95-19.39,6.95-19.39h0Z"/>
</svg>