<svg id="WatsonNaturalLanguageUnderstanding" xmlns="http://www.w3.org/2000/svg" viewBox="0 0 32 32"><defs><linearGradient id="ghen11blza" x1="-340" y1="5724" x2="-334" y2="5724" gradientTransform="rotate(90 2689 3038)" gradientUnits="userSpaceOnUse"><stop offset="0" stop-opacity="0"/><stop offset=".8"/></linearGradient><linearGradient id="6uickj3oyc" x1="-915.076" y1="-805" x2="-883.076" y2="-773" gradientTransform="translate(915.076 805)" gradientUnits="userSpaceOnUse"><stop offset=".1" stop-color="#a56eff"/><stop offset=".9" stop-color="#0f62fe"/></linearGradient><mask id="gphcjar7ab" x="0" y="0" width="32" height="32" maskUnits="userSpaceOnUse"><path d="m12 1-1.414 1.414L13.172 5H4c-1.103 0-2 .897-2 2v7h2V7h9.172l-2.586 2.586L12 11l5-5-5-5zM19 2h8v2h-8zM22 6h8v2h-8zM22 10h8v2h-8zM19 14h8v2h-8zM22 18h8v2h-8z" style="fill:#fff"/><path style="fill:url(#ghen11blza)" d="M1 9h4v6H1z"/></mask></defs><g style="mask:url(#gphcjar7ab)"><path transform="rotate(-90 16 16)" style="fill:url(#6uickj3oyc)" d="M0 0h32v32H0z"/></g><path style="fill:#001d6c" d="M6 19h5v2H6zM6 23h5v2H6z"/><path d="M13 30H4c-1.103 0-2-.897-2-2V17c0-1.103.897-2 2-2h9c1.103 0 2 .897 2 2v11c0 1.103-.897 2-2 2zM4 17v11h9.001V17H4z" style="fill:#001d6c"/></svg>