<svg id="WatsonSpeechToText" xmlns="http://www.w3.org/2000/svg" xmlns:xlink="http://www.w3.org/1999/xlink" viewBox="0 0 32 32"><defs><linearGradient id="c5kdgg9sva" x1="350" y1="24.5" x2="358" y2="24.5" gradientTransform="matrix(1 0 0 -1 -334 49)" gradientUnits="userSpaceOnUse"><stop offset="0" stop-opacity="0"/><stop offset=".8"/></linearGradient><linearGradient id="nv5o4w5s8b" x1="-3683" y1="-7111" x2="-3675" y2="-7111" gradientTransform="matrix(1 0 0 -1 3693 -7105)" xlink:href="#c5kdgg9sva"/><linearGradient id="572b1mbp1d" data-name="New Gradient Swatch 1" x1="2890.504" y1="31.538" x2="2859.288" y2=".322" gradientTransform="matrix(1 0 0 -1 -2858.966 32)" gradientUnits="userSpaceOnUse"><stop offset=".1" stop-color="#a56eff"/><stop offset=".9" stop-color="#0f62fe"/></linearGradient><mask id="j03lgnq7pc" x="0" y="0" width="32" height="32" maskUnits="userSpaceOnUse"><path d="M4 14h2v-2c0-2.757 2.243-5 5-5h6V5h-6c-3.86 0-7 3.14-7 7v2zM17 26h4c3.86 0 7-3.14 7-7v-2h-2v2c0 2.757-2.243 5-5 5h-4v2z" style="fill:#fff"/><path transform="rotate(-180 20 24.5)" style="fill:url(#c5kdgg9sva)" d="M16 22h8v5h-8z"/><path style="fill:url(#nv5o4w5s8b)" d="M10 4h8v4h-8z"/><path d="M13.999 18H4.001A2.002 2.002 0 0 0 2 20.001v5.998C2 27.103 2.897 28 4.001 28h2.422l1.731 3 1.732-1-2.31-4H4v-6h10v6h-3v2h2.999A2.002 2.002 0 0 0 16 25.999v-5.998A2.002 2.002 0 0 0 13.999 18z" style="fill:#fff"/></mask></defs><g style="mask:url(#j03lgnq7pc)"><path transform="rotate(-180 16 16)" style="fill:url(#572b1mbp1d)" d="M0 0h32v32H0z"/></g><path style="fill:#001d6c" d="M18 7h12v2H18zM18 11h6v2h-6zM18 3h12v2H18z"/></svg>