<svg xmlns="http://www.w3.org/2000/svg" viewBox="0 0 32 32">
  <defs>
    <linearGradient id="a" x1="2105.46" x2="2115.68" y1="2106.747" y2="2106.747" gradientTransform="translate(-2098.537 -2101.679)" gradientUnits="userSpaceOnUse">
      <stop offset="0" stop-opacity="0"/>
      <stop offset=".8"/>
    </linearGradient>
    <linearGradient id="c" x2="32" y1="32" data-name="Red50 to Magenta70" gradientUnits="userSpaceOnUse">
      <stop offset=".1" stop-color="#fa4d56"/>
      <stop offset=".9" stop-color="#9f1853"/>
    </linearGradient>
    <mask id="b" width="32" height="32" x="0" y="0" maskUnits="userSpaceOnUse">
      <path fill="#fff" d="M28 16.022v5.988H4v-16h13.076v-2H4a2 2 0 0 0-2 2v16a2 2 0 0 0 2 2h8v4H8v2h16v-2h-4v-4h8a2 2 0 0 0 2-2v-5.988zM18 28.01h-4v-4h4z"/>
      <path fill="url(#a)" d="M6.924 3h10.22v4.136H6.924z"/>
    </mask>
  </defs>
  <g mask="url(#b)">
    <path fill="url(#c)" d="M0 0h32v32H0z"/>
  </g>
  <path fill="#001d6c" d="M16 6h8v2h-8zm0-4h8v2h-8z"/>
  <path fill="#001d6c" d="M24.452 10a2.961 2.961 0 0 0 1.265 1.179l1.283.607 1.283-.607A3.012 3.012 0 0 0 30 8.468V4h-3V2h5v6.468a5.021 5.021 0 0 1-2.861 4.519L27 14l-2.139-1.013A4.992 4.992 0 0 1 22.262 10z"/>
</svg>