<?xml version="1.0" encoding="utf-8"?>
<!-- Generator: Adobe Illustrator 21.0.2, SVG Export Plug-In . SVG Version: 6.00 Build 0)  -->
<svg version="1.1" id="Layer_1" xmlns="http://www.w3.org/2000/svg" xmlns:xlink="http://www.w3.org/1999/xlink" x="0px" y="0px"
	 viewBox="0 0 17.5 12.5" style="enable-background:new 0 0 17.5 12.5;" xml:space="preserve">
<style type="text/css">
	.st0{fill:#E2231A;}
</style>
<g>
	<path class="st0" d="M0,4.6h5v3.3H0V4.6z M6.3,0h4.9v3.3H6.3V0z M6.3,9.3h4.9v3.3H6.3V9.3z M12.6,4.6h5v3.3h-5V4.6z M2,0
		C1,0.3,0.2,1.4,0,2.9v0.4h5V0H2z M0,9.3v0.4c0.2,1.4,0.9,2.5,1.9,2.9H5V9.3L0,9.3L0,9.3z M17.5,3.3V2.9c-0.2-1.5-1-2.6-2-2.9h-2.9
		v3.3H17.5z M15.6,12.5c1-0.3,1.7-1.4,1.9-2.9V9.3h-5v3.3H15.6L15.6,12.5z"/>
</g>
</svg>
