<?xml version="1.0" encoding="UTF-8"?>
<svg width="24px" height="32px" viewBox="0 0 24 32" version="1.1" xmlns="http://www.w3.org/2000/svg" xmlns:xlink="http://www.w3.org/1999/xlink">
    <!-- Generator: Sketch 50.2 (55047) - http://www.bohemiancoding.com/sketch -->
    <title>Group 79</title>
    <desc>Created with Sketch.</desc>
    <defs></defs>
    <g id="Page-1" stroke="none" stroke-width="1" fill="none" fill-rule="evenodd">
        <g id="Group-79">
            <path d="M0,23 L0,32 L24,32 L24,23 L0,23 Z M6.9,29.4 C5.8,29.4 5,28.6 5,27.5 C5,26.4 5.8,25.6 6.9,25.6 C8,25.6 8.8,26.4 8.8,27.5 C8.9,28.6 8,29.4 6.9,29.4 Z" id="Shape" fill="#562F72" fill-rule="nonzero"></path>
            <polygon id="Shape" fill="#5AAAFA" fill-rule="nonzero" points="0 0 0 21 24 21 24 8.41919127e-16 0 8.41919127e-16"></polygon>
            <g id="Group-67" transform="translate(9.500000, 4.500000)" fill="#FFFFFF">
                <polygon id="Shape" fill-rule="nonzero" points="0 12 5.33333333 12 2.91141501 2.66666667"></polygon>
                <circle id="Oval-9" cx="2.66666667" cy="2.66666667" r="2.66666667"></circle>
            </g>
        </g>
    </g>
</svg>