<?xml version="1.0" encoding="utf-8"?>
<!-- Generator: Adobe Illustrator 21.0.2, SVG Export Plug-In . SVG Version: 6.00 Build 0)  -->
<svg version="1.1" id="Layer_1" xmlns="http://www.w3.org/2000/svg" xmlns:xlink="http://www.w3.org/1999/xlink" x="0px" y="0px"
	 viewBox="0 0 662.2 116" style="enable-background:new 0 0 662.2 116;" xml:space="preserve">
<style type="text/css">
	.st0{fill:#1BA638;}
</style>
<title>Veeam_logo_2017_green</title>
<path class="st0" d="M650,2.5c-7.1-1.8-14.5,1.5-17.8,8l-43.9,83.1c-1.2,2.4-3.7,3.9-6.4,3.8l0,0c-2.7,0-5.2-1.4-6.4-3.8l-43.8-83.1
	c-4.1-7.7-13.6-10.7-21.4-6.6c-5.2,2.7-8.5,8.1-8.5,14v88.6c-0.2,4.2,3.1,7.7,7.3,7.9c4.2,0.2,7.7-3.1,7.9-7.3l0,0
	c0-0.2,0-0.4,0-0.5V17.9c0-0.3-0.1-0.8,0.4-0.9s0.6,0.4,0.8,0.6l43.8,83.1c5.8,11,19.3,15.2,30.3,9.4c4-2.1,7.3-5.4,9.4-9.4l44-83.1
	c0.1-0.3,0.3-0.7,0.8-0.6s0.4,0.6,0.4,0.9v88.6c-0.1,4.2,3.2,7.7,7.4,7.9c4.2,0.1,7.7-3.1,7.9-7.3c0-0.2,0-0.4,0-0.5V17.9
	C662.1,10.6,657.1,4.2,650,2.5z"/>
<path class="st0" d="M128.3,3.6c-3.7-1.9-8.3-0.5-10.2,3.2l-48,91c-0.9,1.8-2.3,2.8-3.7,2.8s-2.8-1-3.7-2.8l-48-91
	c-1.6-3.9-6.1-5.7-10-4.1s-5.7,6.1-4.1,10c0.2,0.4,0.4,0.8,0.6,1.2l48,91c3.6,6.8,10,10.9,17.2,10.9s13.6-4.1,17.2-10.9l48-91
	C133.6,10.1,132.1,5.5,128.3,3.6C128.4,3.6,128.3,3.6,128.3,3.6L128.3,3.6z"/>
<path class="st0" d="M186.2,0c-32,0-58,26-58,58s26,58,58,58c18.3,0,35.6-8.7,46.5-23.4c2.7-3.2,2.3-8-0.9-10.7
	c-3.2-2.7-8-2.3-10.7,0.9c-0.1,0.1-0.2,0.3-0.3,0.4l-0.2,0.3c-14.1,19-40.9,22.9-59.9,8.8c-8.7-6.5-14.6-16-16.6-26.7h92.5
	c4.2,0,7.6-3.4,7.6-7.6l0,0C244.2,26,218.2,0,186.2,0z M144.1,50.4c4.2-23.3,26.5-38.7,49.8-34.4c17.5,3.2,31.3,16.9,34.4,34.4
	H144.1z"/>
<path class="st0" d="M367.9,58c0-32-26-58-58-58s-58,26-58,58s26,58,58,58c18.3,0,35.6-8.7,46.5-23.4c2.4-3.4,1.6-8.2-1.8-10.6
	c-3.3-2.4-7.9-1.7-10.4,1.5c-14.1,19-40.9,22.9-59.9,8.8c-8.7-6.5-14.6-16-16.6-26.7h92.5C364.5,65.6,367.9,62.2,367.9,58z
	 M267.8,50.4c4.2-23.3,26.5-38.7,49.8-34.4c17.5,3.2,31.3,16.9,34.4,34.4H267.8z"/>
<path class="st0" d="M444.7,13.3c-3.5-6.6-9.8-10.6-16.7-10.6s-13.2,4-16.7,10.6L364,103c-2.1,3.7-0.7,8.3,2.9,10.4
	c3.7,2.1,8.3,0.7,10.4-2.9l0,0l0.2-0.3l13-24.7h55.9c4.1,0,7.5-3.4,7.5-7.5s-3.4-7.5-7.5-7.5h-48l26.4-50c0.8-1.6,2-2.5,3.3-2.5
	s2.4,0.9,3.3,2.5l47.4,89.7c2.1,3.7,6.7,5,10.4,2.9c3.5-2,4.9-6.4,3.1-10L444.7,13.3z"/>
</svg>
