<?xml version="1.0" encoding="utf-8"?>
<!-- Generator: Adobe Illustrator 22.0.1, SVG Export Plug-In . SVG Version: 6.00 Build 0)  -->
<svg version="1.1" id="Layer_1" xmlns="http://www.w3.org/2000/svg" xmlns:xlink="http://www.w3.org/1999/xlink" x="0px" y="0px"
	 viewBox="0 0 34 38" style="enable-background:new 0 0 34 38;" xml:space="preserve">
<style type="text/css">
	.st0{fill:#62B0EE;}
</style>
<title>Asset 1</title>
<path class="st0" d="M16.9,1.2L2.3,9.9v16.9L17,35.3l13.9-8v-18L16.9,1.2z M28.8,25.5L17,32.6L4.3,25.3v-2.7V12v-1l4.2-2.4
	c1.2-0.8,2.5-1.4,3.8-2.1l4.3-2.4c0,0,0.1,0,0.1-0.1l12,6.9V25.5z"/>
<path class="st0" d="M25.6,11.8L17,6.9l-9,4.8c0,0.2,0,0.4-0.1,0.6v9.7c1.2,3.6,4.3,6.4,8.2,7.1c0.8,0.1,1.6,0,2.4-0.3
	c3.4-1,6-3.6,7-6.8V11.8z M17,26.4c-5.8-1.8-6.8-3-6.7-8.3H17V26.4z M17,18V9.5l6.8,3.5v5H17z"/>
</svg>
