<?xml version="1.0" encoding="utf-8"?>
<!-- Generator: Adobe Illustrator 19.2.1, SVG Export Plug-In . SVG Version: 6.00 Build 0)  -->
<svg version="1.1" id="Layer_1" xmlns="http://www.w3.org/2000/svg" xmlns:xlink="http://www.w3.org/1999/xlink" x="0px" y="0px"
	 viewBox="0 0 239.8 67.3" style="enable-background:new 0 0 239.8 67.3;" xml:space="preserve">
<style type="text/css">
	.st0{fill:#BA0D26;}
</style>
<path class="st0" d="M71.5,34.9c0.6-8.1,4-10.4,8.3-10.4c4,0,7.3,2.2,7.4,10.4H71.5z M80,13.8c-13.5,0-24.4,8.5-24.4,26.3
	c0,15.4,6.5,27.2,25.5,27.2c7.4,0,14.1-2.1,20.2-5l-3.6-9.7C91,55,86.8,55.8,83,55.8c-8.1,0-11.1-4.6-11.6-11.6h30.1
	c0.1-2,0.2-5.4,0.2-6.6C101.7,20.6,93,13.8,80,13.8"/>
<path class="st0" d="M145.2,15.1v-1.7h0c0,0,0,0,0,0c-2-0.2-4.3-0.4-5.7-0.4c-6.4,0-10.8,3.9-14.1,9h-0.6l-1.2-8h-17.6L105,22
	l5.4,1.9c1,0.3,1.3,1,1.3,2.1v29.2c0,1.5-0.2,1.8-1.6,2l-4.5,0.6v8.1h27.2v-2.8v-5.3v0l-4.5-0.6c-0.7-0.1-1.1-0.2-1.3-0.5
	c-0.2-0.3-0.3-0.7-0.3-1.5l0,0c0,0,0,0,0,0l0,0c0,0,0-0.1,0-0.1V29.2c0,0,0.5-0.5,1.4-1.3c2.2-1.7,7.1-4.5,16.3-4.5h0.8v-2.3
	C145.3,18.6,145.2,15.1,145.2,15.1"/>
<path class="st0" d="M214,56.9c-1.7,0-3.3-0.3-4.6-1.1l14.4-22.5c0.4,1.9,0.6,4.2,0.6,6.8C224.3,52.5,220.4,56.9,214,56.9
	 M214.4,24.4c1.5,0,2.7,0.2,3.9,0.7l-14.2,22c-0.4-1.9-0.6-4.2-0.6-6.8C203.5,28.5,207.9,24.4,214.4,24.4 M214.6,13.8
	c-18,0-26.6,10.6-26.6,27c0,15.5,7.3,26.5,25.3,26.5c18.1,0,26.6-10.8,26.6-27.6C239.8,24.6,232.8,13.8,214.6,13.8"/>
<path class="st0" d="M183.6,55.6c-0.1,0-0.2,0-0.2,0.1c-1.4,0.3-2.9,0.5-4.4,0.5c-5.4,0-6.8-2.3-6.8-8.2v-0.7V24.1v-0.7v0h14.9v-10
	H173c-0.8,0-0.8-0.3-0.8-1V0.9V0.6V0c0,0-9.7,0-9.7,0c-0.3,2-0.6,3.7-1.1,5.3c-1.9,5.1-5.5,7.5-12,8.1v1.1v0v6.6v2.2v0h0.8h1.8h4.4
	c0.8,0,0.8,0.4,0.8,1v0.7v25.5v0v0.7c0,11.3,4.5,16.1,16.4,16.1c5.7,0,12-1.9,16.3-4c0,0-3.6-8.5-3.7-8.4
	C185.3,55.1,184.5,55.4,183.6,55.6"/>
<path class="st0" d="M2.6,0H0.9H0.4v21.6h0.5h1.7h8.3l1.8-9.9c0.2-0.9,0.5-1,1.5-1h19.3L0,57v6.6V66h52v-3.6v-0.8V45.2H42l-1.8,9.9
	c-0.2,0.9-0.5,1-1.5,1H18.3L52.3,9V0H17.6H2.6z"/>
</svg>
