<?xml version="1.0" encoding="UTF-8"?>
<svg width="33px" height="25px" viewBox="0 0 33 25" version="1.1" xmlns="http://www.w3.org/2000/svg" xmlns:xlink="http://www.w3.org/1999/xlink">
    <!-- Generator: Sketch 46.2 (44496) - http://www.bohemiancoding.com/sketch -->
    <title>Group 4</title>
    <desc>Created with Sketch.</desc>
    <defs></defs>
    <g id="Page-1" stroke="none" stroke-width="1" fill="none" fill-rule="evenodd">
        <g id="Order-an-Instance-Copy-3" transform="translate(-888.000000, -708.000000)">
            <g id="Group-4" transform="translate(888.000000, 708.000000)">
                <polygon id="Shape" fill="#5AAAFA" fill-rule="nonzero" transform="translate(16.100000, 4.314460) rotate(90.000000) translate(-16.100000, -4.314460) " points="12.6740418 -0.18554007 12.6740418 8.81445993 19.5259582 8.81445993 19.5259582 -0.18554007 12.6740418 -0.18554007"></polygon>
                <polygon id="Shape" fill="#5AAAFA" fill-rule="nonzero" transform="translate(4.500000, 4.425958) rotate(90.000000) translate(-4.500000, -4.425958) " points="1.07404181 -0.0740418118 1.07404181 8.92595819 7.92595819 8.92595819 7.92595819 -0.0740418118 1.07404181 -0.0740418118"></polygon>
                <polygon id="Shape" fill="#5AAAFA" fill-rule="nonzero" transform="translate(27.600000, 4.314460) rotate(90.000000) translate(-27.600000, -4.314460) " points="24.1740418 8.81445993 31.0259582 8.81445993 31.0259582 -0.18554007 24.1740418 -0.18554007"></polygon>
                <polygon id="Shape" fill="#5AAAFA" fill-rule="nonzero" transform="translate(16.100000, 20.997387) rotate(90.000000) translate(-16.100000, -20.997387) " points="12.6740418 4.99738676 12.6740418 36.9973868 19.5259582 36.9973868 19.5259582 4.99738676 12.6740418 4.99738676"></polygon>
                <path d="M22.5,12.5 L32.5498756,12.5" id="Line" stroke="#979797" stroke-linecap="square" transform="translate(27.500000, 12.500000) rotate(90.000000) translate(-27.500000, -12.500000) "></path>
                <path d="M22.5,12.5 L32.5498756,12.5" id="Line" stroke="#979797" stroke-linecap="square" transform="translate(27.500000, 12.500000) rotate(90.000000) translate(-27.500000, -12.500000) "></path>
                <path d="M11.5,12.5 L21.5498756,12.5" id="Line" stroke="#979797" stroke-linecap="square" transform="translate(16.500000, 12.500000) rotate(90.000000) translate(-16.500000, -12.500000) "></path>
                <path d="M-0.5,12.5 L9.54987562,12.5" id="Line" stroke="#979797" stroke-linecap="square" transform="translate(4.500000, 12.500000) rotate(90.000000) translate(-4.500000, -12.500000) "></path>
            </g>
        </g>
    </g>
</svg>