<?xml version="1.0" encoding="UTF-8"?>
<svg width="188px" height="29px" viewBox="0 0 188 29" version="1.1" xmlns="http://www.w3.org/2000/svg" xmlns:xlink="http://www.w3.org/1999/xlink">
    <!-- Generator: Sketch 50.2 (55047) - http://www.bohemiancoding.com/sketch -->
    <title>vmware logo</title>
    <desc>Created with Sketch.</desc>
    <defs></defs>
    <g id="Page-1" stroke="none" stroke-width="1" fill="none" fill-rule="evenodd">
        <g id="vmware-logo" transform="translate(-2.000000, -1.000000)" fill="#696566" fill-rule="nonzero">
            <g id="g164" transform="translate(96.000000, 16.000000) scale(-1, 1) rotate(-180.000000) translate(-96.000000, -16.000000) translate(0.000000, 0.500000)">
                <g id="g166-Clipped">
                    <g id="g166" transform="translate(0.750000, 0.750000)">
                        <g id="g172" transform="translate(72.936250, 0.070000)">
                            <path d="M9.105,2.75 L0.89125,25.6225 C0.78625,25.93875 0.63,26.35625 0.63,26.7225 C0.63,27.71375 1.4675,28.655 2.6675,28.655 C3.715,28.655 4.3975,27.975 4.71,26.98375 L11.51625,7.275 L18.37125,27.03875 C18.68375,27.97625 19.3125,28.65625 20.35375,28.65625 L20.56625,28.65625 C21.6675,28.65625 22.3475,27.97625 22.66,27.03875 L29.45875,7.275 L36.3725,27.0875 C36.63375,27.92875 37.205,28.65625 38.3075,28.65625 C39.4575,28.65625 40.29625,27.77125 40.29625,26.775 C40.29625,26.41 40.1375,25.99375 40.035,25.675 L31.76875,2.75 C31.34625,1.5525 30.5125,0.92375 29.56875,0.92375 L29.4125,0.92375 C28.365,0.92375 27.57875,1.5525 27.21,2.75 L20.46375,22.18625 L13.65875,2.75 C13.2925,1.5525 12.505,0.92375 11.46125,0.92375 L11.35125,0.92375 C10.36,0.92375 9.52625,1.5525 9.105,2.75" id="path174"></path>
                        </g>
                        <g id="g176" transform="translate(141.561250, 0.231250)">
                            <path d="M0.35375,26.5 C0.35375,27.60375 1.24375,28.54625 2.3425,28.54625 C3.50125,28.54625 4.38875,27.655 4.38875,26.5 L4.38875,21.85875 C6.37875,26.36625 10.7925,28.49375 13.7175,28.49375 C14.92875,28.49375 15.715,27.60375 15.715,26.45125 C15.715,25.34875 14.985,24.56625 13.9275,24.40875 C8.68375,23.78 4.39,19.84625 4.39,12.03375 L4.39,2.8425 C4.39,1.74125 3.5525,0.8 2.4,0.8 C1.24625,0.8 0.355,1.695 0.355,2.8425 L0.35375,26.5 Z" id="path178"></path>
                        </g>
                        <g id="g180" transform="translate(156.122500, 0.526250)">
                            <path d="M14.105,0.25 C6.80875,0.25 0.85125,5.90875 0.85125,14.2075 L0.85125,14.315 C0.85125,22.04375 6.24625,28.27 13.59125,28.27 C21.445,28.27 25.9175,21.79 25.9175,14.67875 C25.9175,13.58625 25.03625,12.805 24.06625,12.805 L4.86375,12.805 C5.42375,6.99875 9.47875,3.73125 14.21,3.73125 C17.49875,3.73125 19.905,5.02875 21.86,6.845 C22.16875,7.10125 22.5275,7.30875 22.9925,7.30875 C23.965,7.30875 24.73875,6.53 24.73875,5.5925 C24.73875,5.1275 24.53375,4.65875 24.1175,4.3 C21.60375,1.86375 18.62125,0.25 14.105,0.25 Z M21.9625,15.76375 C21.55,20.645 18.775,24.895 13.48375,24.895 C8.86125,24.895 5.36875,21.00625 4.86125,15.76375 L21.9625,15.76375 Z" id="path182"></path>
                        </g>
                        <g id="g184" transform="translate(112.950000, 0.176250)">
                            <path d="M0.35375,9 L0.35375,9.105 C0.35375,14.8 5.05875,17.835 11.9025,17.835 C15.35375,17.835 17.80875,17.365 20.2175,16.68125 L20.2175,17.62625 C20.2175,22.4825 17.23,24.995 12.16625,24.995 C9.4475,24.995 7.865,24.64875 5.875,23.7625 C5.6175,23.6575 5.35375,23.60375 5.15,23.60375 C4.20875,23.60375 3.36875,24.39 3.36875,25.32875 C3.36875,26.1625 3.7325,26.67875 4.46875,27.005 C7.13,28.16 9.13625,28.54375 12.58375,28.54375 C16.39625,28.54375 19.32375,27.55375 21.30625,25.56625 C23.13875,23.7375 24.08,21.125 24.08,17.67375 L24.08,2.76375 C24.08,1.6175 23.24375,0.77875 22.14,0.77875 C20.995,0.77875 20.21875,1.61625 20.21875,2.66 L20.21875,5.2375 C18.33375,2.77625 15.195,0.585 10.44875,0.585 C5.42875,0.58875 0.35375,3.46 0.35375,9 M20.26875,11.09125 L20.26875,13.705 C18.27875,14.27875 15.61,14.855 12.32,14.855 C7.2575,14.855 4.43125,12.6575 4.43125,9.26375 L4.43125,9.16 C4.43125,5.76375 7.56375,3.7775 11.22625,3.7775 C16.18875,3.7775 20.26875,6.81 20.26875,11.09125" id="path186"></path>
                        </g>
                        <g id="g188" transform="translate(0.973750, 0.528750)">
                            <path d="M7.855,26.5 C6.97,28.44 4.7825,29.31875 2.74,28.41125 C0.695,27.5025 -0.0575,25.235 0.86625,23.29375 L9.4425,4.6525 C10.79125,1.73125 12.2125,0.2 14.88,0.2 C17.73,0.2 18.9725,1.8675 20.32,4.6525 C20.32,4.6525 27.8,20.94 27.875,21.11 C27.95125,21.2825 28.19125,21.80875 28.9525,21.80375 C29.59625,21.8 30.1375,21.28625 30.1375,20.59625 L30.1375,4.66875 C30.1375,2.21375 31.49875,0.2 34.11875,0.2 C36.73625,0.2 38.15125,2.21375 38.15125,4.66875 L38.15125,17.7025 C38.15125,20.21625 39.9525,21.8475 42.4075,21.8475 C44.8625,21.8475 46.49625,20.1575 46.49625,17.7025 L46.49625,4.66875 C46.49625,2.21375 47.8625,0.2 50.4775,0.2 C53.095,0.2 54.5175,2.21375 54.5175,4.66875 L54.5175,17.7025 C54.5175,20.21625 56.31125,21.8475 58.7675,21.8475 C61.21875,21.8475 62.85875,20.1575 62.85875,17.7025 L62.85875,4.66875 C62.85875,2.21375 64.22375,0.2 66.84125,0.2 C69.4575,0.2 70.8775,2.21375 70.8775,4.66875 L70.8775,19.5025 C70.8775,24.95375 66.49375,28.7725 61.21875,28.7725 C55.95,28.7725 52.65,25.1275 52.65,25.1275 C50.89625,27.40125 48.47875,28.7675 44.3875,28.7675 C40.07,28.7675 36.29125,25.1275 36.29125,25.1275 C34.53625,27.40125 31.54875,28.7675 29.075,28.7675 C25.24875,28.7675 22.21,27.085 20.35625,22.84625 L14.88,9.9375 L7.855,26.5 Z" id="path190"></path>
                        </g>
                        <g id="g192" transform="translate(182.011250, 21.413750)">
                            <path d="M0.355,4 L0.355,4.0225 C0.355,5.84625 1.835,7.3825 3.695,7.3825 C5.58125,7.3825 7.04125,5.8625 7.04125,4.03625 L7.04125,4.0225 C7.04125,2.1925 5.565,0.65625 3.695,0.65625 C1.80875,0.65625 0.355,2.17125 0.355,4 M6.39875,4.0225 L6.39875,4.03125 C6.39875,5.53125 5.24,6.76125 3.695,6.76125 C2.16375,6.76125 0.9875,5.51 0.9875,4.0225 L0.9875,4.005 C0.9875,2.50875 2.15,1.27875 3.695,1.27875 C5.22125,1.27875 6.39875,2.5275 6.39875,4.0225" id="path194"></path>
                        </g>
                        <g id="g196" transform="translate(184.071250, 23.758750)">
                            <path d="M0.35625,3 C0.35625,3.19875 0.515,3.3575 0.71625,3.3575 L1.83125,3.3575 C2.25125,3.3575 2.575,3.23875 2.77625,3.02625 C2.96,2.8475 3.06,2.58875 3.06,2.28875 L3.06,2.27875 C3.06,1.76875 2.8025,1.4575 2.41375,1.29375 L2.90625,0.69375 C2.975,0.60375 3.02125,0.53 3.02125,0.42 C3.02125,0.2225 2.85375,0.0925 2.68375,0.0925 C2.525,0.0925 2.4175,0.17375 2.33375,0.27625 L1.64,1.15375 L1.07125,1.15375 L1.07125,0.44875 C1.07125,0.25 0.9175,0.09375 0.7175,0.09375 C0.51625,0.09375 0.3575,0.25125 0.3575,0.44875 L0.3575,3 L0.35625,3 Z M1.79125,1.785 C2.13875,1.785 2.33,1.96625 2.33,2.2425 L2.33,2.25375 C2.33,2.555 2.125,2.7175 1.77875,2.7175 L1.0675,2.7175 L1.0675,1.78625 L1.79125,1.78625 L1.79125,1.785 Z" id="path198"></path>
                        </g>
                    </g>
                </g>
            </g>
        </g>
    </g>
</svg>