<svg width="24" height="24" viewBox="0 0 24 24" fill="none" xmlns="http://www.w3.org/2000/svg">
<g clip-path="url(#clip0_662_42593)">
<path d="M13.022 8.72192H3.43749C2.01755 8.72192 0.866455 9.87302 0.866455 11.293V19.5627C0.866455 20.9827 2.01755 22.1338 3.43749 22.1338H13.022C14.442 22.1338 15.593 20.9827 15.593 19.5627V11.293C15.593 9.87302 14.442 8.72192 13.022 8.72192Z" fill="#FBE108"/>
<path d="M13.022 23.0001H3.43743C1.54219 23.0001 0 21.4579 0 19.5626V11.2907C0 9.39546 1.54219 7.85327 3.43743 7.85327H13.022C14.9172 7.85327 16.4594 9.39546 16.4594 11.2907V19.5626C16.4594 21.4579 14.9172 23.0001 13.022 23.0001ZM3.43743 9.58823C2.49739 9.58823 1.7328 10.3528 1.7328 11.2929V19.5648C1.7328 20.5048 2.49739 21.2694 3.43743 21.2694H13.022C13.962 21.2694 14.7266 20.5048 14.7266 19.5648V11.2907C14.7266 10.3507 13.962 9.58607 13.022 9.58607H3.43743V9.58823Z" fill="#3D3E3C"/>
<path d="M12.8465 9.08132H11.1137V5.6179C11.1137 4.02806 9.82056 2.73496 8.23073 2.73496C6.64089 2.73496 5.34779 4.02806 5.34779 5.6179V9.08132H3.61499V5.6179C3.61283 3.07069 5.68352 1 8.23073 1C10.7779 1 12.8465 3.07069 12.8465 5.61573V9.07916V9.08132Z" fill="#3D3E3C"/>
<path d="M10.1953 13.7187C10.1953 12.6726 9.3462 11.8235 8.30003 11.8235C7.25385 11.8235 6.40479 12.6726 6.40479 13.7187C6.40479 14.414 6.78167 15.0205 7.34049 15.3497V19.1445H9.2574V15.3497C9.81623 15.0205 10.1931 14.414 10.1931 13.7187H10.1953Z" fill="#3D3E3C"/>
<path d="M10.7976 12.3022C11.0359 12.7203 11.1745 13.2033 11.1745 13.721C11.1745 14.5614 10.8128 15.313 10.2388 15.8393V18.7916H19.7188V12.3022H10.7976Z" fill="#3D3E3C"/>
<path d="M18.9453 20.5415V10.5498L23.9423 15.5468L18.9453 20.5415Z" fill="#3D3E3C"/>
</g>
<defs>
<clipPath id="clip0_662_42593">
<rect width="24" height="24" fill="white"/>
</clipPath>
</defs>
</svg>
