<svg xmlns="http://www.w3.org/2000/svg" xmlns:xlink="http://www.w3.org/1999/xlink" viewBox="0 0 32 32">
  <defs>
    <style>.cls-1{fill:#fff;}.cls-2{fill:url(#iks-icon-light-linear-gradient);}.cls-3{mask:url(#iks-icon-light-mask);}.cls-4{fill:url(#iks-icon-light-linear-gradient-2);}.cls-5{fill:#001d6c;}</style>
    <linearGradient id="iks-icon-light-linear-gradient" x1="28" y1="22" x2="28" y2="11" gradientUnits="userSpaceOnUse">
      <stop offset="0" stop-opacity="0"/>
      <stop offset="0.9"/>
    </linearGradient>
    <mask id="iks-icon-light-mask" x="0" y="0" width="32" height="32" maskUnits="userSpaceOnUse">
      <path class="cls-1" d="M16,31a.9.9,0,0,1-.5-.14l-12-7A1,1,0,0,1,3,23V9a1,1,0,0,1,.5-.86l12-7a1,1,0,0,1,1,0l12,7-1,1.72L16,3.16,5,9.57V22.43l11,6.41,11-6.41V12h2V23a1,1,0,0,1-.5.86l-12,7A.9.9,0,0,1,16,31Z"/>
      <rect class="cls-2" x="26" y="11" width="4" height="11"/>
    </mask>
    <linearGradient id="iks-icon-light-linear-gradient-2" x1="-5823" y1="-1979" x2="-5791" y2="-2011" gradientTransform="matrix(1, 0, 0, -1, 5823, -1979)" gradientUnits="userSpaceOnUse">
      <stop offset="0.1" stop-color="#3ddbd9"/>
      <stop offset="0.9" stop-color="#4589ff"/>
    </linearGradient>
  </defs>
  <g>
    <g class="cls-3">
      <rect class="cls-4" width="32" height="32" transform="translate(0 32) rotate(-90)"/>
    </g>
    <g>
      <path class="cls-5" d="M16,23a1,1,0,0,1-.51-.14l-5-3A1,1,0,0,1,10,19V13a1,1,0,0,1,.49-.86l5-3a1,1,0,0,1,1,0l5,3A1,1,0,0,1,22,13v6a1,1,0,0,1-.49.86l-5,3A1,1,0,0,1,16,23Zm-4-4.57,4,2.4,4-2.4V13.57l-4-2.4-4,2.4Z"/>
    </g>
  </g>
</svg>
