<?xml version="1.0" encoding="utf-8"?>
<svg viewBox="79.098 72.099 14.103 17.385" xmlns="http://www.w3.org/2000/svg">
        <g transform="matrix(0.10016, 0, 0, 0.094703, 67.811417, 62.998577)" style="">
          <g>
            <g>
              <circle class="st0" cx="180.6" cy="104.4" r="5.6" fill="#73b2e1"/>
              <path class="st0" fill="#73b2e1" d="M 233.9 166.5 C 231.1 159.6 227 153.4 221.5 148 C 216.1 142.6 209.9 138.5 203.1 135.7 C 200.29999999999998 134.6 197.4 133.7 194.4 133 C 192.70000000000002 127.6 188 123.7 182.3 123 L 182.3 110 L 180.70000000000002 110 L 179 110 L 179 123.1 C 173.1 123.8 168.2 128 166.7 133.6 C 164.2 134.29999999999998 161.6 135.1 159.2 136.1 C 152.29999999999998 139 146.1 143.29999999999998 140.6 148.7 C 135.1 154.2 130.79999999999998 160.5 127.89999999999999 167.39999999999998 C 124.99999999999999 174.29999999999998 123.39999999999999 181.7 123.3 189.29999999999998 C 123.2 196.99999999999997 124.6 204.39999999999998 127.39999999999999 211.2 C 130.2 218 134.39999999999998 224.29999999999998 139.79999999999998 229.7 C 145.29999999999998 235.2 151.49999999999997 239.39999999999998 158.29999999999998 242.1 C 160.1 242.79999999999998 162.1 243.5 164.39999999999998 244.1 L 182.29999999999998 276.3 L 200.2 242.20000000000002 C 200.79999999999998 242.00000000000003 201.39999999999998 241.8 202 241.50000000000003 C 209 238.60000000000002 215.3 234.30000000000004 220.8 228.80000000000004 C 226.20000000000002 223.40000000000003 230.4 217.20000000000005 233.3 210.20000000000005 C 236.20000000000002 203.30000000000004 237.70000000000002 195.90000000000003 237.9 188.20000000000005 C 238 180.7 236.7 173.4 233.9 166.5 M 214.1 203.1 C 212.4 207.4 209.79999999999998 211.2 206.5 214.6 C 203.1 218 199.2 220.6 194.9 222.4 C 193.1 223.1 191.1 223.70000000000002 189 224.20000000000002 L 187.8 224.4 L 181.60000000000002 239.3 L 174.90000000000003 224.3 L 173.80000000000004 224.10000000000002 C 171.60000000000005 223.60000000000002 169.40000000000003 222.90000000000003 167.40000000000003 222.10000000000002 C 163.10000000000002 220.3 159.10000000000002 217.60000000000002 155.60000000000002 214.10000000000002 C 152.10000000000002 210.60000000000002 149.3 206.60000000000002 147.50000000000003 202.20000000000002 C 145.60000000000002 197.8 144.70000000000002 193.20000000000002 144.60000000000002 188.4 C 144.50000000000003 183.6 145.40000000000003 179 147.20000000000002 174.6 C 149.00000000000003 170.29999999999998 151.60000000000002 166.4 154.9 163 C 158.3 159.6 162.20000000000002 157 166.5 155.3 C 170.6 153.60000000000002 175 152.8 179.4 152.8 C 179.6 152.8 179.9 152.8 180.1 152.8 C 184.9 152.9 189.6 153.8 194 155.70000000000002 C 198.4 157.60000000000002 202.4 160.3 205.9 163.70000000000002 C 209.3 167.10000000000002 212 171.10000000000002 213.9 175.50000000000003 C 215.70000000000002 179.90000000000003 216.70000000000002 184.50000000000003 216.8 189.30000000000004 C 216.7 194.2 215.8 198.9 214.1 203.1" />
              <path class="st0" fill="#fff" d="M 214.091 203.136 C 212.391 207.436 209.791 211.236 206.491 214.636 C 203.091 218.036 199.191 220.636 194.891 222.436 C 193.091 223.136 191.091 223.736 188.991 224.236 L 187.791 224.436 L 181.591 239.336 L 174.891 224.336 L 173.791 224.136 C 171.591 223.636 169.391 222.936 167.391 222.136 C 163.091 220.336 159.091 217.636 155.591 214.136 C 152.091 210.636 149.291 206.636 147.491 202.236 C 145.591 197.836 144.691 193.236 144.591 188.436 C 144.491 183.636 145.391 179.036 147.191 174.636 C 148.991 170.336 151.591 166.436 154.891 163.036 C 158.291 159.636 162.191 157.036 166.491 155.336 C 170.591 153.636 174.991 152.836 179.391 152.836 C 179.591 152.836 179.891 152.836 180.091 152.836 C 184.891 152.936 189.591 153.836 193.991 155.736 C 198.391 157.636 202.391 160.336 205.891 163.736 C 209.291 167.136 211.991 171.136 213.891 175.536 C 215.691 179.936 216.691 184.536 216.791 189.336 C 216.691 194.236 215.791 198.936 214.091 203.136" />
            </g>
            <g>
              <g>
                <circle class="st1" cx="166.1" cy="186.7" r="7.6" style="fill: rgb(18, 20, 64);"/>
                <circle class="st1" cx="195" cy="186.7" r="7.6" style="fill: rgb(18, 20, 64);"/>
              </g>
            </g>
          </g>
        </g>
      </svg>