<svg
   width="188"
   height="206.66667"
   viewBox="-20 -20 228 246"
   sodipodi:docname="ns.eps"
   xmlns:inkscape="http://www.inkscape.org/namespaces/inkscape"
   xmlns:sodipodi="http://sodipodi.sourceforge.net/DTD/sodipodi-0.dtd"
   xmlns="http://www.w3.org/2000/svg"
   xmlns:svg="http://www.w3.org/2000/svg">
  <defs
     id="defs6">
    <clipPath
       clipPathUnits="userSpaceOnUse"
       id="clipPath18">
      <path
         d="m 1406.89,1323.48 z m -261.57,34.32 c 17.72,0 32.1,-14.37 32.1,-32.12 0,-17.72 -14.38,-32.1 -32.1,-32.1 -17.75,0 -32.12,14.38 -32.12,32.1 0,17.75 14.37,32.12 32.12,32.12 z m 262.48,-1099.046 -0.01,-0.156 c -1.19,-38.024 -11,-71.336 -33.98,-105.715 -23.13,-34.586 -51.34,-60.4533 -82.96,-78.4182 -84.6,-48.0585 -193.49,-39.371 -294.022,10.7579 l -0.273,0.1328 -50.239,25.0505 c -7.41,2.926 -14.82,6.211 -22.187,9.856 l -0.723,0.234 c 91.984,-29.9062 189.864,-21.6132 231.034,55.438 9.56,17.898 23.2,39.773 25.5,65.554 0.13,1.457 1.51,3.016 1.54,4.508 4.98,47.039 2.27,102.293 2.27,150.184 v 726.61 c 0,43.69 -0.17,89.96 -0.22,134.5 23.91,13.4 40.13,39.01 40.13,68.39 0,44.59 -33.29,78.36 -78.34,78.36 -45,0 -78.35,-33.81 -78.35,-78.36 0,-29.25 16.05,-54.79 39.85,-68.23 l 0.06,-12.72 v -7.74 -227.74 l -0.25,0.1 V 321.344 l -115.009,57.355 -43.937,21.93 c -58.055,30.375 -57.84,40.555 -57.996,96.766 v 137.23 0.242 0.02 357.414 l -0.235,95.989 v 109.4 92.36 c 0,71.52 13.856,133.37 54.586,179.31 l 0.027,0.02 c 13.207,14.9 29.25,28.13 48.555,39.48 l 4.875,2.78 h 0.027 l 5.007,2.73 h 0.02 l 5.15,2.63 h 0.02 l 5.3,2.56 h 0.02 l 5.42,2.48 h 0.02 l 5.6,2.39 v 0 l 5.74,2.32 h 0.02 l 5.86,2.23 h 0.03 l 6.01,2.13 h 0.03 l 6.17,2.05 h 0.02 l 6.33,1.98 v 0 l 6.48,1.88 h 0.03 l 6.63,1.8 h 0.02 l 6.79,1.72 h 0.02 l 6.94,1.62 h 0.02 l 1.94,0.44 h 0.02 l 1.96,0.41 h 0.02 l 1.96,0.41 h 0.01 l 1.96,0.39 h 0.02 l 1.96,0.38 h 0.02 l 1.95,0.38 h 0.02 l 1.96,0.34 h 0.02 l 1.97,0.34 h 0.03 l 1.95,0.32 h 0.03 l 1.97,0.32 h 0.02 l 1.97,0.31 h 0.02 l 1.97,0.28 h 0.03 l 1.98,0.27 h 0.01 l 1.98,0.27 h 0.03 l 1.98,0.24 h 0.01 l 1.99,0.22 h 0.01 l 1.99,0.23 h 0.01 l 1.99,0.21 h 0.02 l 1.99,0.19 h 0.01 l 1.99,0.19 h 0.02 l 1.99,0.16 h 0.02 l 2,0.15 h 0.02 l 1.98,0.13 h 0.03 l 1.99,0.13 h 0.01 l 1.99,0.11 h 0.02 l 1.98,0.09 h 0.03 l 2.01,0.09 h 0.02 l 1.98,0.09 h 0.03 l 2,0.04 h 0.01 l 2,0.05 h 0.02 l 1.99,0.04 h 0.03 l 1.99,0.01 h 0.02 2 0.02 l 1.99,-0.01 h 0.02 l 2,-0.02 h 0.03 l 1.98,-0.04 h 0.02 l 1.99,-0.04 h 0.03 l 1.99,-0.06 h 0.02 l 2,-0.08 h 0.01 l 2,-0.09 h 0.03 l 1.99,-0.1 h 0.01 l 2,-0.13 h 0.02 l 1.98,-0.12 h 0.03 l 1.99,-0.15 h 0.02 l 1.98,-0.15 h 0.03 l 1.98,-0.18 h 0.02 l 2,-0.18 h 0.03 l 1.96,-0.2 h 0.02 l 2,-0.21 h 0.02 l 1.97,-0.22 h 0.02 l 1.99,-0.23 h 0.02 l 1.97,-0.25 h 0.03 l 1.98,-0.28 h 0.02 l 1.97,-0.27 h 0.03 l 1.98,-0.29 h 0.02 l 1.96,-0.31 h 0.02 l 1.97,-0.32 h 0.02 l 1.97,-0.33 h 0.02 l 1.96,-0.36 h 0.03 l 1.96,-0.36 h 0.02 l 1.96,-0.37 h 0.02 l 1.96,-0.39 h 0.02 l 1.95,-0.4 h 0.02 l 1.96,-0.42 h 0.01 l 0.9,-0.19 0.86,-0.19 h 0.02 l 0.9,-0.2 0.83,-0.19 0.06,-0.01 0.88,-0.21 0.83,-0.18 0.07,-0.01 0.88,-0.23 0.81,-0.19 0.09,-0.01 3.42,-0.85 0.1,-0.03 1.64,-0.43 0.11,-0.01 0.89,-0.23 0.76,-0.21 0.12,-0.03 0.86,-0.23 0.75,-0.21 0.13,-0.03 0.89,-0.24 0.71,-0.2 0.15,-0.04 0.87,-0.25 0.73,-0.21 0.15,-0.05 0.87,-0.24 0.7,-0.21 0.17,-0.04 1.57,-0.47 0.16,-0.05 0.86,-0.26 1.75,-0.54 0.67,-0.21 0.18,-0.06 0.86,-0.26 0.66,-0.24 0.21,-0.04 0.86,-0.28 0.65,-0.22 0.21,-0.06 0.85,-0.29 0.65,-0.21 0.2,-0.07 1.48,-0.52 0.23,-0.06 0.86,-0.3 0.62,-0.21 0.22,-0.08 0.85,-0.3 0.62,-0.23 0.24,-0.07 0.84,-0.31 0.61,-0.22 0.25,-0.08 0.84,-0.31 0.59,-0.23 1.08,-0.39 0.59,-0.24 0.25,-0.08 0.84,-0.32 0.59,-0.23 0.26,-0.09 0.84,-0.32 0.56,-0.23 0.27,-0.1 0.84,-0.32 0.56,-0.24 0.27,-0.11 0.83,-0.32 0.56,-0.24 0.27,-0.1 0.83,-0.35 0.55,-0.22 0.29,-0.12 0.81,-0.34 0.55,-0.23 0.29,-0.12 0.81,-0.34 0.54,-0.23 0.29,-0.13 0.82,-0.34 0.51,-0.25 0.31,-0.12 0.75,-0.31 0.58,-0.27 0.71,-0.31 0.91,-0.41 0.11,-0.05 1.01,-0.47 0.5,-0.22 0.51,-0.23 0.75,-0.34 0.27,-0.13 0.08,-0.05 0.66,-0.28 0.27,-0.13 0.69,-0.34 0.03,-0.01 0.28,-0.13 0.73,-0.36 0.27,-0.12 0.28,-0.15 1.46,-0.69 0.13,-0.07 0.14,-0.07 0.72,-0.35 0.28,-0.13 0.45,-0.23 0.27,-0.13 0.28,-0.13 0.3,-0.17 0.27,-0.13 0.32,-0.16 0.13,-0.07 0.15,-0.06 0.29,-0.17 0.28,-0.13 0.3,-0.17 0.28,-0.13 0.29,-0.15 0.03,-0.01 0.58,-0.3 0.84,-0.43 0.12,-0.07 0.19,-0.09 1.37,-0.73 2.66,-1.42 0.27,-0.14 0.18,-0.1 0.69,-0.38 0.26,-0.14 0.3,-0.18 0.27,-0.14 0.01,-0.01 0.39,-0.22 0.83,-0.45 0.32,-0.19 0.08,-0.03 0.41,-0.24 0.41,-0.23 0.4,-0.22 0.21,-0.13 0.19,-0.11 0.41,-0.22 0.4,-0.23 0.4,-0.23 0.13,-0.09 0.28,-0.15 c 7,-4.05 13.74,-8.4 20.23,-13.02 68.26,-48.49 90.33,-104.17 94.14,-174.38 0.44,-7.98 0.64,-16.13 0.64,-24.5 l 0.34,-1034.235 -0.08,-6.117 z"
         clip-rule="evenodd"
         id="path16" />
    </clipPath>
    <linearGradient
       x1="308.672"
       y1="326.64899"
       x2="308.67401"
       y2="160.57201"
       gradientUnits="userSpaceOnUse"
       gradientTransform="matrix(10,0,0,10,-1740,-1670)"
       spreadMethod="pad"
       id="linearGradient26">
      <stop
         style="stop-opacity:1;stop-color:#f98afe"
         offset="0"
         id="stop20" />
      <stop
         style="stop-opacity:1;stop-color:#a22ef5"
         offset="0.296875"
         id="stop22" />
      <stop
         style="stop-opacity:1;stop-color:#401bf4"
         offset="1"
         id="stop24" />
    </linearGradient>
    <clipPath
       clipPathUnits="userSpaceOnUse"
       id="clipPath36">
      <path
         d="M 600.48,497.223 V 1115.7 l 0.571,2.68 -0.031,0.84 c -1.946,47.26 -20.379,64.35 -66.387,87.7 -18.879,9.56 -37.485,18.02 -47.711,23.12 l -186.457,92.98 c -45.942,17.35 -66.77,-3.56 -68.551,-39.42 -0.195,-3.76 -0.152,-7.49 0.031,-11.24 -1.867,38.48 2.887,84.44 22.684,119.05 v 0 l 0.109,0.2 c 1.946,3.39 4.043,6.66 6.285,9.82 5.809,8.3 12.508,16.02 19.465,22.4 l 0.703,-0.35 h 0.012 l 0.172,0.15 -0.711,0.35 c 14.301,13.08 31.012,22.79 48.41,29.15 49.453,18.1 109.645,10.03 167.418,-19.72 l 97.469,-48.59 37.32,-18.62 h 0.012 l 9.754,-4.88 v -0.01 l 9.422,-4.72 v 0 c 3.082,-1.55 6.105,-3.08 9.066,-4.59 v 0 c 2.973,-1.5 5.887,-2.98 8.742,-4.44 h 0.008 c 2.852,-1.47 5.664,-2.91 8.414,-4.33 v 0 c 2.754,-1.42 5.453,-2.82 8.098,-4.21 v 0 c 2.644,-1.37 5.23,-2.73 7.777,-4.08 v 0 c 2.547,-1.34 5.028,-2.67 7.477,-3.98 v 0 c 2.433,-1.31 4.824,-2.61 7.164,-3.89 v 0 c 2.34,-1.27 4.633,-2.53 6.871,-3.78 v 0 c 2.242,-1.25 4.437,-2.49 6.59,-3.7 v -0.01 c 2.14,-1.21 4.238,-2.43 6.293,-3.62 v -0.01 c 2.054,-1.19 4.062,-2.37 6.019,-3.55 v 0 c 1.965,-1.17 3.879,-2.34 5.758,-3.49 1.871,-1.15 3.692,-2.3 5.477,-3.44 h 0.011 c 1.778,-1.13 3.516,-2.26 5.219,-3.38 v 0 c 1.692,-1.12 3.356,-2.23 4.973,-3.34 v 0 c 1.617,-1.11 3.187,-2.21 4.719,-3.31 v 0 c 1.539,-1.09 3.027,-2.18 4.48,-3.28 v 0 c 1.461,-1.08 2.875,-2.17 4.25,-3.25 1.375,-1.08 2.719,-2.16 4.02,-3.23 v 0 c 1.3,-1.09 2.566,-2.17 3.793,-3.24 h 0.007 c 1.227,-1.08 2.418,-2.16 3.575,-3.23 1.16,-1.08 2.285,-2.17 3.375,-3.25 v 0 c 1.082,-1.08 2.144,-2.16 3.156,-3.25 v 0 c 1.031,-1.08 2.012,-2.18 2.976,-3.28 v 0 c 0.95,-1.09 1.879,-2.2 2.774,-3.3 0.894,-1.1 1.758,-2.22 2.59,-3.34 v 0 c 0.828,-1.12 1.636,-2.25 2.402,-3.38 0.777,-1.14 1.52,-2.28 2.238,-3.43 v 0 c 0.723,-1.16 1.41,-2.32 2.067,-3.5 v 0 c 0.668,-1.16 1.3,-2.35 1.91,-3.55 0.613,-1.19 1.191,-2.39 1.75,-3.62 0.555,-1.22 1.094,-2.45 1.605,-3.7 0.504,-1.25 0.996,-2.51 1.453,-3.78 v 0 c 0.473,-1.28 0.907,-2.58 1.321,-3.88 v 0 c 0.429,-1.31 0.824,-2.63 1.195,-3.97 v 0 c 0.383,-1.35 0.731,-2.71 1.066,-4.09 0.344,-1.37 0.661,-2.78 0.954,-4.2 0.296,-1.42 0.578,-2.85 0.832,-4.31 h 0.007 c 0.266,-1.47 0.504,-2.94 0.723,-4.45 0.231,-1.51 0.438,-3.02 0.633,-4.58 0.199,-1.55 0.371,-3.12 0.535,-4.72 0.164,-1.6 0.316,-3.22 0.449,-4.87 0.141,-1.65 0.262,-3.32 0.371,-5.03 v 0 c 0.11,-1.7 0.207,-3.43 0.286,-5.19 0.085,-1.75 0.16,-3.53 0.226,-5.36 0.07,-1.81 0.109,-3.66 0.152,-5.53 v 0 c 0.047,-1.88 0.079,-3.78 0.114,-5.72 0.019,-1.93 0.031,-3.91 0.043,-5.91 0.007,-2 0.007,-4.04 0.007,-6.11 -0.007,-2.07 -0.019,-4.18 -0.031,-6.33 l -0.062,-6.52 -0.102,-6.75 -0.109,-6.98 -0.129,-7.21 -0.133,-7.46 -0.129,-7.69 -0.144,-7.95 -0.121,-8.23 -0.098,-8.49 c -0.031,-2.87 -0.067,-5.79 -0.086,-8.76 -0.023,-2.96 -0.043,-5.97 -0.055,-9.04 l -0.019,-5.22 v -4.13 -3.37 -7.17 c 0.062,-77.43 0.683,-258.415 0,-417.786 v -47.933 -1.68 c 0.117,-35.41 0.347,-69.348 0,-99.152 v -41.364 l -0.231,-0.996 c 0.414,-11.496 1.594,-22.101 4.469,-31.871 l -0.012,0.024 0.098,-1.465 0.383,-1.18 0.011,-0.012 0.415,-1.168 0.425,-1.16 0.285,-0.773 0.153,-0.371 0.457,-1.125 v -0.012 l 0.469,-1.094 1.007,-2.172 0.524,-1.07 0.012,-0.047 0.523,-1.004 0.559,-1.039 0.402,-0.742 0.168,-0.285 0.598,-1.012 0.023,-0.058 0.578,-0.938 0.238,-0.406 0.383,-0.59 0.473,-0.719 0.176,-0.254 1.343,-1.922 0.282,-0.394 0.406,-0.547 0.535,-0.707 0.172,-0.219 0.734,-0.929 0.075,-0.098 0.679,-0.809 0.328,-0.406 0.438,-0.5 0.609,-0.699 0.176,-0.199 0.797,-0.883 0.101,-0.11 0.731,-0.765 0.828,-0.864 0.691,-0.699 0.172,-0.16 0.875,-0.855 0.844,-0.797 0.055,-0.055 0.433,-0.402 0.485,-0.43 0.761,-0.695 0.165,-0.145 1.933,-1.648 0.492,-0.418 0.492,-0.395 0.852,-0.695 0.164,-0.121 1.027,-0.809 0.196,-0.152 0.851,-0.645 0.559,-0.429 0.516,-0.371 0.937,-0.696 0.152,-0.101 1.106,-0.797 0.238,-0.164 0.895,-0.621 0.625,-0.438 0.523,-0.347 1.039,-0.704 0.129,-0.086 1.195,-0.777 0.27,-0.183 0.941,-0.602 0.7,-0.449 0.523,-0.328 1.148,-0.719 0.11,-0.067 1.277,-0.777 0.317,-0.195 0.972,-0.578 0.778,-0.469 0.535,-0.309 1.246,-0.73 0.097,-0.055 1.356,-0.773 0.371,-0.219 1.004,-0.57 0.863,-0.481 0.535,-0.304 0.391,-0.223 2.016,-1.102 0.457,-0.25 0.437,-0.23 1.027,-0.559 0.95,-0.5 0.535,-0.293 1.476,-0.777 0.032,-0.023 1.543,-0.797 0.488,-0.254 1.062,-0.543 1.024,-0.535 0.547,-0.286 1.597,-0.808 c 18.879,-9.57 37.485,-18.02 47.711,-23.117 l 3.825,-1.903 182.635,-91.09 c 29.6,-11.164 55.99,-1.496 66.36,12.852 C 1174.63,133.07 1065.02,62.3477 931.551,116.855 L 909.68,127.738 784.449,190.191 C 630.996,266.715 603.324,287.309 599.727,369.633 l -0.063,1.476 -0.055,1.496 -0.058,1.497 -0.043,1.519 -0.039,1.539 -0.035,1.539 -0.012,0.035 -0.024,1.532 -0.031,1.574 -0.031,1.582 -0.023,1.027 v 0.578 l -0.008,1.618 -0.012,1.628 -0.012,1.649 -0.011,0.437 v 1.227 1.68 1.695 1.703 1.727 l 0.011,1.738 0.012,1.758 v 0.906 l 0.012,0.863 0.019,1.793 0.02,1.801 0.011,1.828 v 0.246 l 0.036,1.586 0.019,1.856 0.024,1.871 0.023,1.429 0.012,0.461 0.019,1.903 0.032,1.922 0.031,1.941 0.012,0.754 0.023,1.203 0.035,1.98 0.043,1.997 0.031,2.011 v 0.024 l 0.032,2.008 0.046,2.054 0.032,2.063 0.023,1.324 0.012,0.766 0.043,2.105 0.031,2.133 0.043,2.14 v 0.559 l 0.035,1.606 0.043,2.187 0.031,2.207 0.032,1.953 v 0.266 l 0.035,2.25 0.031,2.258 0.047,2.285 0.012,1.156 0.007,1.148 0.036,2.317 0.031,2.351 0.019,2.368 0.012,0.308 0.024,2.078 0.019,2.411 0.024,2.425 0.011,1.848 0.012,0.609 0.012,2.469 0.019,2.504 0.012,2.516 v 0.949 l 0.012,1.586 v 2.566 l 0.007,2.578 z"
         clip-rule="evenodd"
         id="path34" />
    </clipPath>
    <linearGradient
       x1="284.84799"
       y1="201.955"
       x2="183.48599"
       y2="323.228"
       gradientUnits="userSpaceOnUse"
       gradientTransform="matrix(10,0,0,10,-1740,-1670)"
       spreadMethod="pad"
       id="linearGradient44">
      <stop
         style="stop-opacity:1;stop-color:#4b3cf5"
         offset="0"
         id="stop38" />
      <stop
         style="stop-opacity:1;stop-color:#5281f4"
         offset="0.679688"
         id="stop40" />
      <stop
         style="stop-opacity:1;stop-color:#2fccfe"
         offset="1"
         id="stop42" />
    </linearGradient>
    <clipPath
       clipPathUnits="userSpaceOnUse"
       id="clipPath54">
      <path
         d="M 9.09766,232.531 Z M 270.691,198.191 c -17.73,0 -32.109,14.379 -32.109,32.125 0,17.723 14.379,32.102 32.109,32.102 17.723,0 32.102,-14.379 32.102,-32.102 0,-17.746 -14.379,-32.125 -32.102,-32.125 z M 8.20313,1297.25 l 0.0039,0.15 c 1.19531,38.03 11.00387,71.34 33.98437,105.72 23.125,34.58 51.3438,60.45 82.9606,78.42 84.598,48.05 193.496,39.36 294.024,-10.76 l 0.273,-0.14 50.239,-25.05 c 7.41,-2.93 14.816,-6.21 22.183,-9.85 l 0.902,-0.3 c -114.71,37.33 -253.996,15.4 -258.347,-125.16 -4.969,-47.03 -2.172,-102.57 -2.172,-150.46 V 433.207 c 0,-43.687 0.156,-89.961 0.23,-134.5 -23.937,-13.398 -40.129,-39.004 -40.129,-68.391 0,-44.593 33.278,-78.355 78.336,-78.355 44.993,0 78.344,33.82 78.344,78.355 0,29.254 -16.066,54.789 -39.855,68.235 l -0.071,12.715 v 7.742 227.758 l 0.262,-0.121 v 688.005 l 115.012,-57.35 43.922,-21.92 c 58.058,-30.39 57.863,-40.55 58.011,-96.78 v -137.229 -0.226 -0.036 -357.414 l 0.243,-95.988 V 358.309 265.945 c 0,-71.515 -13.864,-133.371 -54.594,-179.3122 l -0.027,-0.0117 C 458.734,71.7188 442.688,58.4883 423.387,47.1445 l -4.891,-2.789 h -0.008 l -5.011,-2.7266 h -0.024 l -5.156,-2.625 h -0.016 l -5.293,-2.5625 h -0.023 l -5.434,-2.4805 h -0.011 l -5.59,-2.3945 h -0.024 L 386.188,29.25 h -0.024 l -5.879,-2.2305 h -0.004 l -6.031,-2.1328 h -0.02 l -6.167,-2.0547 h -0.032 l -6.312,-1.9804 h -0.024 l -6.476,-1.8789 h -0.028 l -6.628,-1.7969 h -0.012 l -6.789,-1.7227 h -0.02 l -6.941,-1.6172 h -0.028 l -1.945,-0.4375 h -0.012 l -1.949,-0.414 h -0.019 l -1.957,-0.4024 h -0.024 l -1.961,-0.3945 h -0.011 l -1.954,-0.3789 h -0.027 l -1.957,-0.3789 h -0.027 l -1.957,-0.3477 h -0.008 l -1.973,-0.3398 h -0.023 l -1.973,-0.3203 h -0.019 l -1.961,-0.3203 h -0.02 l -1.984,-0.30082 h -0.024 l -1.957,-0.28125 h -0.027 l -1.973,-0.27344 h -0.027 l -1.969,-0.26171 h -0.027 l -1.985,-0.25 h -0.019 l -1.969,-0.22266 h -0.027 L 301.027,8.28125 H 301 L 299.027,8.07813 H 299 l -1.984,-0.1875 h -0.024 l -1.976,-0.1875 h -0.028 l -1.996,-0.15235 h -0.019 l -1.981,-0.15625 h -0.023 l -1.996,-0.13672 h -0.008 l -1.996,-0.125 h -0.028 l -1.98,-0.12109 h -0.02 l -1.996,-0.08984 h -0.027 L 280.93,6.83594 h -0.028 L 278.91,6.75391 h -0.023 l -1.992,-0.04688 h -0.028 l -1.976,-0.04687 h -0.024 l -2.012,-0.03907 h -0.019 l -1.981,-0.01953 h -0.027 -2.004 -0.011 l -1.993,0.01172 h -0.023 l -1.992,0.01953 h -0.028 l -1.988,0.03907 h -0.027 l -1.981,0.0625 h -0.019 l -2.012,0.04296 h -0.012 l -1.992,0.08594 h -0.023 l -1.993,0.07813 h -0.019 l -1.996,0.11328 h -0.027 l -1.985,0.11719 h -0.019 l -1.996,0.1289 h -0.012 l -1.996,0.14453 h -0.02 l -1.98,0.15235 h -0.028 l -1.988,0.17578 h -0.023 l -1.985,0.1875 h -0.019 l -1.985,0.1914 h -0.023 l -1.981,0.21485 h -0.023 l -1.984,0.22265 h -0.024 l -1.969,0.23047 h -0.027 l -1.98,0.26172 h -0.02 l -1.973,0.27735 h -0.023 l -1.98,0.26562 h -0.02 l -1.973,0.28906 h -0.023 l -1.973,0.30474 h -0.023 l -1.957,0.3203 h -0.024 l -1.972,0.3359 h -0.02 l -1.969,0.3516 h -0.011 l -1.965,0.3632 h -0.02 l -1.968,0.375 h -0.028 l -1.957,0.379 h -0.012 l -1.941,0.4023 h -0.027 l -1.957,0.418 h -0.024 l -0.89,0.1914 -0.852,0.1875 H 205 l -0.891,0.207 -0.828,0.1836 -0.062,0.0078 -0.887,0.2188 -0.832,0.1757 -0.059,0.0118 -0.886,0.2304 -0.809,0.1875 -0.07,0.0078 -3.43,0.8555 -0.109,0.0274 -1.649,0.4257 -0.105,0.0235 -0.875,0.2265 -0.762,0.1993 -0.125,0.0351 -0.875,0.2422 -0.73,0.1953 -0.133,0.0391 -0.891,0.2343 -0.726,0.2188 -0.141,0.0195 -0.867,0.2461 -0.723,0.2149 -0.152,0.0507 -0.879,0.2461 -0.699,0.2032 -0.172,0.0468 -1.551,0.4766 -0.18,0.0313 -0.863,0.2617 -1.734,0.539 -0.66,0.2188 -0.204,0.0664 -0.855,0.2695 -0.664,0.2149 -0.192,0.0586 -0.867,0.2773 -0.652,0.207 -0.199,0.0743 -0.867,0.2734 -0.645,0.2226 -0.211,0.0586 -1.48,0.5235 -0.219,0.0586 -0.852,0.3008 -0.625,0.207 -0.23,0.0859 -0.848,0.2969 -0.613,0.2266 -0.234,0.082 -0.84,0.3008 -0.618,0.2187 -0.242,0.086 -0.836,0.3086 -0.609,0.2304 -1.082,0.3867 -0.594,0.2383 -0.246,0.0821 -0.84,0.3203 -0.57,0.2265 -0.273,0.0938 -0.833,0.3203 -0.566,0.2266 -0.266,0.1054 -0.839,0.3203 -0.559,0.2344 -0.273,0.1133 -0.832,0.3281 -0.555,0.2305 -0.277,0.1015 -0.829,0.3477 -0.543,0.2227 -0.289,0.1171 -0.82,0.3477 -0.539,0.2227 -0.289,0.1211 -0.816,0.3554 -0.536,0.2149 -0.297,0.1289 -0.82,0.3437 -0.519,0.2422 -0.297,0.125 -0.742,0.3203 -0.598,0.2617 -0.715,0.3086 -0.898,0.4141 -0.106,0.0469 -1.023,0.4648 -0.485,0.2227 -0.523,0.2265 -0.738,0.3438 -0.266,0.1328 -0.102,0.0508 -0.64,0.2929 -0.274,0.129 -0.687,0.3203 -0.043,0.0156 -0.277,0.1328 -0.719,0.3516 -0.278,0.1328 -0.273,0.1445 -1.473,0.6992 -0.132,0.0547 -0.137,0.0742 -0.723,0.3516 -0.277,0.1328 -0.438,0.2266 -0.277,0.1328 -0.266,0.1367 -0.308,0.1563 -0.274,0.1328 -0.32,0.164 -0.144,0.0742 -0.133,0.0547 -0.305,0.1719 -0.273,0.1289 -0.313,0.1641 -0.273,0.1289 -0.266,0.1523 -0.039,0.0157 -0.586,0.2968 -0.848,0.4258 -0.105,0.0742 -0.203,0.0899 -1.367,0.7265 -2.657,1.4258 -0.273,0.1406 -0.164,0.0938 -0.688,0.3828 -0.273,0.1445 -0.305,0.1758 -0.265,0.1445 -0.016,0.004 -0.391,0.2187 -0.816,0.4492 -0.32,0.1914 -0.086,0.0313 -0.41,0.2422 -0.407,0.2226 -0.406,0.2305 -0.223,0.1289 -0.191,0.1055 -0.406,0.2226 -0.399,0.2266 -0.406,0.2383 -0.129,0.082 -0.277,0.1523 c -6.985,4.0625 -13.723,8.4024 -20.211,13.0196 -68.2658,48.492 -90.34,104.168 -94.16034,174.383 -0.4375,7.976 -0.625,16.129 -0.625,24.496 l -0.33985,1034.243 0.07422,6.11 z"
         clip-rule="evenodd"
         id="path52" />
    </clipPath>
    <linearGradient
       x1="185.17"
       y1="94.915001"
       x2="185.17"
       y2="300.90601"
       gradientUnits="userSpaceOnUse"
       gradientTransform="matrix(10,0,0,10,-1740,-1670)"
       spreadMethod="pad"
       id="linearGradient64">
      <stop
         style="stop-opacity:1;stop-color:#4b3cf5"
         offset="0"
         id="stop56" />
      <stop
         style="stop-opacity:1;stop-color:#4f69f4"
         offset="0.429688"
         id="stop58" />
      <stop
         style="stop-opacity:1;stop-color:#34affb"
         offset="0.75"
         id="stop60" />
      <stop
         style="stop-opacity:1;stop-color:#2fccfe"
         offset="1"
         id="stop62" />
    </linearGradient>
  </defs>
  <sodipodi:namedview
     id="namedview4"
     pagecolor="#ffffff"
     bordercolor="#000000"
     borderopacity="0.25"
     inkscape:showpageshadow="2"
     inkscape:pageopacity="0.0"
     inkscape:pagecheckerboard="0"
     inkscape:deskcolor="#d1d1d1" />
  <g
     id="g8"
     inkscape:groupmode="layer"
     inkscape:label="ink_ext_XXXXXX"
     transform="matrix(1.3333333,0,0,-1.3333333,0,206.66667)">
    <g
       id="g10"
       transform="scale(0.1)">
      <g
         id="g12">
        <g
           id="g14"
           clip-path="url(#clipPath18)">
          <path
             d="m 1406.89,1323.48 z m -261.57,34.32 c 17.72,0 32.1,-14.37 32.1,-32.12 0,-17.72 -14.38,-32.1 -32.1,-32.1 -17.75,0 -32.12,14.38 -32.12,32.1 0,17.75 14.37,32.12 32.12,32.12 z m 262.48,-1099.046 -0.01,-0.156 c -1.19,-38.024 -11,-71.336 -33.98,-105.715 -23.13,-34.586 -51.34,-60.4533 -82.96,-78.4182 -84.6,-48.0585 -193.49,-39.371 -294.022,10.7579 l -0.273,0.1328 -50.239,25.0505 c -7.41,2.926 -14.82,6.211 -22.187,9.856 l -0.723,0.234 c 91.984,-29.9062 189.864,-21.6132 231.034,55.438 9.56,17.898 23.2,39.773 25.5,65.554 0.13,1.457 1.51,3.016 1.54,4.508 4.98,47.039 2.27,102.293 2.27,150.184 v 726.61 c 0,43.69 -0.17,89.96 -0.22,134.5 23.91,13.4 40.13,39.01 40.13,68.39 0,44.59 -33.29,78.36 -78.34,78.36 -45,0 -78.35,-33.81 -78.35,-78.36 0,-29.25 16.05,-54.79 39.85,-68.23 l 0.06,-12.72 v -7.74 -227.74 l -0.25,0.1 V 321.344 l -115.009,57.355 -43.937,21.93 c -58.055,30.375 -57.84,40.555 -57.996,96.766 v 137.23 0.242 0.02 357.414 l -0.235,95.989 v 109.4 92.36 c 0,71.52 13.856,133.37 54.586,179.31 l 0.027,0.02 c 13.207,14.9 29.25,28.13 48.555,39.48 l 4.875,2.78 h 0.027 l 5.007,2.73 h 0.02 l 5.15,2.63 h 0.02 l 5.3,2.56 h 0.02 l 5.42,2.48 h 0.02 l 5.6,2.39 v 0 l 5.74,2.32 h 0.02 l 5.86,2.23 h 0.03 l 6.01,2.13 h 0.03 l 6.17,2.05 h 0.02 l 6.33,1.98 v 0 l 6.48,1.88 h 0.03 l 6.63,1.8 h 0.02 l 6.79,1.72 h 0.02 l 6.94,1.62 h 0.02 l 1.94,0.44 h 0.02 l 1.96,0.41 h 0.02 l 1.96,0.41 h 0.01 l 1.96,0.39 h 0.02 l 1.96,0.38 h 0.02 l 1.95,0.38 h 0.02 l 1.96,0.34 h 0.02 l 1.97,0.34 h 0.03 l 1.95,0.32 h 0.03 l 1.97,0.32 h 0.02 l 1.97,0.31 h 0.02 l 1.97,0.28 h 0.03 l 1.98,0.27 h 0.01 l 1.98,0.27 h 0.03 l 1.98,0.24 h 0.01 l 1.99,0.22 h 0.01 l 1.99,0.23 h 0.01 l 1.99,0.21 h 0.02 l 1.99,0.19 h 0.01 l 1.99,0.19 h 0.02 l 1.99,0.16 h 0.02 l 2,0.15 h 0.02 l 1.98,0.13 h 0.03 l 1.99,0.13 h 0.01 l 1.99,0.11 h 0.02 l 1.98,0.09 h 0.03 l 2.01,0.09 h 0.02 l 1.98,0.09 h 0.03 l 2,0.04 h 0.01 l 2,0.05 h 0.02 l 1.99,0.04 h 0.03 l 1.99,0.01 h 0.02 2 0.02 l 1.99,-0.01 h 0.02 l 2,-0.02 h 0.03 l 1.98,-0.04 h 0.02 l 1.99,-0.04 h 0.03 l 1.99,-0.06 h 0.02 l 2,-0.08 h 0.01 l 2,-0.09 h 0.03 l 1.99,-0.1 h 0.01 l 2,-0.13 h 0.02 l 1.98,-0.12 h 0.03 l 1.99,-0.15 h 0.02 l 1.98,-0.15 h 0.03 l 1.98,-0.18 h 0.02 l 2,-0.18 h 0.03 l 1.96,-0.2 h 0.02 l 2,-0.21 h 0.02 l 1.97,-0.22 h 0.02 l 1.99,-0.23 h 0.02 l 1.97,-0.25 h 0.03 l 1.98,-0.28 h 0.02 l 1.97,-0.27 h 0.03 l 1.98,-0.29 h 0.02 l 1.96,-0.31 h 0.02 l 1.97,-0.32 h 0.02 l 1.97,-0.33 h 0.02 l 1.96,-0.36 h 0.03 l 1.96,-0.36 h 0.02 l 1.96,-0.37 h 0.02 l 1.96,-0.39 h 0.02 l 1.95,-0.4 h 0.02 l 1.96,-0.42 h 0.01 l 0.9,-0.19 0.86,-0.19 h 0.02 l 0.9,-0.2 0.83,-0.19 0.06,-0.01 0.88,-0.21 0.83,-0.18 0.07,-0.01 0.88,-0.23 0.81,-0.19 0.09,-0.01 3.42,-0.85 0.1,-0.03 1.64,-0.43 0.11,-0.01 0.89,-0.23 0.76,-0.21 0.12,-0.03 0.86,-0.23 0.75,-0.21 0.13,-0.03 0.89,-0.24 0.71,-0.2 0.15,-0.04 0.87,-0.25 0.73,-0.21 0.15,-0.05 0.87,-0.24 0.7,-0.21 0.17,-0.04 1.57,-0.47 0.16,-0.05 0.86,-0.26 1.75,-0.54 0.67,-0.21 0.18,-0.06 0.86,-0.26 0.66,-0.24 0.21,-0.04 0.86,-0.28 0.65,-0.22 0.21,-0.06 0.85,-0.29 0.65,-0.21 0.2,-0.07 1.48,-0.52 0.23,-0.06 0.86,-0.3 0.62,-0.21 0.22,-0.08 0.85,-0.3 0.62,-0.23 0.24,-0.07 0.84,-0.31 0.61,-0.22 0.25,-0.08 0.84,-0.31 0.59,-0.23 1.08,-0.39 0.59,-0.24 0.25,-0.08 0.84,-0.32 0.59,-0.23 0.26,-0.09 0.84,-0.32 0.56,-0.23 0.27,-0.1 0.84,-0.32 0.56,-0.24 0.27,-0.11 0.83,-0.32 0.56,-0.24 0.27,-0.1 0.83,-0.35 0.55,-0.22 0.29,-0.12 0.81,-0.34 0.55,-0.23 0.29,-0.12 0.81,-0.34 0.54,-0.23 0.29,-0.13 0.82,-0.34 0.51,-0.25 0.31,-0.12 0.75,-0.31 0.58,-0.27 0.71,-0.31 0.91,-0.41 0.11,-0.05 1.01,-0.47 0.5,-0.22 0.51,-0.23 0.75,-0.34 0.27,-0.13 0.08,-0.05 0.66,-0.28 0.27,-0.13 0.69,-0.34 0.03,-0.01 0.28,-0.13 0.73,-0.36 0.27,-0.12 0.28,-0.15 1.46,-0.69 0.13,-0.07 0.14,-0.07 0.72,-0.35 0.28,-0.13 0.45,-0.23 0.27,-0.13 0.28,-0.13 0.3,-0.17 0.27,-0.13 0.32,-0.16 0.13,-0.07 0.15,-0.06 0.29,-0.17 0.28,-0.13 0.3,-0.17 0.28,-0.13 0.29,-0.15 0.03,-0.01 0.58,-0.3 0.84,-0.43 0.12,-0.07 0.19,-0.09 1.37,-0.73 2.66,-1.42 0.27,-0.14 0.18,-0.1 0.69,-0.38 0.26,-0.14 0.3,-0.18 0.27,-0.14 0.01,-0.01 0.39,-0.22 0.83,-0.45 0.32,-0.19 0.08,-0.03 0.41,-0.24 0.41,-0.23 0.4,-0.22 0.21,-0.13 0.19,-0.11 0.41,-0.22 0.4,-0.23 0.4,-0.23 0.13,-0.09 0.28,-0.15 c 7,-4.05 13.74,-8.4 20.23,-13.02 68.26,-48.49 90.33,-104.17 94.14,-174.38 0.44,-7.98 0.64,-16.13 0.64,-24.5 l 0.34,-1034.235 -0.08,-6.117 0.01,0.156"
             style="fill:url(#linearGradient26);fill-opacity:1;fill-rule:nonzero;stroke:none"
             id="path28" />
        </g>
      </g>
      <g
         id="g30">
        <g
           id="g32"
           clip-path="url(#clipPath36)">
          <path
             d="M 600.48,497.223 V 1115.7 l 0.571,2.68 -0.031,0.84 c -1.946,47.26 -20.379,64.35 -66.387,87.7 -18.879,9.56 -37.485,18.02 -47.711,23.12 l -186.457,92.98 c -45.942,17.35 -66.77,-3.56 -68.551,-39.42 -0.195,-3.76 -0.152,-7.49 0.031,-11.24 -1.867,38.48 2.887,84.44 22.684,119.05 v 0 l 0.109,0.2 c 1.946,3.39 4.043,6.66 6.285,9.82 5.809,8.3 12.508,16.02 19.465,22.4 l 0.703,-0.35 h 0.012 l 0.172,0.15 -0.711,0.35 c 14.301,13.08 31.012,22.79 48.41,29.15 49.453,18.1 109.645,10.03 167.418,-19.72 l 97.469,-48.59 37.32,-18.62 h 0.012 l 9.754,-4.88 v -0.01 l 9.422,-4.72 v 0 c 3.082,-1.55 6.105,-3.08 9.066,-4.59 v 0 c 2.973,-1.5 5.887,-2.98 8.742,-4.44 h 0.008 c 2.852,-1.47 5.664,-2.91 8.414,-4.33 v 0 c 2.754,-1.42 5.453,-2.82 8.098,-4.21 v 0 c 2.644,-1.37 5.23,-2.73 7.777,-4.08 v 0 c 2.547,-1.34 5.028,-2.67 7.477,-3.98 v 0 c 2.433,-1.31 4.824,-2.61 7.164,-3.89 v 0 c 2.34,-1.27 4.633,-2.53 6.871,-3.78 v 0 c 2.242,-1.25 4.437,-2.49 6.59,-3.7 v -0.01 c 2.14,-1.21 4.238,-2.43 6.293,-3.62 v -0.01 c 2.054,-1.19 4.062,-2.37 6.019,-3.55 v 0 c 1.965,-1.17 3.879,-2.34 5.758,-3.49 1.871,-1.15 3.692,-2.3 5.477,-3.44 h 0.011 c 1.778,-1.13 3.516,-2.26 5.219,-3.38 v 0 c 1.692,-1.12 3.356,-2.23 4.973,-3.34 v 0 c 1.617,-1.11 3.187,-2.21 4.719,-3.31 v 0 c 1.539,-1.09 3.027,-2.18 4.48,-3.28 v 0 c 1.461,-1.08 2.875,-2.17 4.25,-3.25 1.375,-1.08 2.719,-2.16 4.02,-3.23 v 0 c 1.3,-1.09 2.566,-2.17 3.793,-3.24 h 0.007 c 1.227,-1.08 2.418,-2.16 3.575,-3.23 1.16,-1.08 2.285,-2.17 3.375,-3.25 v 0 c 1.082,-1.08 2.144,-2.16 3.156,-3.25 v 0 c 1.031,-1.08 2.012,-2.18 2.976,-3.28 v 0 c 0.95,-1.09 1.879,-2.2 2.774,-3.3 0.894,-1.1 1.758,-2.22 2.59,-3.34 v 0 c 0.828,-1.12 1.636,-2.25 2.402,-3.38 0.777,-1.14 1.52,-2.28 2.238,-3.43 v 0 c 0.723,-1.16 1.41,-2.32 2.067,-3.5 v 0 c 0.668,-1.16 1.3,-2.35 1.91,-3.55 0.613,-1.19 1.191,-2.39 1.75,-3.62 0.555,-1.22 1.094,-2.45 1.605,-3.7 0.504,-1.25 0.996,-2.51 1.453,-3.78 v 0 c 0.473,-1.28 0.907,-2.58 1.321,-3.88 v 0 c 0.429,-1.31 0.824,-2.63 1.195,-3.97 v 0 c 0.383,-1.35 0.731,-2.71 1.066,-4.09 0.344,-1.37 0.661,-2.78 0.954,-4.2 0.296,-1.42 0.578,-2.85 0.832,-4.31 h 0.007 c 0.266,-1.47 0.504,-2.94 0.723,-4.45 0.231,-1.51 0.438,-3.02 0.633,-4.58 0.199,-1.55 0.371,-3.12 0.535,-4.72 0.164,-1.6 0.316,-3.22 0.449,-4.87 0.141,-1.65 0.262,-3.32 0.371,-5.03 v 0 c 0.11,-1.7 0.207,-3.43 0.286,-5.19 0.085,-1.75 0.16,-3.53 0.226,-5.36 0.07,-1.81 0.109,-3.66 0.152,-5.53 v 0 c 0.047,-1.88 0.079,-3.78 0.114,-5.72 0.019,-1.93 0.031,-3.91 0.043,-5.91 0.007,-2 0.007,-4.04 0.007,-6.11 -0.007,-2.07 -0.019,-4.18 -0.031,-6.33 l -0.062,-6.52 -0.102,-6.75 -0.109,-6.98 -0.129,-7.21 -0.133,-7.46 -0.129,-7.69 -0.144,-7.95 -0.121,-8.23 -0.098,-8.49 c -0.031,-2.87 -0.067,-5.79 -0.086,-8.76 -0.023,-2.96 -0.043,-5.97 -0.055,-9.04 l -0.019,-5.22 v -4.13 -3.37 -7.17 c 0.062,-77.43 0.683,-258.415 0,-417.786 v -47.933 -1.68 c 0.117,-35.41 0.347,-69.348 0,-99.152 v -41.364 l -0.231,-0.996 c 0.414,-11.496 1.594,-22.101 4.469,-31.871 l -0.012,0.024 0.098,-1.465 0.383,-1.18 0.011,-0.012 0.415,-1.168 0.425,-1.16 0.285,-0.773 0.153,-0.371 0.457,-1.125 v -0.012 l 0.469,-1.094 1.007,-2.172 0.524,-1.07 0.012,-0.047 0.523,-1.004 0.559,-1.039 0.402,-0.742 0.168,-0.285 0.598,-1.012 0.023,-0.058 0.578,-0.938 0.238,-0.406 0.383,-0.59 0.473,-0.719 0.176,-0.254 1.343,-1.922 0.282,-0.394 0.406,-0.547 0.535,-0.707 0.172,-0.219 0.734,-0.929 0.075,-0.098 0.679,-0.809 0.328,-0.406 0.438,-0.5 0.609,-0.699 0.176,-0.199 0.797,-0.883 0.101,-0.11 0.731,-0.765 0.828,-0.864 0.691,-0.699 0.172,-0.16 0.875,-0.855 0.844,-0.797 0.055,-0.055 0.433,-0.402 0.485,-0.43 0.761,-0.695 0.165,-0.145 1.933,-1.648 0.492,-0.418 0.492,-0.395 0.852,-0.695 0.164,-0.121 1.027,-0.809 0.196,-0.152 0.851,-0.645 0.559,-0.429 0.516,-0.371 0.937,-0.696 0.152,-0.101 1.106,-0.797 0.238,-0.164 0.895,-0.621 0.625,-0.438 0.523,-0.347 1.039,-0.704 0.129,-0.086 1.195,-0.777 0.27,-0.183 0.941,-0.602 0.7,-0.449 0.523,-0.328 1.148,-0.719 0.11,-0.067 1.277,-0.777 0.317,-0.195 0.972,-0.578 0.778,-0.469 0.535,-0.309 1.246,-0.73 0.097,-0.055 1.356,-0.773 0.371,-0.219 1.004,-0.57 0.863,-0.481 0.535,-0.304 0.391,-0.223 2.016,-1.102 0.457,-0.25 0.437,-0.23 1.027,-0.559 0.95,-0.5 0.535,-0.293 1.476,-0.777 0.032,-0.023 1.543,-0.797 0.488,-0.254 1.062,-0.543 1.024,-0.535 0.547,-0.286 1.597,-0.808 c 18.879,-9.57 37.485,-18.02 47.711,-23.117 l 3.825,-1.903 182.635,-91.09 c 29.6,-11.164 55.99,-1.496 66.36,12.852 C 1174.63,133.07 1065.02,62.3477 931.551,116.855 L 909.68,127.738 784.449,190.191 C 630.996,266.715 603.324,287.309 599.727,369.633 l -0.063,1.476 -0.055,1.496 -0.058,1.497 -0.043,1.519 -0.039,1.539 -0.035,1.539 -0.012,0.035 -0.024,1.532 -0.031,1.574 -0.031,1.582 -0.023,1.027 v 0.578 l -0.008,1.618 -0.012,1.628 -0.012,1.649 -0.011,0.437 v 1.227 1.68 1.695 1.703 1.727 l 0.011,1.738 0.012,1.758 v 0.906 l 0.012,0.863 0.019,1.793 0.02,1.801 0.011,1.828 v 0.246 l 0.036,1.586 0.019,1.856 0.024,1.871 0.023,1.429 0.012,0.461 0.019,1.903 0.032,1.922 0.031,1.941 0.012,0.754 0.023,1.203 0.035,1.98 0.043,1.997 0.031,2.011 v 0.024 l 0.032,2.008 0.046,2.054 0.032,2.063 0.023,1.324 0.012,0.766 0.043,2.105 0.031,2.133 0.043,2.14 v 0.559 l 0.035,1.606 0.043,2.187 0.031,2.207 0.032,1.953 v 0.266 l 0.035,2.25 0.031,2.258 0.047,2.285 0.012,1.156 0.007,1.148 0.036,2.317 0.031,2.351 0.019,2.368 0.012,0.308 0.024,2.078 0.019,2.411 0.024,2.425 0.011,1.848 0.012,0.609 0.012,2.469 0.019,2.504 0.012,2.516 v 0.949 l 0.012,1.586 v 2.566 l 0.007,2.578 v 2.61"
             style="fill:url(#linearGradient44);fill-opacity:1;fill-rule:nonzero;stroke:none"
             id="path46" />
        </g>
      </g>
      <g
         id="g48">
        <g
           id="g50"
           clip-path="url(#clipPath54)">
          <path
             d="M 9.09766,232.531 Z M 270.691,198.191 c -17.73,0 -32.109,14.379 -32.109,32.125 0,17.723 14.379,32.102 32.109,32.102 17.723,0 32.102,-14.379 32.102,-32.102 0,-17.746 -14.379,-32.125 -32.102,-32.125 z M 8.20313,1297.25 l 0.0039,0.15 c 1.19531,38.03 11.00387,71.34 33.98437,105.72 23.125,34.58 51.3438,60.45 82.9606,78.42 84.598,48.05 193.496,39.36 294.024,-10.76 l 0.273,-0.14 50.239,-25.05 c 7.41,-2.93 14.816,-6.21 22.183,-9.85 l 0.902,-0.3 c -114.71,37.33 -253.996,15.4 -258.347,-125.16 -4.969,-47.03 -2.172,-102.57 -2.172,-150.46 V 433.207 c 0,-43.687 0.156,-89.961 0.23,-134.5 -23.937,-13.398 -40.129,-39.004 -40.129,-68.391 0,-44.593 33.278,-78.355 78.336,-78.355 44.993,0 78.344,33.82 78.344,78.355 0,29.254 -16.066,54.789 -39.855,68.235 l -0.071,12.715 v 7.742 227.758 l 0.262,-0.121 v 688.005 l 115.012,-57.35 43.922,-21.92 c 58.058,-30.39 57.863,-40.55 58.011,-96.78 v -137.229 -0.226 -0.036 -357.414 l 0.243,-95.988 V 358.309 265.945 c 0,-71.515 -13.864,-133.371 -54.594,-179.3122 l -0.027,-0.0117 C 458.734,71.7188 442.688,58.4883 423.387,47.1445 l -4.891,-2.789 h -0.008 l -5.011,-2.7266 h -0.024 l -5.156,-2.625 h -0.016 l -5.293,-2.5625 h -0.023 l -5.434,-2.4805 h -0.011 l -5.59,-2.3945 h -0.024 L 386.188,29.25 h -0.024 l -5.879,-2.2305 h -0.004 l -6.031,-2.1328 h -0.02 l -6.167,-2.0547 h -0.032 l -6.312,-1.9804 h -0.024 l -6.476,-1.8789 h -0.028 l -6.628,-1.7969 h -0.012 l -6.789,-1.7227 h -0.02 l -6.941,-1.6172 h -0.028 l -1.945,-0.4375 h -0.012 l -1.949,-0.414 h -0.019 l -1.957,-0.4024 h -0.024 l -1.961,-0.3945 h -0.011 l -1.954,-0.3789 h -0.027 l -1.957,-0.3789 h -0.027 l -1.957,-0.3477 h -0.008 l -1.973,-0.3398 h -0.023 l -1.973,-0.3203 h -0.019 l -1.961,-0.3203 h -0.02 l -1.984,-0.30082 h -0.024 l -1.957,-0.28125 h -0.027 l -1.973,-0.27344 h -0.027 l -1.969,-0.26171 h -0.027 l -1.985,-0.25 h -0.019 l -1.969,-0.22266 h -0.027 L 301.027,8.28125 H 301 L 299.027,8.07813 H 299 l -1.984,-0.1875 h -0.024 l -1.976,-0.1875 h -0.028 l -1.996,-0.15235 h -0.019 l -1.981,-0.15625 h -0.023 l -1.996,-0.13672 h -0.008 l -1.996,-0.125 h -0.028 l -1.98,-0.12109 h -0.02 l -1.996,-0.08984 h -0.027 L 280.93,6.83594 h -0.028 L 278.91,6.75391 h -0.023 l -1.992,-0.04688 h -0.028 l -1.976,-0.04687 h -0.024 l -2.012,-0.03907 h -0.019 l -1.981,-0.01953 h -0.027 -2.004 -0.011 l -1.993,0.01172 h -0.023 l -1.992,0.01953 h -0.028 l -1.988,0.03907 h -0.027 l -1.981,0.0625 h -0.019 l -2.012,0.04296 h -0.012 l -1.992,0.08594 h -0.023 l -1.993,0.07813 h -0.019 l -1.996,0.11328 h -0.027 l -1.985,0.11719 h -0.019 l -1.996,0.1289 h -0.012 l -1.996,0.14453 h -0.02 l -1.98,0.15235 h -0.028 l -1.988,0.17578 h -0.023 l -1.985,0.1875 h -0.019 l -1.985,0.1914 h -0.023 l -1.981,0.21485 h -0.023 l -1.984,0.22265 h -0.024 l -1.969,0.23047 h -0.027 l -1.98,0.26172 h -0.02 l -1.973,0.27735 h -0.023 l -1.98,0.26562 h -0.02 l -1.973,0.28906 h -0.023 l -1.973,0.30474 h -0.023 l -1.957,0.3203 h -0.024 l -1.972,0.3359 h -0.02 l -1.969,0.3516 h -0.011 l -1.965,0.3632 h -0.02 l -1.968,0.375 h -0.028 l -1.957,0.379 h -0.012 l -1.941,0.4023 h -0.027 l -1.957,0.418 h -0.024 l -0.89,0.1914 -0.852,0.1875 H 205 l -0.891,0.207 -0.828,0.1836 -0.062,0.0078 -0.887,0.2188 -0.832,0.1757 -0.059,0.0118 -0.886,0.2304 -0.809,0.1875 -0.07,0.0078 -3.43,0.8555 -0.109,0.0274 -1.649,0.4257 -0.105,0.0235 -0.875,0.2265 -0.762,0.1993 -0.125,0.0351 -0.875,0.2422 -0.73,0.1953 -0.133,0.0391 -0.891,0.2343 -0.726,0.2188 -0.141,0.0195 -0.867,0.2461 -0.723,0.2149 -0.152,0.0507 -0.879,0.2461 -0.699,0.2032 -0.172,0.0468 -1.551,0.4766 -0.18,0.0313 -0.863,0.2617 -1.734,0.539 -0.66,0.2188 -0.204,0.0664 -0.855,0.2695 -0.664,0.2149 -0.192,0.0586 -0.867,0.2773 -0.652,0.207 -0.199,0.0743 -0.867,0.2734 -0.645,0.2226 -0.211,0.0586 -1.48,0.5235 -0.219,0.0586 -0.852,0.3008 -0.625,0.207 -0.23,0.0859 -0.848,0.2969 -0.613,0.2266 -0.234,0.082 -0.84,0.3008 -0.618,0.2187 -0.242,0.086 -0.836,0.3086 -0.609,0.2304 -1.082,0.3867 -0.594,0.2383 -0.246,0.0821 -0.84,0.3203 -0.57,0.2265 -0.273,0.0938 -0.833,0.3203 -0.566,0.2266 -0.266,0.1054 -0.839,0.3203 -0.559,0.2344 -0.273,0.1133 -0.832,0.3281 -0.555,0.2305 -0.277,0.1015 -0.829,0.3477 -0.543,0.2227 -0.289,0.1171 -0.82,0.3477 -0.539,0.2227 -0.289,0.1211 -0.816,0.3554 -0.536,0.2149 -0.297,0.1289 -0.82,0.3437 -0.519,0.2422 -0.297,0.125 -0.742,0.3203 -0.598,0.2617 -0.715,0.3086 -0.898,0.4141 -0.106,0.0469 -1.023,0.4648 -0.485,0.2227 -0.523,0.2265 -0.738,0.3438 -0.266,0.1328 -0.102,0.0508 -0.64,0.2929 -0.274,0.129 -0.687,0.3203 -0.043,0.0156 -0.277,0.1328 -0.719,0.3516 -0.278,0.1328 -0.273,0.1445 -1.473,0.6992 -0.132,0.0547 -0.137,0.0742 -0.723,0.3516 -0.277,0.1328 -0.438,0.2266 -0.277,0.1328 -0.266,0.1367 -0.308,0.1563 -0.274,0.1328 -0.32,0.164 -0.144,0.0742 -0.133,0.0547 -0.305,0.1719 -0.273,0.1289 -0.313,0.1641 -0.273,0.1289 -0.266,0.1523 -0.039,0.0157 -0.586,0.2968 -0.848,0.4258 -0.105,0.0742 -0.203,0.0899 -1.367,0.7265 -2.657,1.4258 -0.273,0.1406 -0.164,0.0938 -0.688,0.3828 -0.273,0.1445 -0.305,0.1758 -0.265,0.1445 -0.016,0.004 -0.391,0.2187 -0.816,0.4492 -0.32,0.1914 -0.086,0.0313 -0.41,0.2422 -0.407,0.2226 -0.406,0.2305 -0.223,0.1289 -0.191,0.1055 -0.406,0.2226 -0.399,0.2266 -0.406,0.2383 -0.129,0.082 -0.277,0.1523 c -6.985,4.0625 -13.723,8.4024 -20.211,13.0196 -68.2658,48.492 -90.34,104.168 -94.16034,174.383 -0.4375,7.976 -0.625,16.129 -0.625,24.496 l -0.33985,1034.243 0.07422,6.11 -0.0039,-0.15"
             style="fill:url(#linearGradient64);fill-opacity:1;fill-rule:nonzero;stroke:none"
             id="path66" />
        </g>
      </g>
      <path
         d="m 272.648,1329.2 c -2.296,104.51 130.723,138.49 227.305,102.49 l -3.461,1.72 c -1.543,0.79 -3.07,1.56 -4.609,2.33 -114.547,36.92 -253.117,14.72 -257.457,-125.45 -0.567,-5.41 -1.035,-10.93 -1.418,-16.53 3.758,21.93 16.355,36.09 39.64,35.44"
         style="fill:#3c96e7;fill-opacity:1;fill-rule:evenodd;stroke:none"
         id="path68" />
    </g>
  </g>
</svg>
