<?xml version="1.0" encoding="UTF-8"?>
<svg xmlns="http://www.w3.org/2000/svg" version="1.2" viewBox="0 0 1646 1623" width="64" height="64">
  <style>
		.s0 { fill:  none; stroke: #0d67b4 } 
		.s1 { fill: #0d67b4 } 
		.s2 { fill: #0d67b4 } 
		.s3 { fill: #0d67b4 } 
		.s4 { fill: #0d67b4 } 
	</style>
  <g id="Layer 1">
    <path id="&lt;Path&gt;" class="s0" d="m-1691.2-1260.8h4872.7v4881.8h-4872.7z"></path>
    <g id="&lt;Group&gt;">
      <path id="&lt;Compound Path&gt;" fill-rule="evenodd" class="s1" d="m175.4 587.1c-28.9 0-52.2-23.3-52.2-52.2 0-28.9 23.3-52.2 52.2-52.2 28.8 0 52.1 23.3 52.1 52.2 0 28.9-23.3 52.2-52.1 52.2zm721.4-100.8c-23.6 0-42.7-19.1-42.7-42.7 0-23.6 19.1-42.7 42.7-42.7 23.6 0 42.7 19.1 42.7 42.7 0 23.6-19.1 42.7-42.7 42.7zm-413 109.9l-28.8 85.7c14.9 11.9 24.4 30.1 24.4 50.6 0 35.8-29 64.9-64.8 64.9-35.8 0-64.8-29.1-64.8-64.9 0-35.8 29-64.8 64.8-64.8 4.9 0 9.7 0.6 14.4 1.6l26.2-78.3c-23-10-39.2-32.9-39.2-59.6 0-35.8 29.1-64.8 64.9-64.8 35.8 0 64.8 29 64.8 64.8 0 10.4-2.5 20.3-6.9 29l117.3 80.7c11.3-9.7 26-15.5 42-15.5q4.3 0 8.4 0.5l23.6-70.5c-17.7-11.6-29.4-31.6-29.4-54.3 0-35.8 29.1-64.8 64.9-64.8 35.8 0 64.8 29 64.8 64.8 0 35.8-29 64.8-64.8 64.8q-4.3 0-8.5-0.5l-23.6 70.4c17.7 11.6 29.4 31.6 29.4 54.4 0 35.8-29 64.8-64.8 64.8-35.8 0-64.8-29-64.8-64.8 0-9.2 1.9-18 5.4-26l-118.5-81.5c-10.1 7.8-22.7 12.7-36.4 13.3zm352.4 63.3c-19.4 0-35.1-15.7-35.1-35.1 0-19.4 15.7-35.1 35.1-35.1 19.4 0 35.1 15.7 35.1 35.1 0 19.4-15.7 35.1-35.1 35.1zm-534.3-121.1c-17.7 0-32-14.3-32-32 0-17.6 14.3-31.9 32-31.9 17.6 0 31.9 14.3 31.9 31.9 0 17.7-14.3 32-31.9 32zm422.1-177.1c-17.7 0-32-14.3-32-32 0-17.6 14.3-31.9 32-31.9 17.7 0 32 14.3 32 31.9 0 17.7-14.3 32-32 32zm-10.6 488.5c-18.8 0-34.1-15.3-34.1-34.1 0-18.9 15.3-34.1 34.1-34.1 18.9 0 34.1 15.2 34.1 34.1 0 18.8-15.2 34.1-34.1 34.1zm288.9-98.3c-23.6 0-42.7-19.1-42.7-42.7 0-23.6 19.1-42.7 42.7-42.7 23.6 0 42.7 19.1 42.7 42.7 0 23.6-19.1 42.7-42.7 42.7zm-245.1 251.4c-28 0-50.6-22.6-50.6-50.6 0-28 22.6-50.6 50.6-50.6 28 0 50.6 22.6 50.6 50.6 0 28-22.6 50.6-50.6 50.6zm214.1-400.2c-23.6 0-42.7-19.1-42.7-42.7 0-23.6 19.1-42.7 42.7-42.7 23.6 0 42.7 19.1 42.7 42.7 0 23.6-19.1 42.7-42.7 42.7zm-332.2-117.2c-23.6 0-42.7-19.1-42.7-42.7 0-23.6 19.1-42.7 42.7-42.7 23.6 0 42.7 19.1 42.7 42.7 0 23.6-19.1 42.7-42.7 42.7zm241.4 403.6c-35.8 0-64.8-29-64.8-64.9 0-35.8 29-64.8 64.8-64.8 35.9 0 64.9 29 64.9 64.8 0 35.9-29 64.9-64.9 64.9zm-586.5-205.2c-17.7 0-32-14.3-32-32 0-17.7 14.3-32 32-32 17.6 0 31.9 14.3 31.9 32 0 17.7-14.3 32-31.9 32zm51.7-279.1c-17.7 0-32-14.3-32-32 0-17.6 14.3-31.9 32-31.9 17.6 0 31.9 14.3 31.9 31.9 0 17.7-14.3 32-31.9 32zm179.1-2.7c-28 0-50.6-22.6-50.6-50.6 0-28 22.6-50.6 50.6-50.6 28 0 50.6 22.6 50.6 50.6 0 28-22.6 50.6-50.6 50.6zm35.2 412.3c-23.6 0-42.7-19.1-42.7-42.7 0-23.6 19.1-42.7 42.7-42.7 23.6 0 42.7 19.1 42.7 42.7 0 23.6-19.1 42.7-42.7 42.7zm-411.5-106.7c-17.7 0-32-14.4-32-32.1 0-17.7 14.3-32 32-32 17.7 0 32 14.3 32 32 0 17.7-14.3 32.1-32 32.1z"></path>
      <path id="&lt;Path&gt;" class="s2" d="m1406.5 722.3c8.6 67.6 44.3 129.2 89.6 198.8 30 46.2 43.8 52.2 6 86q-34.4 30.8-68.7 61.6l15.1 45.3c6.6 20.1 4.3 15.3-12.4 30.4l-26.1 23.6c17.2 57.5 17.6 42.6-38.7 71.8-5 52.3 23 128.1-12.9 156.9-104.1 83.6-242.3-112.5-499.1 20.3-76 39.4-108 77-170 132.1 13.8-47.1 49.4-115.4 69-169.9 124.9-348.3 267.1-447.5 346.7-544.8 332.3-406.3-250.1-782.5-781.8-637.9 368.8-236.8 970.9-123.7 1068 312 19.2 85.7 6 140.3 15.3 213.8z"></path>
      <path id="&lt;Compound Path&gt;" fill-rule="evenodd" class="s3" d="m-66.3 1762.9h53.5v284.5h-33.2l-149.4-191.9v191.9h-53.6v-284.5h43.4l139.3 176.4zm377.6 284.6h-212.7c0-94.6 0-189.7 0-284.6h212.7v52h-159.6v65.7h153.9v50h-153.9v64.1h159.6zm353.6-283.8v162.8c0 84.1-51.5 127.1-123 127.1-68.2 0-126.2-41.4-126.2-127.1v-162.8h53.2v162.8c0 51.2 29.2 78.4 73.4 78.4 44.3 0 69.4-29.7 69.4-78.4v-162.8zm367.5 283.8h-63.7l-82.8-95h-51.6v95h-53.6v-284.6c45.1 0 90.1 0.4 135.2 0 67 0.4 102.3 45.1 102.3 94.4 0 39.2-17.9 78.6-71.9 89.5l86.1 97zm-198.1-234.6v91.3h81.6c34.1 0 48.7-22.8 48.7-45.6 0-22.9-15-45.7-48.7-45.7zm562.3 94.2c-0.8 73.5-45.9 146.9-145.7 146.9-99.9 0-146.2-71.8-146.2-146.5 0-74.7 47.9-149.8 146.2-149.8 97.8 0 146.5 75.1 145.7 149.4zm-239.1 1.2c1.2 46.7 26.4 96.6 93.4 96.6 66.9 0 92.1-50.3 92.9-97 0.8-47.9-26-101.5-92.9-101.5-67 0-94.6 54-93.4 101.9zm528.2-145.3h53.6v284.5h-33.3l-149.4-191.8v191.8h-53.6v-284.5h43.5l139.2 176.4z"></path>
      <path id="&lt;Compound Path&gt;" fill-rule="evenodd" class="s4" d="m-196.8 2162.6v98.5h61.3v20.8h-83.7v-119.3zm276.4 60.4c-0.3 30.8-19.2 61.6-61.1 61.6-41.9 0-61.3-30.1-61.3-61.4 0-31.4 20.1-62.8 61.3-62.8 41 0 61.4 31.4 61.1 62.6zm-100.2 0.5c0.5 19.6 11 40.5 39.1 40.5 28.1 0 38.6-21.1 39-40.7 0.3-20.1-10.9-42.5-39-42.5-28.1 0-39.6 22.6-39.1 42.7zm308.2 58.4h-26.7l-34.7-39.9h-21.6v39.9h-22.5v-119.3c18.9 0 37.8 0.1 56.7 0 28.1 0.1 42.9 18.9 42.9 39.5 0 16.5-7.5 33-30.2 37.6l36.1 40.6zm-83-98.3v38.3h34.2c14.3 0 20.4-9.6 20.4-19.2 0-9.6-6.3-19.1-20.4-19.1zm266.9 98.3h-89.2c0-39.6 0-79.5 0-119.3h89.2v21.8h-66.9v27.6h64.5v20.9h-64.5v26.9h66.9zm207-86.3l-38.8 51.7h-4.4l-38-51.9v86.5h-22.4v-118.9h25.8l37.3 51.1 37.3-51.1h25.7v118.9h-22.5zm163.9-33h22.3v119.3h-22.3zm185.4 84.3h-33.7v35h-22.4v-119.3c18.7 0 37.4-0.2 56.1 0 58.2 0 58.4 84.3 0 84.3zm-33.7-20.6h33.7c28.8 0 28.6-42.2 0-42.2h-33.7zm252-34.8c-4.1-6.8-15.3-13.2-28.3-13.2-16.7 0-24.7 7-24.7 15.8 0 10.4 12.3 13.3 26.6 15 24.8 3 48 9.5 48 37.9 0 26.6-23.5 38-50 38-24.4 0-43.1-7.5-52-29.3l18.8-9.7c5.2 13.1 19 18.9 33.5 18.9 14.1 0 27.4-4.9 27.4-17.9 0-11.2-11.8-15.8-27.6-17.5-24.3-2.9-46.8-9.4-46.8-36.1 0-24.5 24.2-34.5 46.1-34.7 18.6 0 37.8 5.3 46.8 23.7zm229.3-28.6v68.2c0 35.2-21.6 53.3-51.5 53.3-28.6 0-53-17.4-53-53.3v-68.2h22.3v68.2c0 21.4 12.3 32.8 30.8 32.8 18.6 0 29.1-12.4 29.1-32.8v-68.2zm211.6 32.6l-38.8 51.7h-4.4l-37.9-51.9v86.5h-22.5v-118.9h25.9l37.2 51.1 37.3-51.1h25.7v118.9h-22.5z"></path>
    </g>
  </g>
</svg>
