<svg width="53" height="20" viewBox="0 0 53 20" fill="none" xmlns="http://www.w3.org/2000/svg">
<path fill-rule="evenodd" clip-rule="evenodd" d="M17.763 4.7083C17.5981 4.7083 17.5157 4.79167 17.5157 4.95829V8.08329C17.0211 7.99998 16.3205 7.99998 15.5375 7.99998C12.6526 7.99998 11.9932 8.95833 11.9932 12.4583C11.9932 16 12.6938 16.9167 15.826 16.9167C16.9387 16.9167 17.8454 16.8333 19.1642 16.625C19.3703 16.5833 19.4527 16.5 19.4527 16.2917V4.91664C19.4527 4.74996 19.3703 4.66665 19.2054 4.66665H17.763V4.7083ZM13.889 12.4166C13.889 10.125 14.1362 9.62499 15.8672 9.62499H17.5569V15.0833C17.0211 15.1666 16.3205 15.2083 15.826 15.2083C14.0538 15.1666 13.889 14.5416 13.889 12.4166ZM21.2661 10.0417V16.6667C21.2661 16.8333 21.3485 16.9167 21.5133 16.9167H22.9558C23.1207 16.9167 23.2031 16.8333 23.2031 16.6667V10.5416C23.2031 9.83332 23.4916 9.66665 24.4395 9.66665H25.8819C26.0468 9.66665 26.1704 9.58333 26.1704 9.41666V8.4583C26.1704 8.29163 26.088 8.20831 25.9232 8.16666C25.511 8.04164 24.3982 7.99998 23.9861 7.99998C22.7497 8.04164 21.2661 8.16666 21.2661 10.0417ZM27.4068 8.49996C27.4068 8.33333 27.448 8.29163 27.6129 8.24997C28.3621 8.0778 29.083 8.04789 29.7759 8.01915C29.9213 8.01315 30.0663 8.0072 30.2093 7.99998C32.9293 7.99998 33.836 8.91663 33.836 10.625V16.25C33.836 16.4583 33.7948 16.625 33.5063 16.7083C32.6821 16.9167 31.322 17.0416 30.0032 17.0416C27.8601 17.0416 26.7474 16.6667 26.7474 14.375C26.7474 12.3333 27.7777 11.8333 29.6735 11.8333H31.9814V11C31.9814 10.0833 31.4457 9.7083 30.2093 9.7083H27.6541C27.448 9.7083 27.4068 9.66665 27.4068 9.45831V8.49996ZM29.7972 13.1667C28.9729 13.1667 28.602 13.4583 28.602 14.25C28.602 15.1666 29.0141 15.375 30.1681 15.375C30.5802 15.375 31.4045 15.3333 31.9402 15.2083V13.1667H29.7972ZM41.7077 7.95832C41.5429 7.95832 41.4604 8.04164 41.4604 8.20831V15.1667H39.6883C38.2458 15.1667 37.8749 15.0417 37.8749 12.7083V8.20831C37.8749 8.04164 37.7925 7.95832 37.6688 7.95832H36.2676C36.1027 7.95832 36.0203 8.04164 36.0203 8.20831V13.0833C36.0203 16.4167 36.8446 16.875 39.6883 16.875C40.6361 16.875 41.9962 16.8333 43.1502 16.625C43.315 16.5833 43.3974 16.5833 43.3974 16.375V8.20831C43.3974 8.04164 43.315 7.95832 43.1502 7.95832H41.7077ZM45.4993 8.62503C45.4993 8.4167 45.5817 8.33333 45.7877 8.29168C47.1066 8.08334 47.972 8.04169 49.1672 8.04169C52.2994 8.04169 53 8.95833 53 12.4167C53 16 52.2994 16.9167 49.4145 16.9167C48.6726 16.9167 48.0957 16.9167 47.4363 16.8333V19.75C47.4363 19.9167 47.3539 20 47.189 20H45.7465C45.5817 20 45.4993 19.9167 45.4993 19.75V8.62503ZM47.3951 9.6667V15.1667C47.9308 15.2083 48.549 15.25 49.0848 15.25C50.8157 15.25 51.063 14.7084 51.063 12.4583C51.063 10.2917 50.8982 9.6667 49.1672 9.6667H47.3951Z" fill="#454F58"/>
<path fill-rule="evenodd" clip-rule="evenodd" d="M3.62701 2.31242C3.71962 2.28119 3.81229 2.24996 3.91522 2.20835L10.3856 0L9.93229 7.12499C9.84989 8.37499 9.3141 9.50002 8.44864 10.3334C7.87165 10.875 7.17105 11.2917 6.388 11.5L0 13.625L0.370926 6.66667V6.58335C0.494534 4.66665 1.68972 3.08334 3.33823 2.41669C3.44137 2.37498 3.53419 2.3437 3.62701 2.31242ZM3.95643 4.04165C2.8849 4.50002 2.10185 5.49998 2.01944 6.74998V6.79169L1.77217 11.2917L5.89346 9.91669C6.388 9.79167 6.84133 9.50002 7.21226 9.16667C7.74804 8.62498 8.11892 7.91667 8.16017 7.08333L8.48984 2.5L4.32735 3.91668L3.95643 4.04165ZM4.53342 7.70833C4.12129 7.33332 4.12129 6.70832 4.49221 6.33336C4.65708 6.12503 4.94555 6.00001 5.19286 6.00001C5.44013 6.00001 5.6462 6.12503 5.85226 6.29166C6.26439 6.66667 6.26439 7.29167 5.89346 7.66668C5.52254 8.08334 4.90434 8.08334 4.53342 7.70833Z" fill="#0095FF"/>
</svg>
