<svg width="32" height="32" viewBox="0 0 32 32" fill="none" xmlns="http://www.w3.org/2000/svg">
<g clip-path="url(#clip0_3546_26797)">
<circle cx="16" cy="16" r="16" fill="url(#paint0_linear_3546_26797)"/>
<path d="M15.9999 15.7288L24.4068 21.1526V14.644L16.0001 9.22035L7.59322 14.6439L7.59322 21.1524L15.9999 15.7288Z" fill="white"/>
</g>
<defs>
<linearGradient id="paint0_linear_3546_26797" x1="16" y1="0" x2="16" y2="32" gradientUnits="userSpaceOnUse">
<stop stop-color="#7E9CFF"/>
<stop offset="1" stop-color="#1E53FD"/>
</linearGradient>
<clipPath id="clip0_3546_26797">
<path d="M0 12.8C0 8.31958 0 6.07937 0.871948 4.36808C1.63893 2.86278 2.86278 1.63893 4.36808 0.871948C6.07937 0 8.31958 0 12.8 0H19.2C23.6804 0 25.9206 0 27.6319 0.871948C29.1372 1.63893 30.3611 2.86278 31.1281 4.36808C32 6.07937 32 8.31958 32 12.8V19.2C32 23.6804 32 25.9206 31.1281 27.6319C30.3611 29.1372 29.1372 30.3611 27.6319 31.1281C25.9206 32 23.6804 32 19.2 32H12.8C8.31958 32 6.07937 32 4.36808 31.1281C2.86278 30.3611 1.63893 29.1372 0.871948 27.6319C0 25.9206 0 23.6804 0 19.2V12.8Z" fill="white"/>
</clipPath>
</defs>
</svg>
