<svg id="eeeff979-0bd4-454f-90fb-afbfd56f600e" data-name="Layer 1" xmlns="http://www.w3.org/2000/svg" xmlns:xlink="http://www.w3.org/1999/xlink" viewBox="0 0 32 32"><defs><linearGradient id="b8d48a15-7084-438e-8046-28f1385fedf6" x1="3191.359" y1="-2601.475" x2="3200.359" y2="-2601.475" gradientTransform="translate(-3170.622 2618.975)" gradientUnits="userSpaceOnUse"><stop offset="0.001" stop-opacity="0"/><stop offset="0.83"/></linearGradient><mask id="b7873142-d3f8-4a78-9493-852038ded7ab" x="0" y="0" width="32" height="32" maskUnits="userSpaceOnUse"><rect x="12" y="8" width="8" height="2" fill="#fff"/><path d="M16,28H6V24H8V22H6V17H8V15H6V10H8V8H6V4H24V21h2V4a2,2,0,0,0-2-2H6A2,2,0,0,0,4,4V8H2v2H4v5H2v2H4v5H2v2H4v4a2,2,0,0,0,2,2H16Z" fill="#fff"/><rect x="12" y="13" width="8" height="2" fill="#fff"/><rect x="12" y="18" width="8" height="2" fill="#fff"/><g id="ed333656-91e5-488d-bac7-b0d27a285cda" data-name="Gradients (black)"><rect x="20.737" y="15.737" width="9" height="3.525" transform="translate(42.737 -7.737) rotate(90)" fill="url(#b8d48a15-7084-438e-8046-28f1385fedf6)"/></g></mask><linearGradient id="a63000c3-dd8f-4cc9-8499-1b8ed51b476f" y1="32" x2="32" gradientUnits="userSpaceOnUse"><stop offset="0.1" stop-color="#be95ff"/><stop offset="0.9" stop-color="#4589ff"/></linearGradient></defs><g mask="url(#b7873142-d3f8-4a78-9493-852038ded7ab)"><rect width="32" height="32" fill="url(#a63000c3-dd8f-4cc9-8499-1b8ed51b476f)"/></g><polygon points="23 27.18 20.41 24.59 19 26 23 30 30 23 28.59 21.59 23 27.18" fill="#f4f4f4"/></svg>