<?xml version="1.0" encoding="UTF-8"?>
<svg id="uuid-4879c9d1-8b79-40d2-979c-f5b175e94a5c" data-name="Build icon here" xmlns="http://www.w3.org/2000/svg" xmlns:xlink="http://www.w3.org/1999/xlink" viewBox="0 0 32 32">
  <defs>
    <linearGradient id="uuid-dc18eeb2-b820-4ab3-92e7-77903fa52e14" x1="-723.532" y1="437.592" x2="-714.036" y2="437.592" gradientTransform="translate(225.361 -582.937) rotate(-105.447) scale(.714 -.812)" gradientUnits="userSpaceOnUse">
      <stop offset=".15" stop-color="#000"/>
      <stop offset=".8" stop-color="#231f20" stop-opacity="0"/>
    </linearGradient>
    <linearGradient id="uuid-836c53b5-b7fd-4593-9f6b-1227fa6e9f1e" x1="-5041.107" y1="-9098" x2="-5033.107" y2="-9098" gradientTransform="translate(5052.107 9123)" gradientUnits="userSpaceOnUse">
      <stop offset="0" stop-color="#000" stop-opacity="0"/>
      <stop offset=".8" stop-color="#000"/>
    </linearGradient>
    <mask id="uuid-ee6305b5-3c82-4666-bfc0-c92ba659b49a" data-name="mask" x="0" y="0" width="32" height="32" maskUnits="userSpaceOnUse">
      <g id="uuid-b29b52be-33c5-4f62-92f8-06a09ce38c10" data-name="0puf378d7c">
        <path d="M16.991,21.997c0-1.839,1.107-2.865,2.178-3.857,1.379-1.279,2.822-2.619,2.822-6.143,0-4.411-3.589-8-8-8S5.991,7.586,5.991,11.997c0,3.521,1.431,4.863,2.814,6.141,1.075.993,2.186,2.019,2.186,3.859h-2c0-.919-.528-1.449-1.541-2.384-1.46-1.348-3.459-3.216-3.459-7.616C3.991,6.483,8.477,1.997,13.991,1.997s10,4.486,10,10c0,4.4-2.01,6.266-3.465,7.614-1.009.935-1.535,1.466-1.535,2.386h-2Z" fill="#fff"/>
        <path d="M14.536,11.045l-1.806-6.535,11.74-3.244,1.806,6.535-11.74,3.244Z" fill="url(#uuid-dc18eeb2-b820-4ab3-92e7-77903fa52e14)"/>
        <path d="M8.991,23.997h10v2h-10v-2ZM10.991,27.997h6v2h-6v-2Z" fill="#fff"/>
        <path d="M14.991,23l11.088-.01.16-15.496-11.636,3.222.388,12.284Z"/>
        <path d="M11,23h8v4h-8v-4Z" fill="url(#uuid-836c53b5-b7fd-4593-9f6b-1227fa6e9f1e)"/>
      </g>
    </mask>
    <linearGradient id="uuid-3815bf49-59f3-43d2-b76c-1b6275d3aae8" x1="-564" y1="-204" x2="-532" y2="-236" gradientTransform="translate(564 236)" gradientUnits="userSpaceOnUse">
      <stop offset=".1" stop-color="#a56eff"/>
      <stop offset=".9" stop-color="#0f62fe"/>
    </linearGradient>
  </defs>
  <g mask="url(#uuid-ee6305b5-3c82-4666-bfc0-c92ba659b49a)">
    <path d="M0,0h32v32H0V0Z" fill="url(#uuid-3815bf49-59f3-43d2-b76c-1b6275d3aae8)"/>
  </g>
  <path d="M22,7v.01c-.07-.01-.15-.01-.23-.01h.23Z"/>
  <path d="M18,24h7v2h-7v-2ZM20,28h3v2h-3v-2ZM25,22h-2c0-1.056.412-2.049,1.159-2.795l.524-.523c.846-.842,1.32-1.988,1.317-3.182,0-2.481-2.019-4.5-4.5-4.5s-4.5,2.019-4.5,4.5c-.003,1.194.471,2.34,1.318,3.182l.525.524c.744.739,1.16,1.745,1.157,2.793h-2c0-.521-.203-1.011-.571-1.379l-.525-.524c-1.223-1.216-1.909-2.872-1.904-4.597,0-3.584,2.916-6.5,6.5-6.5s6.5,2.916,6.5,6.5c.005,1.725-.681,3.379-1.903,4.596l-.524.523c-.367.365-.573.862-.572,1.38v.002Z" fill="#001d6c"/>
</svg>