<svg id="e8ea5f5a-06a8-4530-87ba-dc00f6ab4620" data-name="Layer 1" xmlns="http://www.w3.org/2000/svg" xmlns:xlink="http://www.w3.org/1999/xlink" viewBox="0 0 32 32"><defs><linearGradient id="bc124c1a-d8b5-446a-926d-ca2ab9310d5d" x1="3238.359" y1="-2648.475" x2="3247.359" y2="-2648.475" gradientTransform="translate(-3217.622 2665.975)" gradientUnits="userSpaceOnUse"><stop offset="0.001" stop-opacity="0"/><stop offset="0.83"/></linearGradient><mask id="f570475a-fce5-4876-93a3-ff87ded3b5f1" x="0" y="0" width="32" height="32" maskUnits="userSpaceOnUse"><rect x="12" y="8" width="8" height="2" fill="#fff"/><path d="M16,28H6V24H8V22H6V17H8V15H6V10H8V8H6V4H24V21h2V4a2,2,0,0,0-2-2H6A2,2,0,0,0,4,4V8H2v2H4v5H2v2H4v5H2v2H4v4a2,2,0,0,0,2,2H16Z" fill="#fff"/><rect x="12" y="13" width="8" height="2" fill="#fff"/><rect x="12" y="18" width="8" height="2" fill="#fff"/><g id="aabddc8c-5071-4f3f-af19-ee9871d1fe03" data-name="Gradients (black)"><rect x="20.737" y="15.737" width="9" height="3.525" transform="translate(42.737 -7.737) rotate(90)" fill="url(#bc124c1a-d8b5-446a-926d-ca2ab9310d5d)"/></g></mask><linearGradient id="b1336f88-d8a6-42de-b257-bc5d74388048" y1="32" x2="32" gradientUnits="userSpaceOnUse"><stop offset="0.1" stop-color="#a56eff"/><stop offset="0.9" stop-color="#0f62fe"/></linearGradient></defs><g mask="url(#f570475a-fce5-4876-93a3-ff87ded3b5f1)"><rect width="32" height="32" fill="url(#b1336f88-d8a6-42de-b257-bc5d74388048)"/></g><polygon points="23 27.18 20.41 24.59 19 26 23 30 30 23 28.59 21.59 23 27.18" fill="#001d6c"/></svg>