<?xml version="1.0" encoding="utf-8"?>
<!-- Generator: Adobe Illustrator 24.2.1, SVG Export Plug-In . SVG Version: 6.00 Build 0)  -->
<svg version="1.1" id="Cloud-KeyProtect_light_theme_icon"
	 xmlns="http://www.w3.org/2000/svg" xmlns:xlink="http://www.w3.org/1999/xlink" x="0px" y="0px" viewBox="0 0 32 32"
	 style="enable-background:new 0 0 32 32;" xml:space="preserve">
<style type="text/css">
	.st0{fill:#FFFFFF;filter:url(#Adobe_OpacityMaskFilter);}
	.st1{fill:url(#SVGID_1_);}
	.st2{mask:url(#b_1_);}
	.st3{fill:url(#SVGID_2_);}
	.st4{fill:#001D6C;}
</style>
<defs>
	<filter id="Adobe_OpacityMaskFilter" filterUnits="userSpaceOnUse" x="0" y="0" width="32" height="32">
		<feColorMatrix  type="matrix" values="1 0 0 0 0  0 1 0 0 0  0 0 1 0 0  0 0 0 1 0"/>
	</filter>
</defs>
<mask maskUnits="userSpaceOnUse" x="0" y="0" width="32" height="32" id="b_1_">
	<path class="st0" d="M24,4v14.3c0,3.2-1.7,6.2-4.5,7.8L15,28.7l-4.5-2.6C7.7,24.5,6,21.5,6,18.3V4H24 M24,2H6C4.9,2,4,2.9,4,4v14.3
		c0,3.9,2.1,7.6,5.5,9.5L15,31l5.5-3.2c3.4-2,5.5-5.6,5.5-9.5V4C26,2.9,25.1,2,24,2z"/>
	
		<linearGradient id="SVGID_1_" gradientUnits="userSpaceOnUse" x1="11.75" y1="6.25" x2="33.75" y2="28.25" gradientTransform="matrix(1 0 0 -1 0 34)">
		<stop  offset="0.13" style="stop-color:#000000;stop-opacity:0"/>
		<stop  offset="0.38" style="stop-color:#000000"/>
	</linearGradient>
	<polygon class="st1" points="15,31 29,31 29,1 18,1 18,7 15,7 	"/>
</mask>
<g class="st2">
	
		<linearGradient id="SVGID_2_" gradientUnits="userSpaceOnUse" x1="-1.818989e-12" y1="2" x2="32" y2="34" gradientTransform="matrix(1 0 0 -1 0 34)">
		<stop  offset="0.1" style="stop-color:#A56EFF"/>
		<stop  offset="0.9" style="stop-color:#0F62FE"/>
	</linearGradient>
	<rect class="st3" width="32" height="32"/>
</g>
<path class="st4" d="M26,14.1V2h-5v2h3v2h-3v2h3v6.1c-2.1,0.6-3.4,2.7-2.9,4.9c0.6,2.1,2.7,3.4,4.9,2.9c2.1-0.6,3.4-2.7,2.9-4.9
	C28.5,15.6,27.4,14.5,26,14.1z M25,20c-1.1,0-2-0.9-2-2s0.9-2,2-2s2,0.9,2,2S26.1,20,25,20z"/>
</svg>
