<svg xmlns="http://www.w3.org/2000/svg" viewBox="0 0 142.4 108.56"><defs><style>.cls-1{fill:#5c0f8b;}.cls-2{fill:#5d2e89;}.cls-2,.cls-3{fill-rule:evenodd;}.cls-3{fill:#9dc43b;}</style></defs><g id="Layer_2" data-name="Layer 2"><g id="komprise_logo_stack"><path class="cls-1" d="M0,70.22a3.35,3.35,0,0,1,3.35,3.35v14h.86a1.56,1.56,0,0,0,.62-.11A1.52,1.52,0,0,0,5.37,87l6-6.42a3.44,3.44,0,0,1,.56-.49,1.39,1.39,0,0,1,.75-.19h3l-7,7.44a5.68,5.68,0,0,1-.51.56,2.67,2.67,0,0,1-.57.43,3.81,3.81,0,0,1,.61.52,4.42,4.42,0,0,1,.51.66l7.41,9.37h-3a1.39,1.39,0,0,1-.7-.16,1.8,1.8,0,0,1-.56-.49L5.69,90.44a1.44,1.44,0,0,0-.56-.51,2,2,0,0,0-.84-.13H3.35v9.07H0Z"/><path class="cls-1" d="M26.06,79.59a9.6,9.6,0,0,1,3.75.7,7.85,7.85,0,0,1,2.85,2,8.73,8.73,0,0,1,1.79,3.09,13.27,13.27,0,0,1,0,8.08,8.72,8.72,0,0,1-1.79,3.07,7.85,7.85,0,0,1-2.85,2,9.78,9.78,0,0,1-3.75.68,9.8,9.8,0,0,1-3.76-.68,8,8,0,0,1-2.85-2,8.78,8.78,0,0,1-1.82-3.07,13.27,13.27,0,0,1,0-8.08,8.78,8.78,0,0,1,1.82-3.09,8,8,0,0,1,2.85-2,9.62,9.62,0,0,1,3.76-.7m0,16.94a4.87,4.87,0,0,0,4.19-1.88,8.77,8.77,0,0,0,1.39-5.26,8.81,8.81,0,0,0-1.39-5.28,4.85,4.85,0,0,0-4.19-1.89,5.88,5.88,0,0,0-2.47.48,4.64,4.64,0,0,0-1.75,1.41,6.14,6.14,0,0,0-1.05,2.26,13.2,13.2,0,0,0,0,6,6.12,6.12,0,0,0,1.05,2.24A4.59,4.59,0,0,0,23.59,96a5.73,5.73,0,0,0,2.47.49"/><path class="cls-1" d="M38.45,98.87v-19h2a.84.84,0,0,1,.9.7l.25,1.94a9.54,9.54,0,0,1,2.35-2.11,5.49,5.49,0,0,1,3-.83,4.53,4.53,0,0,1,3.12,1.07,6,6,0,0,1,1.71,2.89,5.76,5.76,0,0,1,1-1.78,6,6,0,0,1,3.16-2,7.66,7.66,0,0,1,1.84-.23,7,7,0,0,1,2.67.48,5.41,5.41,0,0,1,2,1.4,6.27,6.27,0,0,1,1.24,2.25,10,10,0,0,1,.43,3.07V98.87H60.82V86.79a5.14,5.14,0,0,0-1-3.38A3.49,3.49,0,0,0,57,82.25a4.28,4.28,0,0,0-1.56.29,3.69,3.69,0,0,0-1.3.86,3.74,3.74,0,0,0-.89,1.41,5.48,5.48,0,0,0-.33,2V98.87H49.61V86.79a5.32,5.32,0,0,0-.92-3.41A3.25,3.25,0,0,0,46,82.25a4.25,4.25,0,0,0-2.29.67,7.31,7.31,0,0,0-1.94,1.81V98.87Z"/><path class="cls-1" d="M68.44,105.23V79.89h2a.84.84,0,0,1,.9.69l.28,2.25a10.27,10.27,0,0,1,2.78-2.38A7.21,7.21,0,0,1,78,79.56a6.78,6.78,0,0,1,3,.62A6.06,6.06,0,0,1,83.21,82a9,9,0,0,1,1.44,3,15.53,15.53,0,0,1,.51,4.18,13.29,13.29,0,0,1-.56,3.91A9.8,9.8,0,0,1,83,96.29a7.35,7.35,0,0,1-2.58,2.08,7.55,7.55,0,0,1-3.43.76,7,7,0,0,1-3-.58,6.6,6.6,0,0,1-2.2-1.65v11.66a3.33,3.33,0,0,1-3.33-3.33m8.44-23A5.34,5.34,0,0,0,74,83a8.31,8.31,0,0,0-2.26,2.12V94.3a5.31,5.31,0,0,0,2,1.74,5.74,5.74,0,0,0,2.45.51,4.78,4.78,0,0,0,4.06-1.89,8.84,8.84,0,0,0,1.42-5.4,13.42,13.42,0,0,0-.33-3.19,6.16,6.16,0,0,0-.94-2.18,3.63,3.63,0,0,0-1.52-1.24,4.92,4.92,0,0,0-2-.4"/><path class="cls-1" d="M88.36,98.87v-19h1.91a1.05,1.05,0,0,1,.75.21,1.31,1.31,0,0,1,.28.71l.22,3a8.65,8.65,0,0,1,2.41-3.1,5.31,5.31,0,0,1,3.36-1.11,4.83,4.83,0,0,1,2.6.67l-.43,2.49a.57.57,0,0,1-.58.47,2.86,2.86,0,0,1-.81-.18,5,5,0,0,0-1.51-.18,4.27,4.27,0,0,0-2.91,1,7.49,7.49,0,0,0-2,2.94V98.87Z"/><path class="cls-1" d="M107.15,73.94a2,2,0,0,1-.2.9,2.41,2.41,0,0,1-.52.75,2.51,2.51,0,0,1-.76.52,2.32,2.32,0,0,1-.91.19,2.28,2.28,0,0,1-.91-.19,2.56,2.56,0,0,1-1.27-1.27,2.26,2.26,0,0,1-.18-.9,2.41,2.41,0,0,1,.18-.93,2.55,2.55,0,0,1,.52-.77,2.59,2.59,0,0,1,.75-.52,2.27,2.27,0,0,1,.91-.18,2.31,2.31,0,0,1,.91.18,2.51,2.51,0,0,1,.76.52A2.38,2.38,0,0,1,107,73a2.1,2.1,0,0,1,.2.93m-.75,24.93h-3.33v-19h3.33Z"/><path class="cls-1" d="M122.39,83a.73.73,0,0,1-.69.41,1.38,1.38,0,0,1-.64-.2c-.24-.14-.53-.29-.87-.46A7.39,7.39,0,0,0,119,82.3a5.93,5.93,0,0,0-1.68-.21,5.12,5.12,0,0,0-1.52.21,3.57,3.57,0,0,0-1.15.59,2.61,2.61,0,0,0-.73.87,2.32,2.32,0,0,0-.25,1.08,1.81,1.81,0,0,0,.42,1.22,3.77,3.77,0,0,0,1.11.84,9.63,9.63,0,0,0,1.58.63c.58.18,1.19.37,1.8.58s1.22.43,1.81.68a6.48,6.48,0,0,1,1.57.94,4,4,0,0,1,1.54,3.33,6.23,6.23,0,0,1-.47,2.43,5.3,5.3,0,0,1-1.39,1.93,6.7,6.7,0,0,1-2.24,1.28,9,9,0,0,1-3.07.47,9.62,9.62,0,0,1-3.6-.64A9.44,9.44,0,0,1,110,96.87l.79-1.28a1.13,1.13,0,0,1,.35-.37,1,1,0,0,1,.55-.13,1.22,1.22,0,0,1,.71.26c.25.17.55.37.9.58a6.91,6.91,0,0,0,1.3.58,5.69,5.69,0,0,0,1.9.26,5.2,5.2,0,0,0,1.7-.25,3.76,3.76,0,0,0,1.22-.68,2.81,2.81,0,0,0,.72-1,3.17,3.17,0,0,0,.23-1.2,2,2,0,0,0-.42-1.3,3.69,3.69,0,0,0-1.11-.88,10.31,10.31,0,0,0-1.59-.64l-1.81-.57c-.62-.2-1.23-.43-1.82-.68a6.44,6.44,0,0,1-1.58-1,4.27,4.27,0,0,1-1.11-1.43,4.66,4.66,0,0,1-.42-2.07,5.07,5.07,0,0,1,.45-2.09,5,5,0,0,1,1.31-1.76A6.38,6.38,0,0,1,114.34,80a8.46,8.46,0,0,1,2.86-.45,9.11,9.11,0,0,1,3.36.59,8.19,8.19,0,0,1,2.58,1.62Z"/><path class="cls-1" d="M134.54,79.59a8.47,8.47,0,0,1,3.14.57,7.23,7.23,0,0,1,2.49,1.65,7.52,7.52,0,0,1,1.64,2.66,10.16,10.16,0,0,1,.59,3.61,2.23,2.23,0,0,1-.17,1,.7.7,0,0,1-.63.26H129a10.33,10.33,0,0,0,.49,3.13,6.41,6.41,0,0,0,1.23,2.22,5,5,0,0,0,1.87,1.33,6.54,6.54,0,0,0,2.44.44,7.29,7.29,0,0,0,2.16-.29,9,9,0,0,0,1.56-.63,12.4,12.4,0,0,0,1.1-.62,1.37,1.37,0,0,1,.76-.29.73.73,0,0,1,.63.31l.94,1.22a6.18,6.18,0,0,1-1.48,1.3,9.55,9.55,0,0,1-1.84.91,10.92,10.92,0,0,1-2,.53,12.24,12.24,0,0,1-2.07.18,9.76,9.76,0,0,1-3.63-.66,8,8,0,0,1-2.86-2,8.9,8.9,0,0,1-1.88-3.17,13,13,0,0,1-.68-4.35,11.19,11.19,0,0,1,.61-3.71,8.81,8.81,0,0,1,1.75-3,8.14,8.14,0,0,1,2.79-2,9,9,0,0,1,3.71-.73m.07,2.46a5.12,5.12,0,0,0-3.8,1.39,6.62,6.62,0,0,0-1.72,3.87h10.32a6.78,6.78,0,0,0-.32-2.12,4.78,4.78,0,0,0-.94-1.67,4.16,4.16,0,0,0-1.51-1.09,5.17,5.17,0,0,0-2-.38"/><path class="cls-2" d="M45.33,0H59.9c.8.86,1.79,2.7,1.23,6.41-.88,5.85-13.48,18.89-16.9,22.76L63.48,60.1H45.33A4.1,4.1,0,0,1,41.24,56V4.1A4.1,4.1,0,0,1,45.33,0Z"/><path class="cls-3" d="M83.05,0H97.37a4.1,4.1,0,0,1,4.09,4.1V56a4.1,4.1,0,0,1-4.09,4.09h-5c-7.09-1.58-10-4.8-11.1-6.29C80,52.15,56.27,17,56.27,17A69.87,69.87,0,0,1,83.05,0ZM76.77,11.27a8.9,8.9,0,1,0,8.89,8.89,8.89,8.89,0,0,0-8.89-8.89Zm6.51,21.21a3.37,3.37,0,1,0,3.37,3.37,3.37,3.37,0,0,0-3.37-3.37Zm9-28.5a5,5,0,1,0,5,5A5,5,0,0,0,92.29,4Z"/></g></g></svg>