<svg id="WatsonLanguageTranslator" xmlns="http://www.w3.org/2000/svg" xmlns:xlink="http://www.w3.org/1999/xlink" viewBox="0 0 32 32"><defs><linearGradient id="u2ivwqyhia" x1="-210" y1="-80.5" x2="-202" y2="-80.5" gradientTransform="translate(224 86)" gradientUnits="userSpaceOnUse"><stop offset="0" stop-opacity="0"/><stop offset=".8"/></linearGradient><linearGradient id="pyrmpjwa3b" x1="11" y1="26.5" x2="19" y2="26.5" xlink:href="#u2ivwqyhia"/><linearGradient id="zyzyma3wbd" data-name="New Gradient Swatch 1" x1="0" y1="32" x2="32" y2="0" gradientUnits="userSpaceOnUse"><stop offset=".1" stop-color="#a56eff"/><stop offset=".9" stop-color="#0f62fe"/></linearGradient><mask id="6iqjrwb5yc" width="32" height="32" maskUnits="userSpaceOnUse"><path d="M28 16h-2v-5c0-2.757-2.243-5-5-5h-6V4h6c3.859 0 7 3.141 7 7v5z" style="fill:#fff"/><path transform="rotate(180 18 5.5)" style="fill:url(#u2ivwqyhia)" d="M14 3h8v5h-8z"/><path d="M18 28h-5c-3.859 0-7-3.141-7-7v-4h2v4c0 2.757 2.243 5 5 5h5v2z" style="fill:#fff"/><path style="fill:url(#pyrmpjwa3b)" d="M11 24h8v5h-8z"/></mask></defs><g style="mask:url(#6iqjrwb5yc)"><path style="fill:url(#zyzyma3wbd)" d="M0 0h32v32H0z"/></g><path d="M14 5V3H9V1H7v2H2v2h8.215C10 5.941 9.44 7.463 7.999 8.977A9.29 9.29 0 0 1 6.552 7H4.333a10.846 10.846 0 0 0 2.145 3.297c-.924.669-2.061 1.299-3.479 1.83L3.701 14c1.775-.666 3.169-1.475 4.291-2.336 1.121.862 2.527 1.67 4.305 2.336l.702-1.873c-1.416-.531-2.555-1.16-3.477-1.827 1.916-2.039 2.53-4.129 2.729-5.3h1.748zM28 30h2.166l-4.583-11h-2.167l-4.583 11h2.166l.833-2h5.333l.833 2zm-5.333-4 1.833-4.4 1.833 4.4h-3.667z" style="fill:#001d6c"/></svg>