<?xml version="1.0" encoding="utf-8"?>
<!-- Generator: Adobe Illustrator 24.0.0, SVG Export Plug-In . SVG Version: 6.00 Build 0)  -->
<svg version="1.1" id="Firewall" xmlns="http://www.w3.org/2000/svg" xmlns:xlink="http://www.w3.org/1999/xlink"
	 x="0px" y="0px" viewBox="0 0 32 32" style="enable-background:new 0 0 32 32;" xml:space="preserve">
<style type="text/css">
	.st0{fill:url(#Blocks_1_);}
	.st1{fill:url(#Fade_Bottom_1_);}
	.st2{fill:url(#Fade_Top_1_);}
	.st3{fill:#00196E;}
</style>
<linearGradient id="Blocks_1_" gradientUnits="userSpaceOnUse" x1="-0.25" y1="24.75" x2="23.25" y2="1.25">
	<stop  offset="0" style="stop-color:#883FFA"/>
	<stop  offset="1" style="stop-color:#EC5388"/>
</linearGradient>
<path id="Blocks" class="st0" d="M24,9H2V2h22V9z M4,7h18V4H4V7z M20,16H8v-3h18v-2H6v7h14V16z M18,25H4v-3h14v-2H2v7h16V25z"/>
<linearGradient id="Fade_Bottom_1_" gradientUnits="userSpaceOnUse" x1="-3886.3271" y1="-2599.1729" x2="-3886.3271" y2="-2591.1729" gradientTransform="matrix(0 -1 1 0 2610.1729 -3862.8271)">
	<stop  offset="0.1" style="stop-color:#FFFFFF;stop-opacity:0"/>
	<stop  offset="0.82" style="stop-color:#FFFFFF"/>
</linearGradient>
<polygon id="Fade_Bottom" class="st1" points="19,19 19,28 11,28 11,19 "/>
<linearGradient id="Fade_Top_1_" gradientUnits="userSpaceOnUse" x1="-3879.8271" y1="-2597.1729" x2="-3879.8271" y2="-2589.1729" gradientTransform="matrix(0 -1 1 0 2610.1729 -3862.8271)">
	<stop  offset="0.1" style="stop-color:#FFFFFF;stop-opacity:0"/>
	<stop  offset="0.82" style="stop-color:#FFFFFF"/>
</linearGradient>
<polygon id="Fade_Top" class="st2" points="21,15 21,19 13,19 13,15 "/>
<path id="Lock" class="st3" d="M28.5,21.1v-2.6c0-1.9-1.6-3.5-3.5-3.5s-3.5,1.6-3.5,3.5v2.6c-0.9,0.2-1.5,1-1.5,1.9v5
	c0,1.1,0.9,2,2,2h6c1.1,0,2-0.9,2-2v-5C30,22.1,29.4,21.3,28.5,21.1z M25,17c0.8,0,1.5,0.7,1.5,1.5V21h-3v-2.5
	C23.5,17.7,24.2,17,25,17z M28,28h-6v-5l0,0h6V28z"/>
</svg>
