<svg version="1.1" id="Professional_Services_Icon" xmlns="http://www.w3.org/2000/svg" x="0" y="0" width="32" height="32" xml:space="preserve">
  <style>
    .st1{fill:#fff}.st4{fill:#001d6c}
  </style>
  <defs>
    <filter id="Adobe_OpacityMaskFilter" filterUnits="userSpaceOnUse" x="0" y="0" width="32" height="32">
      <feColorMatrix values="1 0 0 0 0 0 1 0 0 0 0 0 1 0 0 0 0 0 1 0"/>
    </filter>
  </defs>
  <mask maskUnits="userSpaceOnUse" x="0" y="0" width="32" height="32" id="Desk_person_1_">
    <g filter="url(#Adobe_OpacityMaskFilter)">
      <path class="st1" d="M4 5c0-2.2 1.8-4 4-4s4 1.8 4 4-1.8 4-4 4-4-1.8-4-4zm2 0c0 1.1.9 2 2 2s2-.9 2-2-.9-2-2-2-2 .9-2 2zM4 17v-4c0-.6.4-1 1-1h6c.6 0 1 .4 1 1v4h2v-4c0-1.7-1.3-3-3-3H5c-1.7 0-3 1.3-3 3v4h2z"/>
      <linearGradient id="SVGID_1_" gradientUnits="userSpaceOnUse" x1="-3412.5" y1="81.8501" x2="-3406.5" y2="81.8501" gradientTransform="matrix(0 -1 1 0 -73.3501 -3394.5)">
        <stop offset=".2"/>
        <stop offset="1" stop-opacity="0"/>
      </linearGradient>
      <path fill="url(#SVGID_1_)" d="M16 12v6H1v-6z"/>
      <path class="st1" d="M0 17h16v2H0z"/>
    </g>
  </mask>
  <linearGradient id="Desk_person_2_" gradientUnits="userSpaceOnUse" x1="0" y1="32" x2="32" y2="0">
    <stop offset=".1" stop-color="#08bdba"/>
    <stop offset=".9" stop-color="#0f62fe"/>
  </linearGradient>
  <path id="Desk_person" mask="url(#Desk_person_1_)" fill="url(#Desk_person_2_)" d="M0 0h32v32H0z"/>
  <path id="Person1b" class="st4" d="M20 5c0-2.2 1.8-4 4-4s4 1.8 4 4-1.8 4-4 4-4-1.8-4-4zm2 0c0 1.1.9 2 2 2s2-.9 2-2-.9-2-2-2-2 .9-2 2z"/>
  <path id="Person_1a" class="st4" d="M27 10h-6c-1.7 0-3 1.3-3 3v6c0 1.1.9 2 2 2v7c0 1.1.9 2 2 2h4c1.1 0 2-.9 2-2v-7c1.1 0 2-.9 2-2v-6c0-1.7-1.3-3-3-3zm1 9h-2v9h-4v-9h-2v-6c0-.6.4-1 1-1l5.8-.3c.6 0 1.2.8 1.2 1.3v6z"/>
</svg>
