<?xml version="1.0" encoding="utf-8"?>
<!-- Generator: Adobe Illustrator 27.1.1, SVG Export Plug-In . SVG Version: 6.00 Build 0)  -->
<svg version="1.1" id="Layer_1" xmlns="http://www.w3.org/2000/svg" xmlns:xlink="http://www.w3.org/1999/xlink" x="0px" y="0px"
	 viewBox="0 0 32 32" style="enable-background:new 0 0 32 32;" xml:space="preserve">
<style type="text/css">
	.st0{fill:url(#SVGID_1_);}
	.st1{fill:url(#SVGID_00000015321107810662745350000011317541765351434639_);}
</style>
<g>
	<linearGradient id="SVGID_1_" gradientUnits="userSpaceOnUse" x1="23.1998" y1="6.8725" x2="13.726" y2="30.5852">
		<stop  offset="0" style="stop-color:#28A9F7"/>
		<stop  offset="0.3036" style="stop-color:#2FA0F3"/>
		<stop  offset="0.8044" style="stop-color:#4287E7"/>
		<stop  offset="1" style="stop-color:#4B7BE2"/>
	</linearGradient>
	<path class="st0" d="M12.99,14.02c0.02,0.02,0.05,0.03,0.07,0.04c0.25,0.09,0.5,0.2,0.73,0.32c0.49,0.25,0.94,0.55,1.36,0.91
		c0.03,0.03,0.06,0.05,0.09,0.08c0.01,0.01,0.02,0.01,0.03,0.02c0.01,0,0.01,0,0.01,0c0.1-0.07,0.1-0.07,0.1-0.18
		c0-0.06,0-0.13,0-0.19c-0.01-0.2,0.15-0.43,0.42-0.45c0.14-0.01,0.27,0,0.41,0.03c0.16,0.03,0.32,0.13,0.36,0.38
		c0.01,0.07,0.02,0.14,0.02,0.22c0,0.1,0,0.21,0,0.31c-0.01,0.47-0.01,0.94-0.02,1.4c0,0.24-0.01,0.48-0.01,0.71
		c0,0.11,0.01,0.21,0.01,0.32c0,0.26-0.17,0.53-0.5,0.59c-0.02,0-0.03,0-0.05,0c-0.11,0-0.21,0-0.32,0c-0.12,0-0.24-0.01-0.36-0.01
		c-0.44,0-0.87,0-1.31,0c-0.31,0-0.62-0.01-0.92-0.02c-0.13,0-0.25-0.05-0.34-0.14c-0.07-0.07-0.11-0.14-0.13-0.24
		c-0.02-0.09-0.04-0.19-0.03-0.28c0-0.11,0.03-0.22,0.08-0.32c0.08-0.16,0.22-0.24,0.39-0.25c0.08,0,0.15,0,0.23,0
		c0.03,0,0.05-0.01,0.07-0.03c0.05-0.05,0.06-0.06,0-0.11c-0.39-0.32-0.82-0.56-1.3-0.71c-0.23-0.08-0.47-0.13-0.72-0.16
		c-0.3-0.05-0.6-0.06-0.9-0.04c-0.25,0.01-0.5,0.05-0.75,0.12c-0.46,0.12-0.88,0.32-1.27,0.58c-0.28,0.19-0.54,0.4-0.77,0.65
		c-0.48,0.52-0.8,1.13-0.96,1.82c-0.03,0.14-0.06,0.29-0.08,0.44C6.62,20,6.6,20.2,6.61,20.4c0,0.13,0.01,0.26,0.02,0.39
		c0.04,0.36,0.12,0.71,0.24,1.05c0.21,0.56,0.54,1.06,0.97,1.48c0.54,0.52,1.17,0.87,1.9,1.06c0.19,0.05,0.38,0.08,0.57,0.11
		c0.1,0.01,0.2,0.02,0.3,0.02c0.1,0,0.2,0,0.3,0c0.15,0,0.3-0.02,0.45-0.04c0.21-0.03,0.42-0.08,0.62-0.14
		c0.31-0.1,0.61-0.22,0.88-0.41c0.11-0.07,0.21-0.14,0.31-0.22c0.18-0.12,0.37-0.25,0.55-0.37c1.17-0.78,2.35-1.57,3.52-2.35
		c1.42-0.96,2.85-1.92,4.27-2.88c0.42-0.28,0.84-0.57,1.26-0.85c0.44-0.29,0.9-0.52,1.41-0.67c0.24-0.07,0.47-0.13,0.72-0.17
		c0.17-0.03,0.35-0.05,0.52-0.06c0.12-0.01,0.25-0.01,0.37-0.01c0.16,0,0.32,0.01,0.48,0.03c0.16,0.01,0.32,0.04,0.47,0.07
		c0.41,0.07,0.8,0.19,1.17,0.36c0.67,0.29,1.26,0.71,1.76,1.25c0.58,0.63,1,1.35,1.24,2.18c0.07,0.23,0.12,0.47,0.15,0.7
		c0.02,0.13,0.03,0.25,0.05,0.38c0.02,0.15,0.01,0.31,0.01,0.46c0,0.16-0.01,0.33-0.03,0.49c-0.03,0.26-0.07,0.51-0.13,0.76
		c-0.2,0.81-0.57,1.54-1.11,2.18c-0.5,0.59-1.09,1.04-1.79,1.37c-0.42,0.2-0.85,0.34-1.31,0.42c-0.15,0.03-0.29,0.05-0.44,0.06
		c-0.07,0.01-0.14,0.02-0.21,0.03c-0.03,0-0.07,0-0.11,0c-0.13,0-0.26,0-0.39,0c-0.15,0-0.3-0.01-0.44-0.03
		c-0.09-0.01-0.18-0.01-0.27-0.02c-0.12-0.01-0.24-0.03-0.35-0.05c-0.2-0.03-0.4-0.08-0.6-0.14c-0.41-0.13-0.78-0.34-1.12-0.6
		c-0.08-0.06-0.15-0.12-0.23-0.18c-0.02-0.02-0.04-0.04-0.07-0.05c-0.01,0-0.01,0-0.02,0.01c-0.03,0.03-0.05,0.06-0.08,0.1
		c0.02,0.08,0.04,0.17,0.06,0.25c0.01,0.04,0.02,0.07,0.02,0.11c0.01,0.21-0.11,0.4-0.31,0.46c-0.1,0.03-0.2,0.06-0.31,0.06
		c-0.03,0-0.06,0-0.09,0.01c-0.19,0.02-0.34-0.06-0.43-0.23c-0.04-0.07-0.06-0.15-0.08-0.23c-0.07-0.32-0.14-0.65-0.21-0.97
		c-0.1-0.47-0.2-0.94-0.31-1.42c-0.03-0.12-0.06-0.23-0.08-0.35c-0.07-0.3,0.12-0.63,0.46-0.7c0.29-0.06,0.57-0.12,0.86-0.18
		c0.33-0.07,0.66-0.15,1-0.22c0.31-0.07,0.63-0.14,0.94-0.2c0.29-0.06,0.48,0.11,0.56,0.3c0.03,0.08,0.07,0.16,0.08,0.25
		c0.02,0.12,0.01,0.24-0.03,0.36c-0.05,0.12-0.13,0.21-0.25,0.26c-0.04,0.02-0.09,0.03-0.13,0.04c-0.04,0.01-0.09,0.02-0.13,0.03
		c-0.04,0.01-0.07,0.03-0.09,0.07c-0.01,0.01-0.01,0.02-0.02,0.04c0.02,0.02,0.03,0.03,0.04,0.05c0.29,0.24,0.61,0.41,0.97,0.52
		c0.15,0.04,0.3,0.08,0.45,0.09c0.2,0.02,0.39,0.03,0.59,0.01c0.23-0.02,0.45-0.07,0.66-0.14c0.66-0.23,1.16-0.64,1.52-1.23
		c0.18-0.29,0.29-0.61,0.35-0.94c0.02-0.12,0.03-0.25,0.04-0.38c0.01-0.12,0-0.24-0.01-0.36c-0.02-0.22-0.06-0.44-0.13-0.65
		c-0.24-0.69-0.68-1.22-1.31-1.58c-0.28-0.16-0.59-0.26-0.9-0.32c-0.21-0.04-0.43-0.05-0.65-0.03c-0.5,0.04-0.97,0.19-1.39,0.47
		c-0.48,0.32-0.95,0.64-1.43,0.97c-0.77,0.53-1.55,1.07-2.33,1.59c-1.24,0.83-2.49,1.67-3.73,2.5c-0.69,0.46-1.38,0.93-2.07,1.39
		c-0.28,0.19-0.57,0.37-0.88,0.52c-0.53,0.26-1.08,0.45-1.65,0.56c-0.19,0.04-0.37,0.07-0.56,0.09c-0.3,0.04-0.61,0.05-0.91,0.04
		c-0.17,0-0.33-0.01-0.5-0.03c-0.22-0.02-0.43-0.05-0.65-0.1c-0.46-0.09-0.91-0.23-1.34-0.41c-0.8-0.34-1.5-0.82-2.11-1.43
		c-0.42-0.42-0.77-0.88-1.06-1.4c-0.23-0.4-0.42-0.83-0.57-1.27c-0.09-0.29-0.16-0.58-0.22-0.88c-0.02-0.14-0.04-0.27-0.05-0.41
		c-0.02-0.14-0.03-0.27-0.04-0.41c0-0.03,0-0.06,0-0.1c0-0.15,0-0.29,0-0.44c0-0.14,0.01-0.27,0.03-0.41
		c0.01-0.1,0.02-0.21,0.03-0.31c0.02-0.15,0.04-0.3,0.07-0.45c0.09-0.44,0.22-0.86,0.39-1.27c0.16-0.38,0.36-0.74,0.59-1.08
		c0.6-0.91,1.37-1.62,2.32-2.15c0.54-0.3,1.11-0.52,1.72-0.66c0.2-0.05,0.41-0.09,0.61-0.12c0.12-0.02,0.25-0.03,0.37-0.04
		c0.05,0,0.09-0.01,0.14-0.01c0.02,0,0.04-0.01,0.04-0.03c0.01-0.03,0.03-0.06,0.04-0.1c0.2-0.52,0.45-1.02,0.76-1.48
		c0.52-0.78,1.17-1.43,1.94-1.95c0.51-0.35,1.06-0.63,1.64-0.85C15.13,9.11,15.51,9,15.9,8.93c0.17-0.03,0.35-0.06,0.52-0.08
		c0.16-0.02,0.31-0.03,0.47-0.04c0.15-0.01,0.31-0.02,0.46-0.01c0.17,0.01,0.33,0.02,0.5,0.03c0.13,0.01,0.26,0.02,0.39,0.04
		c0.19,0.03,0.38,0.06,0.57,0.1c0.46,0.1,0.9,0.24,1.33,0.42c0.62,0.26,1.2,0.6,1.72,1.02c0.75,0.6,1.37,1.32,1.84,2.16
		c0.07,0.12,0.11,0.25,0.13,0.38c0.04,0.24,0,0.47-0.1,0.69c-0.1,0.21-0.24,0.39-0.43,0.53c-0.18,0.13-0.38,0.2-0.6,0.22
		c-0.52,0.06-0.96-0.21-1.18-0.55c-0.05-0.07-0.09-0.14-0.14-0.21c-0.24-0.38-0.52-0.73-0.85-1.04c-0.43-0.4-0.92-0.71-1.47-0.91
		c-0.32-0.12-0.65-0.2-0.99-0.26c-0.37-0.06-0.74-0.08-1.11-0.06c-0.35,0.02-0.7,0.08-1.03,0.18c-0.8,0.24-1.5,0.65-2.08,1.25
		c-0.33,0.34-0.6,0.72-0.82,1.14C13,13.96,12.98,13.98,12.99,14.02z"/>
	
		<linearGradient id="SVGID_00000073710440781159097760000012653071270133068673_" gradientUnits="userSpaceOnUse" x1="14.4948" y1="3.3946" x2="5.0209" y2="27.1073">
		<stop  offset="0" style="stop-color:#28A9F7"/>
		<stop  offset="1" style="stop-color:#4B7BE2"/>
	</linearGradient>
	<path style="fill:url(#SVGID_00000073710440781159097760000012653071270133068673_);" d="M0.87,18.29
		c0.01-0.19,0.01-0.37,0.02-0.55c0.01-0.15,0.03-0.3,0.04-0.45c0.03-0.3,0.08-0.59,0.15-0.88c0.16-0.72,0.42-1.39,0.77-2.04
		c0.25-0.45,0.53-0.89,0.85-1.29c0.69-0.88,1.51-1.61,2.49-2.16c0.56-0.32,1.15-0.58,1.77-0.77c0.3-0.1,0.6-0.18,0.91-0.25
		c0.11-0.03,0.09,0,0.15-0.11c0.36-0.72,0.81-1.37,1.34-1.97c0.68-0.75,1.47-1.37,2.37-1.85c0.7-0.38,1.44-0.65,2.21-0.83
		c0.22-0.05,0.44-0.09,0.66-0.12c0.16-0.02,0.32-0.04,0.47-0.06c0.1-0.01,0.2-0.01,0.3-0.02c0.13-0.01,0.25-0.01,0.38-0.01
		c0.21,0,0.43,0.01,0.64,0.03c0.09,0.01,0.19,0.01,0.28,0.02c0.1,0.01,0.2,0.02,0.3,0.03c0.18,0.03,0.36,0.06,0.53,0.09
		c0.28,0.05,0.56,0.12,0.83,0.2c0.62,0.18,1.21,0.42,1.78,0.72c0.19,0.1,0.38,0.21,0.57,0.33c0.26,0.16,0.42,0.39,0.48,0.69
		c0.11,0.56-0.23,1.1-0.78,1.23c-0.25,0.06-0.48,0.02-0.7-0.11c-0.08-0.05-0.16-0.1-0.24-0.15c-0.58-0.35-1.2-0.6-1.86-0.77
		c-0.21-0.05-0.43-0.09-0.65-0.12c-0.17-0.02-0.34-0.04-0.51-0.06c-0.12-0.01-0.25-0.02-0.37-0.02c-0.14,0-0.28,0-0.41,0
		c-0.15,0.01-0.3,0.02-0.44,0.03c-0.17,0.01-0.33,0.04-0.5,0.06c-0.32,0.05-0.63,0.13-0.94,0.24c-0.56,0.19-1.09,0.46-1.58,0.79
		c-0.39,0.26-0.75,0.56-1.07,0.9c-0.51,0.53-0.92,1.12-1.24,1.77c-0.08,0.17-0.16,0.34-0.23,0.51c-0.11,0.27-0.31,0.44-0.59,0.5
		c-0.08,0.02-0.17,0.03-0.26,0.04c-0.22,0.03-0.43,0.07-0.64,0.12c-0.41,0.1-0.8,0.23-1.18,0.4c-0.28,0.13-0.56,0.27-0.82,0.43
		c-0.45,0.27-0.86,0.58-1.24,0.95c-0.39,0.38-0.73,0.81-1,1.28c-0.35,0.59-0.58,1.22-0.75,1.87c-0.04,0.18-0.08,0.36-0.11,0.55
		C3.02,17.62,3.01,17.75,3,17.87c-0.02,0.16-0.02,0.31-0.02,0.47c0,0.16,0,0.33,0.02,0.49c0.01,0.1,0.02,0.2,0.03,0.31
		c0.02,0.29-0.05,0.55-0.25,0.76c-0.16,0.18-0.36,0.28-0.59,0.32c-0.24,0.04-0.47-0.01-0.68-0.12C1.19,19.93,1,19.66,0.94,19.31
		c-0.01-0.08-0.02-0.17-0.03-0.25c-0.01-0.11-0.01-0.22-0.02-0.32C0.88,18.58,0.88,18.43,0.87,18.29z"/>
</g>
</svg>
