<?xml version="1.0" encoding="utf-8"?>
<!-- Generator: Adobe Illustrator 26.0.2, SVG Export Plug-In . SVG Version: 6.00 Build 0)  -->
<svg version="1.1" id="Layer_1" xmlns="http://www.w3.org/2000/svg" xmlns:xlink="http://www.w3.org/1999/xlink" x="0px" y="0px"
	 viewBox="0 0 32 32" style="enable-background:new 0 0 32 32;" xml:space="preserve">
<style type="text/css">
	.st0{fill:#2890CA;}
</style>
<g id="XMLID_00000024686344884248518890000003334924480747163045_">
	<path id="XMLID_00000099643358676806469470000009432764691365942963_" class="st0" d="M32,15c0,0,0,0,0,0.9
		c-1.7-6.7-5.7-9.6-14.9-4.5c-1.3,0.6-3.9,2.5-6.8,0.9C10,12.1,8.3,11,8.7,8.9c0.6-3.7,5.4-6.2,10.5-6.2C25.1,2.7,31.4,6.1,32,15z"
		/>
	<path id="XMLID_00000124851458141839257790000015826010677024074371_" class="st0" d="M24.5,10.1c3.9,0,6.4,2.8,6.9,7
		C31.4,25.8,24.1,32,16,32c-2.5,0-4.9-0.7-6.9-1.9c1.2,0.4,2.5,0.5,3.7,0.5c5.8,0,10.8-3,11.6-7.1c0.4-1.9-0.4-3.7-2.2-4.7
		c-0.9-0.5-1.9-0.7-2.8-0.7c-1.9,0-3.6,0.9-4.5,1.5c-0.1,0.1-0.2,0.1-0.4,0.2C10.7,22,2.9,24.7,0.7,15C0.7,6.2,7.9,0,16,0
		c2.5,0,4.9,0.7,6.9,1.9c-1.2-0.3-2.5-0.5-3.7-0.5c-5.9,0-10.9,3-11.6,7.1c-0.4,1.9,0.4,3.7,2.2,4.7c0.9,0.6,1.9,0.8,2.8,0.8
		c1.9,0,3.6-1,4.4-1.6c0.2,0,0.3-0.1,0.4-0.2C20.2,10.8,22.5,10.1,24.5,10.1z"/>
	<path id="XMLID_00000170243282797360205710000000749727601128503999_" class="st0" d="M21.7,19.8c0.4,0.3,2.1,1.3,1.7,3.5
		c-1.5,8-22.6,10.4-23.4-6.6c0,0,0,0,0-0.6c1.7,6.6,5.7,9.8,15,4.7C16.2,20,18.9,18.2,21.7,19.8z"/>
</g>
</svg>
