<svg width="95" height="23" viewBox="0 0 95 23" fill="none" xmlns="http://www.w3.org/2000/svg">
<path d="M56.0959 13.1957C54.3665 17.9243 53.1965 19.7744 51.8233 20.9566C50.5514 22.0874 49.1275 22.4986 48.1608 22.6014L47.3979 19.4661C47.8556 19.4148 48.4659 19.1577 49.0257 18.8494C49.585 18.5923 50.2465 17.9756 50.6025 17.3589C50.704 17.2048 50.8061 16.9992 50.8061 16.8449C50.8061 16.7419 50.7553 16.5366 50.6535 16.2282L46.1773 5.38338H50.3483L52.1792 11.1913C52.3826 11.9108 52.6372 12.7848 52.7388 13.4013H52.8403C52.9929 12.7848 53.1965 11.8593 53.4001 11.1913L54.8753 5.38338H58.8935L56.0959 13.1957ZM37.3751 17.2643H33.6006V0H37.3751V10.4305H37.4263C37.6809 9.91659 37.9873 9.40291 38.2937 8.99178L40.7418 5.39507H45.3328L40.9459 10.1737L45.9454 17.2643H41.303L38.3442 12.3829L37.3751 13.5648V17.2643ZM89.9588 5.15134C92.6576 5.15134 94.9999 7.41013 94.9999 11.1572C94.9999 15.4692 92.1991 17.5224 89.5008 17.5224C88.0244 17.5224 86.9041 16.9577 86.3436 16.1877H86.2931V22.091H82.5248V9.36057C82.5248 7.82077 82.4738 6.48606 82.423 5.40818H85.7326L85.8856 7.05076H85.9367C86.8528 5.81883 88.2275 5.15134 89.9588 5.15134ZM88.5841 14.6992C90.2132 14.6992 91.1809 13.3645 91.1809 11.3628C91.1809 9.46336 90.3152 8.02585 88.6349 8.02585C87.5657 8.02585 86.649 8.79587 86.3946 9.87375C86.3436 10.0793 86.2931 10.3359 86.2931 10.5412V12.1838C86.2931 12.4406 86.3436 12.6972 86.3946 12.9538C86.649 13.9289 87.5149 14.6992 88.5841 14.6992ZM80.456 10.2418V14.4064C80.456 15.5375 80.507 16.6174 80.6596 17.2856H77.2507L76.9961 16.1032H76.9455C76.1312 17.0285 74.9098 17.5427 73.4851 17.5427C70.9924 17.5427 69.5677 15.7946 69.5677 13.8923C69.5677 10.8072 72.3661 9.36752 76.6909 9.36752V9.21322C76.6909 8.59651 76.3348 7.67096 74.4519 7.67096C73.231 7.67096 71.9079 8.0821 71.094 8.545L70.4327 6.17973C71.2466 5.71707 72.9254 5.15139 75.1137 5.15139C79.1839 5.15139 80.456 7.46514 80.456 10.2418ZM76.7925 12.9667V11.6813C74.8083 11.6813 73.282 12.1442 73.282 13.5321C73.282 14.5092 73.8923 14.9719 74.7572 14.9719C75.6734 14.9719 76.4873 14.3551 76.7414 13.5839C76.7925 13.3781 76.7925 13.1723 76.7925 12.9667ZM65.1867 2.1813V5.41789H67.8971V8.14082H65.1867V12.4565C65.1867 13.895 65.5444 14.5627 66.6696 14.5627C67.1808 14.5627 67.4364 14.5115 67.7945 14.46L67.8456 17.2346C67.3341 17.3887 66.414 17.5427 65.3911 17.5427C64.164 17.5427 63.1409 17.1319 62.5271 16.5151C61.8114 15.8472 61.4535 14.6655 61.4535 13.0215V8.14082H59.8681V5.41789H61.4535V3.15713L65.1867 2.1813ZM27.4178 7.58134C30.3729 8.65971 31.6978 10.149 31.6978 12.4595C31.6978 15.232 29.5578 17.5428 24.9724 17.5428C23.0873 17.5428 21.2024 17.0294 20.2342 16.5159L20.9988 13.4864C22.0178 13.9998 23.5968 14.5135 25.2273 14.5135C26.9593 14.5135 27.8763 13.7945 27.8763 12.7161C27.8763 11.7405 27.0614 11.1246 25.0745 10.4571C22.2724 9.48125 20.4383 7.94096 20.4383 5.5789C20.4383 2.75492 22.8327 0.649689 26.7553 0.649689C28.6914 0.649689 30.067 1.00906 31.0352 1.47122L30.2203 4.44926C29.5578 4.14115 28.335 3.67924 26.7047 3.67924C25.0745 3.67924 24.3104 4.39774 24.3104 5.21952C24.3104 6.29789 25.2273 6.7598 27.4178 7.58134ZM11.0212 1.48527C14.3954 1.48527 17.9736 3.39454 18.3315 8.34815V8.8643C17.3601 5.14878 15.0601 3.49758 9.79449 6.33585C9.02792 6.69695 7.54506 7.72899 5.90939 6.85175C5.70481 6.74871 4.73365 6.12905 4.98926 4.94247C5.34715 2.8784 8.10779 1.48527 11.0212 1.48527ZM13.3885 12.956C12.5199 17.4164 0.459603 18.7494 -9.15527e-05 9.26463V8.95678C0.970813 12.6484 3.27052 14.3915 8.58523 11.5715C9.30053 11.1613 10.8334 10.1362 12.4178 11.0078C12.6222 11.1613 13.6443 11.7255 13.3885 12.956ZM0.417454 8.37148C0.417454 3.44079 4.54805 9.91821e-05 9.18863 9.91821e-05C10.6168 9.91821e-05 11.9936 0.41074 13.1664 1.07847C12.4526 0.924415 11.7388 0.821632 11.0249 0.821632C7.65919 0.821632 4.80316 2.51671 4.39523 4.77649C4.14036 5.85486 4.65034 6.83069 5.6703 7.39564C6.18003 7.70374 6.74103 7.8578 7.30203 7.8578C8.37301 7.8578 9.34219 7.29286 9.85192 6.98475C9.95396 6.98475 10.0047 6.93323 10.056 6.88197C11.5854 6.00892 12.9118 5.59802 14.0335 5.59802C16.2773 5.59802 17.7054 7.1388 17.9603 9.50111C17.9603 14.38 13.8297 17.8212 9.18863 17.8212C7.76098 17.8212 6.38412 17.4103 5.2111 16.7428C5.92517 16.9482 6.63898 16.9997 7.35305 16.9997C10.6675 16.9997 13.5238 15.3046 13.9825 13.0448C14.1866 11.9665 13.7276 10.9906 12.7074 10.4257C12.1977 10.1688 11.637 10.0148 11.0757 10.0148C10.0047 10.0148 9.03605 10.5285 8.4748 10.8366C8.42378 10.8878 8.37301 10.8878 8.27096 10.9394C6.12901 12.2743 1.6415 13.7641 0.417454 8.37148Z" fill="#2090CE"/>
</svg>
