<svg id="Build_icon_here" data-name="Build icon here" xmlns="http://www.w3.org/2000/svg" xmlns:xlink="http://www.w3.org/1999/xlink" viewBox="0 0 32 32">
  <defs>
    <linearGradient id="linear-gradient" x1="28.464" y1="18.464" x2="17.536" y2="-0.464" gradientUnits="userSpaceOnUse">
      <stop offset="0.1" stop-opacity="0"/>
      <stop offset="0.5"/>
    </linearGradient>
    <linearGradient id="linear-gradient-2" x1="354.464" y1="-5185.536" x2="343.536" y2="-5204.464" gradientTransform="translate(-340 5218)" xlink:href="#linear-gradient"/>
    <mask id="mask" x="0" y="0" width="32" height="32" maskUnits="userSpaceOnUse">
      <g>
        <path d="M16,30A14,14,0,0,1,12.376,2.477l.518,1.932A12,12,0,0,0,16,28Z" style="fill: #fff"/>
        <path d="M28.119,23a13.961,13.961,0,0,1-8.5,6.526l-.518-1.932A12,12,0,0,0,16,4V2a14,14,0,0,1,12.12,21Z" style="fill: #fff"/>
      </g>
      <rect x="15" y="1" width="16" height="16" style="fill: url(#linear-gradient)"/>
      <rect x="1" y="15" width="16" height="16" transform="translate(18 46) rotate(180)" style="fill: url(#linear-gradient-2)"/>
    </mask>
    <linearGradient id="linear-gradient-3" y1="32" x2="32" gradientUnits="userSpaceOnUse">
      <stop offset="0.1" stop-color="#08bdba"/>
      <stop offset="0.9" stop-color="#0f62fe"/>
    </linearGradient>
  </defs>
  <g>
    <g style="mask: url(#mask)">
      <rect width="32" height="32" style="fill: url(#linear-gradient-3)"/>
    </g>
    <path d="M10,29H8V25.18l.8-.16c1.458-.292,3.2-1.4,3.2-5.02V18.618l-4-2V14.382l4-2V12c0-5.467,3.925-9,10-9h2V6.82l-.8.16C21.738,7.272,20,8.379,20,12v.382l4,2v2.236l-4,2V20C20,25.467,16.075,29,10,29Zm0-2c4.935,0,8-2.682,8-7V17.382L21.764,15.5,18,13.618V12c0-4.578,2.385-6.192,4-6.76V5c-4.935,0-8,2.682-8,7v1.618L10.236,15.5,14,17.382V20c0,4.578-2.385,6.192-4,6.76Z" style="fill: #001d6c"/>
  </g>
</svg>
