<?xml version="1.0" encoding="utf-8"?>
<!-- Generator: Adobe Illustrator 26.3.1, SVG Export Plug-In . SVG Version: 6.00 Build 0)  -->
<svg version="1.1" id="icon" xmlns="http://www.w3.org/2000/svg" xmlns:xlink="http://www.w3.org/1999/xlink" x="0px" y="0px"
	 viewBox="0 0 32 32" style="enable-background:new 0 0 32 32;" xml:space="preserve">
<style type="text/css">
	.st0{fill:#0F62FE;}
	.st1{fill:none;}
</style>
<path class="st0" d="M27,16.8c0-0.2,0-0.5,0-0.8s0-0.5,0-0.8l1.9-1.7c0.7-0.6,0.9-1.7,0.4-2.5l-2.4-4c-0.4-0.6-1-1-1.7-1
	c-0.2,0-0.4,0-0.6,0.1l-2.4,0.8c-0.4-0.3-0.9-0.5-1.3-0.8l-0.5-2.5c-0.2-1-1-1.6-2-1.6h-4.7c-1,0-1.8,0.7-2,1.6l-0.5,2.5
	c-0.5,0.2-0.9,0.5-1.3,0.8L7.4,6.1C7.2,6,7,6,6.8,6C6.1,6,5.4,6.4,5.1,7l-2.4,4c-0.5,0.8-0.3,1.9,0.4,2.5L5,15.2c0,0.2,0,0.5,0,0.8
	s0,0.5,0,0.8l-1.9,1.7c-0.7,0.6-0.9,1.7-0.4,2.5l2.4,4c0.4,0.6,1,1,1.7,1c0.2,0,0.4,0,0.6-0.1l2.4-0.8c0.4,0.3,0.9,0.5,1.3,0.8
	l0.5,2.5c0.2,1,1,1.6,2,1.6h4.7c1,0,1.8-0.7,2-1.6l0.5-2.5c0.5-0.2,0.9-0.5,1.3-0.8l2.4,0.8c0.2,0.1,0.4,0.1,0.6,0.1
	c0.7,0,1.4-0.4,1.7-1l2.3-4c0.5-0.8,0.3-1.9-0.4-2.5L27,16.8z M25.2,24l-3.4-1.2c-0.8,0.7-1.7,1.2-2.7,1.6L18.4,28h-4.7l-0.7-3.5
	c-1-0.4-1.9-0.9-2.7-1.6L6.8,24l-2.4-4l2.7-2.4c-0.2-1-0.2-2.1,0-3.1L4.4,12l2.4-4l3.4,1.2c0.8-0.7,1.7-1.2,2.7-1.6L13.6,4h4.7
	l0.7,3.6c1,0.4,1.9,0.9,2.7,1.6L25.2,8l2.4,4l-2.7,2.4c0.2,1,0.2,2.1,0,3.1l2.7,2.5L25.2,24z"/>
<path class="st0" d="M16,22c-3.3,0-6-2.7-6-6s2.7-6,6-6s6,2.7,6,6c0,3.3-2.6,6-5.9,6C16.1,22,16,22,16,22z M16,12
	c-2.2-0.1-3.9,1.7-4,3.8c0,0.1,0,0.1,0,0.2c-0.1,2.2,1.7,3.9,3.8,4c0.1,0,0.1,0,0.2,0c2.2,0.1,3.9-1.7,4-3.8c0-0.1,0-0.1,0-0.2
	c0.1-2.2-1.7-3.9-3.8-4C16.1,12,16.1,12,16,12z"/>
<rect id="_Transparent_Rectangle_" class="st1" width="32" height="32"/>
</svg>
