<?xml version="1.0" encoding="utf-8"?>
<!-- Generator: Adobe Illustrator 26.3.1, SVG Export Plug-In . SVG Version: 6.00 Build 0)  -->
<svg version="1.1" id="icon" xmlns="http://www.w3.org/2000/svg" xmlns:xlink="http://www.w3.org/1999/xlink" x="0px" y="0px"
	 viewBox="0 0 32 32" style="enable-background:new 0 0 32 32;" xml:space="preserve">
<style type="text/css">
	.st0{fill:#0F62FE;}
	.st1{fill:none;}
</style>
<path class="st0" d="M30,19h-4v-4h-2v9H8V8l9,0V6h-4V2h-2v4H8C6.9,6,6,6.9,6,8v3H2v2h4v6H2v2h4v3c0,1.1,0.9,2,2,2h3v4h2v-4h6v4h2v-4
	h3c1.1,0,2-0.9,2-2v-3h4V19z"/>
<path class="st0" d="M21,21H11V11h10V21z M13,19h6v-6h-6V19z"/>
<path class="st0" d="M31,13h-2c0-5.5-4.5-10-10-10V1C25.6,1,31,6.4,31,13z"/>
<path class="st0" d="M26,13h-2c0-2.8-2.2-5-5-5V6C22.9,6,26,9.1,26,13z"/>
<rect id="_Transparent_Rectangle_" class="st1" width="32" height="32"/>
</svg>
