<?xml version="1.0" encoding="utf-8"?>
<!-- Generator: Adobe Illustrator 24.2.1, SVG Export Plug-In . SVG Version: 6.00 Build 0)  -->
<svg version="1.1" id="Cloud-BackupServiceForVPC_x5F_light"
	 xmlns="http://www.w3.org/2000/svg" xmlns:xlink="http://www.w3.org/1999/xlink" x="0px" y="0px" viewBox="0 0 32 32"
	 style="enable-background:new 0 0 32 32;" xml:space="preserve">
<style type="text/css">
	.st0{fill:#FFFFFF;filter:url(#Adobe_OpacityMaskFilter);}
	.st1{fill:url(#SVGID_1_);}
	.st2{mask:url(#b_1_);}
	.st3{fill:url(#SVGID_2_);}
	.st4{fill:url(#SVGID_3_);}
	.st5{fill:url(#SVGID_4_);}
	.st6{fill:url(#SVGID_5_);}
	.st7{fill:url(#SVGID_6_);}
	.st8{fill:#001D6C;}
</style>
<defs>
	<filter id="Adobe_OpacityMaskFilter" filterUnits="userSpaceOnUse" x="0" y="0" width="32" height="32">
		<feColorMatrix  type="matrix" values="1 0 0 0 0  0 1 0 0 0  0 0 1 0 0  0 0 0 1 0"/>
	</filter>
</defs>
<mask maskUnits="userSpaceOnUse" x="0" y="0" width="32" height="32" id="b_1_">
	<path class="st0" d="M6,20h12v-2H6v-6h18V4c0-1.1-0.9-2-2-2H6C4.9,2,4,2.9,4,4v22c0,1.1,0.9,2,2,2h12v-2H6V20z M6,4h16v6H6V4z"/>
	
		<linearGradient id="SVGID_1_" gradientUnits="userSpaceOnUse" x1="74.5" y1="61" x2="85.5" y2="61" gradientTransform="matrix(1 0 0 -1 -66.5 83.5)">
		<stop  offset="0" style="stop-color:#000000;stop-opacity:0"/>
		<stop  offset="0.7" style="stop-color:#000000"/>
	</linearGradient>
	<rect x="8" y="16" class="st1" width="11" height="13"/>
</mask>
<g class="st2">
	
		<linearGradient id="SVGID_2_" gradientUnits="userSpaceOnUse" x1="-1.818989e-12" y1="2" x2="32" y2="34" gradientTransform="matrix(1 0 0 -1 0 34)">
		<stop  offset="0.1" style="stop-color:#EE5396"/>
		<stop  offset="0.87" style="stop-color:#8A3FFC"/>
		<stop  offset="0.9" style="stop-color:#A56EFF"/>
	</linearGradient>
	<rect class="st3" width="32" height="32"/>
</g>
<linearGradient id="SVGID_3_" gradientUnits="userSpaceOnUse" x1="8" y1="11" x2="10" y2="11" gradientTransform="matrix(1 0 0 -1 0 34)">
	<stop  offset="0.1" style="stop-color:#EE5396"/>
	<stop  offset="0.87" style="stop-color:#8A3FFC"/>
	<stop  offset="0.9" style="stop-color:#A56EFF"/>
</linearGradient>
<circle class="st4" cx="9" cy="23" r="1"/>
<linearGradient id="SVGID_4_" gradientUnits="userSpaceOnUse" x1="8" y1="19" x2="10" y2="19" gradientTransform="matrix(1 0 0 -1 0 34)">
	<stop  offset="0.1" style="stop-color:#EE5396"/>
	<stop  offset="0.87" style="stop-color:#8A3FFC"/>
	<stop  offset="0.9" style="stop-color:#A56EFF"/>
</linearGradient>
<circle class="st5" cx="9" cy="15" r="1"/>
<linearGradient id="SVGID_5_" gradientUnits="userSpaceOnUse" x1="8" y1="27" x2="10" y2="27" gradientTransform="matrix(1 0 0 -1 0 34)">
	<stop  offset="0.1" style="stop-color:#EE5396"/>
	<stop  offset="0.87" style="stop-color:#8A3FFC"/>
	<stop  offset="0.9" style="stop-color:#A56EFF"/>
</linearGradient>
<circle class="st6" cx="9" cy="7" r="1"/>
<linearGradient id="SVGID_6_" gradientUnits="userSpaceOnUse" x1="16" y1="11.5047" x2="30" y2="11.5047" gradientTransform="matrix(1 0 0 -1 0 34)">
	<stop  offset="0.1" style="stop-color:#EE5396"/>
	<stop  offset="0.87" style="stop-color:#8A3FFC"/>
	<stop  offset="0.9" style="stop-color:#A56EFF"/>
</linearGradient>
<path class="st7" d="M30,15h-7v7h2v-3.6c2.5,1.1,3.7,4.1,2.5,6.6c-1.1,2.5-4.1,3.7-6.6,2.5c-2.5-1.1-3.7-4.1-2.5-6.6
	c0.3-0.6,0.6-1.1,1.1-1.5L18,18c-2.8,2.7-2.8,7.1-0.1,9.9s7.1,2.8,9.9,0.1s2.8-7.1,0.1-9.9c-0.4-0.4-0.9-0.8-1.4-1.1H30V15z"/>
<circle class="st8" cx="9" cy="23" r="1"/>
<circle class="st8" cx="9" cy="15" r="1"/>
<circle class="st8" cx="9" cy="7" r="1"/>
<path class="st8" d="M30,15h-7v7h2v-3.6c2.5,1.1,3.7,4.1,2.5,6.6c-1.1,2.5-4.1,3.7-6.6,2.5c-2.5-1.1-3.7-4.1-2.5-6.6
	c0.3-0.6,0.6-1.1,1.1-1.5L18,18c-2.8,2.7-2.8,7.1-0.1,9.9s7.1,2.8,9.9,0.1s2.8-7.1,0.1-9.9c-0.4-0.4-0.9-0.8-1.4-1.1H30V15z"/>
</svg>
