<svg width="32" height="32" viewBox="0 0 32 32" fill="none" xmlns="http://www.w3.org/2000/svg">
<g clip-path="url(#clip0_1653_11547)">
<path d="M32 0H0V32H32V0Z" fill="white" fill-opacity="0.01"/>
<mask id="mask0_1653_11547" style="mask-type:luminance" maskUnits="userSpaceOnUse" x="3" y="3" width="23" height="26">
<path d="M6.99948 11.008L5.27148 10L9.13548 3.496C9.22358 3.34502 9.34972 3.21978 9.50132 3.13275C9.65292 3.04572 9.82469 2.99995 9.99949 3H18.9995V5H10.5735L6.99948 11.008ZM7.72748 21.992L5.99948 23L9.13548 28.504C9.22358 28.655 9.34972 28.7802 9.50132 28.8673C9.65292 28.9543 9.82469 29.0001 9.99949 29H18.9995V27H10.5735L7.72748 21.992ZM18.9995 15H25.9995V17H18.9995V15Z" fill="white"/>
<path d="M18 14H25V19H18V14Z" fill="url(#paint0_linear_1653_11547)"/>
<path d="M3.66992 10.1963L7.25242 3.99121L11.5825 6.49121L8.00005 12.6963L3.66992 10.1963Z" fill="url(#paint1_linear_1653_11547)"/>
<path d="M8.33013 20.001L11.9126 26.206L7.5825 28.706L4 22.501L8.33013 20.001Z" fill="url(#paint2_linear_1653_11547)"/>
</mask>
<g mask="url(#mask0_1653_11547)">
<path d="M0 0H32V32H0V0Z" fill="url(#paint3_linear_1653_11547)"/>
</g>
<path d="M14.6101 13.05C13.8501 11.26 12.0701 10 10.0001 10C7.9301 10 6.1501 11.26 5.3901 13.05C4.39587 13.2054 3.49678 13.73 2.87222 14.519C2.24765 15.3081 1.94353 16.3036 2.02051 17.3069C2.0975 18.3103 2.54994 19.2478 3.28757 19.9323C4.0252 20.6168 4.99379 20.9981 6.0001 21H14.0001C15.0064 20.9981 15.975 20.6168 16.7126 19.9323C17.4502 19.2478 17.9027 18.3103 17.9797 17.3069C18.0567 16.3036 17.7525 15.3081 17.128 14.519C16.5034 13.73 15.6043 13.2054 14.6101 13.05ZM14.0001 19H6.0001C4.9001 19 4.0001 18.1 4.0001 17C4.0001 16.26 4.4101 15.6 5.0201 15.26C5.3101 15.09 5.6401 15 6.0001 15H7.0001C7.0001 14.24 7.2901 13.53 7.7701 13C8.3201 12.39 9.1201 12 10.0001 12C10.8801 12 11.6801 12.39 12.2301 13C12.7101 13.53 13.0001 14.24 13.0001 15H14.0001C14.3601 15 14.6901 15.09 14.9801 15.26C15.5901 15.6 16.0001 16.26 16.0001 17C16.0001 18.1 15.1001 19 14.0001 19ZM25.0001 3H27.0001V5H25.0001V3ZM21.0001 3H23.0001V5H21.0001V3ZM25.0001 27H27.0001V29H25.0001V27ZM28.0001 15H30.0001V17H28.0001V15ZM21.0001 27H23.0001V29H21.0001V27Z" fill="#001D6C"/>
</g>
<defs>
<linearGradient id="paint0_linear_1653_11547" x1="18" y1="16.5" x2="25" y2="16.5" gradientUnits="userSpaceOnUse">
<stop offset="0.2"/>
<stop offset="0.846" stop-opacity="0"/>
</linearGradient>
<linearGradient id="paint1_linear_1653_11547" x1="5.83449" y1="11.4471" x2="9.41649" y2="5.24293" gradientUnits="userSpaceOnUse">
<stop offset="0.2"/>
<stop offset="0.9" stop-opacity="0"/>
</linearGradient>
<linearGradient id="paint2_linear_1653_11547" x1="6.16456" y1="21.2501" x2="9.74656" y2="27.4543" gradientUnits="userSpaceOnUse">
<stop offset="0.2"/>
<stop offset="0.9" stop-opacity="0"/>
</linearGradient>
<linearGradient id="paint3_linear_1653_11547" x1="32" y1="0" x2="0" y2="32" gradientUnits="userSpaceOnUse">
<stop offset="0.1" stop-color="#8A3FFC"/>
<stop offset="0.9" stop-color="#EE5396"/>
</linearGradient>
<clipPath id="clip0_1653_11547">
<rect width="32" height="32" fill="white"/>
</clipPath>
</defs>
</svg>
