<svg xmlns="http://www.w3.org/2000/svg" width="32" height="32"><path d="M15.67 23c-.165 0-.33-.023-.49-.07L1.273 18.904A1.77 1.77 0 0 1 0 17.188l.03-2.98a1.772 1.772 0 0 1 1.312-1.691l13.081-3.458c.287-.077.591-.078.879-.007l7.33 1.8.325-.321c.214-.212.495-.327.794-.327h2.424c.295 0 .585.12.795.327l4.697 4.664c.215.214.333.498.333.8 0 .304-.118.588-.333.8l-3.522 3.497a1.13 1.13 0 0 1-1.589-.001l-.568-.564-9.78 3.19a1.78 1.78 0 0 1-.538.083zM1.055 14.016a.758.758 0 0 0-.029.203l-.03 2.98a.767.767 0 0 0 .553.743l13.907 4.028a.748.748 0 0 0 .449-.006l9.285-3.028-2.753-2.734-6.352 2.114a1.333 1.333 0 0 1-.78.012l-14.25-4.312zm22.064-2.24l-.563.56-.037 2.489 4.739 4.756c.052.05.136.05.187 0l3.521-3.496v-.179l-4.79-4.702H23.75a.133.133 0 0 0-.095.039l-.504.5c-.01.011-.021.023-.033.033zM2.21 13.32l13.378 4.048a.338.338 0 0 0 .19-.004L21.68 15.4a1.133 1.133 0 0 1-.158-.575v-2.4c0-.273.102-.541.282-.746l-6.74-1.656a.77.77 0 0 0-.388.003L2.21 13.32zm11.78 7.513c-.537 0-.973-.481-.973-1.073 0-.591.436-1.073.973-1.073.536 0 .972.482.972 1.073 0 .592-.436 1.073-.972 1.073zm13.442-3.04a.498.498 0 0 1-.35-.143l-1.911-1.882a.502.502 0 0 1-.006-.707.497.497 0 0 1 .705-.007l1.911 1.883a.502.502 0 0 1-.349.857zm1.313-1.276a.498.498 0 0 1-.35-.144l-1.931-1.903a.498.498 0 1 1 .699-.714l1.931 1.904a.502.502 0 0 1-.349.857zm-4.31-2.438a1.025 1.025 0 0 1 0-2.052 1.025 1.025 0 0 1 0 2.052zm0-1.052a.026.026 0 0 0-.026.026l.026-.026z" fill="#69a1d6"/></svg>