<?xml version="1.0" encoding="utf-8"?>
<!-- Generator: Adobe Illustrator 24.2.1, SVG Export Plug-In . SVG Version: 6.00 Build 0)  -->
<svg version="1.1" id="Cloud-VSI_x5F_lighttheme_x5F_Icon"
	 xmlns="http://www.w3.org/2000/svg" xmlns:xlink="http://www.w3.org/1999/xlink" x="0px" y="0px" viewBox="0 0 32 32"
	 style="enable-background:new 0 0 32 32;" xml:space="preserve">
<style type="text/css">
	.st0{fill:#FFFFFF;filter:url(#Adobe_OpacityMaskFilter);}
	.st1{fill:url(#SVGID_1_);}
	.st2{fill:url(#SVGID_2_);}
	.st3{mask:url(#c_1_);}
	.st4{fill:url(#SVGID_3_);}
	.st5{fill:#001D6C;}
</style>
<defs>
	<filter id="Adobe_OpacityMaskFilter" filterUnits="userSpaceOnUse" x="0" y="0" width="32" height="32">
		<feColorMatrix  type="matrix" values="1 0 0 0 0  0 1 0 0 0  0 0 1 0 0  0 0 0 1 0"/>
	</filter>
</defs>
<mask maskUnits="userSpaceOnUse" x="0" y="0" width="32" height="32" id="c_1_">
	<path class="st0" d="M23.8,8.1C23.5,8,23.3,8,23,8v2c0.3,0,0.7,0,1,0.1c2.1,0.6,3.4,2.7,2.9,4.9c-0.5,1.8-2,3-3.9,3H9
		c-2.2,0-4-1.8-4-4c0-1.8,1.2-3.4,3-3.9C8.3,10,8.7,10,9,10h1c0-3.3,2.7-6,6-6V2c-3.7,0-6.9,2.5-7.8,6.1C5,8.5,2.6,11.5,3.1,14.8
		C3.5,17.8,6,20,9,20h14c3.3,0,6-2.7,6-6C29,11,26.7,8.4,23.8,8.1z"/>
	
		<linearGradient id="SVGID_1_" gradientUnits="userSpaceOnUse" x1="20.25" y1="26.25" x2="29.75" y2="16.75" gradientTransform="matrix(1 0 0 -1 0 34)">
		<stop  offset="0.31" style="stop-color:#000000"/>
		<stop  offset="0.66" style="stop-color:#000000;stop-opacity:0"/>
	</linearGradient>
	<rect x="21" y="7" class="st1" width="8" height="11"/>
	
		<linearGradient id="SVGID_2_" gradientUnits="userSpaceOnUse" x1="19.5" y1="16" x2="19.5" y2="32" gradientTransform="matrix(1 0 0 -1 0 34)">
		<stop  offset="0.31" style="stop-color:#FFFFFF;stop-opacity:0"/>
		<stop  offset="0.69" style="stop-color:#FFFFFF"/>
	</linearGradient>
	<path class="st2" d="M16,2l-1,1l1,1c3.3,0,6,2.7,6,6s-2.7,6-6,6v2c4.4,0,8-3.6,8-8S20.4,2,16,2z"/>
</mask>
<g class="st3">
	
		<linearGradient id="SVGID_3_" gradientUnits="userSpaceOnUse" x1="-1160" y1="-1096" x2="-1128" y2="-1064" gradientTransform="matrix(1 0 0 -1 1160 -1064)">
		<stop  offset="0.1" style="stop-color:#EE5396"/>
		<stop  offset="0.9" style="stop-color:#8A3FFC"/>
	</linearGradient>
	<rect class="st4" width="32" height="32"/>
</g>
<circle class="st5" cx="8" cy="26" r="1"/>
<path class="st5" d="M5,30h22c1.1,0,2-0.9,2-2v-4c0-1.1-0.9-2-2-2H5c-1.1,0-2,0.9-2,2v4C3,29.1,3.9,30,5,30z M5,24h22v4H5V24z"/>
</svg>
