<svg version="1.1" id="Load_Balancer_VPC" xmlns="http://www.w3.org/2000/svg" x="0" y="0" viewBox="0 0 32 32" xml:space="preserve" enable-background="new 0 0 32 32"><style>.st1{fill:#fff}</style><defs><filter id="Adobe_OpacityMaskFilter" filterUnits="userSpaceOnUse" x="0" y="0" width="32" height="32.0000229"><feColorMatrix values="1 0 0 0 0 0 1 0 0 0 0 0 1 0 0 0 0 0 1 0"/></filter></defs><mask maskUnits="userSpaceOnUse" x="0" y="0" width="32" height="32.0000229" id="Gradient_Paths_1_"><g filter="url(#Adobe_OpacityMaskFilter)"><path class="st1" d="M28 18v4h-2v-4l-5.0068359-.0029297c-1.6015625 0-3.1074219-.6240234-4.2392578-1.7568359C15.6225586 15.1074219 15 13.6035156 15 12.0039062v-.0048828l2 .0019531v.0029297c0 1.0654297.4150391 2.0683594 1.168457 2.8222656C18.9228516 15.5810547 19.9326172 16 21 16h5c1.1040039 0 2 .8964844 2 2z"/><linearGradient id="SVGID_1_" gradientUnits="userSpaceOnUse" x1="978.9580078" y1="-8583.1953125" x2="987.9580078" y2="-8583.1953125" gradientTransform="rotate(180 500.9790039 -4284.09765625)"><stop offset="0" stop-opacity="0"/><stop offset=".6"/></linearGradient><path fill="url(#SVGID_1_)" d="M23 11h-9v8h9z"/><path class="st1" d="M17 12.0039062c0 1.5996094-.6225586 3.1035156-1.7539062 4.2363281-1.1318359 1.1328125-2.6376953 1.7568359-4.2392578 1.7568359L6 18v4H4v-4c0-1.1035156.8959961-2 2-2h5c1.0673828 0 2.0771484-.4189453 2.831543-1.1738281C14.5849609 14.0722656 15 13.0693359 15 12.0039062v-.0029297l2-.0019531v.0048828z"/><linearGradient id="SVGID_2_" gradientUnits="userSpaceOnUse" x1="16" y1="22" x2="16" y2="12"><stop offset=".2" stop-color="#fff"/><stop offset=".7" stop-color="#fff" stop-opacity="0"/></linearGradient><path fill="url(#SVGID_2_)" d="M15 12h2v10h-2z"/></g></mask><linearGradient id="Gradient_Paths_2_" gradientUnits="userSpaceOnUse" x1="-.0000053" y1="32.0000153" x2="32.0000038" y2=".0000053"><stop offset=".1" stop-color="#ee5396"/><stop offset=".9" stop-color="#8a3ffc"/></linearGradient><path id="Gradient_Paths" mask="url(#Gradient_Paths_1_)" fill="url(#Gradient_Paths_2_)" d="M0 0h32v32.0000229H0z"/><path id="Nodes" d="M8 30H2v-6h6v6zm-4-2h2v-2H4v2zm15 2h-6v-6h6v6zm-4-2h2v-2h-2v2zm15 2h-6v-6h6v6zm-4-2h2v-2h-2v2zM16 10c-2.2055664 0-4-1.7944336-4-4s1.7944336-4 4-4 4 1.7944336 4 4-1.7944336 4-4 4zm0-6c-1.1030273 0-2 .8969727-2 2s.8969727 2 2 2 2-.8969727 2-2-.8969727-2-2-2z" fill="#001d6c"/></svg>