<svg enable-background="new 0 0 32 32" height="32" viewBox="0 0 32 32" width="32" xmlns="http://www.w3.org/2000/svg"><path d="m15.999 21.316.001 7.684 6.724-3.843v-7.685z" fill="#4178be"/><path d="m9.276 17.472v7.685l6.724 3.843-.001-7.684z" fill="#6eedd8"/><path d="m0 12.117v7.685l6.724 3.843-.001-7.684z" fill="#6eedd8"/><path d="m32 12.165v7.685l-6.724 3.843.001-7.683z" fill="#4178be"/><g fill="#5aaafa"><path d="m15.998 6.085 4.026 2.302 2.699-1.543-6.725-3.844-6.723 3.844 2.698 1.542z"/><path d="m15.999 15.865-6.472-3.699 6.471-3.701 6.474 3.701z"/><path d="m25.276 8.322-2.683 1.533 3.994 2.284-4.041 2.309 2.731 1.561 6.723-3.844z"/><path d="m15.999 18.189-3.989-2.279-2.734 1.562 6.723 3.845 6.725-3.845-2.735-1.563z"/><path d="m5.411 12.139 4.037-2.309-2.724-1.556-6.724 3.843 6.723 3.844 2.688-1.536z"/></g></svg>