<svg width="32" height="32" viewBox="0 0 32 32" fill="none" xmlns="http://www.w3.org/2000/svg">
<g clip-path="url(#clip0_1653_11526)">
<path d="M32 0H0V32H32V0Z" fill="white" fill-opacity="0.01"/>
<mask id="mask0_1653_11526" style="mask-type:luminance" maskUnits="userSpaceOnUse" x="2" y="2" width="28" height="28">
<path d="M23.707 22.293L10 8.586V2H2V10H8.586L22.293 23.707L23.707 22.293ZM8 8H4V4H8V8Z" fill="white"/>
<path d="M26.5349 19.4639L19.4638 26.5349L5.46387 12.5349L12.5349 5.46387L26.5349 19.4639Z" fill="url(#paint0_linear_1653_11526)"/>
<path d="M30 30H22V22H30V30ZM24 28H28V24H24V28Z" fill="white"/>
</mask>
<g mask="url(#mask0_1653_11526)">
<path d="M32 0H0V32H32V0Z" fill="url(#paint1_linear_1653_11526)"/>
</g>
<path d="M7.00007 22.1419V12.9999H5.00007V22.1419C4.31768 22.3168 3.6937 22.6691 3.19151 23.1631C2.68932 23.6571 2.3268 24.2752 2.14076 24.9547C1.95471 25.6341 1.95177 26.3507 2.13223 27.0316C2.3127 27.7126 2.67013 28.3336 3.16825 28.8317C3.66637 29.3299 4.28743 29.6873 4.96837 29.8678C5.64931 30.0482 6.36588 30.0453 7.04531 29.8592C7.72474 29.6732 8.34285 29.3107 8.83686 28.8085C9.33088 28.3063 9.68321 27.6823 9.85807 26.9999H19.0001V24.9999H9.85807C9.67837 24.3127 9.3189 23.6857 8.81661 23.1834C8.31431 22.6811 7.68732 22.3216 7.00007 22.1419ZM6.00007 27.9999C5.60451 27.9999 5.21783 27.8826 4.88893 27.6628C4.56003 27.4431 4.30369 27.1307 4.15231 26.7653C4.00094 26.3998 3.96133 25.9977 4.0385 25.6097C4.11567 25.2218 4.30615 24.8654 4.58586 24.5857C4.86556 24.306 5.22193 24.1155 5.60989 24.0383C5.99785 23.9612 6.39999 24.0008 6.76544 24.1522C7.13089 24.3035 7.44325 24.5599 7.66301 24.8888C7.88278 25.2177 8.00007 25.6043 8.00007 25.9999C8.00007 26.5303 7.78936 27.0391 7.41429 27.4141C7.03921 27.7892 6.53051 27.9999 6.00007 27.9999ZM30.0001 5.99991C30.0013 5.02759 29.6476 4.08826 29.0054 3.35822C28.3632 2.62818 27.4766 2.15762 26.5121 2.03488C25.5475 1.91213 24.5714 2.14563 23.7668 2.69155C22.9622 3.23747 22.3845 4.05828 22.1421 4.99991H13.0001V6.99991H22.1421C22.3218 7.68716 22.6813 8.31415 23.1836 8.81644C23.6859 9.31874 24.3129 9.67821 25.0001 9.85791V18.9999H27.0001V9.85791C27.8563 9.63686 28.615 9.13836 29.1578 8.44034C29.7006 7.74232 29.9968 6.88412 30.0001 5.99991ZM26.0001 7.99991C25.6046 7.99991 25.2179 7.88261 24.889 7.66285C24.5601 7.44309 24.3037 7.13073 24.1524 6.76528C24.001 6.39982 23.9614 5.99769 24.0385 5.60973C24.1157 5.22177 24.3062 4.8654 24.5859 4.5857C24.8656 4.30599 25.222 4.11551 25.6099 4.03834C25.9979 3.96117 26.4 4.00078 26.7655 4.15215C27.1309 4.30353 27.4433 4.55987 27.6631 4.88877C27.8828 5.21767 28.0001 5.60435 28.0001 5.99991C28.0001 6.53034 27.7894 7.03905 27.4143 7.41412C27.0393 7.7892 26.5305 7.99991 26.0001 7.99991Z" fill="#001D6C"/>
</g>
<defs>
<linearGradient id="paint0_linear_1653_11526" x1="23.0103" y1="23.0103" x2="9.00964" y2="9.00964" gradientUnits="userSpaceOnUse">
<stop offset="0.05"/>
<stop offset="0.6" stop-opacity="0"/>
</linearGradient>
<linearGradient id="paint1_linear_1653_11526" x1="-2.38419e-07" y1="32" x2="32" y2="-2.38419e-07" gradientUnits="userSpaceOnUse">
<stop offset="0.1" stop-color="#8A3FFC"/>
<stop offset="0.9" stop-color="#EE5396"/>
</linearGradient>
<clipPath id="clip0_1653_11526">
<rect width="32" height="32" fill="white"/>
</clipPath>
</defs>
</svg>
