<?xml version="1.0" encoding="UTF-8"?><svg id="Icon_Foreground" xmlns="http://www.w3.org/2000/svg" xmlns:xlink="http://www.w3.org/1999/xlink" viewBox="0 0 32 32"><defs><style>.cls-1{fill:url(#linear-gradient);}.cls-2{mask:url(#mask);}.cls-3{fill:#001d6c;}.cls-4{fill:#fff;}.cls-5{fill:url(#linear-gradient-2);}</style><linearGradient id="linear-gradient" x1="72.5" y1="-22.5" x2="82.5" y2="-22.5" gradientTransform="translate(-66.5 49.5)" gradientUnits="userSpaceOnUse"><stop offset="0" stop-color="#000" stop-opacity="0"/><stop offset=".7" stop-color="#000"/></linearGradient><mask id="mask" x="0" width="32" height="32" maskUnits="userSpaceOnUse"><g><path class="cls-4" d="M26,4h-4V2h-2v2H12V2h-2v2h-4c-1.1,0-2,.9-2,2V26c0,1.1,.9,2,2,2H16v-2H6V6h4v2h2v-2h8v2h2v-2h4v6h2V6c0-1.1-.9-2-2-2Z"/><g id="Gradients__black_"><rect class="cls-1" x="6" y="25" width="10" height="4"/></g></g></mask><linearGradient id="linear-gradient-2" x1="0" y1="32" x2="32" y2="0" gradientTransform="matrix(1, 0, 0, 1, 0, 0)" gradientUnits="userSpaceOnUse"><stop offset=".1" stop-color="#a56eff"/><stop offset=".9" stop-color="#0f62fe"/></linearGradient></defs><g class="cls-2"><rect id="Color" class="cls-5" x="0" width="32" height="32"/></g><path class="cls-3" d="M21,14c-4.42,0-8,3.58-8,8s3.58,8,8,8c2.12,0,4.16-.84,5.66-2.34,1.5-1.5,2.34-3.54,2.34-5.66,0-4.42-3.58-8-8-8Zm0,14c-3.31,0-6-2.69-6-6s2.69-6,6-6,6,2.69,6,6-2.69,6-6,6Z"/><polygon class="cls-3" points="22.59 25 20 22.41 20 18 22 18 22 21.59 24 23.59 22.59 25"/></svg>