<?xml version="1.0" encoding="utf-8"?>
<!-- Generator: Adobe Illustrator 24.2.1, SVG Export Plug-In . SVG Version: 6.00 Build 0)  -->
<svg version="1.1" id="Cloud-BSS_x5F_icon" xmlns="http://www.w3.org/2000/svg" xmlns:xlink="http://www.w3.org/1999/xlink" x="0px"
	 y="0px" viewBox="0 0 32 32" style="enable-background:new 0 0 32 32;" xml:space="preserve">
<style type="text/css">
	.st0{fill:#FFFFFF;filter:url(#Adobe_OpacityMaskFilter);}
	.st1{fill:url(#SVGID_1_);}
	.st2{mask:url(#b_1_);}
	.st3{fill:url(#SVGID_2_);}
	.st4{fill:#001D6C;}
</style>
<defs>
	<filter id="Adobe_OpacityMaskFilter" filterUnits="userSpaceOnUse" x="0" y="0" width="32" height="32">
		<feColorMatrix  type="matrix" values="1 0 0 0 0  0 1 0 0 0  0 0 1 0 0  0 0 0 1 0"/>
	</filter>
</defs>
<mask maskUnits="userSpaceOnUse" x="0" y="0" width="32" height="32" id="b_1_">
	<path class="st0" d="M28,30H4c-1.1,0-2-0.9-2-2V16h2v12h24V4H12V2h16c1.1,0,2,0.9,2,2v24C30,29.1,29.1,30,28,30z"/>
	
		<linearGradient id="SVGID_1_" gradientUnits="userSpaceOnUse" x1="11" y1="31" x2="25" y2="31" gradientTransform="matrix(1 0 0 -1 0 34)">
		<stop  offset="0.2" style="stop-color:#000000"/>
		<stop  offset="0.9" style="stop-color:#000000;stop-opacity:0"/>
	</linearGradient>
	<rect x="11" y="1" class="st1" width="14" height="4"/>
</mask>
<g class="st2">
	
		<linearGradient id="SVGID_2_" gradientUnits="userSpaceOnUse" x1="-1.818989e-12" y1="2" x2="32" y2="34" gradientTransform="matrix(1 0 0 -1 0 34)">
		<stop  offset="0.1" style="stop-color:#8A3FFC"/>
		<stop  offset="0.9" style="stop-color:#EE5396"/>
	</linearGradient>
	<rect class="st3" width="32" height="32"/>
</g>
<path class="st4" d="M22.5,12.1l-6-3c-0.3-0.1-0.6-0.1-0.9,0l-6,3C9.2,12.3,9,12.6,9,13v7c0,0.4,0.2,0.7,0.6,0.9l6,3
	c0.3,0.1,0.6,0.1,0.9,0l6-3c0.3-0.2,0.5-0.5,0.5-0.9v-7C23,12.6,22.8,12.3,22.5,12.1z M16,11.1l3.8,1.9L16,14.9L12.2,13L16,11.1z
	 M11,14.6l4,2v4.8l-4-2V14.6z M17,21.4v-4.7l4-2v4.8L17,21.4z"/>
<rect y="10" class="st4" width="5" height="2"/>
<rect x="10" class="st4" width="2" height="5"/>
<rect x="3.5" y="2" transform="matrix(0.7071 -0.7071 0.7071 0.7071 -1.8809 4.5319)" class="st4" width="2" height="5"/>
</svg>
