<?xml version="1.0" encoding="utf-8"?>
<!-- Generator: Adobe Illustrator 22.1.0, SVG Export Plug-In . SVG Version: 6.00 Build 0)  -->
<svg version="1.1" id="Layer_1" xmlns="http://www.w3.org/2000/svg" xmlns:xlink="http://www.w3.org/1999/xlink" x="0px" y="0px"
	 width="32px" height="32px" viewBox="0 0 32 32" style="enable-background:new 0 0 32 32;" xml:space="preserve">
<style type="text/css">
	.st0{fill:#69A1D6;}
</style>
<path class="st0" d="M31.3269997,5.54l-7.3880005-3.8570001c-0.3972645-0.2363945-0.8911247-0.240217-1.2919998-0.01
	l-1.7000008,1.0039999L17.1669998,0.18c-0.4174118-0.2413357-0.9323883-0.2394256-1.3479996,0.005L0.711,8.9709997
	c-0.211,0.1230001-0.38,0.3000002-0.503,0.507C0.206,9.4819994,0.202,9.4839993,0.199,9.4879999L0.198,9.4919996
	c-0.1269784,0.2219877-0.1938469,0.4732618-0.194,0.7290001L0,15.4230003c0,0.5220003,0.273,1.0030003,0.714,1.257
	l3.3279998,1.9099998L0.71,20.5259991c-0.2049808,0.1224442-0.3756176,0.2948017-0.496,0.5009995
	c-0.005,0.007-0.011,0.0100002-0.015,0.0160007l-0.002,0.007c-0.1262933,0.2214947-0.192804,0.4720287-0.193,0.7269993L0,26.9790001
	c0,0.5209999,0.273,1.0030003,0.714,1.257l6.1299992,3.5820007C7.0539994,31.9390011,7.2839994,32,7.5159993,32
	c0.23,0,0.4630003-0.0599995,0.6739993-0.1830006l15.1463833-8.6179981
	c0.4379997-0.2539997,0.6549225-0.7339993,0.6549225-1.2539997l0.0071335-4.7543774
	C23.9961472,17.1349773,24,17.1203117,23.9974098,17.0233154l7.2855892-4.2363138
	c0.4160004-0.2329998,0.7049999-0.7600002,0.7049999-1.2790003L32,6.7350001C32,6.2449999,31.7450008,5.79,31.3269997,5.54z
	 M23.1459999,2.615c0.0919247-0.0499504,0.2037067-0.0461221,0.2919998,0.01l6.9780006,3.6240001L24,9.6289997V5.2729998
	c0-0.5219998-0.2749996-1.0039997-0.7159996-1.256l-1.2740002-0.73l1.1359997-0.671V2.615z M7.9973025,19.0052643v-4.5189619
	c0.0299993-0.0139999,0.0629992-0.0209999,0.0919995-0.0380001l14.9186993-8.7896357v4.368
	c-0.0021019,0.1166811-0.0611,0.224968-0.1580009,0.29L7.9973025,19.0052643z M16.3220005,1.125
	c0.1081123-0.0628313,0.2415314-0.0632125,0.3500004-0.001l5.7469997,3.6240001L7.5853038,13.5083027
	c-0.0549555,0.0310659-0.1225128,0.0295305-0.14504,0.0269613l-5.8753033-3.780304l14.75704-8.6309605V1.125z M0.9920635,15.3545542
	v-4.6855545l5.9011989,3.7782631c0.033,0.0209999,0.0700002,0.0299997,0.1098628,0.0480003v4.5100012l-5.7911253-3.2682629
	C1.1006864,15.6720238,0.9922398,15.4834471,0.9920635,15.3545542z M6.839263,20.1442623
	c0.416007,0.2421017,0.8990331,0.2111416,1.3150396-0.0309601l1.8716984-0.8453026l3.9217539,2.2679996L7.6297545,25.184
	c-0.044692,0.0497284-0.150476,0.0470161-0.2327538-0.007L1.534,21.2800007l3.5750003-2.078001L6.839263,20.1442623z
	 M1.2120004,27.2929993c-0.1116217-0.0651569-0.2280523-0.203434-0.2278734-0.3326817l0.0079365-4.7495728l5.8579364,3.8792534
	C6.8979998,26.1199989,6.9499998,26.1359978,7,26.1599979v4.5200005l-5.7869997-3.3869991H1.2120004z M23.0153828,21.9449997
	c0.000288,0.1284924-0.0679302,0.2473984-0.1790009,0.3120003L7.9927535,30.6779995v-4.4960003
	c0.0480008-0.0200005,0.098-0.0330009,0.1430001-0.0599995l7.8702469-4.5359993l6.9920158-3.9761238
	C22.9980164,17.6098766,23.0153847,21.9449997,23.0153828,21.9449997z M30.8368416,11.8052635l-15.2958412,8.8247356
	c-0.0080004,0.0039997-0.0179996,0.0039997-0.026,0.0090008l-0.2200003,0.1289997
	c-0.0900002,0.0319996-0.3649998,0.0720005-0.5200005-0.0079994l-3.6800003-2.1089993l12.1929989-7.368
	c0.0170002-0.0100002,0.0289993-0.0249996,0.0450001-0.0349998l7.6818447-4.1237359l-0.0100002,4.3460011
	C31.0048428,11.6002665,30.9148426,11.7622662,30.8368416,11.8052635z"/>
</svg>
