<svg width="32" height="32" viewBox="0 0 32 32" fill="none" xmlns="http://www.w3.org/2000/svg">
<g clip-path="url(#clip0_1653_11559)">
<path d="M32 0H0V32H32V0Z" fill="white" fill-opacity="0.01"/>
<mask id="mask0_1653_11559" style="mask-type:luminance" maskUnits="userSpaceOnUse" x="4" y="2" width="25" height="29">
<path d="M24 4V18.298C23.9976 19.8773 23.5808 21.4284 22.7911 22.7961C22.0014 24.1638 20.8666 25.3003 19.5 26.092L15 28.69L10.5 26.092C9.13356 25.3002 7.99883 24.1636 7.20917 22.7959C6.4195 21.4283 6.00256 19.8773 6 18.298V4H24ZM24 2H6C5.46957 2 4.96086 2.21071 4.58579 2.58579C4.21071 2.96086 4 3.46957 4 4V18.298C4.00005 20.2289 4.50834 22.1257 5.47379 23.7978C6.43924 25.47 7.82783 26.8586 9.5 27.824L15 30.999L20.5 27.824C22.1723 26.8587 23.561 25.4702 24.5265 23.798C25.4919 22.1258 26.0002 20.2289 26 18.298V4C26 3.46957 25.7893 2.96086 25.4142 2.58579C25.0391 2.21071 24.5304 2 24 2Z" fill="white"/>
<path d="M15 8H29V31H15V8Z" fill="url(#paint0_linear_1653_11559)"/>
</mask>
<g mask="url(#mask0_1653_11559)">
<path d="M32 0H0V32H32V0Z" fill="url(#paint1_linear_1653_11559)"/>
</g>
<path d="M22 12V16H18V12H22ZM24 10H16V18H24V10Z" fill="#001D6C"/>
<path d="M28 14H26V20H20V22H28V14Z" fill="#001D6C"/>
</g>
<defs>
<linearGradient id="paint0_linear_1653_11559" x1="12.75" y1="28.75" x2="31.25" y2="10.25" gradientUnits="userSpaceOnUse">
<stop offset="0.17" stop-opacity="0"/>
<stop offset="0.45"/>
</linearGradient>
<linearGradient id="paint1_linear_1653_11559" x1="32" y1="0" x2="0" y2="32" gradientUnits="userSpaceOnUse">
<stop offset="0.1" stop-color="#8A3FFC"/>
<stop offset="0.9" stop-color="#EE5396"/>
</linearGradient>
<clipPath id="clip0_1653_11559">
<rect width="32" height="32" fill="white"/>
</clipPath>
</defs>
</svg>
