<?xml version="1.0" encoding="utf-8"?>
<!-- Generator: Adobe Illustrator 22.1.0, SVG Export Plug-In . SVG Version: 6.00 Build 0)  -->
<svg version="1.1" id="Layer_1" xmlns="http://www.w3.org/2000/svg" xmlns:xlink="http://www.w3.org/1999/xlink" x="0px" y="0px"
	 width="32px" height="32px" viewBox="0 0 32 32" style="enable-background:new 0 0 32 32;" xml:space="preserve">
<style type="text/css">
	.st0{fill:#69A1D6;}
</style>
<g>
	<polygon class="st0" points="1.2669752,10.9265432 1.266609,10.9264212 1.2659986,10.9265432 	"/>
	<path class="st0" d="M1.266609,10.9264212c0.0613403,0.000061,0.1221313-0.0109253,0.1793823-0.0328979l1.6633301-0.8381958
		c0.269104-0.1077271,0.4034424-0.4100952,0.3030396-0.6820068c-0.098999-0.2739868-0.394043-0.4129639-0.6620483-0.3129883
		L1.0869825,9.8985281c-0.269043,0.1077271-0.4033813,0.4100952-0.3029785,0.6820068
		C0.8557203,10.7861624,1.0488355,10.924468,1.266609,10.9264212z"/>
	<path class="st0" d="M4.070869,8.9738455c0.0924683,0.2459106,0.3668213,0.3703003,0.6126709,0.277771l0.6342773-0.2424927
		C5.3969798,8.98001,5.4845042,8.983367,5.5612254,9.0184622l0.5596313,0.2648926
		c0.0623779,0.029541,0.1305542,0.0447998,0.199585,0.0447388c0.1895142-0.0010376,0.3605347-0.1136475,0.4365234-0.2872314
		c0.1124268-0.2463989,0.0082397-0.5375977-0.2350464-0.6566162L5.963203,8.1193533
		C5.6547313,7.9743948,5.3006053,7.9609671,4.9820018,8.0820608L4.348701,8.3245535
		C4.0977855,8.4250174,3.9724805,8.7070608,4.0661082,8.9606009C4.0676341,8.9650564,4.069221,8.969512,4.070869,8.9738455z"/>
	<path class="st0" d="M7.5755076,10.0399466l1.8699956,0.8859863c0.0668335,0.0320435,0.1399536,0.0487671,0.2139893,0.0490112
		v0.0010376c0.2036743-0.0015259,0.387207-0.1231079,0.4680176-0.3100586
		c0.1199341-0.263916,0.0083008-0.5753174-0.2520142-0.7029419L8.0055008,9.0769339
		C7.9989696,9.0738211,7.9923167,9.0708914,7.9856639,9.0680227C7.7282786,8.959197,7.4314036,9.0795584,7.3225169,9.3369436
		C7.2027049,9.6011648,7.3148265,9.9126883,7.5755076,10.0399466z"/>
	<path class="st0" d="M0.5007171,14.0988455c0.2770386,0,0.4835367-0.2939644,0.4835367-0.5788155l0.0170737-1.9992485
		c0-0.2848511-0.2235718-0.5123291-0.5006104-0.5123291c-0.2770996,0-0.5006714,0.234314-0.5006714,0.519104v2.0560913
		c0,0.0003662,0,0.0007324,0,0.0010986C-0.0036774,13.8649588,0.2204437,14.0951223,0.5007171,14.0988455z"/>
	<path class="st0" d="M8.8642044,11.2638235L8.18116,11.5638113c-0.2636724,0.1205444-0.3837285,0.428894-0.2709966,0.6959839
		c0.0840454,0.2020264,0.2740483,0.3220215,0.4739995,0.3220215c0.069519,0.0001831,0.1383667-0.0140991,0.2020264-0.0419922
		l0.6820068-0.2999878c0.2640991-0.1201782,0.3846436-0.4286499,0.2719727-0.6960449
		c-0.0018311-0.0045776-0.0037231-0.0091553-0.0056763-0.0137329C9.4229202,11.2714529,9.1228104,11.1522512,8.8642044,11.2638235z"
		/>
	<path class="st0" d="M7.5734324,12.5625906c-0.111084-0.2587891-0.4110107-0.37854-0.6697998-0.2674561l-1.2800293,0.5620117
		c-0.0831909,0.0354614-0.177002,0.036499-0.2609863,0.0029907c-0.0032349-0.0012817-0.0064697-0.0025024-0.0097046-0.0036621
		c-0.2653809-0.0976562-0.5596313,0.038269-0.6572876,0.3036499c-0.1052246,0.2700195,0.0232544,0.5747681,0.289978,0.6879883
		c0.0100098,0.0040283,0.0214233,0.0023193,0.0314941,0.0061035v1.5718384c0,0.0003662,0,0.0007324,0,0.0010986
		c-0.0036621,0.288269,0.217041,0.5250244,0.492981,0.5288696v-0.0009766c0.2717896,0,0.4919434-0.2360229,0.4919434-0.5300293
		v-1.5836792c0.0083618-0.003479,0.0172729-0.0045776,0.0255737-0.0082397l1.2800293-0.5619507
		c0.2636719-0.1205444,0.3837891-0.428894,0.2709961-0.6960449C7.5769114,12.5709524,7.5752025,12.566741,7.5734324,12.5625906z"/>
	<path class="st0" d="M7.4595408,18.5274353c-0.1065674-0.2619629-0.4052734-0.3878784-0.6671753-0.281311l-0.7855225,0.3984375
		l-0.0116816-1.7152386c0-0.2930298-0.2142096-0.5278645-0.4911871-0.5278645s-0.4819336,0.225647-0.4819336,0.5186768
		c0,0-0.0029907,2.6282349-0.0028076,2.62854c0.0064087,0.0141602,0.0129395,0.0198975,0.0192871,0.0325928
		c0.0221558,0.1804199,0.1126099,0.3349609,0.2774658,0.4029541c0.1444702,0.0570068,0.3950195,0.0045776,0.5783691-0.1047363
		l1.2850952-0.6503906c0.2659302-0.1159058,0.3917236-0.4220581,0.2841187-0.6914062
		C7.4622874,18.5342712,7.4609447,18.5308533,7.4595408,18.5274353z"/>
	<path class="st0" d="M4.2559886,18.3235779l-1.8239133-1.0409546c-0.00354-0.0019531-0.0070801-0.0038452-0.0106812-0.0057373
		c-0.2501831-0.1293945-0.5579224-0.0314331-0.6873169,0.21875c-0.1359253,0.2563477-0.0449219,0.5742798,0.2059937,0.7199707
		l1.8239746,1.0419312c0.0748291,0.0419312,0.1591797,0.0639648,0.2449949,0.0640259v-0.0009766
		c0.1907349-0.0009766,0.3652344-0.107666,0.4530029-0.2770386C4.5980296,18.785553,4.5059886,18.4635925,4.2559886,18.3235779z"/>
	<path class="st0" d="M3.5686719,13.0785818c0.201416,0.019104,0.3952637-0.0817871,0.4953001-0.2576904
		c0.1469116-0.2515259,0.0671387-0.5771484-0.1761472-0.7262573l-1.7667236-0.7578735
		c-0.0042725-0.0025635-0.0084839-0.0050049-0.0128174-0.0074463c-0.2454834-0.1380615-0.5564575-0.0509644-0.694519,0.194519
		c-0.1462402,0.25-0.0678101,0.5709839,0.1772461,0.7254028l1.7667236,0.7578735
		C3.4218214,13.0464163,3.4939039,13.0708303,3.5686719,13.0785818z"/>
	<path class="st0" d="M1.172256,16.5500183c-0.1027832-0.0571899-0.1668091-0.1668091-0.1668091-0.2851562l-0.0183907-1.1739235
		c0-0.2832031-0.2046928-0.455411-0.4811211-0.455411C0.229568,14.6355276,0,14.8652344,0,15.1484375l0.0000163,1.1203117
		c-0.0024414,0.4932861,0.2690414,0.9452705,0.6989731,1.1871529l0.0349121,0.0194092
		c0.0681763,0.0380249,0.1449585,0.0580444,0.2230225,0.0581665c0.1851807-0.0044556,0.352417-0.1118164,0.4335327-0.2783813
		C1.5214381,17.0058899,1.4147487,16.6858215,1.172256,16.5500183z"/>
	<path class="st0" d="M28.7580643,9.8788748l1.7977905,0.9569702c0.057251,0.0219727,0.118042,0.032959,0.1793213,0.0328979
		c0.2178345-0.0018921,0.4109497-0.1402588,0.482666-0.3458862c0.1004028-0.2718506-0.0339355-0.5742798-0.3030396-0.6820068
		l-1.7977295-0.9569702c-0.2680054-0.1000366-0.5629883,0.0390015-0.6619873,0.3129883
		C28.3546829,9.4687185,28.4890213,9.7711477,28.7580643,9.8788748z"/>
	<polygon class="st0" points="30.7358475,10.868865 30.7351761,10.8687429 30.7348099,10.868865 	"/>
	<path class="st0" d="M21.3537064,10.9183035v-0.0009766c0.0740967-0.0002441,0.1472168-0.0170288,0.2140503-0.0490112
		l2.1689453-0.920166c0.265564-0.1166382,0.3900757-0.4234619,0.2810059-0.6922607
		c-0.0983887-0.2615356-0.3901978-0.3937378-0.6517944-0.2952881c-0.0067749,0.0025024-0.0134888,0.005249-0.0202026,0.0080566
		L21.1377029,9.905303c-0.2602539,0.1276245-0.3718872,0.4390869-0.2519531,0.7030029
		C20.9665604,10.7951956,21.1500931,10.9167776,21.3537064,10.9183035z"/>
	<path class="st0" d="M22.1546707,11.2201834c-0.2562256-0.1168823-0.5587158-0.0039062-0.6756592,0.2523804
		c-0.0020142,0.0045166-0.0040283,0.0090332-0.0059814,0.0136108c-0.118103,0.2650146-0.0039673,0.5758667,0.2575684,0.7014771
		l0.6756592,0.3140259c0.0631104,0.0291748,0.1315918,0.0449219,0.2011108,0.0461426
		c0.1999512,0.0041504,0.392395-0.1119385,0.4805298-0.3121338c0.1182861-0.2647095,0.0046387-0.5755005-0.2565308-0.7014771
		L22.1546707,11.2201834z"/>
	<path class="st0" d="M29.8935013,11.271697c-0.0042725,0.0023804-0.0085449,0.0048828-0.0127563,0.0073853l-2.5438843,1.0563354
		c-0.2432861,0.1491089-0.3230591,0.4747314-0.1761475,0.7262573c0.0999756,0.1759033,0.2938843,0.2767944,0.4953003,0.2576904
		c0.0747681-0.0077515,0.1468506-0.0321655,0.2109375-0.0714722l2.5438843-1.0562744
		c0.2449951-0.15448,0.3234253-0.4754028,0.1771851-0.7254028C30.4499588,11.2206717,30.1389847,11.1335745,29.8935013,11.271697z"
		/>
	<path class="st0" d="M31.0097122,11.4779348v2.0628662c0,0.2848511,0.2207642,0.5152588,0.4942627,0.5152588
		c0.2767334-0.0037231,0.4980469-0.2350464,0.4943237-0.5152588c0-0.0003662,0,0,0,0v-2.0560303
		c0-0.2848511-0.2207642-0.519165-0.4943237-0.519165C31.2304764,10.9656057,31.0097122,11.1930838,31.0097122,11.4779348z"/>
	<path class="st0" d="M28.7391434,17.6842957c-0.0037231,0.0016479-0.0073853,0.0033569-0.0110474,0.0050659l-1.8815918,0.9326782
		c-0.2577515,0.1251831-0.3683472,0.4412842-0.2476807,0.7067261c0.0777588,0.1742554,0.2456665,0.2909546,0.4360962,0.3029785
		l-0.000061,0.0010376c0.0856323,0.0049438,0.1711426-0.012146,0.248291-0.0496216l1.8816528-0.9336548
		c0.2590332-0.1307983,0.3684082-0.4428711,0.2476807-0.7067261C29.2979202,17.6854553,28.9964676,17.5697327,28.7391434,17.6842957
		z"/>
	<path class="st0" d="M23.1060867,14.8041677c-0.131897-0.2463379-0.4385376-0.3391113-0.6848755-0.2072144l-1.4191284,0.762085
		c0-0.4667969-0.1010742-0.6011963-0.1160889-0.6131592c-0.1453857-0.1853638-0.282959-0.3294678-0.5012817-0.4180298
		c0.0350342,0.0079956,0.0690308,0.0220337,0.1069946,0.0220337c0.2850342,0,0.4870167-0.2323856,0.4870167-0.5254154
		c0,0,0-2.191123,0-2.1914892c0.0038452-0.288269-0.1987476-0.5216818-0.4870167-0.525527
		c-0.2849731,0-0.4879761,0.2400513-0.4879761,0.5330811v2.1793213c0.0008545,0.1865234,0.1005859,0.3585815,0.2620239,0.4520264
		l-0.0009155,0.03302c-0.0175781-0.0113525-0.0293579-0.0280762-0.0488281-0.0376587l-4.2079468-2.1385498
		c-0.3308105-0.1564331-0.7112427-0.1708984-1.0529785-0.039978L10.7475052,14.16397
		c0.161438-0.0934448,0.2389526-0.2734985,0.2398071-0.460022v-2.1793213c0-0.2929688-0.1807861-0.5250244-0.4658203-0.5250244
		c-0.288269,0.0037842-0.5158081,0.2436523-0.5119629,0.5319214c0,0.0003662,0,2.1699829,0,2.1699829
		c0,0.2930298,0.2269897,0.5404663,0.5119629,0.5404663c0.0380249,0,0.0720215-0.0140381,0.1069946-0.0220337
		c-0.2182617,0.088562-0.355896,0.232666-0.5012817,0.4180298c-0.0150146,0.0119629-0.1160278,0.1464233-0.1160278,0.6131592
		l-1.4191284-0.762085c-0.2463379-0.131897-0.5529785-0.0391235-0.684937,0.2072144
		c-0.0031128,0.0059204-0.0061646,0.0118408-0.0090332,0.0178223c-0.1324463,0.2583618-0.0360107,0.5752563,0.217957,0.7160034
		l1.8920288,1.0149546v0.4320068l-1.5770264,0.7139893c-0.2627563,0.1235962-0.3796997,0.4337158-0.2639771,0.7000122
		c0.1102295,0.2615967,0.4116821,0.3842773,0.6732788,0.2740479c0.0015869-0.0006714,0.0031738-0.0013428,0.0046997-0.0020142
		l1.1630249-0.5270386v2.1716309c0,0.5119629,0.2719727,0.9819946,0.7319946,1.2390137l4.1464844,2.3812866
		c0.1769409,0.098999,0.3719482,0.1459961,0.5669556,0.1599731c0.0170288,0.0009766,0.0320435,0.0100098,0.0490112,0.0100098
		l0.0120239-0.0029907c0.0119629,0,0.0239868,0.0050049,0.0359497,0.0050049c0.1810303,0,0.3600464-0.0360107,0.5210571-0.1090088
		l4.1224976-2.4442749c0.4990234-0.2299805,0.8040771-0.8312378,0.8007202-1.3806763l-0.0009155-0.5460815
		c0.0045166-0.0046387,0.0113525-0.0115967,0.0113525-0.0115967v-1.3643799l1.1629639,0.5270386
		c0.0015869,0.0006714,0.0031738,0.0013428,0.0047607,0.0020142c0.2615967,0.1102295,0.5629883-0.0124512,0.6732788-0.2740479
		c0.1157227-0.2662964-0.0012207-0.576416-0.2640381-0.7000122l-1.5769653-0.7139893V16.552948l1.8919678-1.0149546
		c0.2539673-0.1407471,0.3504639-0.4576416,0.2180176-0.7160034C23.1122513,14.8160086,23.1092606,14.8100271,23.1060867,14.8041677
		z M11.1783524,20.5036316V20.502655c-0.1064453-0.0599976-0.1975155-0.1637669-0.1973324-0.2859592l-0.0005627-4.4045057
		c0,0,4.0136299,2.1550646,4.027607,2.1600695l0.0014648,4.7841187L11.1783524,20.5036316z M15.3740311,16.9952698
		l-3.8225098-1.9973154l3.770752-1.9769287l0.0020142,0.0009766c0.0853271-0.0326538,0.1803589-0.0290527,0.2630005,0.0100098
		l3.770752,1.9971924l-3.7039795,1.9730844C15.5640335,17.0400085,15.4621048,17.0374451,15.3740311,16.9952698z
		 M20.0117874,20.1029358c0,0.131958-0.1107788,0.3244629-0.2067261,0.3684082l-3.8174438,2.2850342l0.0089054-4.7513809
		c0.0140991-0.0019531,4.0152645-2.1465082,4.0152645-2.1465082V20.1029358z"/>
	<path class="st0" d="M27.3103104,9.280364c0.2459106,0.0925293,0.5202026-0.0318604,0.6126709-0.27771
		c0.0016479-0.0043945,0.0032349-0.0088501,0.0047607-0.0132446c0.093689-0.2536011-0.0316162-0.5356445-0.2825928-0.6361084
		l-0.6333008-0.2424927c-0.3186035-0.1210938-0.6727295-0.107605-0.9812012,0.0372925L25.1057816,8.507659
		c-0.2432861,0.1190796-0.3474731,0.4102173-0.2350464,0.6566162c0.0759277,0.173645,0.2470093,0.2861938,0.4365234,0.2872925
		c0.0690308,0.000061,0.137207-0.0152588,0.199585-0.0447998l0.9257812-0.3595581
		c0.0767822-0.0350952,0.1642456-0.0384521,0.2434692-0.0093384L27.3103104,9.280364z"/>
	<path class="st0" d="M31.5065269,14.5943785c-0.2728882,0-0.4931641,0.230835-0.4931641,0.5140381v1.1153555
		c-0.013855,0.302124-0.3585815,0.4105225-0.460083,0.4677124c-0.2393799,0.1358032-0.3447266,0.4558716-0.2154541,0.7050781
		c0.0801392,0.1665039,0.2452393,0.2739258,0.4280396,0.2783813c0.0771484-0.0001221,0.1528931-0.0201416,0.2202759-0.0581665
		l0.0344849-0.0194092c0.4244385-0.2418823,0.979126-0.5668335,0.9790649-1.3735962v-1.1153555
		C31.999691,14.8252134,31.7794762,14.5943785,31.5065269,14.5943785z"/>
	<path class="st0" d="M25.4780884,16.6906643c-0.2769775,0-0.4995117,0.2369995-0.4995117,0.5300293l0.0152588,1.4035034
		l-0.8735962-0.3331299c-0.2679443-0.090271-0.5583496,0.053772-0.6486206,0.3217773
		c-0.0012207,0.003479-0.0023193,0.006958-0.003418,0.010498c-0.0908813,0.2754517,0.0535278,0.5733032,0.3260498,0.6726685
		l1.3225708,0.5702515c0.1897583,0.0978394,0.4230347,0.1045532,0.5690308,0.0515747
		c0.2061768-0.0784302,0.3146973-0.2868652,0.3022461-0.5239868c-0.000061-0.0213623-0.0280762-2.1845093-0.0280762-2.1845093
		C25.960022,16.9163113,25.7550049,16.6906643,25.4780884,16.6906643z"/>
	<path class="st0" d="M25.6340599,12.7987967c-0.0032349,0.0012207-0.0064697,0.0024414-0.0096436,0.0036621
		c-0.0839844,0.0335693-0.1778564,0.0324707-0.2609863-0.0029907l-1.2800293-0.5620117
		c-0.2588501-0.111084-0.5587158,0.008667-0.6697998,0.2675171c-0.0018311,0.0041504-0.00354,0.0083008-0.005188,0.0125122
		c-0.112793,0.2670898,0.0072632,0.5755005,0.2709961,0.6959839l1.2799683,0.5620117
		c0.0164185,0.0072632,0.0339966,0.0098267,0.0505981,0.0163574v1.5755615c0,0.2940063,0.2201538,0.5299683,0.4919434,0.5299683
		v0.0010376c0.2759399-0.0038452,0.4966431-0.2406616,0.4929199-0.5289307c0-0.0003662,0-0.0007324,0-0.0010986v-1.5765991
		c0.0020752-0.0008545,0.0044556-0.0004272,0.0065308-0.0012817c0.2667847-0.1132202,0.3952637-0.4179688,0.2900391-0.6880493
		C26.1937523,12.8371267,25.8994408,12.7011404,25.6340599,12.7987967z"/>
</g>
</svg>
