<?xml version="1.0" encoding="utf-8"?><svg version="1.1" id="Padding" xmlns="http://www.w3.org/2000/svg" xmlns:xlink="http://www.w3.org/1999/xlink" x="0px" y="0px" viewBox="0 0 32 32" style="enable-background:new 0 0 32 32;" xml:space="preserve"><defs><linearGradient id="a" x1="11.54" y1="29.63" x2="11.54" y2="2.37" gradientUnits="userSpaceOnUse"><stop offset="0" stop-color="#fff" stop-opacity="0"/><stop offset="0.46" stop-color="#fff"/></linearGradient><mask id="b" x="0" y="0" width="32" height="32" maskUnits="userSpaceOnUse"><path d="M13.7,29.63A18.77,18.77,0,0,1,8,16,18.77,18.77,0,0,1,13.7,2.37l1.37,1.46A16.74,16.74,0,0,0,10,16a16.74,16.74,0,0,0,5.07,12.17Z" fill="url(#a)"/><path d="M16,2a14,14,0,0,0,0,28h1V2ZM15,4V15H4.05A12,12,0,0,1,15,4ZM4.05,17H15V28A12,12,0,0,1,4.05,17Z" fill="#fff"/></mask><linearGradient id="c" y1="32" x2="32" gradientUnits="userSpaceOnUse"><stop offset="0.1" stop-color="#ee5396"/><stop offset="0.9" stop-color="#8a3ffc"/></linearGradient></defs><g mask="url(#b)"><rect width="32" height="32" fill="url(#c)"/></g><path d="M29,23H28V21a3,3,0,0,0-6,0v2H21a1,1,0,0,0-1,1v5a1,1,0,0,0,1,1h8a1,1,0,0,0,1-1V24A1,1,0,0,0,29,23Zm-5-2a1,1,0,0,1,2,0v2H24Zm4,7H22V25h6Z" fill="#001d6c"/><circle cx="25" cy="15" r="1" fill="#001d6c"/><circle cx="25" cy="11" r="1" fill="#001d6c"/><path d="M25,8a3,3,0,1,0-3-3A3,3,0,0,0,25,8Zm0-4a1,1,0,1,1-1,1A1,1,0,0,1,25,4Z" fill="#001d6c"/></svg>