<svg version="1.1" id="Block_Storage" xmlns="http://www.w3.org/2000/svg" x="0" y="0" viewBox="0 0 32 32" xml:space="preserve" enable-background="new 0 0 32 32"><defs><filter id="Adobe_OpacityMaskFilter" filterUnits="userSpaceOnUse" x="0" y="0" width="32" height="32"><feColorMatrix values="1 0 0 0 0 0 1 0 0 0 0 0 1 0 0 0 0 0 1 0"/></filter></defs><mask maskUnits="userSpaceOnUse" x="0" y="0" width="32" height="32" id="Gradient_Block_Storage_1_"><g filter="url(#Adobe_OpacityMaskFilter)"><path d="M8 11V9H4c-1.10457 0-2 .89543-2 2v17.00488c0 1.10457.89543 2 2 2h17c1.10457 0 2-.89543 2-2v-9h-2v9H4V11" fill="#fff"/><linearGradient id="SVGID_1_" gradientUnits="userSpaceOnUse" x1="-118.49512" y1="-207.5" x2="-108.49512" y2="-207.5" gradientTransform="rotate(90 -161 -24.5)"><stop offset=".3"/><stop offset="1" stop-opacity="0"/></linearGradient><path fill="url(#SVGID_1_)" d="M20 28.00488v-10h4v10z"/></g></mask><linearGradient id="Gradient_Block_Storage_2_" gradientUnits="userSpaceOnUse" x1="0" y1="32" x2="32" y2="0"><stop offset=".1" stop-color="#ee5396"/><stop offset=".9" stop-color="#8a3ffc"/></linearGradient><path id="Gradient_Block_Storage" mask="url(#Gradient_Block_Storage_1_)" fill="url(#Gradient_Block_Storage_2_)" d="M0 0h32v32H0z"/><path id="Blue_Blocks" d="M19.99902 13h-6.99805C11.89746 13 11 12.10205 11 10.99854V4.00146C11 2.89795 11.89746 2 13.00098 2h6.99805C21.10254 2 22 2.89795 22 4.00146v6.99707C22 12.10205 21.10254 13 19.99902 13zm-6.99804-9L13 10.99854 20 11V4.00146L13.00098 4zm14.99804 17h-2.99805C23.89746 21 23 20.10254 23 18.99902v-2.99756C23 14.89795 23.89746 14 25.00098 14h2.99805C29.10254 14 30 14.89795 30 16.00146v2.99756C30 20.10254 29.10254 21 27.99902 21zm-2.99804-5L25 18.99902 28 19v-2.99854L25.00098 16zm-10.00196 9h-4.99805C8.89746 25 8 24.10254 8 22.99902v-4.99805C8 16.89746 8.89746 16 10.00098 16h4.99805C16.10254 16 17 16.89746 17 18.00098v4.99805C17 24.10254 16.10254 25 14.99902 25zm-4.99804-7L10 22.99902 10.00098 23h4.99805L15 18.00098 10.00098 18z" fill="#001d6c"/></svg>