<svg width="32" height="32" viewBox="0 0 32 32" fill="none" xmlns="http://www.w3.org/2000/svg">
<g clip-path="url(#clip0_1653_11537)">
<path d="M32 0H0V32H32V0Z" fill="white" fill-opacity="0.01"/>
<mask id="mask0_1653_11537" style="mask-type:luminance" maskUnits="userSpaceOnUse" x="1" y="4" width="26" height="26">
<path d="M23.2494 6.3251C21.4697 4.87242 19.2428 4.07903 16.9454 4.0791C12.2584 4.0791 8.06744 7.3981 7.14944 12.1671C5.31283 12.4988 3.66668 13.5054 2.53456 14.9891C1.40243 16.4728 0.866203 18.3263 1.03126 20.1853C1.19631 22.0443 2.05072 23.7743 3.42655 25.0354C4.80238 26.2964 6.60012 26.9972 8.46643 27.0001H13.0014V25.0071H8.47043C7.01619 25.0023 5.62314 24.4213 4.59652 23.3913C3.5699 22.3613 2.99342 20.9664 2.99343 19.5121C2.99682 18.2289 3.44992 16.9875 4.27392 16.0038C5.09793 15.0201 6.2407 14.3564 7.50344 14.1281L8.84743 13.8851L9.10544 12.5431C9.45979 10.7232 10.4353 9.0829 11.8651 7.90258C13.295 6.72227 15.0904 6.07524 16.9444 6.0721C17.4494 6.0721 17.9494 6.1201 18.4514 6.2171C19.7476 6.46319 20.9616 7.02965 21.9828 7.86487C23.004 8.7001 23.8001 9.77755 24.2984 10.9991H26.4294C25.8429 9.16648 24.7385 7.54381 23.2494 6.3251Z" fill="white"/>
<path d="M1 24H15V29.955H1V24Z" fill="url(#paint0_linear_1653_11537)"/>
</mask>
<g mask="url(#mask0_1653_11537)">
<path d="M32 0H0V32H32V0Z" fill="url(#paint1_linear_1653_11537)"/>
</g>
<path d="M27 14C26.4455 14.0013 25.8974 14.1187 25.3909 14.3445C24.8844 14.5702 24.4307 14.8995 24.059 15.311L19.999 12.991C19.994 11.893 19.1 11 18 11C16.9 11 16 11.897 16 13C16 14.103 16.897 15 18 15C18.365 15 18.704 14.895 18.999 14.723L23.118 17.077C23.0425 17.3793 23.0029 17.6894 23 18.001C23 18.323 23.048 18.631 23.12 18.931L19.534 21.001H14.999V27.001H20.999V22.465L24.063 20.696C24.4348 21.1056 24.888 21.4332 25.3935 21.6579C25.899 21.8826 26.4458 21.9995 26.999 22.001C29.205 22.001 30.999 20.207 30.999 18.001C30.999 15.795 29.205 14.001 26.999 14.001L27 14ZM19 25H17V23H19V25ZM27 20C25.897 20 25 19.103 25 18C25 16.897 25.897 16 27 16C28.103 16 29 16.897 29 18C29 19.103 28.103 20 27 20Z" fill="#001D6C"/>
</g>
<defs>
<linearGradient id="paint0_linear_1653_11537" x1="2.897" y1="26.978" x2="16.79" y2="26.978" gradientUnits="userSpaceOnUse">
<stop offset="0.3" stop-opacity="0"/>
<stop offset="0.68"/>
</linearGradient>
<linearGradient id="paint1_linear_1653_11537" x1="32" y1="0" x2="0" y2="32" gradientUnits="userSpaceOnUse">
<stop offset="0.1" stop-color="#8A3FFC"/>
<stop offset="0.9" stop-color="#EE5396"/>
</linearGradient>
<clipPath id="clip0_1653_11537">
<rect width="32" height="32" fill="white"/>
</clipPath>
</defs>
</svg>
