<?xml version="1.0" encoding="UTF-8"?><svg id="Padding" xmlns="http://www.w3.org/2000/svg" xmlns:xlink="http://www.w3.org/1999/xlink" viewBox="0 0 32 32"><defs><style>.cls-1{fill:url(#linear-gradient);}.cls-2{fill:#fff;}</style><linearGradient id="linear-gradient" x1=".78" y1="2.78" x2="31.22" y2="33.22" gradientTransform="translate(0 34) scale(1 -1)" gradientUnits="userSpaceOnUse"><stop offset="0" stop-color="#1c458d"/><stop offset="1" stop-color="#0091da"/></linearGradient></defs><g id="Layer_3"><g><path class="cls-1" d="M29.33,32H2.67c-1.48,0-2.67-1.19-2.67-2.67V2.67C0,1.19,1.19,0,2.67,0H29.33c1.48,0,2.67,1.19,2.67,2.67V29.33c0,1.48-1.19,2.67-2.67,2.67Z"/><g><path class="cls-2" d="M21.79,19.18l-1.7-4.91c-.04-.12-.09-.31-.09-.48,0-.45,.36-.9,.95-.9,.49,0,.82,.31,.96,.76l1.07,3.53,1.09-3.52c.14-.47,.51-.79,1.01-.79h.12c.51,0,.87,.33,1.01,.79l1.1,3.53,1.09-3.56c.13-.42,.43-.76,.95-.76s.92,.42,.92,.91c0,.13-.04,.31-.06,.4l-1.78,4.99c-.2,.61-.61,.88-1.09,.88h-.06c-.48,0-.88-.28-1.07-.84l-1.1-3.5-1.12,3.5c-.18,.57-.59,.84-1.07,.84h-.06c-.47,0-.88-.28-1.08-.88Z"/><path class="cls-2" d="M3.53,13.22c-.22-.5-.78-.72-1.31-.49-.52,.23-.71,.81-.48,1.31l2.19,4.76c.35,.75,.71,1.14,1.39,1.14,.73,0,1.05-.43,1.39-1.14,0,0,1.91-4.16,1.93-4.2,.02-.04,.08-.18,.28-.18,.17,0,.3,.13,.3,.31v4.07c0,.62,.35,1.14,1.01,1.14s1.03-.52,1.03-1.14v-3.32c0-.64,.46-1.06,1.08-1.06s1.04,.43,1.04,1.06v3.32c0,.62,.35,1.14,1.01,1.14s1.03-.52,1.03-1.14v-3.32c0-.64,.46-1.06,1.08-1.06s1.04,.43,1.04,1.06v3.32c0,.62,.35,1.14,1.01,1.14s1.03-.52,1.03-1.14v-3.79c0-1.4-1.12-2.36-2.46-2.36s-2.19,.93-2.19,.93c-.44-.58-1.07-.93-2.11-.93-1.1,0-2.07,.93-2.07,.93-.45-.58-1.21-.93-1.84-.93-.98,0-1.75,.43-2.22,1.51l-1.4,3.3-1.78-4.23"/></g></g></g></svg>